<?xml version="1.0" standalone="no"?>
<!DOCTYPE svg PUBLIC "-//W3C//DTD SVG 20010904//EN"
 "http://www.w3.org/TR/2001/REC-SVG-20010904/DTD/svg10.dtd">
<svg version="1.0" xmlns="http://www.w3.org/2000/svg"
 width="600.000000pt" height="563.000000pt" viewBox="0 0 600.000000 563.000000"
 preserveAspectRatio="xMidYMid meet">
<metadata>
Created by potrace 1.12, written by Peter Selinger 2001-2015
</metadata>
<g transform="translate(0.000000,563.000000) scale(0.100000,-0.100000)"
fill="#000000" stroke="none">
<path d="M1740 5060 l0 -290 130 0 130 0 0 290 0 290 -130 0 -130 0 0 -290z"/>
<path d="M2340 5060 l0 -290 130 0 130 0 0 290 0 290 -130 0 -130 0 0 -290z"/>
<path d="M2910 5060 l0 -290 135 0 135 0 0 290 0 290 -135 0 -135 0 0 -290z"/>
<path d="M3470 5060 l0 -290 130 0 130 0 0 290 0 290 -130 0 -130 0 0 -290z"/>
<path d="M4050 5060 l0 -290 130 0 130 0 0 290 0 290 -130 0 -130 0 0 -290z"/>
<path d="M1556 4518 c-56 -15 -120 -82 -134 -140 -9 -35 -12 -427 -12 -1506 0
-1630 -4 -1529 69 -1595 22 -20 57 -40 78 -46 26 -8 499 -11 1498 -11 l1460 0
52 24 c37 17 60 37 80 68 l28 43 3 1505 2 1504 -25 51 c-26 53 -69 89 -126
105 -48 14 -2921 11 -2973 -2z m2839 -1643 l0 -1370 -1350 0 -1350 0 -3 1360
c-1 748 0 1366 3 1373 3 10 279 12 1352 10 l1348 -3 0 -1370z"/>
<path d="M3552 4098 c-5 -7 -13 -47 -17 -88 -4 -41 -12 -78 -17 -81 -5 -3 -40
-4 -78 -1 l-68 5 -7 -54 c-3 -30 -5 -83 -3 -119 l3 -65 60 -5 c33 -3 66 -9 73
-13 8 -5 12 -34 12 -80 0 -40 4 -78 9 -86 11 -17 185 -29 195 -13 4 6 9 42 13
79 3 37 10 74 16 81 6 7 36 12 84 12 50 0 75 4 78 13 3 6 6 59 7 117 l3 105
-75 5 -75 5 3 74 c5 124 8 121 -107 121 -67 0 -102 -4 -109 -12z"/>
<path d="M2687 3830 c-108 -21 -216 -42 -240 -49 -23 -6 -116 -24 -207 -41
-91 -17 -175 -33 -187 -35 -13 -3 -30 -19 -38 -36 -14 -25 -14 -42 -6 -102 6
-40 27 -217 45 -395 29 -277 37 -326 53 -337 10 -8 23 -13 28 -11 12 3 12 90
2 236 l-8 105 40 -45 c38 -42 223 -261 489 -579 63 -75 118 -144 124 -154 5
-10 12 -131 15 -269 5 -212 9 -253 23 -270 14 -18 19 -19 40 -8 l23 12 -7 222
c-3 121 -3 227 2 234 13 19 955 363 966 352 5 -5 0 -85 -12 -192 -20 -182 -18
-208 13 -208 36 0 43 34 84 400 23 201 46 409 53 463 11 98 11 99 -14 123
l-25 25 -114 -34 c-63 -19 -171 -51 -240 -72 l-126 -38 -64 43 c-144 97 -286
211 -319 255 -19 27 -49 62 -66 79 -50 50 -54 65 -54 208 0 144 -5 159 -49
157 -15 -1 -115 -18 -224 -39z m231 12 c2 -6 -7 -16 -20 -21 -34 -15 -820
-172 -826 -166 -3 3 -14 -3 -25 -12 -18 -17 -19 -17 -16 6 2 13 11 28 19 33
17 10 839 177 854 174 6 -1 12 -8 14 -14z m-13 -151 l0 -99 -75 -21 c-67 -18
-371 -87 -490 -111 -25 -5 -87 -19 -139 -30 -52 -11 -98 -17 -102 -13 -5 5 -9
55 -11 113 l-3 105 110 22 c61 12 187 36 280 53 94 18 224 43 290 55 66 13
125 24 130 24 6 1 10 -38 10 -98z m94 -200 c63 -71 73 -96 44 -105 -196 -58
-810 -207 -827 -200 -17 6 -119 174 -112 182 4 4 788 185 827 191 4 1 34 -30
68 -68z m175 -184 c39 -29 100 -74 137 -99 77 -55 96 -75 82 -89 -5 -5 -138
-47 -296 -93 -158 -47 -291 -88 -297 -91 -8 -5 -9 -70 -4 -226 5 -150 4 -219
-4 -219 -5 0 -50 46 -98 103 -49 56 -163 188 -254 292 -163 186 -216 253 -209
260 10 9 814 212 848 214 14 1 52 -20 95 -52z m775 -71 c10 -11 7 -17 -11 -30
-12 -9 -31 -16 -42 -16 -17 0 -18 -2 -4 -17 14 -16 14 -33 -1 -165 -9 -81 -21
-152 -27 -158 -7 -7 -41 12 -115 66 -57 42 -121 88 -141 103 -21 14 -37 33
-35 41 1 10 45 30 122 55 258 87 181 71 -235 -50 -184 -53 -362 -105 -395
-114 -33 -10 -67 -20 -75 -24 -77 -30 -153 -48 -162 -39 -17 17 -2 40 34 50
87 25 416 122 718 211 184 55 340 100 346 100 6 1 17 -5 23 -13z m-260 -303
c97 -69 179 -131 183 -137 4 -6 4 -14 -1 -19 -4 -4 -228 -86 -496 -183 -438
-156 -491 -173 -504 -159 -13 12 -16 52 -19 213 -2 108 1 203 5 209 9 12 92
39 368 118 72 21 164 48 205 61 41 13 77 23 79 24 1 0 82 -57 180 -127z"/>
<path d="M560 4075 l0 -135 300 0 300 0 0 135 0 135 -300 0 -300 0 0 -135z"/>
<path d="M4960 4060 l0 -130 300 0 300 0 0 130 0 130 -300 0 -300 0 0 -130z"/>
<path d="M560 3475 l0 -135 300 0 300 0 0 135 0 135 -300 0 -300 0 0 -135z"/>
<path d="M4960 3480 l0 -130 300 0 300 0 0 130 0 130 -300 0 -300 0 0 -130z"/>
<path d="M4960 2925 l0 -135 300 0 300 0 0 135 0 135 -300 0 -300 0 0 -135z"/>
<path d="M560 2905 l0 -135 300 0 300 0 0 135 0 135 -300 0 -300 0 0 -135z"/>
<path d="M560 2350 l0 -130 300 0 300 0 0 130 0 130 -300 0 -300 0 0 -130z"/>
<path d="M4960 2350 l0 -130 300 0 300 0 0 130 0 130 -300 0 -300 0 0 -130z"/>
<path d="M560 1770 l0 -130 300 0 300 0 0 130 0 130 -300 0 -300 0 0 -130z"/>
<path d="M4960 1750 l0 -130 300 0 300 0 0 130 0 130 -300 0 -300 0 0 -130z"/>
<path d="M1760 700 l0 -290 130 0 130 0 0 290 0 290 -130 0 -130 0 0 -290z"/>
<path d="M2340 700 l0 -290 130 0 130 0 0 290 0 290 -130 0 -130 0 0 -290z"/>
<path d="M2890 700 l0 -290 135 0 135 0 0 290 0 290 -135 0 -135 0 0 -290z"/>
<path d="M3470 700 l0 -290 130 0 130 0 0 290 0 290 -130 0 -130 0 0 -290z"/>
<path d="M4070 700 l0 -290 130 0 130 0 0 290 0 290 -130 0 -130 0 0 -290z"/>
</g>
</svg>
