<?xml version="1.0" standalone="no"?>
<!DOCTYPE svg PUBLIC "-//W3C//DTD SVG 20010904//EN"
 "http://www.w3.org/TR/2001/REC-SVG-20010904/DTD/svg10.dtd">
<svg version="1.0" xmlns="http://www.w3.org/2000/svg"
 width="600.000000pt" height="563.000000pt" viewBox="0 0 600.000000 563.000000"
 preserveAspectRatio="xMidYMid meet">
<metadata>
Created by potrace 1.11, written by Peter Selinger 2001-2013
</metadata>
<g transform="translate(0.000000,563.000000) scale(0.100000,-0.100000)"
fill="#000000" stroke="none">
<path d="M1740 5060 l0 -290 130 0 130 0 0 290 0 290 -130 0 -130 0 0 -290z"/>
<path d="M2340 5060 l0 -290 130 0 130 0 0 290 0 290 -130 0 -130 0 0 -290z"/>
<path d="M2910 5060 l0 -290 135 0 135 0 0 290 0 290 -135 0 -135 0 0 -290z"/>
<path d="M3470 5060 l0 -290 130 0 130 0 0 290 0 290 -130 0 -130 0 0 -290z"/>
<path d="M4050 5060 l0 -290 130 0 130 0 0 290 0 290 -130 0 -130 0 0 -290z"/>
<path d="M1556 4518 c-56 -15 -120 -82 -134 -140 -9 -35 -12 -427 -12 -1506 0
-1630 -4 -1529 69 -1595 22 -20 57 -40 78 -46 26 -8 499 -11 1498 -11 l1460 0
52 24 c37 17 60 37 80 68 l28 43 3 1505 2 1504 -25 51 c-26 53 -69 89 -126
105 -48 14 -2921 11 -2973 -2z m2839 -1643 l0 -1370 -1350 0 -1350 0 -3 1360
c-1 748 0 1366 3 1373 3 10 279 12 1352 10 l1348 -3 0 -1370z"/>
<path d="M1896 4004 c-8 -20 -8 -2238 0 -2258 4 -12 20 -16 55 -16 l49 0 0 57
c0 45 -5 62 -22 80 -29 31 -29 85 0 116 l22 23 0 869 0 869 -22 23 c-14 15
-22 36 -22 58 0 22 8 43 22 58 17 18 22 35 22 80 l0 57 -49 0 c-35 0 -51 -4
-55 -16z"/>
<path d="M2096 4005 c-14 -37 -6 -99 16 -122 14 -15 22 -36 22 -58 0 -22 -8
-43 -22 -58 l-22 -23 0 -869 0 -869 22 -23 c29 -31 29 -85 0 -116 -16 -17 -22
-36 -22 -68 0 -61 9 -71 61 -67 l44 3 0 1140 0 1140 -46 3 c-36 2 -48 -1 -53
-13z"/>
<path d="M2295 4008 c-3 -7 -4 -521 -3 -1143 l3 -1130 53 -3 52 -3 0 1145 0
1146 -50 0 c-31 0 -52 -5 -55 -12z"/>
<path d="M2495 4008 c-3 -7 -4 -521 -3 -1143 l3 -1130 48 -3 47 -3 0 451 0
450 443 -2 442 -3 5 -445 5 -445 48 -3 c26 -2 47 1 47 5 0 25 0 2251 0 2266 0
24 -85 25 -94 1 -3 -9 -6 -209 -6 -445 l0 -429 -445 0 -445 0 0 445 0 445 -45
0 c-27 0 -48 -5 -50 -12z m985 -1043 l0 -45 -445 0 -445 0 0 45 0 45 445 0
445 0 0 -45z m-2 -187 l3 -38 -445 0 -446 0 0 40 0 40 443 -2 442 -3 3 -37z"/>
<path d="M3682 4008 c-9 -9 -12 -251 -12 -1129 0 -615 3 -1124 6 -1133 5 -12
20 -16 60 -16 l54 0 -2 1143 -3 1142 -45 3 c-26 2 -50 -2 -58 -10z"/>
<path d="M3885 4008 c-3 -7 -4 -521 -3 -1143 l3 -1130 48 -3 47 -3 0 57 c0 46
-5 63 -22 81 -14 15 -22 36 -22 58 0 22 8 43 22 58 l22 23 0 869 0 869 -22 23
c-14 15 -22 36 -22 58 0 22 8 43 22 58 17 18 22 35 22 80 l0 57 -45 0 c-27 0
-48 -5 -50 -12z"/>
<path d="M4077 4014 c-4 -4 -7 -30 -7 -58 0 -37 5 -55 22 -73 14 -15 22 -36
22 -58 0 -22 -8 -43 -22 -58 l-22 -23 0 -869 0 -869 22 -23 c29 -32 29 -85 -1
-116 -18 -20 -22 -34 -19 -78 l3 -54 55 0 55 0 0 1140 0 1140 -50 3 c-28 2
-54 0 -58 -4z"/>
<path d="M560 4075 l0 -135 300 0 300 0 0 135 0 135 -300 0 -300 0 0 -135z"/>
<path d="M4960 4060 l0 -130 300 0 300 0 0 130 0 130 -300 0 -300 0 0 -130z"/>
<path d="M560 3475 l0 -135 300 0 300 0 0 135 0 135 -300 0 -300 0 0 -135z"/>
<path d="M4960 3480 l0 -130 300 0 300 0 0 130 0 130 -300 0 -300 0 0 -130z"/>
<path d="M4960 2925 l0 -135 300 0 300 0 0 135 0 135 -300 0 -300 0 0 -135z"/>
<path d="M560 2905 l0 -135 300 0 300 0 0 135 0 135 -300 0 -300 0 0 -135z"/>
<path d="M560 2350 l0 -130 300 0 300 0 0 130 0 130 -300 0 -300 0 0 -130z"/>
<path d="M4960 2350 l0 -130 300 0 300 0 0 130 0 130 -300 0 -300 0 0 -130z"/>
<path d="M560 1770 l0 -130 300 0 300 0 0 130 0 130 -300 0 -300 0 0 -130z"/>
<path d="M4960 1750 l0 -130 300 0 300 0 0 130 0 130 -300 0 -300 0 0 -130z"/>
<path d="M1760 700 l0 -290 130 0 130 0 0 290 0 290 -130 0 -130 0 0 -290z"/>
<path d="M2340 700 l0 -290 130 0 130 0 0 290 0 290 -130 0 -130 0 0 -290z"/>
<path d="M2890 700 l0 -290 135 0 135 0 0 290 0 290 -135 0 -135 0 0 -290z"/>
<path d="M3470 700 l0 -290 130 0 130 0 0 290 0 290 -130 0 -130 0 0 -290z"/>
<path d="M4070 700 l0 -290 130 0 130 0 0 290 0 290 -130 0 -130 0 0 -290z"/>
</g>
</svg>
