<?xml version="1.0" encoding="UTF-8" standalone="no"?>
<!-- Created with Inkscape (http://www.inkscape.org/) -->

<svg
   xmlns:dc="http://purl.org/dc/elements/1.1/"
   xmlns:cc="http://creativecommons.org/ns#"
   xmlns:rdf="http://www.w3.org/1999/02/22-rdf-syntax-ns#"
   xmlns:svg="http://www.w3.org/2000/svg"
   xmlns="http://www.w3.org/2000/svg"
   xmlns:sodipodi="http://sodipodi.sourceforge.net/DTD/sodipodi-0.dtd"
   xmlns:inkscape="http://www.inkscape.org/namespaces/inkscape"
   width="300pt"
   height="300pt"
   viewBox="0 0 375.00002 375"
   id="svg2"
   version="1.1"
   inkscape:version="0.91 r13725"
   sodipodi:docname="logo2.svg">
  <defs
     id="defs4" />
  <sodipodi:namedview
     id="base"
     pagecolor="#ffffff"
     bordercolor="#666666"
     borderopacity="1.0"
     inkscape:pageopacity="0.0"
     inkscape:pageshadow="2"
     inkscape:zoom="1.4"
     inkscape:cx="418.45596"
     inkscape:cy="195.2369"
     inkscape:document-units="px"
     inkscape:current-layer="layer1"
     showgrid="false"
     inkscape:window-width="1920"
     inkscape:window-height="1056"
     inkscape:window-x="0"
     inkscape:window-y="24"
     inkscape:window-maximized="1"
     units="pt" />
  <metadata
     id="metadata7">
    <rdf:RDF>
      <cc:Work
         rdf:about="">
        <dc:format>image/svg+xml</dc:format>
        <dc:type
           rdf:resource="http://purl.org/dc/dcmitype/StillImage" />
        <dc:title></dc:title>
      </cc:Work>
    </rdf:RDF>
  </metadata>
  <g
     inkscape:label="Layer 1"
     inkscape:groupmode="layer"
     id="layer1"
     transform="translate(0,-677.36221)">
    <path
       style="fill:#000000;fill-opacity:1"
       d="m 65.182222,717.37389 c -14.717214,0.009 -19.032419,0.13124 -19.123093,0.44007 -0.08341,0.28426 -0.154447,6.59026 -0.156189,14.01295 l -0.0017,13.4961 -0.621431,0.21909 c -0.341061,0.12116 -2.981156,0.78634 -5.867029,1.47752 -6.301555,1.50927 -24.342274,7.27128 -28.984555,9.25644 -0.7013296,0.29989 -1.333994,0.60952 -1.8991826,0.90449 -0.9763075,0.47113 -1.5765155,0.84714 -1.6948088,1.10298 -7.293e-4,0.002 -0.00166,0.008 -0.00166,0.009 -6.471e-4,7.6e-4 -0.00332,0.002 -0.00332,0.003 -0.390893,0.84541 -0.6764876,7.43823 -0.538351,12.44368 0.014675,0.53163 0.030188,0.87468 0.044863,1.32021 0.0082,0.29991 0.017856,0.56498 0.028247,0.84269 0.024428,0.64185 0.053617,1.16996 0.081417,1.62169 0.00365,0.0537 0.0055,0.1208 0.00997,0.17229 0.090967,1.37593 0.2061622,1.99173 0.3987786,2.14605 0.1208273,0.0968 3.2665248,-1.09467 6.9919178,-2.64791 8.09037,-3.37308 29.292832,-10.23125 31.721173,-10.26019 0.301604,-0.003 0.333977,0.53538 0.333977,5.56735 0,3.06401 -0.03321,5.56922 -0.07477,5.56922 -0.04157,0 -2.767873,0.65308 -6.05811,1.44942 -9.476061,2.29354 -30.4543584,9.13538 -33.0255115,10.77142 -0.5597742,0.35618 -0.7777929,3.27882 -0.7842645,10.47554 -0.00547,6.51531 0.1139283,8.32276 0.6546615,8.60664 0.017774,0.0193 0.037036,0.06 0.05317,0.06 0.00547,0 0.054278,-0.0213 0.061478,-0.0224 0.021876,0.003 0.039988,0.0224 0.06314,0.0224 0.2042469,0 3.5271865,-1.28683 7.3857105,-2.85952 7.904418,-3.22168 28.982426,-9.90852 31.29581,-9.92872 0.423952,-0.003 0.428687,0.065 0.428687,5.543 0,3.40871 -0.07692,5.64903 -0.19939,5.81268 -0.10957,0.14645 -2.87805,0.90652 -6.152821,1.68911 -11.727289,2.80253 -32.6501875,9.76442 -33.2996707,11.0804 -0.6259304,1.26827 -0.7365834,16.38367 -0.1296031,17.69643 0.020782,0.045 0.061854,0.0763 0.1080026,0.10301 0.052138,0.0976 0.1036896,0.16157 0.141234,0.16105 0.00365,-6e-5 0.3131351,-0.12526 0.3306539,-0.13108 0.8054212,-0.1073 2.6224972,-0.78297 6.6994803,-2.42507 9.353751,-3.76741 31.814027,-10.68171 32.359218,-9.96244 0.192243,0.25366 0.184488,11.17869 -0.0083,11.4362 -0.0834,0.11146 -2.964568,0.86921 -6.402057,1.68538 -7.206055,1.7109 -25.848911,7.44075 -30.4201581,9.34821 -2.6096363,1.08895 -3.144529,1.43576 -3.3397705,2.17226 -0.1610878,0.60769 -0.2326207,3.37274 -0.2326207,9.01113 0,6.70897 0.051033,8.2424 0.2891144,8.75833 0.2578244,0.55886 1.0518029,0.32383 7.4422049,-2.21347 8.519948,-3.38304 29.775503,-9.93434 32.232938,-9.93434 l 0.581553,0 0,12.34631 c 0,6.79024 0.05253,12.6403 0.11631,12.99984 0.105387,0.59402 3.537057,0.64347 37.540017,0.54869 l 37.423708,-0.10301 0.0498,-18.27132 0.0499,-18.2732 0.42702,-0.33707 c 1.84933,-1.45862 53.92297,-1.97886 71.40629,-0.71347 5.14212,0.37216 11.83945,0.85907 14.88275,1.0805 9.42226,0.68551 29.24,3.18225 40.83159,5.14601 21.50888,3.64387 43.77141,9.47727 58.63873,15.36312 5.83471,2.30999 6.95865,2.65162 7.09992,2.15728 0.52831,-1.8488 0.47929,-16.06318 -0.0615,-17.84812 -0.26028,-0.85914 -0.65812,-1.14132 -2.93767,-2.08798 -4.51931,-1.87686 -23.44629,-7.61182 -30.86047,-9.35008 -3.89148,-0.91236 -9.00735,-2.11526 -11.36851,-2.67227 -8.14346,-1.92103 -28.18348,-5.14207 -42.16751,-6.77893 -13.27744,-1.55419 -32.14415,-3.00241 -46.07886,-3.53742 -10.52698,-0.40417 -34.07089,-0.26235 -45.88612,0.27715 -6.13903,0.28032 -11.76381,0.52002 -12.49839,0.52996 l -1.33591,0.0187 -0.0482,-5.56924 c -0.0262,-3.06397 0.0282,-5.82076 0.11963,-6.12727 0.33595,-1.12627 14.32622,-1.76245 39.13845,-1.77526 20.90855,-0.0113 24.33189,0.0845 37.77929,1.05992 21.58862,1.56572 37.95032,3.6329 59.05246,7.46058 14.42476,2.61648 37.94389,9.24774 49.89052,14.06539 6.21423,2.50598 6.60152,2.61431 6.83905,1.92881 0.33839,-0.9766 0.24856,-16.72878 -0.0997,-17.48107 -0.71083,-1.53559 -22.76141,-8.53989 -38.78953,-12.32196 -26.59828,-6.27621 -62.94716,-10.88264 -92.92039,-11.77327 -3.93528,-0.11696 -10.28974,-0.30751 -14.12008,-0.42321 -7.25482,-0.21901 -34.97326,0.43376 -42.26222,0.99437 -2.62326,0.20174 -4.28736,0.17384 -4.43641,-0.073 -0.28864,-0.47826 -0.34089,-11.24892 -0.0565,-11.62908 0.35474,-0.47415 10.05527,-1.04887 24.52821,-1.45317 25.96274,-0.72524 53.18321,0.49445 78.41814,3.51308 12.03593,1.43976 32.49393,4.77283 39.14344,6.37633 1.87368,0.45179 6.58345,1.57434 10.46627,2.49623 9.383,2.22772 25.27278,7.23012 32.72145,10.30137 3.30563,1.36303 6.24877,2.47855 6.53996,2.47937 0.82991,0.002 0.94025,-1.26864 0.86901,-9.99051 -0.0537,-6.57097 -0.1104,-7.82656 -0.38383,-8.41751 -0.477,-1.0309 -4.40918,-2.56679 -16.25521,-6.34262 -42.51016,-13.54981 -100.97817,-20.2872 -157.24502,-18.12527 -7.76563,0.29839 -15.19103,0.54999 -16.50279,0.55992 l -2.38603,0.0187 -0.0532,-5.66099 c -0.0525,-5.60414 -0.0479,-5.6645 0.38217,-5.85386 1.13853,-0.5012 15.44065,-1.12195 30.86712,-1.33894 28.87193,-0.40604 50.25943,0.82987 79.78063,4.60669 8.35304,1.20314 16.60023,2.633 24.5631,4.24152 12.04142,2.51575 24.57443,5.64325 33.63033,8.52612 5.20844,1.65806 11.83804,4.06077 16.80519,6.02989 1.49235,0.62498 2.9081,1.20842 3.92132,1.60672 0.5448,0.23824 1.06884,0.4717 1.47881,0.66854 0.74599,0.35819 0.90912,-0.38162 1.07171,-4.84077 0.13745,-3.77004 0.0149,-9.36835 -0.21268,-12.15904 -0.009,-0.1056 -0.0176,-0.18284 -0.0266,-0.26966 -0.0613,-0.66989 -0.12708,-1.18005 -0.19938,-1.35953 l -0.0615,-0.38577 -1.08999,-0.46815 c -0.88255,-0.45752 -2.44729,-1.08181 -4.41647,-1.80897 -1.06631,-0.39914 -2.27328,-0.82998 -3.63221,-1.29399 -0.0996,-0.0339 -0.17325,-0.0631 -0.27416,-0.0974 -1.12549,-0.38298 -2.60585,-0.8602 -3.9479,-1.29961 -0.10129,-0.0331 -0.20153,-0.0657 -0.30408,-0.0993 -0.009,-0.003 -0.019,-0.006 -0.0282,-0.009 -1.11391,-0.36373 -2.02476,-0.67538 -3.28826,-1.07864 -5.98164,-1.90907 -11.34796,-3.57748 -11.92514,-3.7097 -0.57718,-0.13221 -5.24183,-1.26498 -10.36659,-2.51494 -10.67123,-2.60277 -22.40823,-4.80693 -34.7685,-6.61229 -0.16696,-0.025 -0.31556,-0.0451 -0.48019,-0.0693 -6.9839,-1.01264 -14.1497,-1.90785 -21.47257,-2.64978 -0.0573,-0.005 -0.11221,-0.013 -0.16948,-0.0187 -4.98929,-0.52184 -9.64974,-0.91558 -16.50445,-1.43631 -7.35253,-0.55852 -11.78601,-0.82266 -17.95501,-0.96253 -15.64645,-0.62089 -31.39971,-0.62174 -46.63881,0.0711 -0.59515,0.0271 -0.66158,0.0248 -1.24618,0.0506 -2.65099,0.0789 -5.06151,0.16846 -6.94041,0.27903 -0.009,5.4e-4 -0.0138,0.002 -0.0233,0.002 -1.43909,0.0551 -4.4106,0.19087 -4.7571,0.19288 l -1.71807,0.0131 -0.0947,-8.25459 -0.0964,-8.25271 -37.385492,-0.10481 c -7.445646,-0.0207 -13.506201,-0.0307 -18.411938,-0.0281 l -0.0017,0 z M 186.29625,891.16965 c -11.54212,0 -20.45113,2.71534 -26.72646,8.14598 -6.27534,5.43063 -9.41284,13.13488 -9.41284,23.1121 0,8.2091 2.1305,14.68135 6.38876,19.41738 4.25826,4.67286 11.177,8.14606 20.75809,10.41936 l 5.37853,1.42132 c 9.58109,2.33645 15.77328,4.76805 18.57477,7.29392 2.85751,2.52589 4.28521,6.15525 4.28521,10.89127 0,5.1149 -1.9599,9.09458 -5.88199,11.93619 -3.92208,2.77846 -9.52631,4.16662 -16.81018,4.16662 -5.43489,0 -10.92427,-0.8207 -16.47121,-2.46252 -5.54695,-1.70497 -11.17823,-4.2299 -16.89326,-7.5767 l 0,17.99606 c 6.05122,2.21014 11.79401,3.85154 17.22889,4.92507 5.49092,1.1366 10.75727,1.7059 15.79995,1.7059 12.10243,0 21.5994,-2.87334 28.49106,-8.61971 6.94769,-5.74637 10.42141,-13.54582 10.42141,-23.39674 0,-8.65112 -2.32483,-15.37663 -6.9753,-20.17581 -4.59444,-4.8623 -12.38326,-8.61922 -23.3651,-11.2714 l -5.29379,-1.32582 c -8.2924,-2.08385 -13.81216,-4.26223 -16.55762,-6.5355 -2.74545,-2.33645 -4.11738,-5.52591 -4.11738,-9.56732 0,-5.30433 1.90414,-9.28215 5.71417,-11.93432 3.86605,-2.65217 9.63755,-3.97748 17.31363,-3.97748 5.04268,0 9.91704,0.6303 14.62354,1.89324 4.70651,1.26293 9.24464,3.15758 13.61497,5.68345 l 0,-16.48108 c -4.25827,-1.89441 -8.90793,-3.31492 -13.95061,-4.26211 -5.04268,-0.94722 -10.4222,-1.42135 -16.13724,-1.42135 z m -179.7710308,2.55803 24.6245758,106.0868 18.237473,0 20.339368,-86.95407 20.254629,86.95407 18.237475,0 24.62623,-106.0868 -15.4643,0 -19.246049,82.78557 -19.330788,-82.78557 -18.237473,0 -19.24605,82.78557 -19.330791,-82.78557 -15.4642998,0 z m 232.8883408,0 0,13.92306 56.05663,0 -58.15853,76.25006 0,15.91368 75.55691,0 0,-13.92493 -58.16019,0 58.16019,-76.2482 0,-15.91367 -73.45501,0 z"
       id="path3415"
       inkscape:connector-curvature="0" />
  </g>
</svg>
