<?xml version="1.0" encoding="UTF-8" standalone="no"?>
<!-- Created with Inkscape (http://www.inkscape.org/) -->

<svg
   xmlns:dc="http://purl.org/dc/elements/1.1/"
   xmlns:cc="http://creativecommons.org/ns#"
   xmlns:rdf="http://www.w3.org/1999/02/22-rdf-syntax-ns#"
   xmlns:svg="http://www.w3.org/2000/svg"
   xmlns="http://www.w3.org/2000/svg"
   xmlns:sodipodi="http://sodipodi.sourceforge.net/DTD/sodipodi-0.dtd"
   xmlns:inkscape="http://www.inkscape.org/namespaces/inkscape"
   width="300pt"
   height="300pt"
   viewBox="0 0 375.00002 375"
   id="svg2"
   version="1.1"
   inkscape:version="0.91 r13725"
   sodipodi:docname="logo.svg">
  <defs
     id="defs4" />
  <sodipodi:namedview
     id="base"
     pagecolor="#ffffff"
     bordercolor="#666666"
     borderopacity="1.0"
     inkscape:pageopacity="0.0"
     inkscape:pageshadow="2"
     inkscape:zoom="0.98994949"
     inkscape:cx="454.78259"
     inkscape:cy="120.39749"
     inkscape:document-units="px"
     inkscape:current-layer="layer1"
     showgrid="false"
     inkscape:window-width="1920"
     inkscape:window-height="1056"
     inkscape:window-x="0"
     inkscape:window-y="24"
     inkscape:window-maximized="1"
     units="pt" />
  <metadata
     id="metadata7">
    <rdf:RDF>
      <cc:Work
         rdf:about="">
        <dc:format>image/svg+xml</dc:format>
        <dc:type
           rdf:resource="http://purl.org/dc/dcmitype/StillImage" />
        <dc:title></dc:title>
      </cc:Work>
    </rdf:RDF>
  </metadata>
  <g
     inkscape:label="Layer 1"
     inkscape:groupmode="layer"
     id="layer1"
     transform="translate(0,-677.36221)">
    <path
       style="fill:#000000;fill-opacity:1"
       d="m 70.629197,754.75045 c -17.299562,0.009 -22.372656,0.13666 -22.479241,0.45876 -0.09804,0.29648 -0.18076,6.87356 -0.182807,14.61528 l -0.0032,14.07553 -0.728913,0.22938 c -0.400906,0.12636 -3.504344,0.81958 -6.896585,1.54046 -7.407254,1.57414 -28.613577,7.58384 -34.0704134,9.65433 -0.8243872,0.31278 -1.5692638,0.63461 -2.2336228,0.94226 -1.1476149,0.49139 -1.8520023,0.88456 -1.9910519,1.1514 -8.572e-4,0.002 -0.00214,0.007 -0.00214,0.009 -7.607e-4,7.9e-4 -0.00429,0.004 -0.00429,0.005 -0.4594809,0.88174 -0.7940229,7.75753 -0.6316483,12.97812 0.01725,0.55448 0.035464,0.91162 0.052714,1.37629 0.00964,0.3128 0.020679,0.58965 0.032893,0.87929 0.028714,0.66944 0.06225,1.21997 0.094928,1.69112 0.00429,0.0559 0.00643,0.12621 0.011679,0.17992 0.1069283,1.43506 0.2423458,2.07667 0.4687595,2.23761 0.1420282,0.10099 3.8405793,-1.14158 8.2196459,-2.76159 9.509943,-3.51806 34.432844,-10.66985 37.287272,-10.70003 0.354525,-0.004 0.391414,0.55828 0.391414,5.80653 0,3.19569 -0.039,5.80879 -0.08786,5.80879 -0.04886,0 -3.254027,0.68063 -7.121585,1.51121 -11.138773,2.39211 -35.7966296,9.52889 -38.8189288,11.23526 -0.6579947,0.37148 -0.9158548,3.41886 -0.9234619,10.9249 -0.00643,6.79534 0.1354925,8.68133 0.7711051,8.97741 0.020893,0.0201 0.043178,0.0607 0.062143,0.0607 0.00643,0 0.063,-0.0213 0.071464,-0.0225 0.025714,0.004 0.046607,0.0225 0.073821,0.0225 0.2400851,0 4.146986,-1.3417 8.6825446,-2.98198 9.291362,-3.36015 34.067574,-10.33487 36.786874,-10.35594 0.498341,-0.004 0.503913,0.0684 0.503913,5.78178 0,3.55522 -0.08925,5.89222 -0.233207,6.06289 -0.128796,0.15276 -3.383541,0.94463 -7.232917,1.76086 -13.785012,2.92298 -38.3800937,10.18429 -39.1435381,11.55683 -0.73575882,1.32278 -0.86584062,17.08936 -0.1523568,18.45854 0.024428,0.0469 0.0735,0.0779 0.1277461,0.1057 0.061286,0.10181 0.1222711,0.16919 0.1664032,0.16865 0.00429,-6e-5 0.3672954,-0.13111 0.3878882,-0.13719 0.946744,-0.11193 3.0827813,-0.81502 7.8751298,-2.5277 10.9950026,-3.92934 37.3964176,-11.1421 38.0372696,-10.39191 0.225975,0.26456 0.215914,11.65929 -0.01071,11.92787 -0.09804,0.11628 -3.484052,0.90737 -7.524698,1.75862 -8.470462,1.78444 -30.3846226,7.7593 -35.7579621,9.74874 -3.0675348,1.13575 -3.69516532,1.49871 -3.92466472,2.26686 -0.1893531,0.63381 -0.27421,3.51712 -0.27421,9.39785 0,6.99733 0.06,8.59675 0.3398563,9.13486 0.3030634,0.58287 1.23531102,0.33677 8.74700192,-2.30957 C 19.406546,903.53469 44.392629,896.7024 47.281257,896.7024 l 0.683216,0 0,12.87694 c 0,7.08209 0.06214,13.18325 0.13711,13.55825 0.123878,0.61955 4.158321,0.67232 44.127592,0.57347 l 43.990485,-0.10793 0.0586,-19.05671 0.0586,-19.05902 0.50157,-0.35082 c 2.17382,-1.52131 63.38341,-2.06413 83.93443,-0.74436 6.04438,0.38816 13.91673,0.89571 17.49402,1.12666 11.07554,0.71497 34.37051,3.31983 47.99602,5.368 25.28292,3.80049 51.45234,9.8842 68.92835,16.02303 6.85849,2.40928 8.17898,2.76448 8.34504,2.24889 0.62101,-1.92827 0.56416,-16.75211 -0.0715,-18.61376 -0.30596,-0.89607 -0.77405,-1.19176 -3.45357,-2.17911 -5.31229,-1.95753 -27.55963,-7.93803 -36.27474,-9.75101 -4.5743,-0.95157 -10.58762,-2.20538 -13.36308,-2.78632 -9.57235,-2.00361 -33.12863,-5.36316 -49.56636,-7.07038 -15.60715,-1.62099 -37.78392,-3.13236 -54.16368,-3.69037 -12.37408,-0.42155 -40.05031,-0.27257 -53.9387,0.29011 -7.21621,0.29237 -13.82735,0.54059 -14.69083,0.55096 l -1.57034,0.0202 -0.0563,-5.80878 c -0.0308,-3.19567 0.032,-6.07155 0.13947,-6.39122 0.3949,-1.17468 16.84023,-1.83746 46.00614,-1.85082 24.57726,-0.0118 28.60074,0.0891 44.40768,1.10644 25.37665,1.63302 44.61107,3.78883 69.41588,7.78102 16.9558,2.72893 44.60099,9.64452 58.64382,14.66924 7.30461,2.61369 7.75998,2.72768 8.03918,2.01272 0.39777,-1.01858 0.29217,-17.44905 -0.11719,-18.23367 -0.83555,-1.60159 -26.7555,-8.90754 -45.59598,-12.85216 -31.26533,-6.54598 -73.99257,-11.3498 -109.22504,-12.27871 -4.62578,-0.12198 -12.0939,-0.32013 -16.59633,-0.4408 -8.52779,-0.22842 -41.11094,0.45203 -49.67886,1.03674 -3.08355,0.21041 -5.03856,0.1811 -5.21376,-0.0764 -0.33929,-0.49882 -0.40229,-11.73154 -0.068,-12.12803 0.41698,-0.49453 11.81964,-1.09407 28.83207,-1.51574 30.51828,-0.75641 62.51592,0.51501 92.17869,3.66338 14.14781,1.50164 38.19456,4.97743 46.01083,6.64986 2.20244,0.47121 7.73841,1.64266 12.30253,2.60416 11.02938,2.32347 29.70821,7.54172 38.46385,10.74498 3.88566,1.42161 7.34531,2.58532 7.6876,2.58618 0.97553,0.002 1.10564,-1.32442 1.0219,-10.42116 -0.0631,-6.85339 -0.13094,-8.16315 -0.45235,-8.77951 -0.56071,-1.07521 -5.18195,-2.67574 -19.10653,-6.61386 -49.96919,-14.13218 -118.69584,-21.16092 -184.83553,-18.90606 -9.12822,0.31122 -17.85758,0.57433 -19.39951,0.58469 l -2.80433,0.0202 -0.0621,-5.90549 c -0.0617,-5.84501 -0.0567,-5.90811 0.44883,-6.10561 1.33831,-0.52274 18.14969,-1.17022 36.28295,-1.39653 33.93793,-0.4235 59.07838,0.86662 93.7795,4.80577 9.8187,1.25486 19.51302,2.74583 28.87309,4.42349 14.15426,2.62388 28.88538,5.88517 39.53027,8.89196 6.12234,1.72933 13.91588,4.23626 19.75458,6.29002 1.75421,0.65184 3.41922,1.25997 4.61023,1.6754 0.64039,0.24848 1.25485,0.49183 1.73675,0.69714 0.87689,0.37359 1.06866,-0.39786 1.25978,-5.04866 0.16157,-3.93208 0.0191,-9.77064 -0.24844,-12.68126 -0.01,-0.11016 -0.021,-0.19056 -0.0316,-0.2811 -0.0721,-0.69869 -0.15055,-1.23183 -0.23554,-1.41903 l -0.0715,-0.40255 -1.28205,-0.48799 c -1.03741,-0.47718 -2.87562,-1.12837 -5.19032,-1.88678 -1.25341,-0.4163 -2.673,-0.86535 -4.27037,-1.34931 -0.11703,-0.0354 -0.20365,-0.0655 -0.32227,-0.10123 -1.32297,-0.39944 -3.06317,-0.89775 -4.6407,-1.35604 -0.11906,-0.0346 -0.23571,-0.0685 -0.35625,-0.10346 -0.0109,-0.004 -0.0231,-0.005 -0.034,-0.009 -1.30936,-0.37937 -2.37969,-0.70382 -3.86489,-1.12441 -7.0312,-1.99113 -13.33972,-3.73238 -14.01818,-3.87028 -0.67845,-0.1379 -6.16136,-1.31845 -12.18533,-2.62214 -12.54366,-2.71464 -26.33951,-5.01428 -40.86857,-6.89724 -0.19625,-0.0261 -0.37016,-0.0467 -0.56368,-0.072 -8.20932,-1.05616 -16.63244,-1.99001 -25.24022,-2.76384 -0.0673,-0.005 -0.13306,-0.0142 -0.20038,-0.0202 -5.86473,-0.54428 -11.34322,-0.95463 -19.40069,-1.49774 -8.64263,-0.58252 -13.85433,-0.8571 -21.10577,-1.00299 -18.39186,-0.64758 -36.9081,-0.64848 -54.82112,0.0742 -0.69958,0.0282 -0.77887,0.0247 -1.46604,0.0516 -3.11615,0.0823 -5.94779,0.17703 -8.15637,0.29235 -0.0109,5.7e-4 -0.0171,0.002 -0.0282,0.002 -1.6916,0.0575 -5.18498,0.19805 -5.59227,0.20014 l -2.01918,0.0135 -0.11132,-8.60858 -0.11251,-8.60859 -43.945947,-0.10793 c -8.752092,-0.0216 -15.877159,-0.032 -21.643679,-0.0293 z"
       id="path3415"
       inkscape:connector-curvature="0" />
  </g>
</svg>
