<?xml version="1.0" encoding="utf-8"?>
<!-- Generator: Adobe Illustrator 17.0.0, SVG Export Plug-In . SVG Version: 6.00 Build 0)  -->
<!DOCTYPE svg PUBLIC "-//W3C//DTD SVG 1.1//EN" "http://www.w3.org/Graphics/SVG/1.1/DTD/svg11.dtd">
<svg version="1.1" id="Layer_1" xmlns="http://www.w3.org/2000/svg" xmlns:xlink="http://www.w3.org/1999/xlink" x="0px" y="0px"
	 width="32px" height="32px" viewBox="0 0 32 32" enable-background="new 0 0 32 32" xml:space="preserve">
<g>
	<path d="M12.081,1.355c-0.78-0.78-1.839-1.219-2.943-1.219c-1.103,0-2.162,0.438-2.942,1.219L1.422,6.129
		c-0.78,0.78-1.219,1.839-1.218,2.942c0,1.104,0.438,2.162,1.219,2.942L3.81,14.4L14.468,3.742L12.081,1.355z"/>
	<path d="M17.666,28.258l2.387,2.387c1.625,1.625,4.26,1.625,5.885,0l4.774-4.774c1.626-1.625,1.626-4.26,0.001-5.885l-2.387-2.387
		L17.666,28.258z"/>
	<path d="M30.713,12.015c1.625-1.625,1.625-4.26,0-5.885l-4.774-4.775c-0.78-0.78-1.839-1.219-2.943-1.219
		c-1.104,0-2.162,0.438-2.942,1.219L1.422,19.985c-1.625,1.625-1.625,4.26,0,5.885l4.774,4.774c1.625,1.625,4.26,1.625,5.885,0
		L30.713,12.015z M17.178,16.22c-0.367,0.369-0.963,0.369-1.331,0c-0.368-0.368-0.368-0.964,0-1.332
		c0.368-0.369,0.964-0.369,1.331,0C17.548,15.256,17.548,15.852,17.178,16.22z M17.165,20.826c-0.367,0.367-0.964,0.367-1.332,0
		c-0.368-0.368-0.368-0.965,0-1.333c0.367-0.368,0.964-0.368,1.332,0C17.535,19.861,17.535,20.458,17.165,20.826z M17.278,11.53
		c-0.368,0.368-0.963,0.368-1.332,0c-0.368-0.368-0.368-0.964,0-1.332c0.369-0.37,0.965-0.37,1.332,0
		C17.646,10.565,17.646,11.162,17.278,11.53z M14.882,13.924c-0.367,0.369-0.963,0.369-1.331,0c-0.37-0.368-0.37-0.964,0-1.332
		c0.368-0.369,0.964-0.369,1.331,0C15.25,12.96,15.25,13.556,14.882,13.924z M11.241,14.901c0.369-0.366,0.965-0.366,1.332,0
		c0.369,0.368,0.369,0.965,0,1.333c-0.368,0.367-0.964,0.367-1.332,0C10.873,15.867,10.873,15.269,11.241,14.901z M13.538,18.53
		c-0.369-0.367-0.369-0.964,0-1.332c0.367-0.368,0.964-0.368,1.332,0c0.368,0.368,0.368,0.965,0,1.332
		C14.502,18.897,13.905,18.897,13.538,18.53z M21.87,16.122c-0.368,0.368-0.964,0.368-1.332,0c-0.368-0.369-0.368-0.965,0-1.332
		c0.368-0.368,0.964-0.368,1.332,0C22.238,15.157,22.238,15.753,21.87,16.122z M19.574,13.825c-0.368,0.368-0.964,0.368-1.331,0
		c-0.368-0.368-0.368-0.965,0-1.332c0.367-0.368,0.963-0.368,1.331,0C19.943,12.86,19.943,13.458,19.574,13.825z M18.144,17.185
		c0.367-0.369,0.963-0.369,1.332,0c0.368,0.367,0.368,0.963,0,1.331c-0.369,0.369-0.965,0.369-1.332,0
		C17.774,18.148,17.774,17.552,18.144,17.185z"/>
</g>
</svg>
