<?xml version="1.0" encoding="utf-8"?>
<!-- Generator: Adobe Illustrator 16.0.0, SVG Export Plug-In . SVG Version: 6.00 Build 0)  -->
<!DOCTYPE svg PUBLIC "-//W3C//DTD SVG 1.1//EN" "http://www.w3.org/Graphics/SVG/1.1/DTD/svg11.dtd">
<svg version="1.1" id="Layer_1" xmlns="http://www.w3.org/2000/svg" xmlns:xlink="http://www.w3.org/1999/xlink" x="0px" y="0px"
	 width="96px" height="96px" viewBox="0 0 96 96" enable-background="new 0 0 96 96" xml:space="preserve">
<path d="M64.685,22.333c-0.054-0.029-0.108-0.057-0.164-0.085c-2.696-1.348-6.321-2.075-10.293-2.484
	c0.024-0.204,0.044-0.409,0.07-0.614c0.198-1.795,0.465-3.59,0.737-5.385c0.301-1.795,0.602-3.59,1.028-5.385
	c0.192-0.829,0.209-1.74,0-2.624c-0.725-3.054-3.788-4.942-6.841-4.217c-3.054,0.724-4.942,3.787-4.217,6.841
	c0.425,1.794,0.726,3.59,1.027,5.385c0.272,1.794,0.54,3.59,0.738,5.385c0.007,0.052,0.012,0.105,0.018,0.158
	c-1.968-0.06-3.938-0.091-5.85-0.119c-0.409-0.006-0.807-0.013-1.207-0.019c-0.828-2.135-2.895-3.652-5.323-3.652
	c-3.153,0-9.936,2.558-9.936,5.713v2.907c0,3.154,6.782,5.711,9.936,5.711c1.479,0,2.823-0.567,3.837-1.489
	c0.833,0.016,1.683,0.03,2.558,0.043c2.113,0.031,4.472,0.066,6.828,0.158c0.03,0.453,0.062,0.906,0.089,1.36l0.296,6.049
	c-13.094,5.028-17.085,8.168-16.782,12.846c0.352,5.43,6.473,6.829,14.224,8.6c0.904,0.207,2.095,0.479,3.395,0.799l0.198,6.939
	c-1.585,0.853-3.045,2.028-4.138,3.729c-1.769,2.753-2.183,6.305-1.231,10.558c0.44,1.966,2.108,5.852,5.666-2.885l0.358,17.994
	h1.658l0.426-21.407c1.8-0.538,4.766-0.918,6.186-1.218c3.774-0.799,11.615-2.456,10.436-10.677
	c-0.819-6.815-8.152-9.653-15.932-11.635l0.212-5.559c0.402-0.151,0.803-0.302,1.23-0.46c0.063-0.023,0.128-0.049,0.19-0.075
	c1.246-0.524,2.633-1.058,3.976-1.571c6.707-2.571,13.042-5.001,13.423-10.541C71.863,26.29,66.459,23.313,64.685,22.333z
	 M47.511,48.431c-1.025-0.234-2.24-0.512-3.419-0.803c1.124-0.537,2.556-1.173,4.348-1.908l0.113,2.95
	C48.204,48.59,47.856,48.51,47.511,48.431z M59.142,62.147c-0.808,0.281-2.123,0.559-3.072,0.76c-1.23,0.26-2.618,0.557-4.017,1
	l0.138-4.815C55.351,59.988,58.366,61.073,59.142,62.147z M54.788,33.341c-0.541,0.207-1.09,0.42-1.639,0.633l0.199-4.054
	c0.02-0.326,0.043-0.652,0.063-0.979c2.854,0.292,5.35,0.755,6.913,1.512c0.213,0.119,0.407,0.231,0.584,0.337
	C59.146,31.67,56.563,32.661,54.788,33.341z"/>
</svg>
