<?xml version="1.0" encoding="utf-8"?>
<!-- Generator: Adobe Illustrator 16.0.4, SVG Export Plug-In . SVG Version: 6.00 Build 0)  -->
<!DOCTYPE svg PUBLIC "-//W3C//DTD SVG 1.1//EN" "http://www.w3.org/Graphics/SVG/1.1/DTD/svg11.dtd">
<svg version="1.1" id="Layer_1" xmlns="http://www.w3.org/2000/svg" xmlns:xlink="http://www.w3.org/1999/xlink" x="0px" y="0px"
	 width="45.859px" height="46.457px" viewBox="0 0 45.859 46.457" enable-background="new 0 0 45.859 46.457" xml:space="preserve">
<path d="M41.856,18.254h1.503V14.95H30.073l1.35-2.373l-5.438-3.094L31.377,0l-3.605,1.75L24.01,8.361l-5.55-3.157L2.423,33.396
	l5.284,3.006l-1.449,2.547l-4.23-2.405L0,40.105l11.176,6.352l2.027-3.561L8.06,39.973l1.447-2.547l5.877,3.344l14.6-25.664v3.148
	h1.965l-3.715,5.624v22.55h17.625v-22.57L41.856,18.254z M14.708,38.305l-4.305-2.449l6.49-11.409l3.177,1.806l0.866-1.52
	l-7.483-4.252l-0.866,1.519l2.504,1.424L8.601,34.831l-3.713-2.112L19.136,7.67l9.821,5.585L14.708,38.305z M43.859,44.428H30.234
	V24.479l4.112-6.225h5.052l4.461,6.244V44.428z M31.734,26.053h7.5v16.913h-7.5V26.053z M14.055,19.457l5.674-9.979l7.48,4.255
	l-1.191,2.099l-1.853-1.054l-0.559,0.981l1.852,1.055l-1.788,3.141l-1.776-1.01l-0.561,0.981l1.778,1.012l-1.577,2.773
	L14.055,19.457z M16.553,27.985l1.809,1.028l-0.559,0.982l-1.809-1.029L16.553,27.985z M14.536,31.764l1.809,1.029l-0.559,0.981
	l-1.809-1.03L14.536,31.764z"/>
</svg>
