<?xml version="1.0" encoding="utf-8"?>
<!-- Generator: Adobe Illustrator 17.0.0, SVG Export Plug-In . SVG Version: 6.00 Build 0)  -->
<!DOCTYPE svg PUBLIC "-//W3C//DTD SVG 1.1//EN" "http://www.w3.org/Graphics/SVG/1.1/DTD/svg11.dtd">
<svg version="1.1" id="Layer_1" xmlns="http://www.w3.org/2000/svg" xmlns:xlink="http://www.w3.org/1999/xlink" x="0px" y="0px"
	 width="32px" height="32px" viewBox="0 0 32 32" enable-background="new 0 0 32 32" xml:space="preserve">
<g>
	<path d="M7.078,0.163c-1.477,0-2.674,1.196-2.674,2.674v26.265c0,1.477,1.197,2.675,2.674,2.675h20.087
		c1.477,0,2.674-1.197,2.674-2.675V2.837c0-1.477-1.197-2.674-2.674-2.674H7.078z M12.273,27.81c-1.854,0-3.358-1.497-3.358-3.346
		c0-1.846,1.504-3.345,3.358-3.345c1.856,0,3.36,1.499,3.36,3.345C15.634,26.312,14.13,27.81,12.273,27.81z M12.273,18.954
		c-1.854,0-3.358-1.498-3.358-3.344c0-1.847,1.504-3.346,3.358-3.346c1.856,0,3.36,1.499,3.36,3.346
		C15.634,17.456,14.13,18.954,12.273,18.954z M12.273,10.101c-1.854,0-3.358-1.498-3.358-3.346c0-1.846,1.504-3.343,3.358-3.343
		c1.856,0,3.36,1.497,3.36,3.343C15.634,8.602,14.13,10.101,12.273,10.101z M22.436,27.81c-1.855,0-3.358-1.497-3.358-3.346
		c0-1.846,1.504-3.345,3.358-3.345c1.856,0,3.359,1.499,3.359,3.345C25.795,26.312,24.292,27.81,22.436,27.81z M22.436,18.954
		c-1.855,0-3.358-1.498-3.358-3.344c0-1.847,1.504-3.346,3.358-3.346c1.856,0,3.359,1.499,3.359,3.346
		C25.795,17.456,24.292,18.954,22.436,18.954z M22.436,10.101c-1.855,0-3.358-1.498-3.358-3.346c0-1.846,1.504-3.343,3.358-3.343
		c1.856,0,3.359,1.497,3.359,3.343C25.795,8.602,24.292,10.101,22.436,10.101z"/>
	<path d="M13.956,6.767c0,0.007,0,0.698-0.496,1.178c-0.231,0.222-0.625,0.487-1.187,0.487c-0.36,0-0.652,0.293-0.652,0.654
		c0,0.361,0.292,0.653,0.652,0.653c0.999,0,1.69-0.464,2.095-0.856c0.917-0.887,0.896-2.096,0.893-2.145
		c-0.009-0.361-0.354-0.662-0.664-0.633C14.239,6.112,13.953,6.409,13.956,6.767z"/>
	<circle cx="10.774" cy="8.504" r="0.715"/>
	<path d="M24.118,6.767c0,0.007,0,0.698-0.495,1.178c-0.232,0.222-0.625,0.487-1.187,0.487c-0.36,0-0.654,0.293-0.654,0.654
		c0,0.361,0.294,0.653,0.654,0.653c0.999,0,1.69-0.464,2.095-0.856c0.917-0.887,0.896-2.096,0.893-2.145
		c-0.01-0.361-0.355-0.662-0.665-0.633C24.401,6.112,24.115,6.409,24.118,6.767z"/>
	<circle cx="20.937" cy="8.504" r="0.715"/>
	<path d="M13.956,15.622c0,0.007,0,0.699-0.496,1.178c-0.231,0.223-0.625,0.486-1.187,0.486c-0.36,0-0.652,0.294-0.652,0.656
		c0,0.36,0.292,0.653,0.652,0.653c0.999,0,1.69-0.466,2.095-0.856c0.917-0.888,0.896-2.096,0.893-2.146
		c-0.009-0.358-0.354-0.633-0.664-0.633C14.239,14.967,13.953,15.263,13.956,15.622z"/>
	<circle cx="10.774" cy="17.358" r="0.714"/>
	<path d="M24.118,15.622c0,0.007,0,0.699-0.495,1.178c-0.232,0.223-0.625,0.486-1.187,0.486c-0.36,0-0.654,0.294-0.654,0.656
		c0,0.36,0.294,0.653,0.654,0.653c0.999,0,1.69-0.466,2.095-0.856c0.917-0.888,0.896-2.096,0.893-2.146
		c-0.01-0.358-0.355-0.633-0.665-0.633C24.401,14.967,24.115,15.263,24.118,15.622z"/>
	<circle cx="20.937" cy="17.358" r="0.714"/>
	<path d="M13.956,24.477c0,0.008,0,0.7-0.496,1.179c-0.231,0.222-0.625,0.488-1.187,0.488c-0.36,0-0.652,0.291-0.652,0.653
		c0,0.359,0.292,0.651,0.652,0.651c0.999,0,1.69-0.463,2.095-0.854c0.917-0.886,0.896-2.095,0.893-2.146
		c-0.009-0.361-0.354-0.653-0.664-0.633C14.239,23.822,13.953,24.118,13.956,24.477z"/>
	<circle cx="10.774" cy="26.213" r="0.714"/>
	<path d="M24.118,24.477c0,0.008,0,0.7-0.495,1.179c-0.232,0.222-0.625,0.488-1.187,0.488c-0.36,0-0.654,0.291-0.654,0.653
		c0,0.359,0.294,0.651,0.654,0.651c0.999,0,1.69-0.463,2.095-0.854c0.917-0.886,0.896-2.095,0.893-2.146
		c-0.01-0.361-0.355-0.653-0.665-0.633C24.401,23.822,24.115,24.118,24.118,24.477z"/>
	<circle cx="20.937" cy="26.213" r="0.714"/>
</g>
</svg>
