<?xml version="1.0" encoding="utf-8"?>
<!-- Generator: Adobe Illustrator 16.0.4, SVG Export Plug-In . SVG Version: 6.00 Build 0)  -->
<!DOCTYPE svg PUBLIC "-//W3C//DTD SVG 1.1//EN" "http://www.w3.org/Graphics/SVG/1.1/DTD/svg11.dtd">
<svg version="1.1" id="Layer_1" xmlns="http://www.w3.org/2000/svg" xmlns:xlink="http://www.w3.org/1999/xlink" x="0px" y="0px"
	 width="50px" height="50px" viewBox="0 0 50 50" enable-background="new 0 0 50 50" xml:space="preserve">
<g>
	<path d="M33.831,15.757c-1.213-2.623-3.615-3.966-5.459-4.347c-4.445-0.922-7.826-0.309-10.059,1.811
		c-3.784,3.594-2.829,10.145-2.786,10.422c0.042,0.273,0.303,0.463,0.568,0.418c0.273-0.042,0.461-0.297,0.419-0.569
		c-0.01-0.063-0.916-6.317,2.49-9.548c1.982-1.879,5.067-2.402,9.164-1.555c1.605,0.332,3.697,1.502,4.754,3.788
		c1.333,2.885,0.675,6.898-1.903,11.607c-0.704,1.288-0.97,2.362-1.249,3.501c-0.31,1.262-0.659,2.691-1.696,4.766
		c-0.613,1.227-2.707,2.082-4.774,1.94c-0.957-0.063-3.27-0.462-4.094-2.841c-0.964-1.69-2.188-4.787-1.364-5.897
		c0.475-0.642,1.66-0.528,2.551-0.331c0.216,0.131,0.476,1.109,0.631,1.696c0.37,1.399,0.809,2.97,1.953,2.884
		c0.071,0.004,1.761,0.143,2.438-1.001c0.535-0.903,0.251-2.207-0.866-3.978c0.874-0.84,3.103-3.278,2.048-5.427
		c-0.328-0.67-1.388-1.603-2.727-1.603h-0.036c-0.756,0.01-1.772,0.33-2.661,1.656c-0.397-1.219-0.889-3.333-0.187-4.924
		c0.396-0.9,1.112-1.506,2.188-1.851c0.8-0.26,3.481-0.515,5.042,0.934c1.271,1.178,1.567,3.229,0.881,6.099
		c-0.063,0.27,0.103,0.538,0.37,0.604c0.271,0.067,0.538-0.104,0.604-0.37c0.775-3.246,0.382-5.623-1.173-7.064
		c-2.056-1.904-5.277-1.393-6.028-1.153c-1.347,0.433-2.289,1.241-2.801,2.402c-1.223,2.771,0.487,6.561,0.562,6.72
		c0.081,0.178,0.259,0.292,0.454,0.292s0.373-0.114,0.454-0.291c0.611-1.331,1.408-2.04,2.307-2.052h0.022
		c0.85,0,1.62,0.613,1.83,1.042c0.771,1.571-1.272,3.799-2.125,4.524c-0.193,0.164-0.232,0.447-0.091,0.658
		c1.389,2.07,1.268,2.938,1.071,3.271c-0.349,0.592-1.476,0.516-1.573,0.516c-0.419-0.008-0.774-1.328-0.991-2.145
		c-0.317-1.199-0.592-2.235-1.356-2.407c-1.747-0.396-2.957-0.157-3.594,0.704c-1.475,1.992,1.011,6.482,1.261,6.902
		c0.69,2.016,2.489,3.264,4.936,3.428c0.178,0.013,0.354,0.019,0.529,0.018c2.319,0,4.456-1.01,5.205-2.508
		c1.087-2.176,1.452-3.662,1.774-4.975c0.273-1.119,0.512-2.086,1.154-3.26C34.673,23.196,35.323,18.988,33.831,15.757z"/>
</g>
</svg>
