<?xml version="1.0" encoding="iso-8859-1"?>
<!-- Generator: Adobe Illustrator 17.0.0, SVG Export Plug-In . SVG Version: 6.00 Build 0)  -->
<!DOCTYPE svg PUBLIC "-//W3C//DTD SVG 1.1//EN" "http://www.w3.org/Graphics/SVG/1.1/DTD/svg11.dtd">
<svg version="1.1" id="Capa_1" xmlns="http://www.w3.org/2000/svg" xmlns:xlink="http://www.w3.org/1999/xlink" x="0px" y="0px"
	 width="64px" height="64px" viewBox="0 0 64 64" style="enable-background:new 0 0 64 64;" xml:space="preserve">
<g>
	<path d="M46.498,35.052c0.292,0.783,1.039,1.302,1.874,1.302h8.795c1.104,0,2-0.896,2-2s-0.896-2-2-2h-7.406l-3.985-10.695
		c-0.285-0.766-1.009-1.281-1.826-1.301c-0.822-0.017-1.564,0.461-1.886,1.211l-3.597,8.39l-4.653-17.344
		c-0.241-0.901-1.082-1.52-2.004-1.48c-0.931,0.033-1.716,0.705-1.892,1.62l-5.567,28.909L20.405,26.06
		c-0.215-0.848-0.955-1.458-1.828-1.507c-0.879-0.038-1.677,0.477-1.984,1.295l-2.867,7.645H6.167c-1.105,0-2,0.896-2,2s0.895,2,2,2
		h8.944c0.834,0,1.58-0.517,1.873-1.298l1.109-2.958l4.581,18.121c0.226,0.89,1.026,1.51,1.938,1.51c0.02,0,0.039,0,0.059-0.001
		c0.937-0.027,1.729-0.701,1.906-1.621l5.624-29.201L36.1,36.57c0.221,0.823,0.938,1.416,1.789,1.477
		c0.837,0.055,1.645-0.424,1.98-1.207l3.902-9.104L46.498,35.052z"/>
</g>
</svg>
