<?xml version="1.0" encoding="utf-8"?>
<!-- Generator: Adobe Illustrator 16.0.4, SVG Export Plug-In . SVG Version: 6.00 Build 0)  -->
<!DOCTYPE svg PUBLIC "-//W3C//DTD SVG 1.1//EN" "http://www.w3.org/Graphics/SVG/1.1/DTD/svg11.dtd">
<svg version="1.1" id="Layer_1" xmlns="http://www.w3.org/2000/svg" xmlns:xlink="http://www.w3.org/1999/xlink" x="0px" y="0px"
	 width="26px" height="26px" viewBox="0 0 26 26" enable-background="new 0 0 26 26" xml:space="preserve">
<path fill="#333333" d="M25.52,12.803c-2.817-4.164-7.498-6.648-12.519-6.648c-5.02,0-9.701,2.484-12.52,6.646
	c-0.528,0.78-0.324,1.84,0.454,2.365c0.293,0.199,0.625,0.295,0.954,0.295c0.546,0,1.083-0.264,1.412-0.749
	c0.107-0.158,0.233-0.298,0.347-0.45c1.335,3.888,5.015,6.686,9.354,6.686c4.34,0,8.018-2.8,9.353-6.686
	c0.113,0.151,0.239,0.292,0.347,0.45c0.524,0.778,1.584,0.981,2.364,0.455C25.843,14.641,26.047,13.581,25.52,12.803z M13,19.68
	c-4.046,0-7.441-2.802-8.37-6.565c1.248-1.28,2.754-2.255,4.418-2.854C8.508,11.039,8.187,11.98,8.187,13
	c0,2.658,2.155,4.812,4.813,4.812s4.812-2.154,4.812-4.812c0-1.021-0.322-1.963-0.863-2.742c1.666,0.597,3.174,1.573,4.421,2.854
	C20.442,16.877,17.047,19.68,13,19.68z"/>
</svg>
