<?xml version="1.0" encoding="utf-8"?>
<!-- Generator: Adobe Illustrator 16.0.4, SVG Export Plug-In . SVG Version: 6.00 Build 0)  -->
<!DOCTYPE svg PUBLIC "-//W3C//DTD SVG 1.1//EN" "http://www.w3.org/Graphics/SVG/1.1/DTD/svg11.dtd">
<svg version="1.1" id="Layer_1" xmlns="http://www.w3.org/2000/svg" xmlns:xlink="http://www.w3.org/1999/xlink" x="0px" y="0px"
	 width="50px" height="50px" viewBox="0 0 50 50" enable-background="new 0 0 50 50" xml:space="preserve">
<g>
	<path d="M19.817,30.849h-4.88c0.046,0.101,0.083,0.195,0.17,0.318c0.197,0.274,0.518,0.616,0.322,1.317c0,0-0.252,1.356,0.28,1.681
		c0,0,0.605,0.718,3.039,0.419c0.851-0.104,2.423-0.518,3.361,0.66c0,0,2.24,4.256,2.41,5.264c0,0,1.022-1.811,2.646-3.708
		C26.441,33.405,23.425,30.849,19.817,30.849z"/>
	<path d="M34.314,13.272c-1.735-1.938-4.032-3.738-9.705-3.78c-2.217-0.018-5.601,0.507-8.233,3.291
		c-1.593,1.682-2.767,3.805-2.433,7.278c0.074,0.753,1.148,1.625,0.392,3.081c0,0-1.623,2.855-1.567,3.332
		c0,0-0.029,0.869,1.316,0.896c0,0,0.336,0.043,0.239,0.784l-0.015,1.062h5.508c4.011,0,7.417,2.599,8.651,6.196
		c1.315-1.272,2.87-2.386,4.538-2.762c0,0-1.136-2.563,1.175-5.882c0,0,2.897-3.823,2.983-5.925
		C37.165,20.845,37.93,17.307,34.314,13.272z"/>
</g>
</svg>
