<?xml version="1.0" encoding="utf-8"?>
<!-- Generator: Adobe Illustrator 17.0.0, SVG Export Plug-In . SVG Version: 6.00 Build 0)  -->
<!DOCTYPE svg PUBLIC "-//W3C//DTD SVG 1.1//EN" "http://www.w3.org/Graphics/SVG/1.1/DTD/svg11.dtd">
<svg version="1.1" id="Layer_1" xmlns="http://www.w3.org/2000/svg" xmlns:xlink="http://www.w3.org/1999/xlink" x="0px" y="0px"
	 width="32px" height="32px" viewBox="0 0 32 32" enable-background="new 0 0 32 32" xml:space="preserve">
<g>
	<path d="M26.986,5.189c-1.909-3.738-5.675-5.563-10.616-5.125C8.81,0.722,5.848,8.043,5.725,8.352
		c-0.3,0.766,0.075,1.627,0.839,1.929c0.763,0.303,1.626-0.07,1.934-0.83c0.097-0.242,2.434-5.924,8.133-6.42
		c3.744-0.325,6.344,0.853,7.702,3.513c2.073,4.056,0.742,10.841-2.966,15.125c-4.171,4.823-8.245,7.453-11.127,7.212
		c-1.527-0.124-2.801-1.056-3.896-2.85c-0.429-0.702-1.346-0.925-2.049-0.493c-0.701,0.43-0.922,1.346-0.494,2.047
		c1.603,2.625,3.686,4.061,6.194,4.268c0.202,0.017,0.404,0.026,0.608,0.026c5.093-0.002,10.305-5.123,13.018-8.261
		C28.126,18.41,29.605,10.314,26.986,5.189z"/>
	<path d="M10.142,17.769L9.48,17.952l-0.29,0.621c-1.085,2.324-1.556,5.437,0.683,6.558c0.225,0.112,0.471,0.169,0.713,0.169
		c0.546,0,1.079-0.279,1.333-0.79c0.369-0.734,0.118-1.587-0.618-1.954c-0.141-0.289,0.03-1.249,0.355-2.146
		c1.605-0.585,2.703-1.528,3.271-2.805c0.028,0.001,0.055,0.004,0.083,0.004h2.957c-0.873,1.138-1.925,2.268-3.102,3.293
		c-0.62,0.541-0.685,1.483-0.144,2.104c0.542,0.616,1.48,0.686,2.101,0.145c3.741-3.257,7.254-8.299,6.676-12.221
		c-0.268-1.821-1.36-3.212-3.158-4.023c-1.468-0.663-2.966-0.709-4.333-0.125c-2.928,1.237-4.302,4.857-4.449,5.267l-0.244,0.678
		l0.38,0.612c0.221,0.356,0.96,1.906,0.542,2.979C11.985,16.964,11.28,17.452,10.142,17.769z M17.17,9.525
		c0.608-0.261,1.227-0.227,1.945,0.096c0.861,0.389,1.317,0.943,1.436,1.743c0.13,0.885-0.146,2.028-0.735,3.278
		c-0.107-0.027-0.22-0.041-0.335-0.041h-4.211c-0.134-0.854-0.42-1.603-0.661-2.118C15.06,11.535,15.984,10.025,17.17,9.525z"/>
</g>
</svg>
