<?xml version="1.0" encoding="UTF-8" standalone="no"?>
<!-- Generator: Adobe Illustrator 16.0.0, SVG Export Plug-In . SVG Version: 6.00 Build 0)  -->

<svg
   xmlns:dc="http://purl.org/dc/elements/1.1/"
   xmlns:cc="http://creativecommons.org/ns#"
   xmlns:rdf="http://www.w3.org/1999/02/22-rdf-syntax-ns#"
   xmlns:svg="http://www.w3.org/2000/svg"
   xmlns="http://www.w3.org/2000/svg"
   xmlns:sodipodi="http://sodipodi.sourceforge.net/DTD/sodipodi-0.dtd"
   xmlns:inkscape="http://www.inkscape.org/namespaces/inkscape"
   version="1.1"
   id="Layer_1"
   x="0px"
   y="0px"
   width="100px"
   height="100px"
   viewBox="0 0 100 100"
   enable-background="new 0 0 100 100"
   xml:space="preserve"
   inkscape:version="0.91 r13725"
   sodipodi:docname="K_W2.svg"><metadata
     id="metadata50"><rdf:RDF><cc:Work
         rdf:about=""><dc:format>image/svg+xml</dc:format><dc:type
           rdf:resource="http://purl.org/dc/dcmitype/StillImage" /></cc:Work></rdf:RDF></metadata><defs
     id="defs48" /><sodipodi:namedview
     pagecolor="#ffffff"
     bordercolor="#666666"
     borderopacity="1"
     objecttolerance="10"
     gridtolerance="10"
     guidetolerance="10"
     inkscape:pageopacity="0"
     inkscape:pageshadow="2"
     inkscape:window-width="640"
     inkscape:window-height="480"
     id="namedview46"
     showgrid="false"
     inkscape:zoom="2.36"
     inkscape:cx="50"
     inkscape:cy="50"
     inkscape:window-x="755"
     inkscape:window-y="244"
     inkscape:window-maximized="0"
     inkscape:current-layer="Layer_1" /><path
     d="m 33.421875,1.6894531 c -0.881528,1.7075764 -0.83921,4.2293162 -3.115064,4.6581139 -5.978471,3.280191 -6.344502,12.786547 -0.558654,16.475083 5.667594,4.359561 14.88009,0.241524 15.410236,-6.887718 -0.504817,-2.398499 0.792533,-4.372045 1.745897,-6.4611918 1.203778,-2.5947624 2.407557,-5.1895247 3.611335,-7.7842871 -2.584107,0.5830389 -5.159246,1.497835 -7.748751,1.8811608 -3.115,-0.6270536 -6.229999,-1.2541072 -9.344999,-1.8811608 z M 70.511719,18.087891 c -6.772553,-0.307813 -11.657935,7.935357 -8.145214,13.728876 2.977561,6.092088 12.553667,6.431422 15.955021,0.565427 C 82.356721,26.481471 77.677731,17.8819 70.511719,18.087891 Z M 28.90625,24.041016 c -4.107615,-0.03171 -7.909662,2.857749 -8.650975,6.942822 C 14.97422,44.478809 9.6931646,57.973779 4.4121094,71.46875 c 3.2337239,0 6.4674476,0 9.7011716,0 -0.279407,6.185418 -5.2462288,10.625416 -8.2745664,15.62325 -3.5334406,5.805502 6.2063324,9.376555 8.1187864,3.312467 3.77336,-5.392335 8.113938,-10.967755 8.325898,-17.850776 0.03623,-2.091108 3.151335,-0.672872 4.659202,-1.086894 3.477906,-1.068618 3.779102,3.346066 3.933112,5.852126 0.901625,5.430819 -4.140102,13.655508 2.09076,16.789767 4.568079,1.283898 6.739482,-5.26782 6.434862,-9.573801 0.314611,-4.332621 1.036897,-8.853212 -0.387663,-13.066139 1.836505,-0.192508 5.729055,0.94904 3.029892,-2.16739 -2.775511,-6.791506 -6.234917,-13.599409 -6.85997,-21.002532 0.307414,-3.263735 3.734112,3.118979 5.952195,2.528562 3.566332,1.417194 8.045372,2.188083 11.435959,2.37132 0.792491,5.699389 1.584981,11.398777 2.377471,17.098165 -5.408665,8.499391 -1.667408,21.008458 7.557361,25.116294 8.003231,4.113898 18.77182,0.763722 23.034436,-7.112388 0.925561,0.832712 3.149005,-0.291734 4.580823,-0.222438 1.131649,-0.556464 4.475203,0.351445 3.557512,-1.561765 0.03756,-2.578516 -1.593871,-1.727916 -3.22984,-0.867995 -1.489397,0.598957 -3.243745,1.450186 -4.570605,1.894386 -0.502127,-2.557425 2.559463,-2.485379 4.140031,-3.481373 1.504395,-0.607989 3.538844,-0.955981 2.224399,-2.946641 -1.395529,-5.085975 -2.558626,-10.246929 -4.1035,-15.284728 -0.306981,-1.091441 5.188486,-2.493726 3.010552,-5.704737 -2.913211,-3.908184 -10.52703,-1.329775 -11.86069,-7.640892 -2.41834,-4.24849 -0.998219,-10.259156 -5.143051,-13.498389 -4.719259,-4.258351 -14.032253,-1.367397 -14.234538,5.349729 6.51e-4,6.190104 0.0013,12.380208 0.002,18.570312 C 58.942183,56.278504 58.116535,49.623099 57.05301,43.012689 55.699224,39.087912 49.861686,41.800541 51.490608,45.425903 47.208296,44.944176 40.802973,44.266316 39.713849,38.893471 38.395729,34.57479 39.266066,29.013078 35.032309,26.119024 33.297541,24.735728 31.133016,23.975468 28.90625,24.041016 Z m 45.980469,35.535156 c 1.53344,2.154535 9.357344,4.868147 3.374258,4.226636 -1.464957,-0.197998 -4.122363,0.790917 -3.374258,-1.609871 0,-0.872255 0,-1.74451 0,-2.616765 z M 59.277344,75.234375 c 7.287984,0.122099 14.585335,0.01828 21.876953,0.05273 3.003118,7.038918 -2.742317,15.692775 -10.347518,15.803097 -7.264372,0.629449 -13.710001,-6.719409 -12.106435,-13.839652 l 0.245258,-1.025959 0.331742,-0.99022 z m 35.107422,13.896484 c -2.769531,0.386719 -5.539063,0.773438 -8.308594,1.160157 0.62922,1.119965 0.231865,4.438063 2.125611,2.850383 2.15214,-0.9957 4.30428,-1.991401 6.45642,-2.987102 -0.09115,-0.341146 -0.182291,-0.682292 -0.273437,-1.023438 z m 0.703125,2.611329 c -2.554037,1.180338 -5.108073,2.360677 -7.66211,3.541015 1.4479,5.694887 10.396425,2.223949 7.810034,-2.986913 -0.04931,-0.1847 -0.09862,-0.369401 -0.147924,-0.554102 z"
     id="path36"
     inkscape:connector-curvature="0" /></svg>