<?xml version="1.0" encoding="iso-8859-1"?>
<!-- Generator: Adobe Illustrator 16.0.0, SVG Export Plug-In . SVG Version: 6.00 Build 0)  -->
<!DOCTYPE svg PUBLIC "-//W3C//DTD SVG 1.1//EN" "http://www.w3.org/Graphics/SVG/1.1/DTD/svg11.dtd">
<svg version="1.1" id="Layer_1" xmlns="http://www.w3.org/2000/svg" xmlns:xlink="http://www.w3.org/1999/xlink" x="0px" y="0px"
	 width="32px" height="32px" viewBox="0 0 32 32" style="enable-background:new 0 0 32 32;" xml:space="preserve">
<g>
	<path d="M16,0C7.164,0,0,7.164,0,16c0,0.329,0.014,0.654,0.033,0.978l8.723-0.036l2.993-11.743c0.143-0.56,0.658-0.937,1.247-0.888
		c0.576,0.048,1.034,0.505,1.083,1.082l1.204,14.396l2.025-9.564c0.11-0.518,0.55-0.9,1.078-0.937
		c0.524-0.035,1.017,0.282,1.196,0.779l2.487,6.881l9.891,0.121C31.984,16.716,32,16.36,32,16C32,7.164,24.837,0,16,0z"/>
	<path d="M20.12,18.526l-1.354-3.744L15.935,28.16c-0.117,0.55-0.604,0.939-1.159,0.939c-0.025,0-0.05-0.001-0.075-0.002
		c-0.587-0.037-1.058-0.498-1.107-1.084l-1.288-15.396l-1.478,5.799c-0.134,0.523-0.604,0.89-1.145,0.892l-9.328,0.039
		C1.893,26.577,8.313,32,16,32c7.657,0,14.054-5.379,15.627-12.564L21.22,19.309C20.727,19.303,20.288,18.991,20.12,18.526z"/>
</g>
<g>
</g>
<g>
</g>
<g>
</g>
<g>
</g>
<g>
</g>
<g>
</g>
<g>
</g>
<g>
</g>
<g>
</g>
<g>
</g>
<g>
</g>
<g>
</g>
<g>
</g>
<g>
</g>
<g>
</g>
</svg>
