<?xml version="1.0" encoding="iso-8859-1"?>
<!-- Generator: Adobe Illustrator 16.0.0, SVG Export Plug-In . SVG Version: 6.00 Build 0)  -->
<!DOCTYPE svg PUBLIC "-//W3C//DTD SVG 1.1//EN" "http://www.w3.org/Graphics/SVG/1.1/DTD/svg11.dtd">
<svg version="1.1" xmlns="http://www.w3.org/2000/svg" xmlns:xlink="http://www.w3.org/1999/xlink" x="0px" y="0px" width="512px"
	 height="512px" viewBox="0 0 512 512" style="enable-background:new 0 0 512 512;" xml:space="preserve">
<g id="Guides_For_Artboard">
</g>
<g id="_x30_">
</g>
<g id="_x31_">
</g>
<g id="_x32_">
</g>
<g id="_x33_">
</g>
<g id="_x34_">
</g>
<g id="_x35_">
</g>
<g id="_x36_">
</g>
<g id="_x37_">
</g>
<g id="_x38_">
</g>
<g id="_x39_">
</g>
<g id="_x31_0">
</g>
<g id="_x31_1">
</g>
<g id="_x31_2">
</g>
<g id="_x31_3">
</g>
<g id="_x31_4">
</g>
<g id="_x31_5">
</g>
<g id="_x31_6">
</g>
<g id="_x31_7">
</g>
<g id="_x31_8">
</g>
<g id="_x31_9">
</g>
<g id="_x32_0">
</g>
<g id="_x32_1">
</g>
<g id="_x32_2">
</g>
<g id="_x32_3">
</g>
<g id="_x32_4">
</g>
<g id="_x32_5">
</g>
<g id="_x32_6">
</g>
<g id="_x32_7">
</g>
<g id="_x32_8">
</g>
<g id="_x32_9">
</g>
<g id="_x33_0">
</g>
<g id="_x33_1">
</g>
<g id="_x33_2">
</g>
<g id="_x33_3">
</g>
<g id="_x33_4">
</g>
<g id="_x33_5">
</g>
<g id="_x33_6">
</g>
<g id="_x33_7">
</g>
<g id="_x33_8">
</g>
<g id="_x33_9">
</g>
<g id="_x34_0">
</g>
<g id="_x34_1">
</g>
<g id="_x34_2">
</g>
<g id="_x34_3">
</g>
<g id="_x34_4">
</g>
<g id="_x34_5">
</g>
<g id="_x34_6">
</g>
<g id="_x34_7">
</g>
<g id="_x34_8">
</g>
<g id="_x34_9">
</g>
<g id="_x35_0">
</g>
<g id="_x35_1">
</g>
<g id="_x35_2">
	<path d="M438.97,217.882c-0.383-13.595-7.097-25.603-17.312-33.168c0-0.001,0-0.002,0-0.003
		c-11.047-10.378-22.98-19.628-34.538-32.024c-1.913-2.052-3.509-3.864-4.882-5.528c-0.159-0.188-0.317-0.378-0.473-0.57
		c-0.192-0.238-0.364-0.462-0.546-0.693c-0.067-0.087-0.136-0.172-0.203-0.26c-5.771-7.409-6.337-11.577-6.337-18.68
		c0-3.588,0-11.203,0-19.098h9.279c13.278,0,24.042-9.596,24.042-21.433V37.128c0-11.838-10.764-21.434-24.042-21.434h-238.02
		c-13.278,0-24.042,9.596-24.042,21.434v49.296c0,11.837,10.764,21.433,24.042,21.433h9.279c0,7.895,0,15.51,0,19.098
		c0,7.103-0.566,11.271-6.337,18.68c-0.065,0.088-0.137,0.173-0.202,0.26c-0.184,0.231-0.354,0.456-0.546,0.693
		c-0.156,0.192-0.313,0.381-0.474,0.57c-1.373,1.664-2.969,3.477-4.881,5.528c-11.559,12.396-23.491,21.646-34.539,32.024
		c0,0.001,0,0.001,0,0.003c-10.214,7.566-16.929,19.574-17.312,33.168c-0.009,0.014-0.019,0.026-0.03,0.039c0,0.354,0,0.751,0,1.16
		c0,0.008,0,0.015,0,0.023c0,0.007,0,0.015,0,0.023c0,30.641,0,211.805,0,234.781c0,23.298,17.121,45.993,45.992,45.993
		c14.424,0,56.742,0,127.146,0c0,0,0.234,0.001,0.669,0.001v0c0.092,0,0.162,0,0.244,0s0.152,0,0.244,0v0
		c0.435,0,0.669-0.001,0.669-0.001c70.403,0,112.722,0,127.146,0c28.871,0,45.992-22.695,45.992-45.993
		c0-22.977,0-204.141,0-234.781c0-0.008,0-0.016,0-0.023c0-0.008,0-0.015,0-0.023c0-0.409,0-0.806,0-1.16
		C438.989,217.908,438.98,217.896,438.97,217.882z M390.861,400.372c0,13.278-10.763,24.042-24.042,24.042h-203.74
		c-13.277,0-24.042-10.764-24.042-24.042v-108.19c0-13.278,10.765-24.042,24.042-24.042h203.74
		c13.279,0,24.042,10.764,24.042,24.042V400.372z"/>
</g>
<g id="_x35_3">
</g>
<g id="_x35_4">
</g>
<g id="_x35_5">
</g>
<g id="_x35_6">
</g>
<g id="_x35_7">
</g>
<g id="_x35_8">
</g>
<g id="_x35_9">
</g>
<g id="_x36_0">
</g>
<g id="_x36_1">
</g>
<g id="_x36_2">
</g>
<g id="_x36_3">
</g>
<g id="_x36_4">
</g>
<g id="_x36_5">
</g>
<g id="_x36_6">
</g>
<g id="_x36_7">
</g>
<g id="_x36_8">
</g>
<g id="_x36_9">
</g>
<g id="_x37_0">
</g>
</svg>
