<?xml version="1.0" encoding="UTF-8" standalone="no"?>
<!-- Generator: Adobe Illustrator 16.0.0, SVG Export Plug-In . SVG Version: 6.00 Build 0)  -->

<svg
   xmlns:dc="http://purl.org/dc/elements/1.1/"
   xmlns:cc="http://creativecommons.org/ns#"
   xmlns:rdf="http://www.w3.org/1999/02/22-rdf-syntax-ns#"
   xmlns:svg="http://www.w3.org/2000/svg"
   xmlns="http://www.w3.org/2000/svg"
   xmlns:sodipodi="http://sodipodi.sourceforge.net/DTD/sodipodi-0.dtd"
   xmlns:inkscape="http://www.inkscape.org/namespaces/inkscape"
   version="1.1"
   id="Layer_1"
   x="0px"
   y="0px"
   width="100px"
   height="100px"
   viewBox="0 0 100 100"
   enable-background="new 0 0 100 100"
   xml:space="preserve"
   inkscape:version="0.91 r13725"
   sodipodi:docname="medical63.svg"><metadata
     id="metadata15"><rdf:RDF><cc:Work
         rdf:about=""><dc:format>image/svg+xml</dc:format><dc:type
           rdf:resource="http://purl.org/dc/dcmitype/StillImage" /></cc:Work></rdf:RDF></metadata><defs
     id="defs13" /><sodipodi:namedview
     pagecolor="#ffffff"
     bordercolor="#666666"
     borderopacity="1"
     objecttolerance="10"
     gridtolerance="10"
     guidetolerance="10"
     inkscape:pageopacity="0"
     inkscape:pageshadow="2"
     inkscape:window-width="640"
     inkscape:window-height="480"
     id="namedview11"
     showgrid="false"
     inkscape:zoom="2.36"
     inkscape:cx="50"
     inkscape:cy="50"
     inkscape:window-x="0"
     inkscape:window-y="24"
     inkscape:window-maximized="0"
     inkscape:current-layer="Layer_1" /><path
     d="M 49.951172 1.5117188 A 10.035 10.035 0 0 0 39.916016 11.546875 A 10.035 10.035 0 0 0 49.951172 21.580078 A 10.035 10.035 0 0 0 59.986328 11.546875 A 10.035 10.035 0 0 0 49.951172 1.5117188 z M 47.527344 22.136719 C 47.519344 22.138719 47.510906 22.138625 47.503906 22.140625 C 46.664906 22.340625 45.840688 22.652922 45.054688 23.044922 C 45.365687 27.122922 47.701 30.998047 50 30.998047 C 52.285 30.998047 54.6055 27.164328 54.9375 23.111328 C 54.1385 22.705328 53.304172 22.372109 52.451172 22.162109 L 49.951172 24.679688 L 47.527344 22.136719 z M 56.347656 23.703125 C 55.872656 27.832125 53.602563 31.913344 50.601562 32.402344 C 50.175562 34.484344 50.913344 35.323625 51.777344 36.265625 C 53.353344 37.983625 54.255578 39.615094 51.517578 44.121094 C 51.710578 44.410094 51.824219 44.758813 51.824219 45.132812 C 51.824219 46.139812 51.008953 46.955078 50.001953 46.955078 C 48.994953 46.955078 48.177734 46.139813 48.177734 45.132812 C 48.177734 44.125813 48.994953 43.308594 50.001953 43.308594 C 50.101953 43.308594 50.196969 43.322891 50.292969 43.337891 C 52.678969 39.426891 51.801125 38.447953 50.703125 37.251953 C 49.777125 36.242953 48.651094 35.003844 49.121094 32.339844 C 46.287094 31.656844 44.151062 27.774453 43.664062 23.814453 C 43.518062 23.877453 28.938906 31.562516 31.003906 52.978516 C 31.204906 54.987516 32.899 56.486328 34.875 56.486328 C 35.005 56.486328 35.135578 56.480797 35.267578 56.466797 C 37.409578 56.252797 38.971813 54.341172 38.757812 52.201172 C 38.167812 46.308172 38.591641 42.184906 39.681641 39.128906 L 39.681641 53.035156 C 39.681641 56.074156 39.766531 55.982563 40.394531 56.726562 L 40.396484 93.882812 C 40.396484 96.425813 42.558562 98.486328 45.101562 98.486328 C 47.644562 98.486328 49.605469 96.424813 49.605469 93.882812 L 49.603516 61.867188 C 49.786516 61.875188 49.968344 61.890625 50.152344 61.890625 C 50.188344 61.890625 50.223766 61.886719 50.259766 61.886719 L 50.257812 93.884766 C 50.257812 96.427766 52.419891 98.488281 54.962891 98.488281 C 57.505891 98.488281 59.466797 96.427766 59.466797 93.884766 L 59.46875 56.705078 C 60.04775 55.983078 60.224609 55.815109 60.224609 53.037109 L 60.224609 38.892578 C 61.166609 41.387578 61.785812 46.581609 61.257812 51.849609 C 61.043813 53.990609 62.606094 55.899281 64.746094 56.113281 C 64.878094 56.126281 65.010625 56.134766 65.140625 56.134766 C 67.117625 56.134766 68.810719 54.635953 69.011719 52.626953 C 70.763719 35.100953 63.997781 28.386188 56.425781 23.742188 C 56.400781 23.726188 56.373656 23.718125 56.347656 23.703125 z "
     id="circle5" /></svg>