<?xml version="1.0" encoding="utf-8"?>
<!-- Generator: Adobe Illustrator 16.0.4, SVG Export Plug-In . SVG Version: 6.00 Build 0)  -->
<!DOCTYPE svg PUBLIC "-//W3C//DTD SVG 1.1//EN" "http://www.w3.org/Graphics/SVG/1.1/DTD/svg11.dtd">
<svg version="1.1" id="Capa_1" xmlns="http://www.w3.org/2000/svg" xmlns:xlink="http://www.w3.org/1999/xlink" x="0px" y="0px"
	 width="64px" height="64px" viewBox="0 0 64 64" enable-background="new 0 0 64 64" xml:space="preserve">
<g>
	<path d="M56.6,44.669c-1.435,4.024-10.132,7.12-19.857,7.12c-9.729,0-18.424-3.096-19.861-7.12
		c-0.222-0.621-0.208-0.636-0.208,0.024v4.483c0,4.578,9.414,8.29,20.068,8.29c10.651,0,20.067-3.712,20.067-8.29v-4.483
		C56.809,44.032,56.822,44.048,56.6,44.669z"/>
	<path d="M25.853,49.114c3.118,0.862,6.842,1.37,10.859,1.37c10.925,0,19.778-3.715,19.778-8.293c0-1.94-1.604-3.721-4.271-5.133
		c-0.582-0.309-1.559-0.299-2.156-0.021L25.792,48.27C25.193,48.546,25.217,48.938,25.853,49.114z"/>
	<path d="M16.932,42.191c0,1.789,1.36,3.443,3.664,4.8c0.568,0.335,1.536,0.341,2.136,0.063L46.88,35.878
		c0.597-0.276,0.569-0.651-0.069-0.813c-2.957-0.737-6.406-1.164-10.099-1.164C25.787,33.9,16.932,37.611,16.932,42.191z"/>
	<path d="M25.929,33.641c3.441-0.877,7.479-1.385,11.803-1.385c0.73,0,1.455,0.015,2.168,0.044c0.552,0.022,1.149-0.371,1.307-0.901
		c0.479-1.619,0.742-3.329,0.742-5.103c0-9.231-6.885-16.836-15.797-18.004c-0.654-0.086-1.189,0.418-1.189,1.078v23.532
		C24.963,33.455,25.394,33.777,25.929,33.641z"/>
	<path d="M21.64,35.018c0.512-0.207,0.934-0.807,0.934-1.358V9.369c0-0.66-0.535-1.164-1.188-1.078
		C12.472,9.459,5.587,17.063,5.587,26.295c0,6.385,3.303,11.982,8.287,15.219c0.463,0.301,0.851,0.479,0.845,0.43
		c-0.004-0.028-0.008-0.06-0.008-0.09C14.711,39.168,17.374,36.747,21.64,35.018z"/>
</g>
</svg>
