<?xml version="1.0" encoding="utf-8"?>
<!-- Generator: Adobe Illustrator 16.0.0, SVG Export Plug-In . SVG Version: 6.00 Build 0)  -->
<!DOCTYPE svg PUBLIC "-//W3C//DTD SVG 1.1//EN" "http://www.w3.org/Graphics/SVG/1.1/DTD/svg11.dtd">
<svg version="1.1" id="Layer_1" xmlns="http://www.w3.org/2000/svg" xmlns:xlink="http://www.w3.org/1999/xlink" x="0px" y="0px"
	 width="100px" height="100px" viewBox="0 0 100 100" enable-background="new 0 0 100 100" xml:space="preserve">
<g>
	<path d="M53.127,22.921c-0.009-0.002-0.019-0.002-0.028-0.004l-2.578,2.706l-2.658-2.676C44.07,24.271,29.322,33.171,27.23,56.843
		c-0.312,2.266,1.271,4.354,3.537,4.668c0.192,0.027,0.383,0.04,0.573,0.04c2.036,0,3.811-1.501,4.1-3.574
		c0.605-4.35,2.034-10.287,4.158-15.408v5.36l-6.476,28.736c0,0,0.715,2.347,7.334,3.577l0,14.091c0,2.545,2.064,4.609,4.608,4.609
		c2.545,0,4.61-2.064,4.609-4.609l0-13.361c0.094,0,0.182,0.002,0.277,0.002c0.129,0,0.25-0.002,0.377-0.003l0,13.362
		c0,2.544,2.062,4.609,4.607,4.609c0.001,0,0.001,0,0.001,0c2.545,0,4.608-2.063,4.608-4.609l0.001-14.104
		c6.604-1.231,7.409-3.561,7.409-3.561l-4.714-25.357c0,0,0.66-0.025,0.746-0.025c3.625,0,8.048-0.862,9.531-5.046
		C74.949,39.372,61.706,24.994,53.127,22.921z M58.594,42.691c-0.684-0.136-1.468-0.317-2.405-0.565
		c-2.214-0.592-4.482,0.726-5.071,2.937c-0.589,2.211,0.726,4.481,2.937,5.072c1.715,0.456,3.192,0.77,4.539,0.962v6.983
		c0,0.666-0.542,1.208-1.208,1.208H43.655c-0.666,0-1.206-0.542-1.206-1.208v-20.37c0-0.667,0.54-1.208,1.206-1.208h3.057v-0.528
		c0-0.667,0.54-1.208,1.207-1.208h5.206c0.667,0,1.208,0.541,1.208,1.208v0.528h3.055c0.667,0,1.208,0.541,1.208,1.208V42.691z
		 M61.446,42.915V39.03c1.317,1.471,2.36,2.859,2.859,3.888C63.708,42.986,62.789,43.019,61.446,42.915z"/>
	<path d="M50.32,22.171c5.345,0,9.681-4.334,9.681-9.681c0-2.237-0.776-4.28-2.051-5.916h-3.132V5.106h1.719
		c-0.601-0.506-1.256-0.952-1.969-1.301c-0.737-1.616-2.357-2.747-4.245-2.747c-1.886,0-3.507,1.129-4.243,2.743
		c-0.716,0.35-1.372,0.797-1.976,1.305h1.965v1.469h-3.376c-1.276,1.635-2.051,3.679-2.051,5.916
		C40.641,17.837,44.974,22.171,50.32,22.171z M50.322,3.102c1.45,0,2.63,1.18,2.63,2.629c0,1.45-1.18,2.63-2.63,2.63
		s-2.63-1.18-2.63-2.63C47.692,4.281,48.872,3.102,50.322,3.102z"/>
</g>
</svg>
