<?xml version="1.0" encoding="utf-8"?>
<!-- Generator: Adobe Illustrator 17.0.0, SVG Export Plug-In . SVG Version: 6.00 Build 0)  -->
<!DOCTYPE svg PUBLIC "-//W3C//DTD SVG 1.1//EN" "http://www.w3.org/Graphics/SVG/1.1/DTD/svg11.dtd">
<svg version="1.1" id="Layer_1" xmlns="http://www.w3.org/2000/svg" xmlns:xlink="http://www.w3.org/1999/xlink" x="0px" y="0px"
	 width="32px" height="32px" viewBox="0 0 32 32" enable-background="new 0 0 32 32" xml:space="preserve">
<g>
	<path d="M22.755,6.082V5.381c0-0.796-0.646-1.441-1.441-1.441h-2.365c0.197-0.356,0.308-0.797,0.308-1.245
		c0-1.473-1.198-2.673-2.67-2.673c-1.472,0-2.669,1.2-2.669,2.673c0,0.448,0.112,0.889,0.309,1.245h-1.94
		c-0.796,0-1.441,0.645-1.441,1.441v0.701H7.632c-1.207,0-2.185,0.979-2.185,2.186v21.546C5.447,31.021,6.425,32,7.632,32h18.334
		c1.207,0,2.186-0.979,2.186-2.186V8.268c0-1.207-0.979-2.186-2.186-2.186H22.755z M14.997,2.696c0-0.878,0.713-1.594,1.589-1.594
		c0.878,0,1.591,0.716,1.591,1.594c0,0.502-0.234,0.933-0.6,1.245h-1.981C15.231,3.628,14.997,3.198,14.997,2.696z M25.967,28.514
		c0,0.742-0.602,1.344-1.344,1.344H8.976c-0.742,0-1.344-0.602-1.344-1.344V9.612c0-0.743,0.602-1.344,1.344-1.344h1.868
		c0,0.591,0.479,1.071,1.07,1.071h9.769c0.592,0,1.071-0.479,1.071-1.071h1.868c0.742,0,1.344,0.602,1.344,1.344V28.514z"/>
	<circle cx="11.662" cy="13.12" r="1.899"/>
	<path d="M22.467,12.06H15.99c-0.596,0-1.08,0.475-1.08,1.071c0,0.596,0.483,1.071,1.08,1.071h6.478
		c0.596,0,1.079-0.475,1.079-1.071C23.546,12.535,23.063,12.06,22.467,12.06z"/>
	<circle cx="11.662" cy="18.507" r="1.899"/>
	<path d="M22.467,17.413H15.99c-0.596,0-1.08,0.497-1.08,1.093c0,0.596,0.483,1.092,1.08,1.092h6.478
		c0.596,0,1.079-0.496,1.079-1.092C23.546,17.91,23.063,17.413,22.467,17.413z"/>
	<circle cx="11.662" cy="24.264" r="1.899"/>
	<path d="M22.467,23.167H15.99c-0.596,0-1.08,0.497-1.08,1.093c0,0.596,0.483,1.092,1.08,1.092h6.478
		c0.596,0,1.079-0.497,1.079-1.092C23.546,23.664,23.063,23.167,22.467,23.167z"/>
</g>
</svg>
