<?xml version="1.0" encoding="UTF-8" standalone="no"?>
<!-- Generator: Adobe Illustrator 16.0.4, SVG Export Plug-In . SVG Version: 6.00 Build 0)  -->

<svg
   xmlns:dc="http://purl.org/dc/elements/1.1/"
   xmlns:cc="http://creativecommons.org/ns#"
   xmlns:rdf="http://www.w3.org/1999/02/22-rdf-syntax-ns#"
   xmlns:svg="http://www.w3.org/2000/svg"
   xmlns="http://www.w3.org/2000/svg"
   xmlns:sodipodi="http://sodipodi.sourceforge.net/DTD/sodipodi-0.dtd"
   xmlns:inkscape="http://www.inkscape.org/namespaces/inkscape"
   version="1.1"
   id="Capa_1"
   x="0px"
   y="0px"
   width="64px"
   height="64px"
   viewBox="0 0 64 64"
   enable-background="new 0 0 64 64"
   xml:space="preserve"
   inkscape:version="0.91 r13725"
   sodipodi:docname="patient.svg"><metadata
     id="metadata32"><rdf:RDF><cc:Work
         rdf:about=""><dc:format>image/svg+xml</dc:format><dc:type
           rdf:resource="http://purl.org/dc/dcmitype/StillImage" /></cc:Work></rdf:RDF></metadata><defs
     id="defs30" /><sodipodi:namedview
     pagecolor="#ffffff"
     bordercolor="#666666"
     borderopacity="1"
     objecttolerance="10"
     gridtolerance="10"
     guidetolerance="10"
     inkscape:pageopacity="0"
     inkscape:pageshadow="2"
     inkscape:window-width="640"
     inkscape:window-height="480"
     id="namedview28"
     showgrid="false"
     inkscape:zoom="3.6875"
     inkscape:cx="32"
     inkscape:cy="32"
     inkscape:window-x="840"
     inkscape:window-y="401"
     inkscape:window-maximized="0"
     inkscape:current-layer="Capa_1" /><path
     d="M 50.289062 15.167969 A 4.7750001 4.7750001 0 0 0 45.513672 19.943359 A 4.7750001 4.7750001 0 0 0 50.289062 24.71875 A 4.7750001 4.7750001 0 0 0 55.064453 19.943359 A 4.7750001 4.7750001 0 0 0 50.289062 15.167969 z M 58.361328 22.339844 C 58.178953 22.336344 57.994016 22.402562 57.853516 22.539062 L 43.033203 36.810547 L 43.033203 35.779297 C 43.033203 35.484297 42.852906 35.400797 42.628906 35.591797 L 40.6875 37.240234 C 40.3615 37.518234 39.943719 37.671875 39.511719 37.671875 C 38.976719 37.671875 38.472953 37.44125 38.126953 37.03125 L 33.488281 31.572266 C 32.840281 30.808266 32.933312 29.661719 33.695312 29.011719 C 34.023313 28.734719 34.442047 28.580078 34.873047 28.580078 C 35.407047 28.580078 35.912766 28.812703 36.259766 29.220703 L 39.373047 32.888672 C 39.562047 33.114672 39.901953 33.141219 40.126953 32.949219 L 42.628906 30.824219 C 42.853906 30.633219 43.033203 30.240313 43.033203 29.945312 L 43.033203 25.814453 C 43.033203 25.520453 42.806391 25.354266 42.525391 25.447266 L 12.400391 35.316406 C 12.121391 35.410406 11.892578 35.722578 11.892578 36.017578 L 11.892578 38.210938 L 4.4785156 38.210938 C 4.0855156 38.210938 3.765625 38.528828 3.765625 38.923828 L 3.765625 41.117188 C 3.766625 41.512188 4.0855156 41.830078 4.4785156 41.830078 L 43.033203 41.830078 C 43.037203 41.830078 57.441328 27.959484 60.361328 25.146484 C 60.644328 24.874484 60.653859 24.421672 60.380859 24.138672 L 58.859375 22.558594 C 58.723375 22.417094 58.543703 22.343344 58.361328 22.339844 z M 45.882812 24.480469 C 45.741938 24.470094 45.600828 24.507609 45.486328 24.599609 L 44.183594 25.650391 C 43.954594 25.834391 43.767578 26.222578 43.767578 26.517578 L 43.767578 30.671875 L 39.951172 33.914062 C 39.782172 34.057063 39.530672 34.037141 39.388672 33.869141 L 35.785156 29.625 C 35.358156 29.123 34.603563 29.062328 34.101562 29.486328 C 33.599563 29.913328 33.539891 30.668922 33.962891 31.169922 L 38.599609 36.628906 C 39.025609 37.130906 39.781203 37.190625 40.283203 36.765625 L 43.767578 33.806641 L 43.767578 34.646484 C 43.767578 34.941484 43.937531 35.009781 44.144531 34.800781 L 52.525391 26.363281 C 52.734391 26.154281 52.679672 25.894609 52.388672 25.849609 C 51.950672 25.780609 51.159812 25.718047 49.757812 25.748047 C 47.916812 25.787047 46.804344 25.098531 46.277344 24.644531 C 46.164344 24.549031 46.023687 24.490844 45.882812 24.480469 z M 3.7675781 43.076172 C 3.3745781 43.076172 3.0546875 43.393109 3.0546875 43.787109 L 3.0546875 46.90625 C 3.0546875 47.30125 3.3745781 47.619141 3.7675781 47.619141 L 26.900391 47.619141 L 26.900391 48.894531 L 10.767578 48.894531 C 10.374578 48.894531 10.054687 49.213469 10.054688 49.605469 L 10.054688 53.970703 C 10.054688 54.364703 10.373578 54.681641 10.767578 54.681641 L 54.541016 54.681641 C 54.936016 54.681641 55.253906 54.364703 55.253906 53.970703 L 55.253906 49.605469 C 55.253906 49.213469 54.936016 48.894531 54.541016 48.894531 L 38.40625 48.894531 L 38.40625 47.619141 L 61.541016 47.619141 C 61.934016 47.619141 62.253906 47.30125 62.253906 46.90625 L 62.253906 43.787109 C 62.253906 43.395109 61.934016 43.076172 61.541016 43.076172 L 3.7675781 43.076172 z "
     id="path20" /></svg>