<?xml version="1.0" encoding="utf-8"?>
<!-- Generator: Adobe Illustrator 16.0.0, SVG Export Plug-In . SVG Version: 6.00 Build 0)  -->
<!DOCTYPE svg PUBLIC "-//W3C//DTD SVG 1.1//EN" "http://www.w3.org/Graphics/SVG/1.1/DTD/svg11.dtd">
<svg version="1.1" id="Layer_1" xmlns="http://www.w3.org/2000/svg" xmlns:xlink="http://www.w3.org/1999/xlink" x="0px" y="0px"
	 width="100px" height="100px" viewBox="0 0 100 100" enable-background="new 0 0 100 100" xml:space="preserve">
<g>
	<path d="M31.509,5.008l7.35-3.454C35.921,1.612,33.299,2.937,31.509,5.008z"/>
	<path d="M43.91,2.806l-8.02,3.77l9.715-2.572C45.083,3.55,44.518,3.146,43.91,2.806z"/>
	<path d="M77.126,25.469v-3.022h0.654c1.223,0,2.213-0.991,2.213-2.214V9.579c0-1.222-0.99-2.213-2.213-2.213h-1.746
		c0.019-0.168,0.029-0.344,0.029-0.527c0-0.135-0.011-0.263-0.019-0.39h0.462c1.595,0,2.893-1.298,2.893-2.892h-0.985
		c0,1.052-0.856,1.907-1.907,1.907h-0.654c-0.225-0.637-0.619-1.025-1.105-1.025s-0.879,0.388-1.105,1.025h-7.387v-3.92h-2.953v3.92
		H53.121c-1.053,0-1.907-0.855-1.907-1.907h-0.986c0,1.594,1.298,2.892,2.894,2.892h10.181v32.407
		c-6.297-2.289-8.725-5.428-11.274-8.739c-1.764-2.29-5.019-5.784-10.483-8.034l-2.486,2.503l-2.412-2.531
		c-0.006,0.002-0.014,0.003-0.023,0.004c-1.271,0.305-18.672,6.128-16.413,30.672c0.201,1.999,1.888,3.49,3.854,3.49
		c0.127,0,0.259-0.006,0.391-0.02c2.128-0.213,3.681-2.112,3.468-4.241c-0.585-5.861-0.163-9.963,0.922-13.002
		c0,0,0,10.863,0,13.831s0.665,3.626,0.665,3.626l0.004,37c0,2.529,2.051,4.579,4.58,4.579c2.528,0,4.578-2.051,4.578-4.58
		l-0.002-31.842c0.18,0.009,0.362,0.023,0.544,0.023c0.037,0,0.071-0.004,0.107-0.004v31.824c0,2.529,2.049,4.579,4.578,4.579
		s4.58-2.05,4.58-4.579V56.54c0,0,0.797-0.772,0.797-3.75V38.906c2.783,2.922,6.701,5.863,13.436,7.926
		c0.196,0.06,0.393,0.103,0.592,0.13v41.22H61.47c-3.13,0-5.807,1.951-6.896,4.698c-1.17,0.356-2.028,1.432-2.028,2.719
		c0,1.577,1.277,2.856,2.854,2.856c1.578,0,2.855-1.279,2.855-2.856c0-0.757-0.3-1.442-0.779-1.953
		c0.727-1.48,2.234-2.511,3.994-2.511h5.598h1.053c1.76,0,3.268,1.031,3.995,2.511c-0.48,0.511-0.78,1.196-0.78,1.953
		c0,1.577,1.278,2.856,2.855,2.856s2.854-1.279,2.854-2.856c0-1.288-0.858-2.363-2.028-2.719c-1.09-2.748-3.767-4.698-6.896-4.698
		h-0.926h-0.839h-0.101V46.149c0.592-0.47,1.058-1.11,1.294-1.888c0.173-0.562,0.198-1.132,0.122-1.679
		c2.081,0.439,4.381,1.058,5.355,1.37c0.852,0.28,1.666,0.419,2.411,0.419c0.966,0,1.818-0.233,2.5-0.694
		c1.09-0.735,1.726-2.033,1.837-3.753c0.17-2.399-0.705-4.294-1.549-6.125c-0.46-0.995-0.934-2.024-1.235-3.123
		c-0.372-1.35-0.613-3.641-0.563-5.208H77.126z M74.794,5.414c0.002,0.006,0.014,0.036,0.02,0.05h-0.063
		C74.766,5.45,74.781,5.42,74.794,5.414z M74.445,6.449h0.605c0.012,0.125,0.028,0.244,0.028,0.39c0,0.195-0.015,0.37-0.036,0.527
		h-0.59c-0.022-0.157-0.036-0.332-0.036-0.527C74.417,6.693,74.433,6.573,74.445,6.449z M77.671,34.055
		c0.851,1.843,1.654,3.584,1.496,5.828c-0.102,1.549-0.63,2.656-1.567,3.29c-1.057,0.712-2.611,0.783-4.388,0.201
		c-0.723-0.231-3.336-0.955-5.686-1.436c-0.232-0.718-0.674-1.358-1.271-1.835V6.449h7.196c-0.01,0.127-0.021,0.255-0.021,0.39
		c0,0.184,0.011,0.359,0.028,0.527h-1.743c-1.223,0-2.213,0.991-2.213,2.213v10.654c0,1.223,0.99,2.214,2.213,2.214h0.613v1.333
		h1.681v-1.333h1.434v3.022h0.375c-0.049,1.622,0.2,3.978,0.583,5.369C76.717,31.985,77.201,33.038,77.671,34.055z M74.81,17.322
		c-1.285,0-2.327-1.042-2.327-2.328c0-1.286,2.327-4.929,2.327-4.929s2.327,3.644,2.327,4.929
		C77.137,16.28,76.096,17.322,74.81,17.322z"/>
	<path d="M26.647,10.876c-0.097,0.212-0.182,0.416-0.259,0.603c-0.409,0.993-0.547,1.328-1.919,1.58l0.532,2.906
		c2.956-0.542,3.628-2.171,4.118-3.36c0.01-0.026,0.019-0.042,0.026-0.064c0.512,5.034,4.744,8.965,9.911,8.965
		c5.513,0,9.979-4.468,9.979-9.98c0-1.707-0.432-3.313-1.185-4.719L30.307,11.45l-0.2-2.155l5.784-2.719l-5.892,1.56h-0.002
		l-0.351,0.093c-0.004,0.011-0.006,0.021-0.01,0.031c-0.394,0.116-1.005,0.251-1.324,0.135c-0.92-0.337-1.971-1.487-2.292-2.511
		l-2.816,0.885C23.729,8.435,25.117,10.063,26.647,10.876z"/>
</g>
</svg>
