<?xml version="1.0" encoding="UTF-8" standalone="no"?>
<!-- Generator: Adobe Illustrator 16.0.0, SVG Export Plug-In . SVG Version: 6.00 Build 0)  -->

<svg
   xmlns:dc="http://purl.org/dc/elements/1.1/"
   xmlns:cc="http://creativecommons.org/ns#"
   xmlns:rdf="http://www.w3.org/1999/02/22-rdf-syntax-ns#"
   xmlns:svg="http://www.w3.org/2000/svg"
   xmlns="http://www.w3.org/2000/svg"
   xmlns:sodipodi="http://sodipodi.sourceforge.net/DTD/sodipodi-0.dtd"
   xmlns:inkscape="http://www.inkscape.org/namespaces/inkscape"
   version="1.1"
   id="Layer_1"
   x="0px"
   y="0px"
   width="100px"
   height="100px"
   viewBox="0 0 100 100"
   enable-background="new 0 0 100 100"
   xml:space="preserve"
   inkscape:version="0.91 r13725"
   sodipodi:docname="person287.svg"><metadata
     id="metadata13"><rdf:RDF><cc:Work
         rdf:about=""><dc:format>image/svg+xml</dc:format><dc:type
           rdf:resource="http://purl.org/dc/dcmitype/StillImage" /></cc:Work></rdf:RDF></metadata><defs
     id="defs11" /><sodipodi:namedview
     pagecolor="#ffffff"
     bordercolor="#666666"
     borderopacity="1"
     objecttolerance="10"
     gridtolerance="10"
     guidetolerance="10"
     inkscape:pageopacity="0"
     inkscape:pageshadow="2"
     inkscape:window-width="640"
     inkscape:window-height="480"
     id="namedview9"
     showgrid="false"
     inkscape:zoom="2.36"
     inkscape:cx="50"
     inkscape:cy="50"
     inkscape:window-x="317"
     inkscape:window-y="157"
     inkscape:window-maximized="0"
     inkscape:current-layer="Layer_1" /><path
     d="M 87.691406 9.7929688 L 87.691406 12.654297 L 82.296875 12.654297 C 82.130875 12.188297 81.845234 11.90625 81.490234 11.90625 C 81.136234 11.90625 80.847594 12.188297 80.683594 12.654297 L 80.203125 12.654297 C 79.436125 12.654297 78.8125 12.029719 78.8125 11.261719 L 78.09375 11.261719 C 78.09375 12.425719 79.040125 13.371094 80.203125 13.371094 L 80.541016 13.371094 C 80.535016 13.464094 80.525391 13.55825 80.525391 13.65625 C 80.525391 13.79025 80.535828 13.919016 80.548828 14.041016 L 79.273438 14.041016 C 78.381438 14.041016 77.658203 14.767203 77.658203 15.658203 L 77.658203 23.433594 C 77.658203 24.326594 78.382437 25.050781 79.273438 25.050781 L 79.751953 25.050781 L 79.751953 27.255859 L 79.923828 27.255859 C 79.643828 34.027859 76.845063 36.945656 69.664062 37.972656 C 68.581063 38.133656 67.199375 38.109891 65.734375 38.087891 C 62.968375 38.043891 59.828422 37.993562 57.857422 39.226562 C 56.178422 40.274563 55.671594 41.828078 55.183594 43.330078 C 54.781594 44.562078 54.402531 45.727719 53.394531 46.636719 C 52.849531 47.143719 52.235312 47.482703 51.570312 47.720703 C 39.257312 46.366703 39.251953 46.367188 39.251953 46.367188 L 39.251953 47.244141 C 31.189953 48.787141 27.140734 45.041938 26.927734 44.835938 C 25.859734 43.771937 24.130687 43.760359 23.054688 44.818359 C 21.966687 45.883359 21.950625 47.629844 23.015625 48.714844 C 23.226625 48.930844 27.465812 53.136719 35.507812 53.136719 C 36.673812 53.136719 37.925953 53.041844 39.251953 52.839844 L 39.251953 54.085938 C 37.978953 54.275937 36.718187 54.380859 35.492188 54.380859 C 27.353188 54.380859 23.027547 50.224 22.560547 49.75 C 22.139547 49.32 21.846969 48.803094 21.667969 48.246094 C 21.648969 48.194094 21.637094 48.142891 21.621094 48.087891 C 21.577094 47.930891 21.541531 47.771422 21.519531 47.607422 C 21.513531 47.566422 21.496188 47.528328 21.492188 47.486328 C 21.483187 47.416328 21.493234 47.346344 21.490234 47.277344 C 21.486234 47.199344 21.46775 47.125875 21.46875 47.046875 C 21.46875 47.000875 21.481375 46.954203 21.484375 46.908203 C 21.490375 46.783203 21.505437 46.663016 21.523438 46.541016 C 21.542437 46.410016 21.56175 46.281297 21.59375 46.154297 C 21.61275 46.084297 21.636203 46.015313 21.658203 45.945312 C 21.844203 45.354312 22.155375 44.808281 22.609375 44.363281 C 23.326375 43.661281 24.272344 43.273438 25.277344 43.273438 C 26.292344 43.273438 27.248797 43.669719 27.966797 44.386719 C 28.054797 44.470719 30.490656 46.765625 35.472656 46.765625 C 35.594656 46.765625 35.71975 46.757906 35.84375 46.753906 C 31.50875 45.283906 26.951172 42.822266 26.951172 42.822266 C 24.881172 41.486266 22.320406 42.407078 20.816406 43.830078 C 20.816406 43.830078 20.313937 44.259984 19.960938 44.833984 C 19.624938 45.382984 19.359375 46.068359 19.359375 46.068359 L 19.351562 46.085938 C 18.851562 47.530938 18.839406 49.371297 19.691406 50.779297 C 19.691406 50.779297 20.267797 51.630609 20.966797 52.099609 C 20.966797 52.099609 30.829922 58.895516 37.044922 59.103516 C 37.799922 59.128516 38.530047 59.138625 39.248047 59.140625 L 39.248047 60.376953 L 33.914062 60.376953 L 14.246094 49.908203 C 14.521094 49.805203 14.765156 49.612031 14.910156 49.332031 C 15.222156 48.729031 14.988672 47.989734 14.388672 47.677734 L 7.6210938 44.160156 C 7.0180937 43.847156 6.2778437 44.083547 5.9648438 44.685547 C 5.8388438 44.929547 5.8203281 45.193312 5.8613281 45.445312 L 4.9882812 44.978516 C 3.4952812 44.229516 1.6767344 44.833172 0.92773438 46.326172 C 0.17873438 47.819172 0.78239062 49.635766 2.2753906 50.384766 L 29.273438 64.816406 L 9.5859375 64.816406 C 8.5839375 64.816406 7.7714844 65.629859 7.7714844 66.630859 L 7.7714844 67.638672 C 7.7714844 68.640672 8.5839375 69.453125 9.5859375 69.453125 L 15.966797 69.453125 C 15.951797 69.586125 15.941406 69.720469 15.941406 69.855469 L 15.941406 85.355469 C 15.316406 85.855469 14.908203 86.616516 14.908203 87.478516 C 14.908203 88.985516 16.131672 90.207031 17.638672 90.207031 C 19.146672 90.207031 20.367188 88.985516 20.367188 87.478516 C 20.367188 86.727516 20.062266 86.047687 19.572266 85.554688 L 19.572266 82.152344 L 74.404297 82.152344 L 74.404297 85.332031 C 73.763297 85.831031 73.34375 86.603516 73.34375 87.478516 C 73.34375 88.985516 74.562313 90.207031 76.070312 90.207031 C 77.577313 90.207031 78.800781 88.985516 78.800781 87.478516 C 78.800781 86.744516 78.505203 86.080844 78.033203 85.589844 L 78.033203 69.855469 C 78.033203 67.927469 76.523047 66.352281 74.623047 66.238281 C 75.785047 65.817281 76.621094 64.712297 76.621094 63.404297 C 76.621094 61.788297 75.351813 60.480484 73.757812 60.396484 C 74.448813 56.597484 73.449828 50.127937 59.423828 48.585938 C 57.129828 48.333937 55.109594 48.110109 53.308594 47.912109 C 53.561594 47.742109 53.808016 47.554938 54.041016 47.335938 C 55.232016 46.263937 55.669797 44.923 56.091797 43.625 C 56.549797 42.222 56.980281 40.895297 58.363281 40.029297 C 60.097281 38.945297 63.091609 38.996156 65.724609 39.035156 C 67.229609 39.058156 68.648687 39.083109 69.804688 38.912109 C 77.469688 37.816109 80.545938 34.539813 80.835938 27.257812 L 80.984375 27.257812 L 80.984375 25.050781 L 82.029297 25.050781 L 82.029297 26.025391 L 83.257812 26.025391 L 83.257812 25.050781 L 83.705078 25.050781 C 84.598078 25.050781 85.320312 24.327547 85.320312 23.435547 L 85.320312 15.658203 C 85.320312 14.766203 84.597078 14.042969 83.705078 14.042969 L 82.433594 14.042969 C 82.447594 13.920969 82.455078 13.792203 82.455078 13.658203 C 82.455078 13.559203 82.4455 13.466047 82.4375 13.373047 L 87.691406 13.373047 L 87.681641 82.6875 L 86.390625 82.6875 C 84.099625 82.6875 82.14275 84.117953 81.34375 86.126953 C 80.48775 86.387953 79.859375 87.173234 79.859375 88.115234 C 79.859375 89.269234 80.795266 90.205078 81.947266 90.205078 C 83.102266 90.205078 84.037109 89.269234 84.037109 88.115234 C 84.037109 87.560234 83.81775 87.0615 83.46875 86.6875 C 83.99975 85.6035 85.104578 84.849609 86.392578 84.849609 L 91.257812 84.849609 C 92.544813 84.849609 93.650641 85.6035 94.181641 86.6875 C 93.830641 87.0615 93.611328 87.560234 93.611328 88.115234 C 93.611328 89.269234 94.547172 90.205078 95.701172 90.205078 C 96.855172 90.205078 97.789062 89.269234 97.789062 88.115234 C 97.789062 87.173234 97.163641 86.387953 96.306641 86.126953 C 95.508641 84.116953 93.549766 82.6875 91.259766 82.6875 L 89.845703 82.6875 L 89.849609 13.373047 L 97.279297 13.373047 C 98.443297 13.373047 99.392578 12.425719 99.392578 11.261719 L 98.671875 11.261719 C 98.671875 12.029719 98.047344 12.654297 97.277344 12.654297 L 89.847656 12.654297 L 89.847656 9.7929688 L 87.691406 9.7929688 z M 81.271484 13.373047 L 81.712891 13.373047 C 81.719891 13.464047 81.734375 13.551203 81.734375 13.658203 C 81.734375 13.800203 81.723031 13.928969 81.707031 14.042969 L 81.277344 14.042969 C 81.261344 13.928969 81.25 13.800203 81.25 13.658203 C 81.249 13.551203 81.263484 13.464047 81.271484 13.373047 z M 81.46875 16.251953 C 81.46875 16.251953 83.167969 18.911609 83.167969 19.849609 C 83.167969 20.787609 82.40675 21.548828 81.46875 21.548828 C 80.53075 21.548828 79.769531 20.787609 79.769531 19.849609 C 79.769531 18.911609 81.46875 16.251953 81.46875 16.251953 z M 14.941406 34.623047 A 6.0139999 6.0139999 0 0 0 8.9277344 40.636719 A 6.0139999 6.0139999 0 0 0 14.941406 46.650391 A 6.0139999 6.0139999 0 0 0 20.955078 40.636719 A 6.0139999 6.0139999 0 0 0 14.941406 34.623047 z M 19.570312 69.855469 L 74.402344 69.855469 L 74.402344 79.732422 L 19.570312 79.732422 L 19.570312 69.855469 z "
     id="path5" /></svg>