<?xml version="1.0" encoding="UTF-8" standalone="no"?>
<!-- Generator: Adobe Illustrator 16.0.0, SVG Export Plug-In . SVG Version: 6.00 Build 0)  -->

<svg
   xmlns:dc="http://purl.org/dc/elements/1.1/"
   xmlns:cc="http://creativecommons.org/ns#"
   xmlns:rdf="http://www.w3.org/1999/02/22-rdf-syntax-ns#"
   xmlns:svg="http://www.w3.org/2000/svg"
   xmlns="http://www.w3.org/2000/svg"
   xmlns:sodipodi="http://sodipodi.sourceforge.net/DTD/sodipodi-0.dtd"
   xmlns:inkscape="http://www.inkscape.org/namespaces/inkscape"
   version="1.1"
   id="Layer_1"
   x="0px"
   y="0px"
   width="100px"
   height="100px"
   viewBox="0 0 100 100"
   enable-background="new 0 0 100 100"
   xml:space="preserve"
   inkscape:version="0.91 r13725"
   sodipodi:docname="person289.svg"><metadata
     id="metadata36"><rdf:RDF><cc:Work
         rdf:about=""><dc:format>image/svg+xml</dc:format><dc:type
           rdf:resource="http://purl.org/dc/dcmitype/StillImage" /></cc:Work></rdf:RDF></metadata><defs
     id="defs34" /><sodipodi:namedview
     pagecolor="#ffffff"
     bordercolor="#666666"
     borderopacity="1"
     objecttolerance="10"
     gridtolerance="10"
     guidetolerance="10"
     inkscape:pageopacity="0"
     inkscape:pageshadow="2"
     inkscape:window-width="640"
     inkscape:window-height="480"
     id="namedview32"
     showgrid="false"
     inkscape:zoom="2.36"
     inkscape:cx="50"
     inkscape:cy="50"
     inkscape:window-x="387"
     inkscape:window-y="278"
     inkscape:window-maximized="0"
     inkscape:current-layer="Layer_1" /><path
     d="M 50.666016 0.87695312 A 9.3430004 9.3430004 0 0 0 41.322266 10.220703 A 9.3430004 9.3430004 0 0 0 50.666016 19.5625 A 9.3430004 9.3430004 0 0 0 60.009766 10.220703 A 9.3430004 9.3430004 0 0 0 50.666016 0.87695312 z M 48.408203 20.320312 C 48.400203 20.322312 48.392719 20.322219 48.386719 20.324219 C 45.262719 21.326219 30.681391 26.426109 33.025391 49.037109 C 33.210391 50.906109 34.788859 52.302734 36.630859 52.302734 C 36.749859 52.302734 36.872094 52.295203 36.996094 52.283203 C 38.989094 52.083203 40.440234 50.3055 40.240234 48.3125 C 39.694234 42.8405 40.095516 39.020734 41.103516 36.177734 L 41.103516 49.087891 C 41.103516 49.310891 41.124578 49.525234 41.142578 49.740234 C 42.040578 47.840234 43.958313 46.513672 46.195312 46.513672 C 47.694313 46.513672 49.100203 47.097297 50.158203 48.154297 C 50.396203 48.393297 50.599063 48.652875 50.789062 48.921875 C 51.804063 47.470875 53.481812 46.515625 55.382812 46.515625 C 57.451813 46.515625 59.243844 47.655125 60.214844 49.328125 C 60.216844 49.247125 60.228516 49.170891 60.228516 49.087891 L 60.228516 35.953125 C 61.295516 38.786125 61.731406 42.577422 61.191406 47.982422 C 60.991406 49.975422 62.446453 51.753125 64.439453 51.953125 C 64.561453 51.965125 64.684688 51.972656 64.804688 51.972656 C 66.645687 51.972656 68.221203 50.576078 68.408203 48.705078 C 70.042203 32.388078 62.168234 22.529703 52.990234 20.345703 L 50.666016 22.689453 L 48.408203 20.320312 z M 13.496094 47.638672 C 11.756094 47.638672 10.345703 49.048062 10.345703 50.789062 L 10.345703 54.925781 C 10.345703 56.666781 11.756094 58.076172 13.496094 58.076172 L 13.759766 58.076172 L 13.759766 65.474609 L 20.302734 65.474609 L 39.744141 73.132812 L 39.742188 71.033203 L 25.632812 65.474609 L 39.742188 65.474609 L 39.740234 63.373047 L 15.859375 63.373047 L 15.859375 58.074219 L 40.222656 58.074219 L 40.222656 53.449219 C 39.762656 53.615219 38.525578 53.728344 38.017578 53.777344 C 37.801578 53.799344 37.60325 53.810547 37.40625 53.810547 C 32.16625 53.810547 31.666469 51.451125 31.355469 48.328125 C 31.331469 48.093125 31.316875 47.868672 31.296875 47.638672 L 13.496094 47.638672 z M 70.091797 47.638672 C 70.079797 47.767672 70.077453 47.884625 70.064453 48.015625 C 69.747453 51.201625 68.490969 53.944844 63.667969 53.464844 C 63.230969 53.420844 61.94025 53.332172 61.53125 53.201172 L 61.521484 58.076172 L 84.140625 58.076172 L 84.140625 63.375 L 61.931641 63.375 L 61.929688 65.476562 L 74.367188 65.476562 L 61.929688 70.376953 L 61.929688 72.474609 L 79.699219 65.476562 L 86.242188 65.476562 L 86.242188 58.076172 L 86.505859 58.076172 C 88.246859 58.076172 89.65625 56.666781 89.65625 54.925781 L 89.65625 50.789062 C 89.65525 49.047063 88.244906 47.638672 86.503906 47.638672 L 70.091797 47.638672 z M 46.117188 48.134766 C 43.750188 48.134766 41.832031 50.052875 41.832031 52.421875 L 41.833984 76.939453 C 41.833984 79.306453 43.753094 81.225609 46.121094 81.224609 C 48.487094 81.224609 50.40625 79.3055 50.40625 76.9375 L 50.40625 52.419922 C 50.40625 50.051922 48.484188 48.133766 46.117188 48.134766 z M 55.302734 48.134766 C 52.936734 48.134766 51.017578 50.051922 51.017578 52.419922 L 51.015625 76.939453 C 51.015625 79.306453 52.935734 81.224609 55.302734 81.224609 C 57.668734 81.224609 59.589844 79.306453 59.589844 76.939453 L 59.591797 52.419922 C 59.591797 50.051922 57.672734 48.134766 55.302734 48.134766 z M 40.238281 78.919922 L 13.501953 89.449219 L 11.591797 89.449219 L 11.591797 91.550781 L 12.183594 91.550781 L 12.183594 92.697266 C 11.095594 93.268266 10.345703 94.396938 10.345703 95.710938 C 10.345703 97.595938 11.873766 99.123047 13.759766 99.123047 C 15.645766 99.123047 17.173828 97.595938 17.173828 95.710938 C 17.173828 94.396938 16.421984 93.269266 15.333984 92.697266 L 15.333984 91.550781 L 83.615234 91.550781 L 83.615234 92.697266 C 82.527234 93.268266 81.777344 94.396938 81.777344 95.710938 C 81.777344 97.595938 83.304406 99.123047 85.191406 99.123047 C 87.076406 99.123047 88.605469 97.595938 88.605469 95.710938 C 88.605469 94.395938 87.853625 93.267313 86.765625 92.695312 L 86.765625 91.550781 L 88.410156 91.550781 L 88.410156 89.449219 L 86.498047 89.449219 L 61.177734 79.474609 C 60.864734 80.078609 60.465187 80.628375 59.992188 81.109375 L 81.167969 89.449219 L 18.833984 89.449219 L 41.244141 80.623047 C 40.830141 80.110047 40.490281 79.537922 40.238281 78.919922 z "
     id="path18" /></svg>