<?xml version="1.0" encoding="utf-8"?>
<!-- Generator: Adobe Illustrator 16.0.0, SVG Export Plug-In . SVG Version: 6.00 Build 0)  -->
<!DOCTYPE svg PUBLIC "-//W3C//DTD SVG 1.1//EN" "http://www.w3.org/Graphics/SVG/1.1/DTD/svg11.dtd">
<svg version="1.1" id="Capa_1" xmlns="http://www.w3.org/2000/svg" xmlns:xlink="http://www.w3.org/1999/xlink" x="0px" y="0px"
	 width="64px" height="64px" viewBox="0 0 64 64" enable-background="new 0 0 64 64" xml:space="preserve">
<g>
	<path d="M23.924,42.315l0.57-2.909c1.104-5.644,3.993-13.327,11.482-17.888l2.885-1.755L21.13,8.917
		c-2.122-1.301-4.558-1.988-7.041-1.988c-4.751,0-9.066,2.417-11.542,6.463c-3.888,6.358-1.879,14.694,4.478,18.584L23.924,42.315z
		 M6.065,15.544c1.719-2.813,4.721-4.493,8.024-4.493c1.722,0,3.413,0.478,4.892,1.38l12.166,7.444
		c-5.855,4.667-8.673,11.033-10.025,15.891L9.174,28.46C4.756,25.756,3.361,19.962,6.065,15.544z"/>
	<path d="M57.8,31.989l-15.851-9.697l-0.293,0.125c-1.848,0.791-3.437,1.777-4.839,2.874l15.265,9.319
		c0.577,0.354,0.761,1.108,0.406,1.687c-0.23,0.379-0.634,0.587-1.046,0.587c-0.218,0-0.438-0.057-0.64-0.179
		c0,0-15.657-9.668-15.757-9.876c-5.598,5.465-7.162,12.916-7.589,16.482l-0.048,0.393l16.903,10.337
		c2.031,1.244,4.359,1.899,6.731,1.899c4.544,0,8.668-2.311,11.036-6.181C65.798,43.68,63.877,35.709,57.8,31.989z"/>
</g>
</svg>
