<?xml version="1.0" encoding="utf-8"?>
<!-- Generator: Adobe Illustrator 17.0.0, SVG Export Plug-In . SVG Version: 6.00 Build 0)  -->
<!DOCTYPE svg PUBLIC "-//W3C//DTD SVG 1.1//EN" "http://www.w3.org/Graphics/SVG/1.1/DTD/svg11.dtd">
<svg version="1.1" id="Layer_1" xmlns="http://www.w3.org/2000/svg" xmlns:xlink="http://www.w3.org/1999/xlink" x="0px" y="0px"
	 width="32px" height="32px" viewBox="0 0 32 32" enable-background="new 0 0 32 32" xml:space="preserve">
<g>
	<path d="M30.743,3.254c0.639-0.739,0.601-1.846-0.092-2.537c-0.645-0.645-1.69-0.645-2.334-0.001L8.006,21.028l-1.214,1.216
		c2.831-0.299,5.657-0.671,8.474-1.088L30.743,3.254z"/>
	<path d="M5.214,23.819l-4.886,4.885c-0.163,0.164-0.206,0.414-0.109,0.623c0.092,0.198,0.287,0.321,0.503,0.321
		c0.014,0,0.03,0,0.044-0.001c0.154-0.013,0.319-0.026,0.494-0.043c0.052,0.015,0.107,0.023,0.164,0.023h1.809
		c0.258,0,0.478-0.162,0.562-0.389c0.895-0.17,1.86-0.402,2.836-0.713c-0.161,0.109-0.266,0.292-0.266,0.499
		c0,0.333,0.272,0.604,0.604,0.604h3.737c0.333,0,0.604-0.26,0.604-0.594c0-0.333-0.271-0.594-0.604-0.594H6.969
		c-0.008,0-0.018-0.008-0.025-0.008c2.35-0.792,4.728-2.071,6.297-4.123l1.136-1.524C14.376,22.785,5.356,23.806,5.214,23.819z
		 M2.503,28.236l3.27-3.268c1.054-0.125,3.779-0.454,5.921-0.711C9.247,26.81,5.215,27.831,2.503,28.236z"/>
	<path d="M25.652,28.44h-3.737c-0.331,0-0.601,0.261-0.601,0.594c0,0.333,0.27,0.594,0.601,0.594h3.737
		c0.333,0,0.604-0.26,0.604-0.594C26.256,28.701,25.985,28.44,25.652,28.44z"/>
	<path d="M18.18,28.44h-3.737c-0.332,0-0.603,0.261-0.603,0.594c0,0.333,0.271,0.594,0.603,0.594h3.737
		c0.332,0,0.602-0.26,0.602-0.594C18.781,28.701,18.512,28.44,18.18,28.44z"/>
	<path d="M31.198,28.44h-1.809c-0.333,0-0.603,0.261-0.603,0.594c0,0.333,0.27,0.594,0.603,0.594h1.809
		c0.333,0,0.604-0.26,0.604-0.594C31.802,28.701,31.531,28.44,31.198,28.44z"/>
</g>
</svg>
