<?xml version="1.0" encoding="UTF-8" standalone="no"?>
<!-- Generator: Adobe Illustrator 16.0.0, SVG Export Plug-In . SVG Version: 6.00 Build 0)  -->

<svg
   xmlns:dc="http://purl.org/dc/elements/1.1/"
   xmlns:cc="http://creativecommons.org/ns#"
   xmlns:rdf="http://www.w3.org/1999/02/22-rdf-syntax-ns#"
   xmlns:svg="http://www.w3.org/2000/svg"
   xmlns="http://www.w3.org/2000/svg"
   xmlns:sodipodi="http://sodipodi.sourceforge.net/DTD/sodipodi-0.dtd"
   xmlns:inkscape="http://www.inkscape.org/namespaces/inkscape"
   version="1.1"
   id="Layer_1"
   x="0px"
   y="0px"
   width="100px"
   height="100px"
   viewBox="0 0 100 100"
   enable-background="new 0 0 100 100"
   xml:space="preserve"
   inkscape:version="0.91 r13725"
   sodipodi:docname="injured3.svg"><metadata
     id="metadata31"><rdf:RDF><cc:Work
         rdf:about=""><dc:format>image/svg+xml</dc:format><dc:type
           rdf:resource="http://purl.org/dc/dcmitype/StillImage" /></cc:Work></rdf:RDF></metadata><defs
     id="defs29" /><sodipodi:namedview
     pagecolor="#ffffff"
     bordercolor="#666666"
     borderopacity="1"
     objecttolerance="10"
     gridtolerance="10"
     guidetolerance="10"
     inkscape:pageopacity="0"
     inkscape:pageshadow="2"
     inkscape:window-width="640"
     inkscape:window-height="480"
     id="namedview27"
     showgrid="false"
     inkscape:zoom="2.36"
     inkscape:cx="50"
     inkscape:cy="50"
     inkscape:window-x="10"
     inkscape:window-y="34"
     inkscape:window-maximized="0"
     inkscape:current-layer="Layer_1" /><path
     d="m 62.509766,1.3222656 c -6.819459,-0.285187 -12.033507,7.5958667 -9.122601,13.7611194 2.393523,6.389043 11.68113,8.134261 16.226793,3.042468 C 74.567462,13.43272 72.551718,4.2017193 66.097176,1.9954577 64.95684,1.5513997 63.733246,1.3219587 62.509766,1.3222656 Z M 36.478516,1.5 C 34.192417,0.95270601 29.039459,4.2099245 29.778122,4.6468301 32.011587,3.5978867 34.245051,2.5489434 36.478516,1.5 Z m 5.041015,1.25 C 38.851562,4.0039063 36.183594,5.2578125 33.515625,6.5117188 36.747396,5.65625 39.979167,4.8007813 43.210938,3.9453125 42.68926,3.4914176 42.123291,3.0875864 41.519531,2.75 Z M 23.662109,5.8203125 c -3.289908,0.1355913 -3.041121,2.4619423 -0.479164,4.2337415 2.643536,1.941211 -2.600515,2.836911 -0.559895,5.688706 2.484543,1.491298 4.455505,-5.8527801 4.520666,-1.451397 1.63272,6.491352 10.327475,9.307992 15.49146,5.140121 C 46.527132,16.643935 47.80496,10.915533 45.453125,6.7402344 39.615885,8.2858073 33.778646,9.8313801 27.941406,11.376953 27.404983,9.7295266 27.917228,8.681364 29.646688,8.3287824 30.935683,7.7230946 32.224677,7.1174067 33.513672,6.5117188 30.986334,7.0778038 28.489733,8.0613745 25.949219,8.328125 24.881826,7.8685879 24.054483,6.9027655 23.662109,5.8203125 Z M 64.900391,21.677734 c -1.017941,0.564025 -2.01284,3.350246 -3.052213,1.847384 -1.584459,-2.95669 -4.385952,-0.880039 -6.49686,0.497882 -2.886725,1.86283 -7.215338,4.565488 -2.661805,7.425294 2.472655,3.132121 6.08929,4.979302 9.761659,6.319284 2.67025,-3.266258 9.278541,2.347487 10.195312,-0.75032 0.583115,-0.149315 4.792126,5.036724 0.782357,3.223222 -2.858085,-0.413355 -5.686487,-1.380605 -8.569466,-1.345949 3.428674,1.751904 0.79089,6.741637 1.320933,7.863504 4.956163,1.044275 10.965695,2.608867 15.248106,-1.06777 3.781263,-3.907049 0.981033,-9.664773 -1.952175,-13.185507 C 75.589551,27.83216 70.645166,23.792095 64.900391,21.677734 Z m -30.63086,0.283204 c -8.452674,2.764181 -15.293694,10.356726 -16.283651,19.319447 -0.936184,3.794105 0.171239,8.88882 -0.469177,11.923148 -1.16886,0.267422 0.245604,2.861832 1.683996,2.215786 2.30459,0.0085 2.666072,1.420762 2.357895,3.434185 0,10.897139 0,21.794279 0,32.691418 -0.259108,1.150558 -1.250859,3.069233 -1.291016,4.711584 -0.292887,1.770205 2.382637,0.571999 3.510727,0.921228 2.32595,0.614002 1.044194,-3.163399 0.282242,-3.974282 0.252519,-1.651388 -0.77122,-2.026518 -0.431641,-3.764966 0,-11.297204 0,-22.594407 0,-33.891611 3.599168,-2.329096 0.939028,-7.052254 1.715429,-10.466571 -0.124663,-1.884267 1.430313,-8.918791 1.138087,-3.909741 0.101318,4.644401 -0.230417,9.31775 0.224327,13.939175 0.959192,2.337346 0.283133,5.013794 0.485178,7.512304 4.77e-4,5.788747 9.55e-4,11.577493 0.0014,17.366239 3.047526,-1.279948 6.095053,-2.559895 9.142579,-3.839843 -0.0013,-4.916016 -0.0026,-9.832031 -0.0039,-14.748047 1.385876,0.0121 0.315363,2.601079 0.652344,3.713525 0.06019,9.660706 -0.121487,19.333571 0.09281,28.986529 0.999388,5.855438 10.26882,3.843327 9.045858,-1.856951 0,-11.955514 0,-23.911027 0,-35.866541 1.305589,-3.575901 0.541002,-7.490572 0.748047,-11.231738 0,-2.122623 0,-4.245247 0,-6.367871 3.803021,3.975791 8.852474,6.823711 14.210821,8.013413 3.951357,0.697293 6.06651,-5.75583 2.089572,-7.091167 -4.78907,-1.796443 -9.616808,-4.086437 -12.596241,-8.463713 -2.976864,-3.825556 -6.713414,-8.330213 -11.583908,-9.081515 -0.986447,0.485985 -1.996372,3.248765 -2.961365,1.654182 -0.586814,-0.615869 -1.173628,-1.231737 -1.760442,-1.847606 z m 18.087891,22.988281 c -1.695884,7.813275 -3.753101,15.594854 -4.933594,23.491207 0,1.704754 0,3.409508 0,5.114262 1.669488,2.269775 6.854527,0.839374 5.890866,4.454092 0.05954,5.297724 -0.118326,10.607387 0.09397,15.897429 0.994497,5.8267 10.217299,3.818254 8.995522,-1.852169 -6.13e-4,-5.077909 -0.0012,-10.155819 -0.0018,-15.233728 1.354521,0.257059 0.325973,2.91163 0.646484,4.208966 0.05743,4.290957 -0.117539,8.593588 0.09226,12.87689 0.994296,5.825043 10.216282,3.81992 8.995635,-1.850174 0,-5.476347 0,-10.952694 0,-16.429041 4.313078,-0.702648 6.673891,-4.646205 5.075442,-8.730533 C 76.368345,61.225098 75.17606,55.612236 73.921875,50.019531 69.857897,49.62229 65.864513,48.127587 61.806297,48.49579 58.469183,47.987334 55.303214,46.553761 52.357422,44.949219 Z M 36.333984,77.953125 c -3.046875,1.279948 -6.09375,2.559896 -9.140625,3.839844 -0.502144,2.045561 2.092097,0.528935 3.244764,0.670745 1.965287,-0.276316 3.930574,-0.552632 5.895861,-0.828948 0,-1.227214 0,-2.454427 0,-3.681641 z m 0,5.486328 c -3.046875,0.428385 -6.09375,0.856771 -9.140625,1.285156 -0.455656,1.839139 2.155,0.969598 3.251642,1.437488 1.963646,0.244144 3.927291,0.488289 5.890937,0.732434 -6.51e-4,-1.151693 -0.0013,-2.303385 -0.002,-3.455078 z M 27.193359,87.5625 c 0.285402,1.110358 -0.583727,3.591492 0.463275,3.797602 2.893101,-0.497638 5.786203,-0.995276 8.679304,-1.492914 0.522068,-1.941978 -2.071709,-1.132105 -3.251557,-1.570985 -1.963674,-0.244567 -3.927348,-0.489135 -5.891022,-0.733703 z m 9.142579,4.111328 c -3.044922,0.523438 -6.089844,1.046875 -9.134766,1.570313 -0.125638,6.32777 10.221498,5.427397 9.134766,-0.766598 0,-0.267905 0,-0.53581 0,-0.803715 z"
     id="path5"
     inkscape:connector-curvature="0" /></svg>