<?xml version="1.0" encoding="utf-8"?>
<!-- Generator: Adobe Illustrator 16.0.0, SVG Export Plug-In . SVG Version: 6.00 Build 0)  -->
<!DOCTYPE svg PUBLIC "-//W3C//DTD SVG 1.1//EN" "http://www.w3.org/Graphics/SVG/1.1/DTD/svg11.dtd">
<svg version="1.1" id="Layer_1" xmlns="http://www.w3.org/2000/svg" xmlns:xlink="http://www.w3.org/1999/xlink" x="0px" y="0px"
	 width="50px" height="50px" viewBox="0 0 50 50" enable-background="new 0 0 50 50" xml:space="preserve">
<g>
	<path d="M45.758,42.099c-2.852-0.906-5.65-1.951-8.423-3.037c-0.79-0.304-1.378-0.98-2.09-1.452
		c-0.316-0.209-0.699-0.401-1.076-0.454c-1.284-0.174-1.854-0.565-2.159-1.654c-0.398-1.435-0.684-2.863-0.336-4.349
		c0.15-0.65,0.426-1.065,1.161-1.306c1.526-0.517,5.297-1.085,6.805-1.634c1.124-0.412,1.196-0.752,0.79-1.754
		c-1.033-2.516-2.146-7.055-3.553-10.74c0.062-0.094,0.1-0.199,0.117-0.312l1.551-11.361c0.058-0.424-0.218-0.823-0.635-0.922
		L24.722,0.023c-0.125-0.031-0.259-0.031-0.38,0L11.15,3.124c-0.417,0.099-0.691,0.498-0.633,0.922l1.555,11.361
		c0.022,0.175,0.108,0.327,0.224,0.449c-0.056,0.285-0.12,0.568-0.146,0.853c-0.317,3.376-1.278,6.593-2.578,9.75
		c-0.408,1.002-0.336,1.342,0.788,1.754c1.51,0.549,5.279,1.117,6.806,1.634c0.736,0.24,1.01,0.655,1.163,1.306
		c0.347,1.485,0.063,2.914-0.337,4.349c-0.306,1.089-0.873,1.48-2.161,1.654c-0.377,0.053-0.757,0.245-1.074,0.454
		c-0.712,0.472-1.3,1.148-2.088,1.452c-2.771,1.086-5.575,2.131-8.425,3.037C-0.141,43.49,1.507,45.908,0.797,50
		c9.574,0,14.599,0,24.175,0c0.019,0,0.042,0,0.061,0c9.572,0,14.597,0,24.171,0C48.494,45.908,50.141,43.49,45.758,42.099z
		 M24.53,1.685l12.266,2.885l-1.352,9.896H13.619l-1.354-9.896L24.53,1.685z"/>
	<polygon points="23.221,12.005 25.843,12.005 25.843,9.373 28.473,9.373 28.473,6.753 25.843,6.753 25.843,4.12 23.221,4.12 
		23.221,6.753 20.589,6.753 20.589,9.373 23.221,9.373 	"/>
</g>
</svg>
