<?xml version="1.0" encoding="iso-8859-1"?>
<!-- Generator: Adobe Illustrator 16.0.0, SVG Export Plug-In . SVG Version: 6.00 Build 0)  -->
<!DOCTYPE svg PUBLIC "-//W3C//DTD SVG 1.1//EN" "http://www.w3.org/Graphics/SVG/1.1/DTD/svg11.dtd">
<svg version="1.1" id="Layer_1" xmlns="http://www.w3.org/2000/svg" xmlns:xlink="http://www.w3.org/1999/xlink" x="0px" y="0px"
	 width="32px" height="32.198px" viewBox="0 0 32 32.198" style="enable-background:new 0 0 32 32.198;" xml:space="preserve">
<g>
	<path d="M17.288,13.624c0.035,0.032,0.079,0.049,0.123,0.049c0.048,0,0.096-0.02,0.131-0.057l0.612-0.656
		c0.032-0.035,0.05-0.081,0.049-0.129c-0.003-0.047-0.022-0.092-0.058-0.125l-1.208-1.129c-0.072-0.067-0.186-0.063-0.253,0.009
		l-0.613,0.655c-0.032,0.035-0.05,0.081-0.048,0.129c0.002,0.047,0.021,0.092,0.057,0.125L17.288,13.624z"/>
	<path d="M14.597,16.345c0.034,0.033,0.079,0.049,0.123,0.049c0.048,0,0.095-0.02,0.13-0.057l0.612-0.655
		c0.033-0.035,0.051-0.081,0.05-0.129c-0.002-0.048-0.022-0.093-0.058-0.125l-1.208-1.13c-0.072-0.066-0.186-0.063-0.254,0.009
		l-0.612,0.655c-0.032,0.035-0.049,0.082-0.048,0.129s0.021,0.092,0.056,0.125L14.597,16.345z"/>
	<path d="M19.544,10.927c0.035,0.032,0.078,0.049,0.122,0.049c0.049,0,0.097-0.02,0.132-0.057l0.612-0.656
		c0.032-0.035,0.05-0.081,0.048-0.128c-0.002-0.048-0.021-0.092-0.057-0.125L19.194,8.88c-0.072-0.068-0.186-0.063-0.254,0.008
		l-0.612,0.655c-0.032,0.035-0.05,0.082-0.048,0.128c0.002,0.048,0.021,0.093,0.057,0.125L19.544,10.927z"/>
	<path d="M31.886,6.083l-6.288-5.985c-0.145-0.136-0.371-0.128-0.507,0.017L22.869,2.49c-0.065,0.07-0.1,0.163-0.097,0.257
		c0.003,0.095,0.044,0.186,0.113,0.25l2.354,2.29l-1.099,1.175L20.482,3.04c-0.145-0.136-0.371-0.128-0.508,0.017L2.383,21.872
		c-0.064,0.068-0.1,0.161-0.097,0.256c0.004,0.096,0.044,0.186,0.113,0.25l3.368,3.148l-5.671,6.068
		c-0.111,0.117-0.129,0.295-0.043,0.434c0.066,0.107,0.183,0.17,0.305,0.17c0.034,0,0.068-0.006,0.103-0.016l3.42-1.02
		c0.063-0.018,0.117-0.051,0.16-0.098l3.568-3.816l3.44,3.217c0.145,0.135,0.372,0.127,0.508-0.018l17.591-18.814
		c0.064-0.068,0.1-0.161,0.097-0.256c-0.003-0.096-0.044-0.186-0.113-0.25l-3.265-3.052l1.1-1.176l2.206,2.083
		c0.144,0.135,0.371,0.128,0.507-0.017l2.223-2.376C31.968,6.52,32.003,6.428,32,6.333C31.998,6.237,31.957,6.147,31.886,6.083z
		 M26.352,11.475L11.21,27.667l-6.029-5.636L20.322,5.838L26.352,11.475z"/>
	<path d="M6.297,22.144l4.62,4.305c0.069,0.064,0.157,0.098,0.245,0.098c0.094,0,0.188-0.037,0.258-0.109l8.858-9.151
		c0.099-0.103,0.127-0.254,0.073-0.386s-0.182-0.219-0.323-0.223c0,0-0.185-0.004-0.481-0.004c-1.144,0-3.205,0.057-4.167,0.434
		c-0.769,0.303-2.955,0.409-4.745,0.409l-0.271-0.001c-0.086,0.005-0.195,0.039-0.265,0.111l-3.817,4.008
		c-0.066,0.069-0.103,0.162-0.1,0.258S6.227,22.079,6.297,22.144z"/>
</g>
<g>
</g>
<g>
</g>
<g>
</g>
<g>
</g>
<g>
</g>
<g>
</g>
<g>
</g>
<g>
</g>
<g>
</g>
<g>
</g>
<g>
</g>
<g>
</g>
<g>
</g>
<g>
</g>
<g>
</g>
</svg>
