<?xml version="1.0" encoding="utf-8"?>
<!-- Generator: Adobe Illustrator 17.0.2, SVG Export Plug-In . SVG Version: 6.00 Build 0)  -->
<!DOCTYPE svg PUBLIC "-//W3C//DTD SVG 1.1//EN" "http://www.w3.org/Graphics/SVG/1.1/DTD/svg11.dtd">
<svg version="1.1" id="Capa_1" xmlns="http://www.w3.org/2000/svg" xmlns:xlink="http://www.w3.org/1999/xlink" x="0px" y="0px"
	 width="64px" height="64px" viewBox="0 0 64 64" enable-background="new 0 0 64 64" xml:space="preserve">
<path d="M42.598,17.407c-0.527,0-1.085,0.062-1.663,0.172c-0.184,0.035-0.368,0.071-0.557,0.117
	c-3.458,0.837-7.637,3.458-11.432,7.252c-2.988,2.988-5.319,6.308-6.563,9.348c-0.24,0.586-0.419,1.146-0.57,1.693
	c-0.102,0.368-0.186,0.727-0.248,1.076c-0.387,2.183,0.001,3.967,1.182,5.148c0.878,0.878,2.127,1.342,3.612,1.342
	c0.527,0,1.085-0.062,1.663-0.172c0.184-0.035,0.368-0.071,0.557-0.117c3.458-0.837,7.637-3.458,11.432-7.252
	c2.988-2.988,5.319-6.308,6.563-9.348c0.25-0.61,0.434-1.192,0.588-1.759c0.103-0.32,0.18-0.644,0.225-0.975
	c0.397-2.198,0.01-3.995-1.177-5.182C45.332,17.871,44.083,17.407,42.598,17.407z M41.512,20.523
	c0.095-0.01,0.187-0.028,0.284-0.028c0.713,0,1.383,0.278,1.887,0.781c0.585,0.586,0.829,1.377,0.756,2.143
	c-0.046,0.246-0.107,0.503-0.182,0.77c-0.13,0.313-0.32,0.607-0.574,0.861c-1.008,1.008-2.766,1.008-3.773,0
	c-0.504-0.503-0.781-1.173-0.781-1.886c0-0.712,0.277-1.383,0.781-1.887c0.248-0.248,0.537-0.44,0.851-0.572
	C41.021,20.631,41.274,20.568,41.512,20.523z M29.048,39.684c-0.332,0.332-0.748,0.543-1.189,0.657
	c-0.092,0.022-0.18,0.041-0.269,0.06c-0.825,0.126-1.707-0.108-2.315-0.716c-0.504-0.504-0.781-1.174-0.781-1.887
	c0-0.085,0.017-0.167,0.024-0.25c0.046-0.252,0.11-0.516,0.187-0.791c0.132-0.312,0.323-0.599,0.57-0.846
	c0.504-0.504,1.174-0.782,1.887-0.782s1.383,0.278,1.887,0.782c0.504,0.503,0.781,1.173,0.781,1.886
	C29.829,38.51,29.552,39.181,29.048,39.684z M37.89,33.892c-1.747,1.747-3.476,3.117-5.085,4.156
	c0.004-0.084,0.024-0.165,0.024-0.25c0-1.514-0.59-2.938-1.66-4.008c-1.07-1.071-2.494-1.661-4.008-1.661
	c-0.085,0-0.167,0.021-0.251,0.025c1.106-1.708,2.516-3.443,4.158-5.085c1.746-1.745,3.476-3.123,5.086-4.164
	c-0.004,0.087-0.025,0.17-0.025,0.258c0,1.514,0.59,2.938,1.66,4.008c1.069,1.071,2.493,1.661,4.008,1.661
	c0.085,0,0.167-0.021,0.251-0.025C40.942,30.515,39.531,32.25,37.89,33.892z"/>
<path d="M62.789,20.379c0-4.759-3.872-8.63-8.631-8.63h-43.36c-4.759,0-8.63,3.872-8.63,8.63v10.027c0,2.67,1.27,5.213,3.405,6.846
	c0.113,0.108,0.243,0.2,0.389,0.27c0.136,0.065,13.512,6.603,14.966,15.173v1.474c0,0.829,0.672,1.5,1.5,1.5h20.101
	c0.828,0,1.5-0.671,1.5-1.5v-1.474c1.455-8.57,14.831-15.108,14.967-15.173c0.143-0.068,0.27-0.158,0.38-0.263
	c2.142-1.632,3.414-4.179,3.414-6.852V20.379z M59.789,30.406c0,1.787-0.832,3.425-2.284,4.505
	c-1.824,0.909-14.937,7.752-16.458,17.429c-0.013,0.077-0.019,0.155-0.019,0.233v0.095H23.928v-0.095
	c0-0.078-0.006-0.156-0.019-0.233C22.389,42.664,9.276,35.82,7.452,34.911C6,33.832,5.168,32.193,5.168,30.406V20.379
	c0-3.104,2.525-5.63,5.63-5.63h43.36c3.104,0,5.631,2.526,5.631,5.63V30.406z"/>
</svg>
