<?xml version="1.0" encoding="utf-8"?>
<!-- Generator: Adobe Illustrator 16.0.0, SVG Export Plug-In . SVG Version: 6.00 Build 0)  -->
<!DOCTYPE svg PUBLIC "-//W3C//DTD SVG 1.1//EN" "http://www.w3.org/Graphics/SVG/1.1/DTD/svg11.dtd">
<svg version="1.1" id="Layer_1" xmlns="http://www.w3.org/2000/svg" xmlns:xlink="http://www.w3.org/1999/xlink" x="0px" y="0px"
	 width="96px" height="96px" viewBox="0 0 96 96" enable-background="new 0 0 96 96" xml:space="preserve">
<g>
	<path d="M80.393,43.84c0.125,0.429,0.263,0.88,0.399,1.229c0.333,0.938,0.616,1.458,0.627,1.48l0.126,0.218
		c2.125,3.708,0.837,8.455-2.871,10.582c-1.172,0.672-2.504,1.027-3.851,1.027c-2.773,0-5.353-1.493-6.731-3.896
		c-1.477-2.575-1.365-5.708,0.29-8.179c0.002-0.005,0.037-0.065,0.085-0.153c0.099-0.196,0.208-0.412,0.283-0.654
		c0.166-0.488,0.265-0.922,0.322-1.393c0.011-0.079,0.01-0.176,0.019-0.259H55.303c0.125,0.429,0.263,0.88,0.399,1.229
		c0.333,0.938,0.617,1.458,0.628,1.48l0.125,0.218c2.125,3.708,0.839,8.455-2.87,10.582c-1.173,0.672-2.504,1.027-3.853,1.027
		c-2.773,0-5.352-1.493-6.731-3.896c-1.475-2.574-1.365-5.708,0.29-8.179c0.003-0.006,0.039-0.065,0.085-0.153
		c0.1-0.196,0.209-0.412,0.283-0.654c0.166-0.488,0.266-0.922,0.323-1.393c0.011-0.079,0.01-0.176,0.018-0.259H31.538
		c0.124,0.429,0.264,0.88,0.399,1.229c0.333,0.938,0.616,1.458,0.628,1.48l0.126,0.218c2.125,3.708,0.837,8.455-2.87,10.582
		c-1.173,0.672-2.505,1.027-3.853,1.027c-2.773,0-5.353-1.493-6.731-3.896c-1.477-2.574-1.365-5.708,0.289-8.179
		c0.003-0.006,0.039-0.065,0.085-0.153c0.099-0.196,0.208-0.412,0.282-0.654c0.166-0.488,0.266-0.922,0.322-1.393
		c0.012-0.079,0.012-0.176,0.02-0.259H1.371v20.332c1.647-0.766,3.455-1.234,5.461-1.281c5.26-0.121,10.021,1.828,15.046,3.051
		c4.895,1.192,10.603,1.68,15.472,0.061c3.858-1.282,7.476-3.18,11.392-4.312c9.401-2.718,17.424-0.202,26.274,3.267
		c4.88,1.912,15.386,7.674,19.357,1.688c0.082-0.124,0.169-0.236,0.255-0.347V43.84H80.393z"/>
	<path d="M12.043,12.549c0.186,0.11,0.396,0.242,0.613,0.418c0.455,0.321,0.944,0.794,1.465,1.365
		c0.511,0.581,1.055,1.263,1.58,2.06c1.07,1.573,2.099,3.55,3.049,5.727c0.932,2.188,1.783,4.576,2.489,7.005
		c0.709,2.427,1.28,4.891,1.62,7.226c0.191,1.163,0.303,2.298,0.396,3.369c0.101,1.07,0.127,2.087,0.148,3.018
		c0.017,0.932,0.022,1.784-0.09,2.538c-0.092,0.756-0.256,1.409-0.439,1.94c-0.162,0.534-0.375,0.942-0.516,1.22
		c-0.149,0.278-0.247,0.423-0.247,0.423c-0.938,1.398-1.07,3.266-0.176,4.825c1.255,2.188,4.045,2.945,6.233,1.691
		c2.188-1.255,2.944-4.045,1.69-6.233l-0.137-0.239c0,0-0.404-0.705-0.821-1.886c-0.229-0.59-0.439-1.301-0.662-2.106
		c-0.212-0.806-0.391-1.71-0.604-2.69c-0.211-0.98-0.484-2.029-0.768-3.132s-0.626-2.251-0.981-3.433
		c-0.727-2.359-1.571-4.838-2.556-7.26c-1.952-4.845-4.558-9.426-7.105-12.401c-0.625-0.75-1.262-1.386-1.849-1.918
		c-0.602-0.516-1.141-0.95-1.631-1.238c-0.235-0.159-0.463-0.275-0.662-0.369c-0.195-0.103-0.364-0.181-0.508-0.225
		c-0.284-0.102-0.435-0.156-0.435-0.156s0.146,0.068,0.419,0.195C11.701,12.339,11.861,12.432,12.043,12.549z"/>
	<path d="M35.808,12.549c0.187,0.11,0.396,0.242,0.613,0.418c0.455,0.321,0.944,0.794,1.465,1.365
		c0.512,0.581,1.055,1.263,1.58,2.06c1.07,1.573,2.099,3.55,3.049,5.727c0.932,2.188,1.784,4.576,2.488,7.005
		c0.709,2.427,1.28,4.891,1.621,7.226c0.192,1.163,0.303,2.298,0.397,3.369c0.101,1.07,0.126,2.087,0.148,3.018
		c0.017,0.932,0.022,1.784-0.089,2.538c-0.092,0.756-0.256,1.409-0.439,1.94c-0.164,0.534-0.377,0.942-0.518,1.22
		c-0.148,0.278-0.246,0.423-0.246,0.423c-0.938,1.398-1.069,3.266-0.175,4.825c1.254,2.188,4.044,2.945,6.232,1.691
		c2.188-1.255,2.945-4.045,1.691-6.233l-0.137-0.239c0,0-0.404-0.705-0.821-1.886c-0.23-0.59-0.44-1.301-0.661-2.106
		c-0.213-0.806-0.392-1.71-0.605-2.69c-0.21-0.98-0.484-2.029-0.768-3.132s-0.626-2.251-0.982-3.433
		c-0.726-2.359-1.57-4.838-2.555-7.26c-1.952-4.845-4.557-9.426-7.104-12.401c-0.626-0.75-1.263-1.386-1.849-1.918
		c-0.603-0.516-1.142-0.95-1.632-1.238c-0.235-0.159-0.462-0.275-0.662-0.369c-0.195-0.103-0.363-0.181-0.508-0.225
		c-0.284-0.102-0.435-0.156-0.435-0.156s0.146,0.068,0.418,0.195C35.466,12.339,35.627,12.432,35.808,12.549z"/>
	<path d="M60.897,12.549c0.186,0.11,0.395,0.242,0.613,0.418c0.454,0.321,0.944,0.794,1.465,1.365
		c0.511,0.581,1.056,1.263,1.58,2.06c1.07,1.573,2.1,3.55,3.049,5.727c0.932,2.188,1.783,4.576,2.488,7.005
		c0.709,2.427,1.28,4.891,1.621,7.226c0.19,1.163,0.302,2.298,0.396,3.369c0.101,1.07,0.126,2.087,0.148,3.018
		c0.017,0.932,0.023,1.784-0.089,2.538c-0.092,0.756-0.257,1.409-0.439,1.94c-0.163,0.534-0.375,0.942-0.516,1.22
		c-0.149,0.278-0.246,0.423-0.248,0.423c-0.937,1.398-1.069,3.266-0.175,4.825c1.255,2.188,4.045,2.945,6.233,1.691
		c2.188-1.255,2.944-4.045,1.691-6.233l-0.138-0.239c0,0-0.404-0.705-0.821-1.886c-0.229-0.59-0.439-1.301-0.662-2.106
		c-0.212-0.806-0.392-1.71-0.604-2.69c-0.211-0.98-0.486-2.029-0.77-3.132s-0.625-2.251-0.98-3.433
		c-0.726-2.359-1.57-4.838-2.557-7.26c-1.951-4.845-4.557-9.426-7.104-12.401c-0.625-0.75-1.262-1.386-1.849-1.918
		c-0.602-0.516-1.14-0.95-1.632-1.238c-0.233-0.159-0.462-0.275-0.66-0.369c-0.196-0.103-0.364-0.181-0.508-0.225
		c-0.284-0.102-0.435-0.156-0.435-0.156s0.145,0.068,0.418,0.195C60.555,12.339,60.715,12.432,60.897,12.549z"/>
	<path d="M75.016,70.375c-8.85-3.469-16.873-5.985-26.274-3.267c-3.916,1.132-7.534,3.03-11.392,4.312
		c-4.869,1.619-10.577,1.131-15.472-0.061c-5.025-1.224-9.786-3.172-15.046-3.051c-2.006,0.046-3.814,0.515-5.461,1.281v14.324
		h93.258V71.716c-0.086,0.111-0.174,0.224-0.255,0.347C90.402,78.049,79.896,72.287,75.016,70.375z"/>
</g>
</svg>
