<?xml version="1.0" encoding="utf-8"?>
<!-- Generator: Adobe Illustrator 17.0.0, SVG Export Plug-In . SVG Version: 6.00 Build 0)  -->
<!DOCTYPE svg PUBLIC "-//W3C//DTD SVG 1.1//EN" "http://www.w3.org/Graphics/SVG/1.1/DTD/svg11.dtd">
<svg version="1.1" id="Layer_1" xmlns="http://www.w3.org/2000/svg" xmlns:xlink="http://www.w3.org/1999/xlink" x="0px" y="0px"
	 width="32px" height="32px" viewBox="0 0 32 32" enable-background="new 0 0 32 32" xml:space="preserve">
<path d="M31.852,19.796c0-5.712-6.538-15.006-10.555-15.006c-1.917,0-2.927,2.128-3.445,4.963c-0.312-0.355-0.495-0.629-0.66-0.818
	V1.652c0-0.706-0.535-1.278-1.24-1.278c-0.705,0-1.239,0.572-1.239,1.278v7.446c-0.165,0.332-0.373,0.636-0.628,0.926
	c-0.509-2.922-1.512-5.135-3.467-5.135c-4.018,0-10.56,9.294-10.56,15.005c0,5.712-0.763,10.342,3.254,10.342
	c4.016,0,11.288-4.63,11.288-10.342c0-2.015-0.001-4.475-0.173-6.816c0.617-0.429,1.184-0.919,1.661-1.486
	c0.373,0.413,0.836,0.871,1.395,1.339c-0.175,2.357-0.175,4.835-0.175,6.865c0,5.712,7.272,10.343,11.29,10.343
	C32.611,30.139,31.852,25.508,31.852,19.796z"/>
</svg>
