<?xml version="1.0" encoding="utf-8"?>
<!-- Generator: Adobe Illustrator 15.0.0, SVG Export Plug-In . SVG Version: 6.00 Build 0)  -->
<!DOCTYPE svg PUBLIC "-//W3C//DTD SVG 1.1//EN" "http://www.w3.org/Graphics/SVG/1.1/DTD/svg11.dtd">
<svg version="1.1" id="Layer_1" xmlns="http://www.w3.org/2000/svg" xmlns:xlink="http://www.w3.org/1999/xlink" x="0px" y="0px"
	 width="64px" height="64px" viewBox="0 0 64 64" enable-background="new 0 0 64 64" xml:space="preserve">
<g>
	<g>
		<path d="M32.365,22.573c5.549,0,10.06-4.514,10.06-10.06c0-5.552-4.511-10.072-10.06-10.072c-5.546,0-10.06,4.52-10.06,10.072
			C22.305,18.06,26.819,22.573,32.365,22.573z M32.365,3.82c4.786,0,8.681,3.899,8.681,8.693c0,4.785-3.895,8.679-8.681,8.679
			c-4.788,0-8.682-3.894-8.682-8.679C23.684,7.719,27.577,3.82,32.365,3.82z"/>
	</g>
	<g>
		<path d="M13.988,52.47l-0.592,0.003c-0.838,0-1.497-0.242-1.96-0.717c-0.849-0.871-0.838-2.271-0.837-2.314l0.031-15.557
			c0.022-0.216,0.452-3.622,3.795-5.951L13.988,52.47z M15.367,52.417l0.453-25.245c0.961-0.331,3.535-1.098,7.24-1.367
			l5.434,20.392c1.048,2.405,1.863,5.455,1.407,6.154c-0.023,0.032-0.043,0.065-0.173,0.065H15.367z M53.401,58.294
			c0,1.801-1.465,3.265-3.262,3.265c-1.801,0-3.266-1.464-3.266-3.3l-0.007-0.688V33.034h-1.576l0.012,28.025l-24.699-0.018
			l0.004-7.247h9.12h2.892c2.36,0,4.281-1.922,4.281-4.283s-1.921-4.28-4.281-4.28h-2.964L24.478,25.77h16.833
			c0.471-0.003,11.292-0.032,12.091,9.437V58.294z M30.151,46.61h2.468c1.601,0,2.902,1.302,2.902,2.901
			c0,1.604-1.302,2.905-2.902,2.905l-1.306,0.003C31.657,50.813,30.761,48.146,30.151,46.61z"/>
	</g>
</g>
</svg>
