<?xml version="1.0" encoding="UTF-8" standalone="no"?>
<!-- Generator: Adobe Illustrator 16.0.0, SVG Export Plug-In . SVG Version: 6.00 Build 0)  -->

<svg
   xmlns:dc="http://purl.org/dc/elements/1.1/"
   xmlns:cc="http://creativecommons.org/ns#"
   xmlns:rdf="http://www.w3.org/1999/02/22-rdf-syntax-ns#"
   xmlns:svg="http://www.w3.org/2000/svg"
   xmlns="http://www.w3.org/2000/svg"
   xmlns:sodipodi="http://sodipodi.sourceforge.net/DTD/sodipodi-0.dtd"
   xmlns:inkscape="http://www.inkscape.org/namespaces/inkscape"
   version="1.1"
   id="Layer_1"
   x="0px"
   y="0px"
   width="100px"
   height="100px"
   viewBox="0 0 100 100"
   enable-background="new 0 0 100 100"
   xml:space="preserve"
   inkscape:version="0.91 r13725"
   sodipodi:docname="injured2.svg"><metadata
     id="metadata19"><rdf:RDF><cc:Work
         rdf:about=""><dc:format>image/svg+xml</dc:format><dc:type
           rdf:resource="http://purl.org/dc/dcmitype/StillImage" /></cc:Work></rdf:RDF></metadata><defs
     id="defs17" /><sodipodi:namedview
     pagecolor="#ffffff"
     bordercolor="#666666"
     borderopacity="1"
     objecttolerance="10"
     gridtolerance="10"
     guidetolerance="10"
     inkscape:pageopacity="0"
     inkscape:pageshadow="2"
     inkscape:window-width="1624"
     inkscape:window-height="480"
     id="namedview15"
     showgrid="false"
     inkscape:zoom="6.211362"
     inkscape:cx="118.22269"
     inkscape:cy="50.765972"
     inkscape:window-x="11"
     inkscape:window-y="34"
     inkscape:window-maximized="0"
     inkscape:current-layer="g3" /><g
     id="g3"><path
       id="circle5"
       d="m 13.966797,25.738281 c -4.257331,-0.221086 -6.8993703,5.454015 -3.9878218,8.56881 2.5743908,3.401535 8.6172668,1.761407 9.1231038,-2.47216 0.608503,-3.0834 -1.990553,-6.173196 -5.135282,-6.09665 z m 73.636719,0.919922 c -4.258218,-0.221176 -6.899912,5.455979 -3.986564,8.570304 2.575166,3.399858 8.616069,1.75902 9.121846,-2.473654 0.608499,-3.08338 -1.99055,-6.173207 -5.135282,-6.09665 z M 10.4375,35.869141 c -3.1964869,-0.164214 -4.6327831,2.833423 -4.8885528,5.533198 -0.6344231,3.233906 -1.4980295,6.432122 -1.980915,9.689625 0.8948357,1.807721 0.7493409,3.707299 0.5402605,5.693095 -0.1880152,2.284668 -0.019609,4.648003 -1.1693472,6.720404 -0.8349261,2.456103 -2.10599176,4.804811 -2.62107733,7.34044 0.31315523,3.779161 5.35528303,2.641635 5.53552033,-0.594554 0.9937732,-2.99331 2.6190717,-5.831062 3.1233259,-8.946662 0.086538,-1.328776 0.1730758,-2.657552 0.2596137,-3.986328 1.4028149,2.399377 3.3647589,4.554017 3.7464549,7.400348 0.710171,2.368112 1.121816,4.843291 2.051228,7.132771 2.499547,3.155682 6.040959,-0.849982 4.217624,-3.607208 -0.959939,-3.004567 -1.31446,-6.256624 -2.745206,-9.070516 -1.271024,-2.007788 -2.542047,-4.015575 -3.81307,-6.023363 0.612826,-1.679455 0.811941,-3.483893 1.240235,-5.21875 2.407963,2.374587 6.812477,4.144568 9.948513,2.714539 1.809887,-0.665715 4.583522,1.192171 3.797581,3.702717 0.701669,0.679784 2.622905,-0.02939 3.740935,0.343496 4.797594,1.886946 9.581954,3.778345 14.374299,5.668935 -6.158964,2.370675 -12.274475,4.965146 -18.475077,7.199219 -1.960051,0.03745 0.579535,2.046014 -1.41173,2.870851 0.641146,5.022807 5.089529,0.271664 2.842353,-1.736086 12.220547,0 24.441094,0 36.661641,0 -2.155605,1.761424 0.296316,6.101548 2.550383,2.963649 0.337106,-1.84147 -1.612635,-2.708136 0.04141,-3.405991 0.101621,-1.26876 -2.229439,-0.598407 -3.091,-1.50306 -5.402857,-2.126905 -10.801124,-4.256602 -16.201968,-6.386629 4.956438,-1.8795 9.825884,-4.002622 14.809061,-5.751953 1.069985,-0.328269 3.601142,0.804633 3.310079,-0.884684 -0.57426,-2.8736 3.222964,-3.657353 5.353516,-4.150472 3.044218,-0.665923 4.896725,-6.678271 6.903339,-6.780383 -0.604788,3.07682 -1.428318,6.119711 -1.881033,9.22012 0.896804,1.806598 0.749583,3.705895 0.541065,5.691025 -0.188007,2.284671 -0.01968,4.647977 -1.169174,6.720471 -0.835067,2.456569 -2.105647,4.805922 -2.621251,7.341904 0.3119,3.778634 5.355455,2.640823 5.535415,-0.594172 0.993402,-2.993937 2.619872,-5.83182 3.12205,-8.948538 0.08765,-1.328137 0.175299,-2.656274 0.262948,-3.984411 1.401998,2.399464 3.362925,4.554444 3.743977,7.400487 0.709501,2.367978 1.12089,4.84277 2.049262,7.132326 2.50239,3.153943 6.043607,-0.850239 4.21982,-3.608778 -0.959763,-3.004607 -1.317427,-6.255418 -2.74503,-9.070519 -1.271635,-2.007813 -2.543269,-4.015625 -3.814904,-6.023438 0.874071,-2.819396 1.292793,-5.776224 1.978516,-8.652344 2.591624,2.565912 6.534749,3.552377 10.067431,3.441563 3.938519,-3.165505 -2.335513,-4.438886 -4.698416,-5.066087 -4.138711,-1.004183 -4.934574,-6.605557 -9.201843,-6.991625 -6.300218,0.139666 -11.146936,5.196309 -14.241516,10.207242 -0.0817,1.856219 -2.147065,1.544195 -2.058883,-0.236562 -1.891097,-0.965167 -4.20375,-0.304384 -6.289645,-0.499062 -11.449538,0 -22.899075,0 -34.348613,0 -1.990657,0.410768 -1.379507,3.708094 -3.898437,1.328125 C 23.812403,45.578105 20.607127,44.092957 21.042969,47 16.48782,47.119911 15.91884,42.428793 15.252072,39.016728 14.4972,37.127369 12.475674,35.795441 10.4375,35.869141 Z m 19.363281,0.972656 c -3.97434,-0.216084 -6.211832,5.294232 -3.209139,7.909036 2.65967,2.876569 8.024826,0.608468 7.814608,-3.303567 0.04949,-2.478646 -2.125283,-4.654659 -4.605469,-4.605469 z m 8.44336,0.625 c -4.423635,0.131479 -4.97207,7.355151 -0.740791,8.374079 3.899972,0.119502 7.844846,0.243869 11.735156,0.03268 1.477024,-1.720437 3.382765,-1.683344 5.517016,-1.552051 4.101963,-0.0244 8.210718,0.08991 12.308529,-0.0193 3.365971,-0.682641 1.77811,-5.754081 -1.370607,-4.829778 -4.186226,-0.01034 -8.372452,-0.02068 -12.558678,-0.03102 1.688048,4.663114 -5.325518,3.872648 -8.094411,4.342408 -1.30995,0.05252 -6.766196,0.347758 -5.763498,-0.597658 4.341303,0.428922 8.848023,0.170811 13.05449,-0.945436 2.775596,-4.469424 -4.305854,-2.924331 -6.670682,-2.550518 -1.46688,0.173005 -6.712319,0.332849 -5.263618,-0.469496 2.889228,0.08503 8.773324,0.229429 9.829288,-1.092983 -2.334339,-1.077961 -5.051349,-0.41363 -7.568418,-0.627848 -1.471258,-0.01103 -2.942517,-0.02205 -4.413776,-0.03308 z m -9.429688,14.445312 c 12.29362,0 24.587239,0 36.880859,0 0.641894,1.973688 -1.067136,1.596452 -2.432881,1.5625 -11.48266,0 -22.965319,0 -34.447978,0 0,-0.520833 0,-1.041667 0,-1.5625 z m 5.277344,2.697266 c 8.77474,0 17.549479,0 26.324219,0 -4.386542,1.729672 -8.775316,3.453669 -13.164063,5.177734 -4.389587,-1.734859 -8.768835,-3.444126 -13.160156,-5.177734 z m 13.160156,6.326172 c 5.61497,2.217223 11.219083,4.403642 16.835938,6.623047 -11.222005,0 -22.444011,0 -33.666016,0 5.609315,-2.209493 11.217337,-4.422265 16.830078,-6.623047 z" /></g></svg>