<?xml version="1.0" encoding="utf-8"?>
<!-- Generator: Adobe Illustrator 17.0.0, SVG Export Plug-In . SVG Version: 6.00 Build 0)  -->
<!DOCTYPE svg PUBLIC "-//W3C//DTD SVG 1.1//EN" "http://www.w3.org/Graphics/SVG/1.1/DTD/svg11.dtd">
<svg version="1.1" id="Layer_1" xmlns="http://www.w3.org/2000/svg" xmlns:xlink="http://www.w3.org/1999/xlink" x="0px" y="0px"
	 width="32px" height="32px" viewBox="0 0 32 32" enable-background="new 0 0 32 32" xml:space="preserve">
<g>
	<path d="M20.22,12.631c1.499-0.158,2.874,0.659,3.491,1.938c0.258,0.418,1.378,1.715,5.549,1.504l2.658-0.28V4.522
		c0-0.76-0.616-1.375-1.376-1.375h-4.021c-0.76,0-1.375,0.616-1.375,1.375v1.763c0,0.759-0.616,1.376-1.376,1.376H8.286
		c-0.76,0-1.375-0.616-1.375-1.376V4.522c0-0.76-0.616-1.375-1.376-1.375H1.456c-0.76,0-1.375,0.616-1.375,1.375v22.309l1.79-1.644
		c0.002-0.103,0.235-0.399,0.781-0.959c2.396-2.456,2.682-4.05,2.625-4.802c-0.042-0.152-0.076-0.306-0.097-0.461
		c-0.013-0.031-0.02-0.046-0.02-0.046l0.013-0.012c-0.13-1.074,0.24-2.191,1.096-2.981c1.412-1.3,3.607-1.211,4.903,0.195
		c0.43,0.466,0.705,1.019,0.831,1.595c0.173,0.489,0.683,1.506,2.07,2.179c0.531,0.18,1.024,0.491,1.43,0.932
		c1.295,1.407,1.203,3.6-0.209,4.9c-1.109,1.021-2.703,1.185-3.964,0.525c-0.461-0.183-2.149-0.532-5.361,2.123l-3.885,3.579h28.458
		c0.76,0,1.376-0.616,1.376-1.375v-9.639l-1.265,0.134c-0.06,0.08-0.418,0.18-1.19,0.304c-3.387,0.54-4.562,1.648-4.969,2.285
		c-0.056,0.149-0.122,0.293-0.196,0.431c-0.009,0.032-0.01,0.049-0.01,0.049l-0.02,0.002c-0.533,0.938-1.497,1.616-2.655,1.737
		c-1.91,0.2-3.617-1.18-3.818-3.083c-0.067-0.634,0.044-1.246,0.29-1.787c0.151-0.5,0.342-1.613-0.366-2.971
		c-0.317-0.462-0.529-1.006-0.592-1.603C16.928,14.535,18.311,12.831,20.22,12.631z M15.205,17.737
		c-0.945,0.252-2.85-2.299-2.85-2.299c-1.279-1.449,2.384-2.891,2.984-2.45C15.938,13.428,16.148,17.486,15.205,17.737z"/>
	<path d="M23.602,1.493c0-0.76-0.616-1.375-1.376-1.375H9.831c-0.76,0-1.375,0.616-1.375,1.375V4.8c0,0.759,0.615,1.375,1.375,1.375
		h12.394c0.76,0,1.376-0.616,1.376-1.375V1.493z"/>
</g>
</svg>
