<?xml version="1.0" encoding="utf-8"?>
<!-- Generator: Adobe Illustrator 16.0.0, SVG Export Plug-In . SVG Version: 6.00 Build 0)  -->
<!DOCTYPE svg PUBLIC "-//W3C//DTD SVG 1.1//EN" "http://www.w3.org/Graphics/SVG/1.1/DTD/svg11.dtd">
<svg version="1.1" id="Layer_1" xmlns="http://www.w3.org/2000/svg" xmlns:xlink="http://www.w3.org/1999/xlink" x="0px" y="0px"
	 width="100px" height="100px" viewBox="0 0 100 100" enable-background="new 0 0 100 100" xml:space="preserve">
<g>
	<circle cx="19.05" cy="34.076" r="8.653"/>
	<path d="M17.146,53.859c0.004-0.021,0.013-0.04,0.017-0.063c0.325-1.827-0.893-3.265-2.719-3.589
		c-3.246-0.578-4.817-1.29-5.747-1.746c0.272-0.549,0.789-1.302,1.14-1.784c0.136-0.172,0.267-0.347,0.415-0.511v2.178
		c1.008,0.353,2.456,0.75,4.53,1.12c1.044,0.186,1.954,0.767,2.561,1.637c0.545,0.781,0.785,1.71,0.695,2.646
		c0.3-0.024,0.6-0.046,0.905-0.046l0.083,0c0.512,0.004,1.015,0.054,1.511,0.125c-0.112-0.963,0.124-1.923,0.684-2.726
		c0.607-0.87,1.517-1.451,2.561-1.637c1.848-0.328,3.197-0.68,4.183-1.002v-2.583c0.657,0.705,1.225,1.474,1.651,2.334
		c0.001,0.262-1.949,1.417-5.195,1.995c-1.826,0.324-3.044,1.916-2.719,3.743c0.007,0.039,0.017,0.073,0.023,0.111
		c1.596,0.406,3.084,1.149,4.366,2.212c8.715-1.784,10.68-4.822,10.751-7.109c0.009-0.307-0.023-0.797-0.096-1.095
		c-0.649-2.618-1.892-4.673-3.401-6.358c0-0.002,0-0.005,0.001-0.007c-0.059-0.065-0.122-0.122-0.18-0.186
		c-0.199-0.215-0.401-0.427-0.608-0.63c-0.101-0.099-0.204-0.196-0.306-0.292c-0.152-0.143-0.306-0.284-0.461-0.422
		c-1.146-1.021-2.361-1.896-3.547-2.674c-1.437,3.679-5.011,6.296-9.192,6.296c-4.114,0-7.646-2.53-9.126-6.115
		c-3.514,2.24-7.254,5.264-8.568,10.571c-0.073,0.297-0.106,0.604-0.097,0.911c0.071,2.272,2.012,5.288,10.594,7.077
		C13.346,55.017,15.163,54.182,17.146,53.859z"/>
	<path d="M27.708,63.649c0.038-4.886-3.895-8.876-8.781-8.913c-4.885-0.035-8.877,3.896-8.911,8.783
		c-0.037,4.886,3.896,8.876,8.777,8.913C23.683,72.467,27.672,68.534,27.708,63.649z"/>
	<path d="M93.788,61.295l-27.391-0.067c0.359,0.518,0.633,1.107,0.755,1.76c0.481,2.51-1.171,4.944-3.677,5.425
		c-0.392,0.074-9.598,1.822-18.589,1.822c-2.904,0-5.492-0.186-7.734-0.545c0.005-0.046,0.015-0.092,0.02-0.139
		c0.01-0.282,0.041-0.56,0.075-0.837c2.417,0.406,5.088,0.564,7.775,0.564c8.87,0,17.892-1.706,18.398-1.803
		c1.976-0.378,3.271-2.288,2.895-4.262c-0.378-1.977-2.285-3.27-4.26-2.893c-0.151,0.027-13.996,2.638-23.058,1.295
		c0.069-0.328,0.129-0.658,0.173-0.993c1.633,0.231,3.531,0.348,5.672,0.348c7.216,0,14.937-1.312,16.58-1.609
		c-1.169-1.192-2.73-1.991-4.654-2.005l-20.708-0.154c-3.84-0.029-6.442,3.327-7.236,6.456c0,0-0.304,0.987-0.291,2.037
		c0.016,1.006,0.242,2.129,0.242,2.129l0.004,0.028c0.75,3.159,3.296,6.542,7.156,6.569l20.71,0.154
		c2.559,0.018,4.573-1.419,5.843-3.423l31.276,0.076c0.004,0,0.004,0,0.015,0c2.733,0,4.955-2.216,4.964-4.953
		C98.749,63.531,96.531,61.302,93.788,61.295z"/>
	<path d="M14.232,73.195c0,0-6.388-5.394-5.7-8.848c0,0-5.904,8.196,1.221,8.848C14.237,73.609,14.232,73.195,14.232,73.195z"/>
	<path d="M23.951,73.195c0,0-0.481,0.508,4.479,0c0.618-0.063,1.133-0.173,1.568-0.333c-0.815-1.249-1.51-2.611-1.98-4.016
		C26.32,71.193,23.951,73.195,23.951,73.195z"/>
</g>
</svg>
