<?xml version="1.0" encoding="utf-8"?>
<!-- Generator: Adobe Illustrator 17.0.0, SVG Export Plug-In . SVG Version: 6.00 Build 0)  -->
<!DOCTYPE svg PUBLIC "-//W3C//DTD SVG 1.1//EN" "http://www.w3.org/Graphics/SVG/1.1/DTD/svg11.dtd">
<svg version="1.1" id="Layer_1" xmlns="http://www.w3.org/2000/svg" xmlns:xlink="http://www.w3.org/1999/xlink" x="0px" y="0px"
	 width="32px" height="32px" viewBox="0 0 32 32" enable-background="new 0 0 32 32" xml:space="preserve">
<path d="M21.084,0.13c-4.327,0-8.812,1.462-8.357,7.72c-1.233-0.464-2.683-1.443-3.233-3.507C9.239,3.384,8.257,2.815,7.297,3.069
	c-0.958,0.256-1.528,1.239-1.27,2.197c1.176,4.413,4.897,6.077,7.466,6.484c0.779,2.703,0.659,4.904,0.176,6.696l-0.001-0.003
	c-0.011,0.048-0.023,0.095-0.036,0.142c-0.003,0.007-0.004,0.012-0.005,0.02c-0.652,2.251-3.198,2.854-4.521,3.017
	c-2.717-0.586-4.02,0.659-4.566,1.483c-1.494,2.251-0.419,5.859,1.352,8.111c0.353,0.451,0.882,0.685,1.412,0.685
	c0.391,0,0.781-0.125,1.108-0.384c0.779-0.612,0.915-1.741,0.303-2.52c-1.232-1.569-1.466-3.556-1.199-3.898
	c0.067-0.036,0.4-0.095,1.079,0.091c1.157,0.315,2.267,0.493,3.199,0.594c0.821,0.244,2.159,0.4,4.213,0.508
	c6.626,0.343,12.19-5.796,13.339-13.779C30.477,4.666,26.18,0.13,21.084,0.13z"/>
</svg>
