<?xml version="1.0" encoding="utf-8"?>
<!-- Generator: Adobe Illustrator 17.0.0, SVG Export Plug-In . SVG Version: 6.00 Build 0)  -->
<!DOCTYPE svg PUBLIC "-//W3C//DTD SVG 1.1//EN" "http://www.w3.org/Graphics/SVG/1.1/DTD/svg11.dtd">
<svg version="1.1" id="Layer_1" xmlns="http://www.w3.org/2000/svg" xmlns:xlink="http://www.w3.org/1999/xlink" x="0px" y="0px"
	 width="32px" height="32px" viewBox="0 0 32 32" enable-background="new 0 0 32 32" xml:space="preserve">
<path d="M25.214,11.997c-0.425-0.122-0.878-0.129-1.321-0.146c0.121-0.311,3.326-8.258-5.136-11.408
	c-0.004,0.071-0.01,0.143-0.021,0.211c5.437,3.268,2.921,8.502,2.716,8.731c-1.499-1.154-3.371-1.84-5.403-1.84
	c-2.068,0-3.972,0.711-5.483,1.904c-0.372-0.615-0.662-1.315-0.847-2.087c-0.15-1.351-0.056-2.565,0.533-3.821
	c0.583-1.144,1.522-2.111,2.64-2.744c-0.013-0.062-0.023-0.125-0.031-0.19c-1.24,0.501-2.369,1.34-3.381,2.422
	c-0.44,0.615-3.073,3.782-1.408,8.617c-0.449,0.016-0.895,0.063-1.335,0.146c-1.751,0.372-4.534,1.878-5.845,4.467
	C0.453,17,0.28,17.755,0.073,18.485c-0.212,1.463-0.166,2.87,0.215,4.153c0.056-0.034,0.111-0.066,0.168-0.096
	c-0.201-1.268-0.032-2.608,0.5-3.774c0.614-1.246,1.504-2.075,2.654-2.798c1.937-0.908,3.564-0.656,3.631-0.645
	c-0.043,0.359-0.068,0.724-0.068,1.096c0,3.549,2.095,6.616,5.113,8.036c-0.016,0.042-0.031,0.085-0.045,0.125
	c-0.056,0.102-2.85,4.651-8.252,2.618c-0.048,0.051-0.099,0.1-0.151,0.148c0.663,0.51,6.303,4.29,11.497-2.086
	c0.235,0.021,0.473,0.034,0.714,0.034c0.145,0,0.289-0.006,0.433-0.011c1.097,1.525,5.3,6.244,11.633,2.268
	c-0.053-0.049-0.104-0.099-0.15-0.15c-5.652,2.11-8.312-2.777-8.342-2.861c3.362-1.528,5.302-4.499,5.302-8.121
	c0-0.312-0.017-0.617-0.047-0.921c0.012-0.002,0.022-0.005,0.035-0.008c1.099-0.075,2.276,0.138,3.429,0.68
	c1.15,0.725,2.04,1.555,2.654,2.8c0.531,1.167,0.701,2.504,0.499,3.774c0.058,0.029,0.113,0.059,0.168,0.095
	C32.125,21.39,33.281,14.312,25.214,11.997z M11.54,17.943c-0.004-0.004-0.01-0.012-0.015-0.017l0.012,0.013L11.54,17.943z
	 M13.75,16.422c0-0.838,0.448-1.566,1.118-1.971c0.345-0.207,0.748-0.329,1.18-0.329c0.45,0,0.87,0.133,1.224,0.354
	c0.646,0.409,1.075,1.125,1.075,1.945c0,0.95-0.579,1.77-1.404,2.119c-0.275,0.115-0.578,0.18-0.895,0.18
	C14.778,18.721,13.75,17.691,13.75,16.422z M16.048,9.96c1.373,0,2.646,0.434,3.694,1.167c-1.165,0.825-4.743,2.123-7.496,0.078
	C13.314,10.423,14.628,9.96,16.048,9.96z M9.589,16.422c0-0.093,0.004-0.185,0.006-0.278c0.107,0.061,2.999,1.621,3.221,5.866
	C10.889,20.889,9.589,18.805,9.589,16.422z M19.136,22.094c0.002-0.109,0.239-4.017,3.369-5.825c0.001,0.05,0.004,0.101,0.004,0.153
	C22.509,18.865,21.144,20.996,19.136,22.094z"/>
</svg>
