<?xml version="1.0" encoding="utf-8"?>
<!-- Generator: Adobe Illustrator 17.0.0, SVG Export Plug-In . SVG Version: 6.00 Build 0)  -->
<!DOCTYPE svg PUBLIC "-//W3C//DTD SVG 1.1//EN" "http://www.w3.org/Graphics/SVG/1.1/DTD/svg11.dtd">
<svg version="1.1" id="Layer_1" xmlns="http://www.w3.org/2000/svg" xmlns:xlink="http://www.w3.org/1999/xlink" x="0px" y="0px"
	 width="32px" height="32px" viewBox="0 0 32 32" enable-background="new 0 0 32 32" xml:space="preserve">
<path d="M31.692,13.664c-2.658-5.171-6.203-6.691-8.984-6.966c-0.337-1.487-1.666-2.535-3.189-2.515l-6.607,0.09
	c-1.072,0.015-2.079,0.519-2.734,1.368l-8.21,10.653c-1.087,1.41-0.825,3.435,0.585,4.521l8.148,6.281
	c0.678,0.521,1.535,0.754,2.383,0.643c0.848-0.109,1.617-0.552,2.14-1.229l8.323-10.8c0.586-0.76,0.803-1.741,0.592-2.678
	l-0.912-4.041c2.042,0.425,4.493,1.846,6.473,5.695c0.198,0.387,0.59,0.608,0.998,0.608c0.171,0,0.346-0.041,0.511-0.124
	C31.757,14.89,31.976,14.214,31.692,13.664z M14.836,19.756c-0.253,0.329-0.725,0.39-1.054,0.137l-1.265-0.975l-0.978,1.267
	c-0.254,0.329-0.726,0.39-1.055,0.137L9.162,19.3c-0.329-0.253-0.39-0.725-0.137-1.054l0.977-1.266l-1.268-0.977
	c-0.158-0.121-0.262-0.301-0.287-0.499c-0.026-0.197,0.028-0.398,0.149-0.555l1.022-1.326c0.121-0.157,0.301-0.261,0.499-0.286
	c0.197-0.026,0.397,0.028,0.555,0.149l1.268,0.977l0.976-1.268c0.122-0.157,0.302-0.261,0.499-0.286
	c0.198-0.025,0.398,0.028,0.556,0.15l1.324,1.021c0.328,0.253,0.389,0.725,0.136,1.054l-0.975,1.267l1.266,0.977
	c0.328,0.254,0.389,0.726,0.136,1.055L14.836,19.756z M20.186,10.235c-0.796,1.036-2.28,1.228-3.316,0.429
	c-1.032-0.796-1.226-2.279-0.428-3.314c0.771-1.003,2.191-1.214,3.219-0.499c-0.856,0.168-1.384,0.385-1.402,0.393
	c-0.57,0.242-0.836,0.902-0.592,1.47c0.243,0.57,0.904,0.831,1.469,0.592c0.077-0.033,0.654-0.271,1.54-0.393
	C20.652,9.377,20.493,9.84,20.186,10.235z"/>
</svg>
