<?xml version="1.0" encoding="utf-8"?>
<!-- Generator: Adobe Illustrator 16.0.4, SVG Export Plug-In . SVG Version: 6.00 Build 0)  -->
<!DOCTYPE svg PUBLIC "-//W3C//DTD SVG 1.1//EN" "http://www.w3.org/Graphics/SVG/1.1/DTD/svg11.dtd">
<svg version="1.1" id="Capa_1" xmlns="http://www.w3.org/2000/svg" xmlns:xlink="http://www.w3.org/1999/xlink" x="0px" y="0px"
	 width="23.303px" height="21.414px" viewBox="0 0 23.303 21.414" enable-background="new 0 0 23.303 21.414" xml:space="preserve">
<g>
	<path d="M22.527,16.606l-1.165,1.167l-3.677-3.678l2.156-2.154L18.78,10.88l-1.273,1.272l-8.907-8.91L8.006,3.835L7.398,3.227
		L6.643,3.976L2.666,0L1.175,0.061l4.694,4.694L5.115,5.506l0.607,0.609l-0.59,0.591l8.91,8.909l-1.272,1.273l1.062,1.062
		l2.154-2.158l3.677,3.678l-1.165,1.167l0.777,0.776l4.026-4.029L22.527,16.606z M14.527,14.6l-3.34-3.341l1.963-1.961l3.342,3.34
		L14.527,14.6z"/>
	<path d="M0,3.317c0,1.287,0.5,1.877,1.116,1.877c0.615,0,1.113-0.591,1.113-1.877c0-1.287-1.113-2.782-1.113-2.782S0,2.03,0,3.317z
		"/>
</g>
</svg>
