<?xml version="1.0" encoding="utf-8"?>
<!-- Generator: Adobe Illustrator 17.0.2, SVG Export Plug-In . SVG Version: 6.00 Build 0)  -->
<!DOCTYPE svg PUBLIC "-//W3C//DTD SVG 1.1//EN" "http://www.w3.org/Graphics/SVG/1.1/DTD/svg11.dtd">
<svg version="1.1" id="Capa_1" xmlns="http://www.w3.org/2000/svg" xmlns:xlink="http://www.w3.org/1999/xlink" x="0px" y="0px"
	 width="64px" height="64px" viewBox="0 0 64 64" enable-background="new 0 0 64 64" xml:space="preserve">
<g>
	<path d="M54.439,4.815c-1.83-1.83-4.263-2.837-6.85-2.837c-2.588,0-5.021,1.007-6.851,2.837l-5.899,7.959l-0.162-0.162
		c-1.077-1.077-2.509-1.671-4.033-1.671s-2.956,0.594-4.033,1.671s-1.671,2.51-1.671,4.033c0,1.522,0.594,2.955,1.671,4.032
		l3.397,3.397L5.401,48.683c-0.991,0.99-2.154,3.127-2.829,5.195c-0.963,2.952-0.779,5.206,0.532,6.518
		c0.757,0.757,1.824,1.14,3.171,1.14c3.069,0,7.173-2.068,8.542-3.437l24.607-24.607l3.397,3.397
		c1.077,1.077,2.509,1.671,4.033,1.671c1.524,0,2.956-0.594,4.033-1.671c2.224-2.224,2.224-5.842,0-8.065l-0.16-0.16l7.788-5.756
		l0.169-0.146c1.83-1.829,2.838-4.263,2.838-6.85c0-2.588-1.008-5.021-2.838-6.851L54.439,4.815z M48.766,34.768
		c-1.021,1.021-2.801,1.021-3.822,0l-3.696-3.696l-1.254-1.254l-1.692-1.692l-2.917-2.917l-1.704-1.704l-1.244-1.244l-3.706-3.705
		c-1.054-1.054-1.054-2.77,0-3.823c0.511-0.511,1.189-0.792,1.912-0.792s1.401,0.281,1.912,0.792l16.211,16.211
		C49.82,31.998,49.82,33.714,48.766,34.768z M5.226,58.274c-0.338-0.339-0.421-1.567,0.199-3.466
		c0.63-1.931,1.624-3.531,2.098-4.005L32.13,26.196l5.174,5.174L12.697,55.978c-0.854,0.854-4.228,2.558-6.42,2.558
		C5.775,58.535,5.392,58.44,5.226,58.274z M37.211,14.606l5.724-7.744c1.254-1.216,2.903-1.884,4.654-1.884
		c1.786,0,3.466,0.695,4.729,1.958l4.246,4.246c1.263,1.264,1.959,2.942,1.959,4.729c0,1.75-0.668,3.398-1.884,4.652l-7.744,5.725
		L37.211,14.606z"/>
</g>
</svg>
