<?xml version="1.0" encoding="utf-8"?>
<!-- Generator: Adobe Illustrator 16.0.4, SVG Export Plug-In . SVG Version: 6.00 Build 0)  -->
<!DOCTYPE svg PUBLIC "-//W3C//DTD SVG 1.1//EN" "http://www.w3.org/Graphics/SVG/1.1/DTD/svg11.dtd">
<svg version="1.1" id="Layer_1" xmlns="http://www.w3.org/2000/svg" xmlns:xlink="http://www.w3.org/1999/xlink" x="0px" y="0px"
	 width="50px" height="50px" viewBox="0 0 50 50" enable-background="new 0 0 50 50" xml:space="preserve">
<g>
	<path d="M35.312,29.235l0.006-0.103l-0.026-0.132c-0.261-2.083-1.048-4.552-2.801-7.347l-0.246-0.384
		c-1.092-1.685-2.449-3.78,0.298-6.942c0.181-0.209,0.158-0.524-0.05-0.706c-0.208-0.18-0.523-0.158-0.706,0.05
		c-3.239,3.73-1.45,6.492-0.383,8.142l0.238,0.372c1.694,2.699,2.435,5.062,2.666,7.029c-0.051,2.064-1.999,3.731-4.396,3.731
		c-2.431,0-4.406-1.71-4.406-3.812c0-0.275-0.224-0.5-0.5-0.5c-0.276,0-0.5,0.225-0.5,0.5c0,2.104-1.977,3.812-4.406,3.812
		c-2.429,0-4.406-1.71-4.406-3.812c0-0.092-0.032-0.174-0.075-0.247c0.034-2.42,0.926-3.764,2.002-5.365
		c0.325-0.484,0.662-0.987,0.991-1.542c2.983-5.03-0.343-8.308-0.377-8.341c-0.198-0.19-0.515-0.183-0.707,0.016
		c-0.19,0.199-0.184,0.516,0.016,0.707c0.028,0.026,2.792,2.753,0.209,7.108c-0.319,0.537-0.646,1.024-0.962,1.493
		c-1.899,2.827-3.399,5.06-0.746,13.191c0.067,0.205,0.259,0.345,0.476,0.345h16.93c0.158,0,0.31-0.076,0.402-0.205
		C33.969,36.136,35.774,33.554,35.312,29.235z M16.883,35.498c-0.388-1.218-0.668-2.274-0.871-3.225
		c0.992,1.021,2.454,1.672,4.087,1.672c1.821,0,3.426-0.812,4.406-2.043v3.577l0.004,0.02L16.883,35.498z M33.181,35.499h-7.679
		l0.004-0.02v-3.577c0.979,1.231,2.585,2.043,4.406,2.043s3.434-0.81,4.413-2.042C34.109,33.786,33.467,35.028,33.181,35.499z"/>
</g>
</svg>
