<?xml version="1.0" encoding="utf-8"?>
<!-- Generator: Adobe Illustrator 16.0.0, SVG Export Plug-In . SVG Version: 6.00 Build 0)  -->
<!DOCTYPE svg PUBLIC "-//W3C//DTD SVG 1.1//EN" "http://www.w3.org/Graphics/SVG/1.1/DTD/svg11.dtd">
<svg version="1.1" id="Layer_1" xmlns="http://www.w3.org/2000/svg" xmlns:xlink="http://www.w3.org/1999/xlink" x="0px" y="0px"
	 width="96px" height="96px" viewBox="0 0 96 96" enable-background="new 0 0 96 96" xml:space="preserve">
<path d="M87.851,20.172v10.025h-1.87c-2.645-4.036-7.828-6.779-13.792-6.779H36.454c-2.497-2.027-5.675-3.246-9.141-3.246h-4.275
	c-6.448,0-11.905,4.208-13.796,10.025H8.149V20.172H1.75v31.049h3.199h3.2h0.377v12.83c-1.642,1.179-2.716,3.102-2.716,5.278
	c0,3.589,2.909,6.499,6.498,6.499c3.59,0,6.5-2.91,6.5-6.499c0-1.69-0.651-3.225-1.708-4.38h61.554
	c-1.057,1.156-1.708,2.69-1.708,4.38c0,3.589,2.909,6.499,6.499,6.499s6.5-2.91,6.5-6.499c0-2.08-0.98-3.927-2.5-5.117V51.221h0.407
	h3.578h2.821V20.172H87.851z M82.041,59.546H13.929v-8.325h68.112V59.546z"/>
</svg>
