<?xml version="1.0" encoding="utf-8"?>
<!-- Generator: Adobe Illustrator 17.0.0, SVG Export Plug-In . SVG Version: 6.00 Build 0)  -->
<!DOCTYPE svg PUBLIC "-//W3C//DTD SVG 1.1//EN" "http://www.w3.org/Graphics/SVG/1.1/DTD/svg11.dtd">
<svg version="1.1" id="Layer_1" xmlns="http://www.w3.org/2000/svg" xmlns:xlink="http://www.w3.org/1999/xlink" x="0px" y="0px"
	 width="32px" height="32px" viewBox="0 0 32 32" enable-background="new 0 0 32 32" xml:space="preserve">
<g>
	<path d="M25.855,27.415c0.794,0,1.438-0.644,1.438-1.438V8.067c0-0.794-0.644-1.438-1.438-1.438h-5.505
		c0.249-0.347,0.394-0.811,0.394-1.293c0-0.898-0.505-1.669-1.246-2.068V3.165h3.096c0.618,0,1.118-0.509,1.118-1.126
		c0-0.616-0.5-1.125-1.118-1.125H19.48C19.384,0.394,18.929,0,18.381,0c-0.546,0-1.001,0.394-1.097,0.914H4.313
		c-0.618,0-1.119,0.509-1.119,1.125c0,0.617,0.501,1.126,1.119,1.126h12.934v0.103c-0.692,0.399-1.237,1.169-1.237,2.068
		c0,0.482,0.153,0.946,0.403,1.293h-5.87c-0.794,0-1.438,0.644-1.438,1.438v17.91c0,0.794,0.644,1.438,1.438,1.438h5.924v2.25
		h-0.635c-0.51,0-0.924,0.414-0.924,0.924v0.404c0,0.51,0.413,0.924,0.924,0.924h4.906c0.51,0,0.924-0.414,0.924-0.924v-0.404
		c0-0.51-0.414-0.924-0.924-0.924h-0.894v-2.25H25.855z M17.248,4.805V5.06c0,0.617,0.508,1.118,1.126,1.118
		c0.618,0,1.125-0.501,1.125-1.118V4.803c0.082,0.166,0.128,0.351,0.128,0.546c0,0.687-0.559,1.245-1.246,1.245
		c-0.686,0-1.252-0.558-1.252-1.245C17.128,5.155,17.161,4.969,17.248,4.805z M11.359,10.318c0-0.794,0.644-1.438,1.438-1.438
		h10.808c0.794,0,1.438,0.643,1.438,1.438v13.405c0,0.794-0.644,1.438-1.438,1.438H12.796c-0.794,0-1.438-0.644-1.438-1.438V10.318z
		"/>
	<path d="M12.398,22.511c0,0.794,0.644,1.438,1.438,1.438h8.643c0.794,0,1.438-0.644,1.438-1.438v-6.268H12.398V22.511z"/>
	<path d="M16.906,11.739h2.742c0.31,0,0.559-0.254,0.559-0.562c0-0.309-0.25-0.563-0.559-0.563h-2.742
		c-0.309,0-0.559,0.254-0.559,0.563C16.347,11.485,16.598,11.739,16.906,11.739z"/>
	<path d="M16.906,13.298h2.742c0.31,0,0.559-0.254,0.559-0.562c0-0.31-0.25-0.564-0.559-0.564h-2.742
		c-0.309,0-0.559,0.254-0.559,0.564C16.347,13.043,16.598,13.298,16.906,13.298z"/>
	<path d="M16.906,14.943h2.742c0.31,0,0.559-0.254,0.559-0.564c0-0.309-0.25-0.562-0.559-0.562h-2.742
		c-0.309,0-0.559,0.254-0.559,0.562C16.347,14.689,16.598,14.943,16.906,14.943z"/>
</g>
</svg>
