<?xml version="1.0" encoding="utf-8"?>
<!-- Generator: Adobe Illustrator 16.0.4, SVG Export Plug-In . SVG Version: 6.00 Build 0)  -->
<!DOCTYPE svg PUBLIC "-//W3C//DTD SVG 1.1//EN" "http://www.w3.org/Graphics/SVG/1.1/DTD/svg11.dtd">
<svg version="1.1" id="Layer_1" xmlns="http://www.w3.org/2000/svg" xmlns:xlink="http://www.w3.org/1999/xlink" x="0px" y="0px"
	 width="50px" height="50px" viewBox="0 0 50 50" enable-background="new 0 0 50 50" xml:space="preserve">
<g>
	<path d="M33.715,14.028c-1.624-1.813-3.773-3.497-9.081-3.536c-2.074-0.016-5.239,0.474-7.702,3.079
		c-1.49,1.574-2.59,3.56-2.275,6.809c0.068,0.705,1.074,1.52,0.366,2.882c0,0-1.518,2.672-1.466,3.118c0,0-0.027,0.813,1.231,0.839
		c0,0,0.314,0.04,0.224,0.733l-0.014,1.01c0,0,0.039,0.302,0.59,0.484c0,0,0.104,0.104-0.052,0.303c0,0-0.291,0.323,0.208,1.021
		c0.185,0.256,0.484,0.577,0.301,1.231c0,0-0.235,1.271,0.262,1.572c0,0,0.566,0.672,2.843,0.392
		c0.795-0.098,2.267-0.483,3.144,0.617c0,0,2.095,3.981,2.254,4.925c0,0,3.578-6.366,7.94-7.349c0,0-1.062-2.397,1.101-5.503
		c0,0,2.71-3.576,2.791-5.542C36.381,21.112,37.097,17.801,33.715,14.028z M30.173,25.894c-1.843,0.062-1.935-1.168-2.8-2.125
		c-0.127,0.009-0.249,0.021-0.379,0.025c-2.163,0.062-1.765-2.235-2.608-2.861c-2.021-1.502-4.87-0.197-6.357-1.716
		c-0.48-0.49-0.891-0.956-0.954-1.59c-0.152-1.536,0.204-2.202,0.965-3.007c2.034-2.15,4.654-2.602,6.496-2.602
		c4.957,0.036,6.686,1.516,8.042,3.028c2.234,2.494,2.372,4.643,2.338,5.418c0.004,0.094,0.024,0.183,0.024,0.279
		C34.941,23.586,32.805,25.804,30.173,25.894z"/>
</g>
</svg>
