<?xml version="1.0" encoding="utf-8"?>
<!-- Generator: Adobe Illustrator 16.0.0, SVG Export Plug-In . SVG Version: 6.00 Build 0)  -->
<!DOCTYPE svg PUBLIC "-//W3C//DTD SVG 1.1//EN" "http://www.w3.org/Graphics/SVG/1.1/DTD/svg11.dtd">
<svg version="1.1" id="Layer_1" xmlns="http://www.w3.org/2000/svg" xmlns:xlink="http://www.w3.org/1999/xlink" x="0px" y="0px"
	 width="100px" height="100px" viewBox="0 0 100 100" enable-background="new 0 0 100 100" xml:space="preserve">
<g>
	<path d="M70.764,32.624c-7.874,9.439-14.701,12.303-18.027,13.172v-0.963C63.57,41.748,70.159,30.41,70.159,30.41
		c7.418,2.926,14.677,1.098,14.677,1.098c13.215-3.396,12.759-18.548,12.759-18.548C91.768,31.51,71.269,28.427,70.037,28.234
		c-1.231-0.193-1.615,0.782-1.615,0.782l-0.64,1.34c-4.765,9.287-11.464,12.938-15.046,14.293v-0.945
		c8.893-3.817,14.104-14.284,14.608-15.576c0.558-1.432,1.405-1.281,1.405-1.281c10.781,1.02,17.41-2.331,17.41-2.331
		c15.37-7.844,7.356-23.819,7.356-23.819C94.099,22.55,69.991,23.98,67.954,24.151c-2.037,0.171-2.341,2.342-2.341,2.342
		c-3.052,10.209-9.192,14.918-12.876,16.907v-7.429c2.087-0.811,3.568-2.833,3.568-5.207c0-3.603-3.208-5.568-6.28-5.588v-0.002
		c-0.008,0-0.016,0.001-0.024,0.001s-0.016-0.001-0.024-0.001v0.002c-3.073,0.021-6.28,1.986-6.28,5.588
		c0,2.373,1.481,4.396,3.568,5.207v7.429c-3.684-1.988-9.824-6.698-12.876-16.907c0,0-0.305-2.17-2.341-2.342
		C30.009,23.98,5.901,22.55,6.485,0.698c0,0-8.014,15.975,7.356,23.819c0,0,6.629,3.351,17.41,2.331c0,0,0.847-0.151,1.405,1.281
		c0.504,1.292,5.716,11.759,14.608,15.576v0.945c-3.582-1.355-10.281-5.006-15.046-14.293l-0.64-1.34c0,0-0.384-0.975-1.615-0.782
		C28.731,28.427,8.232,31.51,2.405,12.959c0,0-0.456,15.153,12.759,18.548c0,0,7.259,1.828,14.677-1.098
		c0,0,6.589,11.338,17.422,14.423v0.963c-3.327-0.869-10.153-3.732-18.027-13.172c0,0-14.484,4.861-23.844-4.855
		c0.183,0.355,0.357,0.716,0.546,1.069c1.279,2.384,2.69,4.758,4.196,7.089c4.092,2.685,9.978,3.427,18.297-1.29
		c0,0,11.121,9.974,18.833,11.378V61c-0.094-0.014-0.19-0.024-0.288-0.023c-6.041-6.905-5.24-9.04-5.124-9.269
		c0.407-0.796,2.488-0.982,3.542-0.865c1.011,0.117,1.435-0.617,1.55-1.636c0.115-1.018-2.925-2.394-3.944-2.508
		c-0.558-0.064-2.72-0.065-4.453,3.318c-1.425,2.784,0.033,6.684,4.572,12.155c-1.635,0.796-3.296,2.069-3.698,4.034
		c-0.458,2.241,0.8,4.54,3.828,6.984c-1.138,0.844-2.215,2.05-2.386,3.666c-0.191,1.801,0.776,3.54,2.875,5.184
		c-0.707,0.78-1.369,1.864-1.437,3.24c-0.101,2.038,1.118,3.954,3.619,5.695c0.323,0.225,0.693,0.333,1.059,0.333
		c0.096,0,0.189-0.019,0.283-0.034v2.339c0,0.061,0.009,0.122,0.025,0.181l1.408,5.019c0.081,0.289,0.344,0.489,0.644,0.489
		c0.002,0,0.005,0,0.007,0h1.304c0.002,0,0.005,0,0.007,0c0.299,0,0.563-0.2,0.644-0.489l1.408-5.019
		c0.017-0.059,0.025-0.12,0.025-0.181v-2.339c0.094,0.015,0.188,0.034,0.283,0.034c0.366,0,0.736-0.108,1.059-0.333
		c2.501-1.742,3.719-3.658,3.619-5.695c-0.068-1.376-0.729-2.46-1.437-3.24c2.1-1.644,3.067-3.383,2.875-5.184
		c-0.171-1.615-1.248-2.821-2.386-3.666c3.028-2.445,4.287-4.744,3.828-6.984c-0.402-1.965-2.063-3.237-3.698-4.034
		c4.539-5.472,5.997-9.371,4.572-12.155c-1.733-3.383-3.895-3.382-4.453-3.318c-1.019,0.114-4.059,1.49-3.944,2.508
		c0.115,1.019,0.539,1.753,1.55,1.636c1.054-0.117,3.135,0.069,3.542,0.865c0.117,0.229,0.917,2.364-5.124,9.269
		c-0.097-0.001-0.193,0.01-0.288,0.023V46.015c7.712-1.405,18.833-11.378,18.833-11.378c8.319,4.717,14.205,3.975,18.297,1.29
		c1.505-2.331,2.917-4.705,4.196-7.089c0.189-0.354,0.363-0.714,0.546-1.069C85.248,37.485,70.764,32.624,70.764,32.624z
		 M47.264,87.33c-0.827-0.703-1.278-1.363-1.253-1.868c0.035-0.711,0.972-1.41,1.253-1.585V87.33z M47.264,79.969
		c-2.215-1.36-2.749-2.349-2.709-2.722c0.073-0.695,1.633-1.661,2.709-2.046V79.969z M47.264,71.538
		c-4.381-2.957-4.239-4.427-4.207-4.587c0.229-1.498,3.897-2.111,4.207-2.18V71.538z M52.736,87.33v-3.453
		c0.282,0.175,1.219,0.874,1.253,1.585C54.015,85.967,53.563,86.627,52.736,87.33z M52.736,79.969v-4.768
		c1.077,0.385,2.636,1.351,2.709,2.046C55.485,77.621,54.952,78.609,52.736,79.969z M56.943,66.951
		c0.032,0.16,0.174,1.63-4.207,4.587v-6.767C53.046,64.84,56.715,65.453,56.943,66.951z"/>
	<path d="M31.72,45.253c0,0-0.374,3.581-4.364,4.363c0,0,7.161,0.501,13.24-2.349L31.72,45.253z"/>
	<path d="M28.438,39.361c0,0,12.158,5.892,14.993,6.415c0,0-9.622-4.027-14.768-9.174c0,0-7.872,4.881-15.898,3.2
		c1.288,1.808,2.636,3.566,4.031,5.264C20.166,45.449,24.111,44.114,28.438,39.361z"/>
	<path d="M30.303,43.612l10.74,2.461c0,0-4.452-1.784-12.083-5.146c0,0-4.751,5.629-10.925,5.631
		c0.469,0.547,0.946,1.078,1.424,1.608C23.548,49.59,29.107,50.188,30.303,43.612z"/>
	<path d="M68.345,45.253l-8.876,2.015c6.079,2.85,13.24,2.349,13.24,2.349C68.719,48.833,68.345,45.253,68.345,45.253z"/>
	<path d="M71.403,36.601c-5.146,5.147-14.768,9.174-14.768,9.174c2.834-0.522,14.993-6.415,14.993-6.415
		c4.327,4.753,8.272,6.088,11.643,5.704c1.395-1.697,2.743-3.456,4.031-5.264C79.274,41.482,71.403,36.601,71.403,36.601z"/>
	<path d="M71.105,40.927c-7.631,3.363-12.083,5.146-12.083,5.146l10.74-2.461c1.195,6.576,6.754,5.978,10.844,4.554
		c0.478-0.53,0.955-1.061,1.424-1.608C75.857,46.556,71.105,40.927,71.105,40.927z"/>
</g>
</svg>
