<?xml version="1.0" encoding="iso-8859-1"?>
<!-- Generator: Adobe Illustrator 16.0.4, SVG Export Plug-In . SVG Version: 6.00 Build 0)  -->
<!DOCTYPE svg PUBLIC "-//W3C//DTD SVG 1.1//EN" "http://www.w3.org/Graphics/SVG/1.1/DTD/svg11.dtd">
<svg version="1.1" id="Capa_1" xmlns="http://www.w3.org/2000/svg" xmlns:xlink="http://www.w3.org/1999/xlink" x="0px" y="0px"
	 width="15px" height="15px" viewBox="0 0 15 15" style="enable-background:new 0 0 15 15;" xml:space="preserve">
<path style="fill:#010002;" d="M10.363,0.982C9.89,0.594,9.561,0.686,9.086,1.532c-0.313,0.56-0.812,0.627-1.118,0.61L7.97,2.03
	c0.354-0.176,0.604-0.534,0.604-0.955C8.574,0.48,8.093,0,7.5,0S6.424,0.48,6.424,1.075c0,0.421,0.25,0.779,0.605,0.954L7.03,2.142
	c-0.305,0.017-0.805-0.05-1.118-0.61C5.439,0.686,5.109,0.594,4.637,0.982C4.161,1.371,2.286,3.612,0,3.406
	c0,0,0.453,1.029,1.688,0.801c0,0,0.66,0.685,1.731,0.206c0,0,0.557,0.502,1.442,0.045c0,0,0.658,0.503,1.36,0.068
	c0,0,0.396,0.287,0.837,0.213l0.028,2.587c-0.05-0.01-0.09-0.021-0.143-0.031C6.943,7.294,6.178,7.13,5.368,6.903
	C4.589,6.699,3.733,6.368,3.607,6.196c0.011-0.011,0.028-0.019,0.051-0.03c0.069-0.037,0.188-0.074,0.328-0.103
	C4.272,6.005,4.66,5.975,5.05,5.959c0.774-0.028,0.914,0.006,0.928,0.008c0.001-0.024,0.448,0.053,0.571-0.403
	C6.544,5.561,6.558,5.542,6.55,5.532C6.524,5.218,6.283,5.203,6.086,5.166c-0.32-0.042-0.153-0.025-0.585-0.02
	C4.792,5.199,2.607,5.022,2.332,6.172c0,0.032-0.002,0.053-0.006,0.081c0.092,1.001,2.165,1.436,3.667,1.735
	c-0.51,0.349-0.782,0.803-0.891,1.39c-0.052,0.626,0.445,1.222,1.6,1.888c-0.877,0.62-1.453,1.204-1.406,1.908
	C5.378,13.748,5.885,14.516,6.881,15c0.003,0.001,0.004-0.001,0.006,0l0,0c0,0,0.001,0,0.003,0c0,0-0.697-1.064-0.744-1.646
	c-0.046-0.339,0.147-0.842,0.995-1.446l0.024,2.127h0.004c0.006,0.181,0.146,0.325,0.321,0.325s0.315-0.145,0.321-0.325h0.003
	l0.028-2.071c0.781,0.579,0.958,1.061,0.913,1.39C8.709,13.936,8.013,15,8.013,15c0.001,0,0.001,0,0.002,0c0,0,0.002,0.001,0.007,0
	c0.995-0.484,1.503-1.251,1.584-1.825c0.047-0.704-0.529-1.288-1.405-1.908c1.153-0.666,1.651-1.262,1.6-1.888
	c-0.108-0.587-0.381-1.041-0.892-1.39c1.503-0.299,3.575-0.734,3.667-1.735c-0.004-0.028-0.006-0.049-0.006-0.081
	c-0.274-1.15-2.46-0.973-3.169-1.026c-0.432-0.005-0.265-0.022-0.585,0.02C8.618,5.203,8.377,5.218,8.352,5.532
	C8.344,5.542,8.358,5.561,8.354,5.565c0.123,0.456,0.57,0.378,0.571,0.403c0.013-0.002,0.152-0.036,0.928-0.008
	c0.389,0.016,0.776,0.045,1.062,0.104c0.142,0.029,0.258,0.066,0.328,0.103c0.022,0.011,0.041,0.019,0.052,0.03
	c-0.126,0.172-0.981,0.503-1.761,0.708C8.724,7.13,7.958,7.294,7.956,7.295c-0.02,0.004-0.035,0.008-0.055,0.011l0.033-2.568
	c0.443,0.078,0.843-0.212,0.843-0.212c0.7,0.435,1.36-0.068,1.36-0.068c0.886,0.457,1.441-0.045,1.441-0.045
	c1.071,0.479,1.731-0.206,1.731-0.206C14.546,4.435,15,3.406,15,3.406C12.713,3.612,10.838,1.371,10.363,0.982z M6.097,9.577
	c0.016-0.226-0.062-0.764,1.005-1.156l0.024,2.137c-0.206-0.13-0.419-0.264-0.636-0.402C6.204,9.979,6.07,9.739,6.097,9.577z
	 M8.411,10.156c-0.188,0.121-0.371,0.235-0.551,0.349l0.027-2.05c0.974,0.389,0.901,0.903,0.917,1.123
	C8.831,9.739,8.697,9.979,8.411,10.156z"/>
<g>
</g>
<g>
</g>
<g>
</g>
<g>
</g>
<g>
</g>
<g>
</g>
<g>
</g>
<g>
</g>
<g>
</g>
<g>
</g>
<g>
</g>
<g>
</g>
<g>
</g>
<g>
</g>
<g>
</g>
</svg>
