<?xml version="1.0" encoding="utf-8"?>
<!-- Generator: Adobe Illustrator 16.0.0, SVG Export Plug-In . SVG Version: 6.00 Build 0)  -->
<!DOCTYPE svg PUBLIC "-//W3C//DTD SVG 1.1//EN" "http://www.w3.org/Graphics/SVG/1.1/DTD/svg11.dtd">
<svg version="1.1" id="Layer_1" xmlns="http://www.w3.org/2000/svg" xmlns:xlink="http://www.w3.org/1999/xlink" x="0px" y="0px"
	 width="96px" height="96px" viewBox="0 0 96 96" enable-background="new 0 0 96 96" xml:space="preserve">
<g>
	<path d="M45.435,47.756c0.774,0.19,1.572,0.374,2.244,0.527c0.227,0.051,0.456,0.104,0.685,0.157l-0.074-1.937
		C47.112,46.986,46.172,47.403,45.435,47.756z"/>
	<path d="M50.66,58.439c0.918-0.291,1.829-0.485,2.637-0.656c0.624-0.132,1.486-0.313,2.016-0.498
		c-0.51-0.704-2.488-1.417-4.563-2.006L50.66,58.439z"/>
	<path d="M95.008,34.872L80.224,11.346L61.893,22.862V1.213H34.107v21.649L15.776,11.346L0.992,34.872L21.885,48L0.992,61.128
		l14.784,23.526l18.331-11.517v21.649h27.786V73.138l18.331,11.517l14.784-23.526L74.115,48L95.008,34.872z M63.43,37.11
		c-0.25,3.635-4.407,5.229-8.81,6.916l-3.541,1.383l-0.14,3.647c5.105,1.301,9.918,3.164,10.457,7.637
		c0.773,5.395-4.372,6.483-6.85,7.008l-4.06,0.798l-0.279,14.043c0,0.029-0.024,0.052-0.052,0.051h-0.001l-1.034-0.001
		l-0.236-11.853c-2.335,5.734-3.429,3.186-3.717,1.894c-0.626-2.791-0.354-5.121,0.808-6.927c0.717-1.118,1.675-1.891,2.715-2.449
		l-0.13-4.554c-0.854-0.21-1.634-0.389-2.229-0.523c-5.086-1.163-9.103-2.082-9.334-5.646c-0.2-3.069,2.421-5.13,11.013-8.431
		l-0.194-3.968c-0.017-0.3-0.038-0.597-0.059-0.894c-1.546-0.06-3.094-0.083-4.481-0.103c-0.574-0.01-1.13-0.019-1.679-0.029
		c-0.664,0.604-1.546,0.979-2.518,0.979c-2.069,0-6.52-1.68-6.52-3.749v-1.908c0-2.07,4.451-3.749,6.52-3.749
		c1.594,0,2.951,0.995,3.495,2.397c0.262,0.004,0.522,0.008,0.791,0.011c1.255,0.019,2.549,0.04,3.84,0.079
		c-0.004-0.034-0.008-0.068-0.013-0.103c-0.13-1.178-0.304-2.357-0.483-3.534c-0.199-1.179-0.396-2.356-0.674-3.534
		c-0.475-2.003,0.764-4.015,2.768-4.49c2.003-0.476,4.013,0.763,4.489,2.768c0.137,0.581,0.125,1.179,0,1.723
		c-0.28,1.178-0.477,2.355-0.674,3.534c-0.18,1.177-0.354,2.356-0.484,3.534c-0.017,0.134-0.029,0.268-0.045,0.401
		c2.606,0.269,4.985,0.747,6.754,1.631c0.037,0.019,0.073,0.037,0.107,0.056C60.114,31.798,63.661,33.752,63.43,37.11z"/>
	<path d="M51.551,35.492c-0.013,0.214-0.029,0.429-0.042,0.644l-0.13,2.659c0.36-0.139,0.722-0.279,1.075-0.415
		c1.167-0.445,2.86-1.096,4.017-1.674c-0.116-0.07-0.243-0.144-0.383-0.221C55.062,35.987,53.425,35.686,51.551,35.492z"/>
</g>
</svg>
