<?xml version="1.0" encoding="UTF-8" standalone="no"?>
<!-- Generator: Adobe Illustrator 16.0.4, SVG Export Plug-In . SVG Version: 6.00 Build 0)  -->

<svg
   xmlns:dc="http://purl.org/dc/elements/1.1/"
   xmlns:cc="http://creativecommons.org/ns#"
   xmlns:rdf="http://www.w3.org/1999/02/22-rdf-syntax-ns#"
   xmlns:svg="http://www.w3.org/2000/svg"
   xmlns="http://www.w3.org/2000/svg"
   xmlns:sodipodi="http://sodipodi.sourceforge.net/DTD/sodipodi-0.dtd"
   xmlns:inkscape="http://www.inkscape.org/namespaces/inkscape"
   version="1.1"
   id="Layer_1"
   x="0px"
   y="0px"
   width="50px"
   height="50px"
   viewBox="0 0 50 50"
   enable-background="new 0 0 50 50"
   xml:space="preserve"
   inkscape:version="0.48.4 r9939"
   sodipodi:docname="male116.svg.2014_09_08_11_42_04.0.svg"><metadata
     id="metadata9"><rdf:RDF><cc:Work
         rdf:about=""><dc:format>image/svg+xml</dc:format><dc:type
           rdf:resource="http://purl.org/dc/dcmitype/StillImage" /></cc:Work></rdf:RDF></metadata><defs
     id="defs7" /><sodipodi:namedview
     pagecolor="#ffffff"
     bordercolor="#666666"
     borderopacity="1"
     objecttolerance="10"
     gridtolerance="10"
     guidetolerance="10"
     inkscape:pageopacity="0"
     inkscape:pageshadow="2"
     inkscape:window-width="829"
     inkscape:window-height="480"
     id="namedview5"
     showgrid="false"
     inkscape:zoom="18.88"
     inkscape:cx="33.134597"
     inkscape:cy="28.906443"
     inkscape:window-x="2441"
     inkscape:window-y="455"
     inkscape:window-maximized="0"
     inkscape:current-layer="Layer_1" /><path
     d="m 29.676325,23.17276 c 2.148312,1.557235 3.291966,5.034328 2.833529,6.98715 -0.180447,0.788038 -0.6145,1.318628 -1.285085,1.582352 -0.619378,0.241749 -1.404572,0.361052 -2.331202,0.361052 -3.423646,0 -8.137255,-1.612176 -9.910041,-3.001443 -2.175138,-1.701658 -1.572767,-4.461825 0.546278,-6.114818 -0.675083,-1.241161 -0.04047,-5.497352 2.607085,-5.734587 -2.693654,0.203615 -2.064238,4.387003 -1.197807,4.691441 -0.773003,0.888503 -0.441256,0.615064 -0.441256,0.615064 0.468191,-0.215062 0.95833,-0.398728 1.480166,-0.53687 0.01217,-0.328086 0.05609,-0.662453 0.192642,-1.001528 0,0 0.977239,-2.998094 4.722767,-3.977563 -3.702709,0.968666 -2.696378,3.461102 -3.023137,4.253847 -0.05853,0.144422 -0.08047,0.287273 -0.104854,0.428554 0.277989,-0.02197 0.553538,-0.04867 0.831526,-0.04867 0.107307,0 0.209711,0.01885 0.317006,0.02198 0.04145,-0.0832 0.06096,-0.164828 0.114609,-0.248027 2.498339,-1.458541 2.750055,-4.190215 5.062333,-4.209267 -2.34307,0.0832 -2.250877,3.571552 -3.438296,4.628402 -0.0049,0.01413 -0.0049,0.02669 -0.01464,0.0361 1.146093,0.243319 2.194646,0.656174 3.038365,1.266824 z m 14.840677,-5.144213 -0.0049,14.194072 c 0,0.309249 -0.390159,0.563555 -0.868104,0.563555 l -7.505686,0.02825 0,11.519143 c -0.0025,2.324865 -2.809146,4.213327 -6.262054,4.213327 l -9.754008,0 c -3.45047,0 -6.259615,-1.888462 -6.259615,-4.213327 l 0,-11.519136 -7.5032491,0 c -0.4852603,0 -0.8754186,-0.254307 -0.8754186,-0.563556 l 0,-14.194072 c -0.00247,-1.123972 0.6754629,-2.183582 1.9093406,-2.976328 1.233878,-0.795885 2.8749861,-1.235427 4.6209461,-1.235427 l 7.430095,-0.0031 c -2.921317,-1.193042 -4.874551,-3.285577 -4.874551,-5.6716633 0,-3.7031426 4.679471,-6.7171459 10.429441,-6.7171459 5.752408,0 10.431878,3.0140033 10.431878,6.7140063 0,2.3829469 -1.94348,4.4739119 -4.85748,5.6622449 l 7.393514,-0.0031 c 0.0049,0 0.0073,0 0.01217,0 3.59434,-0.0016 6.527848,1.883753 6.537603,4.202338 z M 24.999293,13.74929 c 4.786763,0 8.68104,-2.506959 8.68104,-5.5853247 0,-3.0815043 -3.894277,-5.5868947 -8.68104,-5.5868947 -4.784327,0 -8.678603,2.5053904 -8.678603,5.5868947 -0.0025,3.0815047 3.891838,5.5853247 8.678603,5.5853247 z m 17.764431,4.282397 c -0.0049,-1.698517 -2.155629,-3.078365 -4.786763,-3.078365 -0.0025,0 -0.0073,0 -0.0073,0 l -25.960213,0.01571 c -1.27777,0.0031 -2.4799491,0.321807 -3.3797534,0.904201 -0.9022424,0.585532 -1.3996958,1.356301 -1.3972563,2.180443 l 0,13.630516 6.6253887,0 0,-9.071836 c 0,-0.310819 0.392598,-0.563556 0.877858,-0.563556 0.482823,0 0.875419,0.252737 0.875419,0.563556 l 0,9.625972 c 0,0.0063 0.0049,0.0095 0.0049,0.01256 0,0.0031 -0.0049,0.0063 -0.0049,0.01257 l 0,12.070142 c 0,1.701656 2.02395,3.081504 4.506338,3.081504 l 4.096671,0 c -0.05609,-0.07378 -0.0951,-0.15698 -0.0951,-0.241747 l 0,-10.304147 c 0,-0.312389 0.392598,-0.563555 0.87542,-0.563555 0.48526,0 0.877858,0.251166 0.877858,0.563555 l 0,10.304125 c 0,0.08948 -0.03902,0.167967 -0.0951,0.241747 l 4.094233,0 c 2.489702,0 4.511215,-1.379848 4.511215,-3.081505 l 0,-21.721233 c 0,-0.312389 0.39016,-0.565126 0.87542,-0.565126 0.48526,0 0.877858,0.252737 0.877858,0.565126 l 0,9.074975 6.622951,-0.02511 0.0049,-13.630516 z"
     id="path3"
     inkscape:connector-curvature="0"
     style="stroke:#000000;stroke-width:1.17949069;stroke-linejoin:round;stroke-miterlimit:4;stroke-opacity:1;stroke-dasharray:none;stroke-dashoffset:0"
     sodipodi:nodetypes="cccsccccccccccsccccccccccccssscssccccssscccccssscscsccccccsssssssscssssscssssscccc" /></svg>