<?xml version="1.0" encoding="utf-8"?>
<!-- Generator: Adobe Illustrator 16.0.0, SVG Export Plug-In . SVG Version: 6.00 Build 0)  -->
<!DOCTYPE svg PUBLIC "-//W3C//DTD SVG 1.1//EN" "http://www.w3.org/Graphics/SVG/1.1/DTD/svg11.dtd">
<svg version="1.1" id="Layer_1" xmlns="http://www.w3.org/2000/svg" xmlns:xlink="http://www.w3.org/1999/xlink" x="0px" y="0px"
	 width="96px" height="96px" viewBox="0 0 96 96" enable-background="new 0 0 96 96" xml:space="preserve">
<g>
	<path d="M75.704,12.244H65.361v-1.262c0-1.5-1.221-2.721-2.721-2.721h-7.127V3.34c0-1.5-1.22-2.721-2.721-2.721h-9.586
		c-1.5,0-2.721,1.221-2.721,2.721v4.922h-7.127c-1.5,0-2.721,1.221-2.721,2.721v1.262H20.296c-2.139,0-3.879,1.74-3.879,3.878v75.38
		c0,2.138,1.74,3.878,3.879,3.878h55.408c2.139,0,3.879-1.74,3.879-3.878v-75.38C79.583,13.984,77.843,12.244,75.704,12.244z
		 M44.148,3.922c0-0.16,0.129-0.288,0.289-0.288h7.125c0.16,0,0.29,0.127,0.29,0.288V7.58h-7.704V3.922z M74.596,89.655
		c0,0.3-0.244,0.543-0.543,0.543H21.947c-0.3,0-0.543-0.244-0.543-0.543V18.524c0-0.299,0.244-0.543,0.543-0.543h9.032v4.148
		c0,1.471,1.197,2.667,2.668,2.667h28.706c1.471,0,2.668-1.197,2.668-2.667v-4.148h9.032c0.3,0,0.543,0.244,0.543,0.543V89.655z"/>
	<path d="M48,34.789c-9.921,0-17.964,8.043-17.964,17.964c0,9.922,8.043,17.965,17.964,17.965s17.964-8.043,17.964-17.965
		C65.964,42.832,57.921,34.789,48,34.789z M60.929,56.688h-8.994v8.994h-7.87v-8.994h-8.994v-7.87h8.994v-8.994h7.87v8.994h8.994
		V56.688z"/>
</g>
</svg>
