<?xml version="1.0" encoding="iso-8859-1"?>
<!-- Generator: Adobe Illustrator 16.0.0, SVG Export Plug-In . SVG Version: 6.00 Build 0)  -->
<!DOCTYPE svg PUBLIC "-//W3C//DTD SVG 1.1//EN" "http://www.w3.org/Graphics/SVG/1.1/DTD/svg11.dtd">
<svg version="1.1" id="Layer_1" xmlns="http://www.w3.org/2000/svg" xmlns:xlink="http://www.w3.org/1999/xlink" x="0px" y="0px"
	 width="22.096px" height="32px" viewBox="0 0 22.096 32" style="enable-background:new 0 0 22.096 32;" xml:space="preserve">
<g>
	<path d="M22.007,9.926l-4.26-5.964h1.397c0.264,0,0.478-0.214,0.478-0.478V0.478C19.622,0.214,19.408,0,19.144,0H2.615
		C2.353,0,2.14,0.211,2.137,0.473L2.1,3.479C2.099,3.607,2.148,3.729,2.238,3.82C2.327,3.91,2.45,3.962,2.577,3.962h1.468
		L0.08,9.966C0.027,10.044,0,10.136,0,10.229v21.293C0,31.786,0.214,32,0.478,32h21.14c0.264,0,0.478-0.214,0.478-0.478V10.204
		C22.096,10.104,22.065,10.007,22.007,9.926z M19.143,29.229H2.893V10.25l4.715-6.306l6.749,0.097l4.786,6.396V29.229z"/>
	<path d="M4.929,14.964v6.797c0,0.264,0.214,0.478,0.478,0.478h11.282c0.264,0,0.478-0.213,0.478-0.478v-6.797
		c0-0.264-0.214-0.478-0.478-0.478H5.407C5.143,14.486,4.929,14.7,4.929,14.964z"/>
</g>
<g>
</g>
<g>
</g>
<g>
</g>
<g>
</g>
<g>
</g>
<g>
</g>
<g>
</g>
<g>
</g>
<g>
</g>
<g>
</g>
<g>
</g>
<g>
</g>
<g>
</g>
<g>
</g>
<g>
</g>
</svg>
