<?xml version="1.0" encoding="utf-8"?>
<!-- Generator: Adobe Illustrator 16.0.4, SVG Export Plug-In . SVG Version: 6.00 Build 0)  -->
<!DOCTYPE svg PUBLIC "-//W3C//DTD SVG 1.1//EN" "http://www.w3.org/Graphics/SVG/1.1/DTD/svg11.dtd">
<svg version="1.1" id="Layer_1" xmlns="http://www.w3.org/2000/svg" xmlns:xlink="http://www.w3.org/1999/xlink" x="0px" y="0px"
	 width="50px" height="50px" viewBox="0 0 50 50" enable-background="new 0 0 50 50" xml:space="preserve">
<path d="M37.25,22.934c0-6.755-5.495-12.25-12.25-12.25s-12.25,5.495-12.25,12.25c0,5.253,3.332,9.734,7.988,11.47v3.912
	c0,0.552,0.448,1,1,1c0.552,0,1-0.448,1-1v-3.351c0.734,0.138,1.488,0.218,2.262,0.218c0.829,0,1.639-0.084,2.421-0.242v3.375
	c0,0.552,0.448,1,1,1s1-0.448,1-1v-3.971C33.995,32.566,37.25,28.129,37.25,22.934z M28.578,25.562
	c-0.051-0.017-0.102-0.031-0.157-0.031s-0.106,0.015-0.157,0.031c-0.887-0.112-1.586-1.146-1.586-2.416
	c0-1.344,0.782-2.438,1.743-2.438s1.743,1.093,1.743,2.438C30.164,24.417,29.464,25.451,28.578,25.562z M28.921,28.391v-1.869
	c1.274-0.295,2.243-1.692,2.243-3.374c0-1.896-1.23-3.438-2.743-3.438s-2.743,1.542-2.743,3.438c0,1.681,0.969,3.079,2.243,3.374
	v1.869c-0.293,0.174-0.5,0.479-0.5,0.846v1.117c-1.513,0.489-3.163,0.508-4.683,0.051v-1.168c0-0.365-0.207-0.672-0.5-0.846v-2.024
	c1.363-0.238,2.404-1.423,2.404-2.853v-2.857c0-0.276-0.224-0.5-0.5-0.5s-0.5,0.224-0.5,0.5v2.857c0,0.875-0.598,1.607-1.404,1.828
	v-4.686c0-0.276-0.224-0.5-0.5-0.5c-0.276,0-0.5,0.224-0.5,0.5v4.686c-0.806-0.221-1.403-0.953-1.403-1.828v-2.857
	c0-0.276-0.224-0.5-0.5-0.5s-0.5,0.224-0.5,0.5v2.857c0,1.43,1.041,2.614,2.403,2.853v2.024c-0.293,0.174-0.5,0.479-0.5,0.846v0.222
	c-2.183-1.423-3.542-3.847-3.542-6.523c0-4.303,3.5-7.804,7.804-7.804c4.304,0,7.805,3.501,7.805,7.804
	c0,2.597-1.298,4.973-3.384,6.413v-0.109C29.421,28.87,29.214,28.564,28.921,28.391z M25,34.184c-0.774,0-1.531-0.078-2.262-0.229
	v-2.52c0.734,0.194,1.489,0.303,2.262,0.303c0.829,0,1.639-0.122,2.421-0.346v2.521C26.641,34.087,25.832,34.184,25,34.184z
	 M29.421,33.275v-2.743c2.687-1.564,4.384-4.439,4.384-7.598c0-4.854-3.949-8.804-8.805-8.804c-4.854,0-8.804,3.95-8.804,8.804
	c0,3.237,1.76,6.147,4.542,7.687v2.719c-4.095-1.684-6.988-5.711-6.988-10.406c0-6.203,5.047-11.25,11.25-11.25
	s11.25,5.047,11.25,11.25C36.25,27.568,33.432,31.555,29.421,33.275z"/>
</svg>
