<?xml version="1.0" encoding="utf-8"?>
<!-- Generator: Adobe Illustrator 16.0.0, SVG Export Plug-In . SVG Version: 6.00 Build 0)  -->
<!DOCTYPE svg PUBLIC "-//W3C//DTD SVG 1.1//EN" "http://www.w3.org/Graphics/SVG/1.1/DTD/svg11.dtd">
<svg version="1.1" id="Layer_1" xmlns="http://www.w3.org/2000/svg" xmlns:xlink="http://www.w3.org/1999/xlink" x="0px" y="0px"
	 width="96px" height="96px" viewBox="0 0 96 96" enable-background="new 0 0 96 96" xml:space="preserve">
<g>
	<polygon points="31.262,45.223 21.018,45.223 21.018,52.128 14.112,52.128 14.112,62.372 21.018,62.372 21.018,69.277 
		31.262,69.277 31.262,62.372 38.167,62.372 38.167,52.128 31.262,52.128 	"/>
	<path d="M88.177,70.048l-21.153-4.616c-0.822-0.18-1.643-0.218-2.438-0.139l-2.902-8.764c-1.362-4.113-5.817-6.353-9.932-4.99
		c-0.39,0.129-0.757,0.294-1.111,0.476V37.417c0-6.328-4.726-11.572-10.834-12.39V17.75h2.834v-11h-33v11h2.834v7.277
		C6.365,25.845,1.64,31.089,1.64,37.417V76.75c0,6.893,5.607,12.5,12.5,12.5h24c6.893,0,12.5-5.607,12.5-12.5v-3.566l2.929,8.841
		c1.362,4.113,5.818,6.353,9.932,4.99c2.509-0.831,4.313-2.813,5.036-5.164l16.288,3.555c4.233,0.925,8.431-1.768,9.355-6.002
		C95.104,75.169,92.41,70.973,88.177,70.048z M45.64,76.75c0,4.136-3.364,7.5-7.5,7.5h-24c-4.136,0-7.5-3.364-7.5-7.5V37.417
		c0-4.136,3.364-7.5,7.5-7.5h0.834c1.381,0,2.5-1.119,2.5-2.5V20.25h17.332v7.167c0,1.381,1.119,2.5,2.5,2.5h0.834
		c4.136,0,7.5,3.364,7.5,7.5V76.75z M62.754,84.762c-2.872,0.952-5.981-0.61-6.934-3.483l-3.404-10.276l10.418-3.45l3.403,10.276
		C67.189,80.7,65.626,83.811,62.754,84.762z M74.754,80.779l-5.868-1.281c-0.005-0.802-0.13-1.615-0.396-2.416l-3.128-9.444
		c0.382,0,0.768,0.026,1.155,0.111l10.577,2.309L74.754,80.779z"/>
</g>
</svg>
