<?xml version="1.0" encoding="iso-8859-1"?>
<!-- Generator: Adobe Illustrator 16.0.4, SVG Export Plug-In . SVG Version: 6.00 Build 0)  -->
<!DOCTYPE svg PUBLIC "-//W3C//DTD SVG 1.1//EN" "http://www.w3.org/Graphics/SVG/1.1/DTD/svg11.dtd">
<svg version="1.1" id="Capa_1" xmlns="http://www.w3.org/2000/svg" xmlns:xlink="http://www.w3.org/1999/xlink" x="0px" y="0px"
	 width="300px" height="300px" viewBox="0 0 300 300" style="enable-background:new 0 0 300 300;" xml:space="preserve">
<path d="M141.086,94.235h-27.138V73.109H62.422v21.126H34.068h0c-7.74,0-14.068,6.328-14.068,14.068v167.622
	c0,7.739,6.329,14.068,14.068,14.068h107.019c7.74,0,14.068-6.329,14.068-14.068V108.304
	C155.154,100.564,148.826,94.235,141.086,94.235z M126.812,205.574h-26.335v26.006H74.458v-26.006H48.087v-26.177h26.371v-26.188
	h26.019v26.188h26.335V205.574z"/>
<polygon id="_237363832" points="52.115,33.194 124.56,33.194 124.56,63.788 52.115,63.788 "/>
<path id="_237364024" d="M158.915,71.053h28.354V49.926h51.525v21.126h27.139c7.74,0,14.066,6.329,14.066,14.068v167.621
	c0,7.74-6.326,14.068-14.066,14.068h-106.63v-55.883h89.787v-69.924h-89.787v-35.353c0-7.74-6.327-14.068-14.068-14.068h-0.389
	v-6.462C144.847,77.381,151.176,71.053,158.915,71.053L158.915,71.053z"/>
<polygon id="_237364144" points="175.6,10.011 248.043,10.011 248.043,40.605 175.6,40.605 "/>
</svg>
