<?xml version="1.0" encoding="utf-8"?>
<!-- Generator: Adobe Illustrator 16.0.0, SVG Export Plug-In . SVG Version: 6.00 Build 0)  -->
<!DOCTYPE svg PUBLIC "-//W3C//DTD SVG 1.1//EN" "http://www.w3.org/Graphics/SVG/1.1/DTD/svg11.dtd">
<svg version="1.1" id="Layer_1" xmlns="http://www.w3.org/2000/svg" xmlns:xlink="http://www.w3.org/1999/xlink" x="0px" y="0px"
	 width="96px" height="96px" viewBox="0 0 96 96" enable-background="new 0 0 96 96" xml:space="preserve">
<g>
	<path d="M93.731,90.396L77.588,63.41c-0.975-1.633-2.427-2.795-4.063-3.467l-1.774-0.818v20.873v14.697h23.177
		C94.917,93.207,94.521,91.723,93.731,90.396z"/>
	<polygon points="50.347,81.988 45.652,81.988 45.652,85.994 41.646,85.994 41.646,90.688 45.652,90.688 45.652,94.695 
		50.347,94.695 50.347,90.688 54.354,90.688 54.354,85.994 50.347,85.994 	"/>
	<path d="M18.412,63.41L2.269,90.396c-0.79,1.326-1.186,2.811-1.195,4.299H24.25V79.998V59.125l-1.774,0.818
		C20.839,60.615,19.387,61.777,18.412,63.41z"/>
	<polygon points="57.146,50.367 48.011,59.451 38.854,50.367 33.539,54.85 30.916,56.057 30.916,75.498 44.631,75.498 
		42.146,63.756 48,70.18 53.854,63.756 51.369,75.498 65.084,75.498 65.084,56.057 62.461,54.85 	"/>
	<path d="M38.425,47.598c2.739,2.045,5.951,3.045,9.538,3.123c0.003,0,0.007,0,0.01,0c0.005,0,0.01,0,0.015,0
		c0.004,0,0.009,0,0.013,0s0.009,0,0.013,0c0.005,0,0.01,0,0.015,0c0.003,0,0.007,0,0.01,0c3.587-0.078,6.799-1.078,9.538-3.123
		c6.315,5.832,24.607,9.709,17.371,4.572c-8.598-6.107-7.55-26.234-7.55-26.234c0.136-1.564,0.204-3.186,0.201-4.859
		c-0.001-0.635-0.035-1.246-0.073-1.854c-0.155-3.023-0.901-5.238-0.901-5.238C64.268,5.98,57.692,1.377,48.037,1.307V1.305
		c-0.013,0-0.024,0-0.037,0s-0.024,0-0.037,0v0.002c-9.655,0.07-16.23,4.674-18.586,12.678c0,0-0.746,2.215-0.901,5.238
		c-0.038,0.607-0.072,1.219-0.073,1.854c-0.003,1.674,0.065,3.295,0.201,4.859c0,0,1.048,20.127-7.55,26.234
		C13.817,57.307,32.109,53.43,38.425,47.598z"/>
</g>
</svg>
