<?xml version="1.0" encoding="utf-8"?>
<!-- Generator: Adobe Illustrator 16.0.0, SVG Export Plug-In . SVG Version: 6.00 Build 0)  -->
<!DOCTYPE svg PUBLIC "-//W3C//DTD SVG 1.1//EN" "http://www.w3.org/Graphics/SVG/1.1/DTD/svg11.dtd">
<svg version="1.1" id="Layer_1" xmlns="http://www.w3.org/2000/svg" xmlns:xlink="http://www.w3.org/1999/xlink" x="0px" y="0px"
	 width="96px" height="96px" viewBox="0 0 96 96" enable-background="new 0 0 96 96" xml:space="preserve">
<g>
	<path d="M90.162,15.277H5.838v52.824h84.324V15.277z M85.39,63.328H10.61V20.051H85.39V63.328z"/>
	<path d="M0.797,71.524c0,0,1.896,9.194,8.679,9.194v0.004c0,0,0.026,0,0.067,0h76.914c0.041,0,0.067,0,0.067,0v-0.004
		c6.783,0,8.679-9.194,8.679-9.194H0.797z M56.813,77.569H39.188v-2.892h17.625V77.569z"/>
	<polygon points="42.878,53.717 53.122,53.717 53.122,46.812 60.027,46.812 60.027,36.567 53.122,36.567 53.122,29.662 
		42.878,29.662 42.878,36.567 35.973,36.567 35.973,46.812 42.878,46.812 	"/>
</g>
</svg>
