<?xml version="1.0" encoding="utf-8"?>
<!-- Generator: Adobe Illustrator 16.0.0, SVG Export Plug-In . SVG Version: 6.00 Build 0)  -->
<!DOCTYPE svg PUBLIC "-//W3C//DTD SVG 1.1//EN" "http://www.w3.org/Graphics/SVG/1.1/DTD/svg11.dtd">
<svg version="1.1" id="Layer_1" xmlns="http://www.w3.org/2000/svg" xmlns:xlink="http://www.w3.org/1999/xlink" x="0px" y="0px"
	 width="96px" height="96px" viewBox="0 0 96 96" enable-background="new 0 0 96 96" xml:space="preserve">
<g>
	<path d="M41.481,11.693c0.953-2.54,2.942-3.847,3.521-6.675c0.004-0.019,0.01-0.034,0.014-0.052V1.18
		c-36.6,0-35.552,26.124-35.552,26.124s10.473,0,15.71,0c0.257,0,1.303,0.057,1.634,0.123c2.491,0.511,4.456,1.723,6.35,3.37
		c0.224,0.195,0.36,0.285,0.44,0.332c1.05-0.736,1.94-1.791,2.679-2.816c0.676-0.938,1.833-1.009,2.245-1.009
		c3.015,0,3.53,0,6.545,0c0-2.825,0-5.651,0-8.479C42.98,17.074,40.388,14.604,41.481,11.693z"/>
	<path d="M50.065,1.206V5.19c0,2.95-1.765,5.6-3.411,7.493c-0.196,0.223-0.286,0.36-0.333,0.441
		c0.735,1.051,3.693,2.792,3.693,5.039c0,3.046,0,6.094,0,9.14c1.36,0,5.219,0,6.578,0c1.755-2.101,4.258-4.791,7.213-3.682
		c2.49,0.935,3.798,3.098,6.51,3.73l16.256,0.021C86.572,27.374,87.546,1.206,50.065,1.206z"/>
	<path d="M87.411,32.253c-5.528,0-11.057,0-16.585,0c-0.229,0-1.292-0.013-1.66-0.089c-2.492-0.51-4.458-1.723-6.35-3.369
		c-0.224-0.196-0.361-0.285-0.442-0.333c-0.943,0.661-1.703,1.62-2.431,2.515c-0.505,0.727-1.595,1.276-2.122,1.276
		c-6.137,0-12.274,0-18.411,0c-1.757,2.106-4.272,4.832-7.243,3.717c-2.513-0.944-4.683-3.717-6.993-3.717
		c-5.529,0-11.058,0-16.587,0c-0.286,2.324-0.426,4.762-0.399,7.322c0.376,34.67,15.668,55.687,40.181,55.238
		c23.804-0.453,39.517-22.809,39.446-56.175C87.812,36.424,87.675,34.295,87.411,32.253z M29.95,54.895
		c-3.688,0-6.677-2.988-6.677-6.677s2.99-6.677,6.677-6.677c3.687,0,6.677,2.988,6.677,6.677S33.637,54.895,29.95,54.895z
		 M66.896,54.895c-3.688,0-6.677-2.988-6.677-6.677s2.99-6.677,6.677-6.677c3.687,0,6.677,2.988,6.677,6.677
		S70.583,54.895,66.896,54.895z"/>
</g>
</svg>
