<?xml version="1.0" encoding="iso-8859-1"?>
<!-- Generator: Adobe Illustrator 16.0.0, SVG Export Plug-In . SVG Version: 6.00 Build 0)  -->
<!DOCTYPE svg PUBLIC "-//W3C//DTD SVG 1.1//EN" "http://www.w3.org/Graphics/SVG/1.1/DTD/svg11.dtd">
<svg version="1.1" xmlns="http://www.w3.org/2000/svg" xmlns:xlink="http://www.w3.org/1999/xlink" x="0px" y="0px" width="512px"
	 height="512px" viewBox="0 0 512 512" style="enable-background:new 0 0 512 512;" xml:space="preserve">
<g id="Guides_For_Artboard">
</g>
<g id="_x30_">
</g>
<g id="_x31_">
</g>
<g id="_x32_">
</g>
<g id="_x33_">
</g>
<g id="_x34_">
</g>
<g id="_x35_">
</g>
<g id="_x36_">
</g>
<g id="_x37_">
</g>
<g id="_x38_">
</g>
<g id="_x39_">
</g>
<g id="_x31_0">
</g>
<g id="_x31_1">
</g>
<g id="_x31_2">
</g>
<g id="_x31_3">
</g>
<g id="_x31_4">
</g>
<g id="_x31_5">
</g>
<g id="_x31_6">
</g>
<g id="_x31_7">
</g>
<g id="_x31_8">
</g>
<g id="_x31_9">
</g>
<g id="_x32_0">
</g>
<g id="_x32_1">
</g>
<g id="_x32_2">
</g>
<g id="_x32_3">
</g>
<g id="_x32_4">
</g>
<g id="_x32_5">
</g>
<g id="_x32_6">
</g>
<g id="_x32_7">
</g>
<g id="_x32_8">
</g>
<g id="_x32_9">
</g>
<g id="_x33_0">
</g>
<g id="_x33_1">
</g>
<g id="_x33_2">
	<path d="M478.251,278.5h-38.513c13.756-20.28,23.583-40.46,26.728-59.764c6.693-40.859,0.252-74.479-19.137-99.918
		c-19.563-25.703-49.472-40.385-91.507-44.892c-3.743-0.386-7.507-0.581-11.188-0.581c-31.028,0-62.384,12.086-85.676,32.356
		c-23.302-20.271-54.651-32.356-85.655-32.356c-3.687,0-7.348,0.189-11.192,0.578c-0.036,0.004-0.071,0.007-0.106,0.011
		c-41.908,4.499-71.798,19.176-91.381,44.871c-19.391,25.454-25.848,59.077-19.188,99.951c3.158,19.265,12.991,39.388,26.767,59.608
		H43.27c-7.456,0-13.5,6.044-13.5,13.5s6.044,13.5,13.5,13.5h55.439c26.182,31.505,59.045,62.424,88.207,89.856l1.983,1.866
		c14.526,13.684,27.08,25.511,35.061,34.088c4.046,4.504,17.934,18.327,35.772,18.327c18.479,0,32.227-14.609,35.564-18.509
		c8.856-9.565,23.843-23.732,37.119-36.284c28.721-27.246,61.073-57.938,86.92-89.21h58.915c7.456,0,13.5-6.044,13.5-13.5
		S485.707,278.5,478.251,278.5z M308.331,369.315c-13.769,13.017-41.199,45.188-48.6,45.188s-31.784-28.715-46.832-42.892
		l-2.001-1.883c-20.538-19.32-44.221-41.602-65.451-64.363h25c6.268,0,11.712-4.314,13.144-10.417l11.884-50.67l25.442,100.049
		c1.506,5.924,6.805,10.097,12.917,10.172c0.057,0.001,0.112,0.001,0.168,0.001c6.042,0,11.359-4.021,12.996-9.852l30.293-107.921
		l11.554,86.52c0.809,6.057,5.586,10.815,11.646,11.601c6.06,0.784,11.892-2.598,14.219-8.248l26.233-63.716l8.221,32.434
		c1.518,5.988,6.908,10.183,13.086,10.183h10.467C351.807,328.069,328.531,350.152,308.331,369.315z M431.923,213.093
		c-3.182,19.533-17.063,42.216-35.728,65.407h-23.441l-15.668-61.817c-1.431-5.644-6.319-9.734-12.126-10.148
		c-5.81-0.415-11.227,2.943-13.443,8.326l-22.582,54.847l-13.554-101.494c-0.848-6.35-6.041-11.229-12.431-11.68
		c-6.391-0.451-12.217,3.651-13.948,9.818l-34.359,122.402L208.028,184.09c-1.523-5.988-6.914-10.173-13.082-10.173
		c-0.042,0-0.085,0-0.127,0.001c-6.221,0.058-11.597,4.359-13.018,10.416l-22.054,94.031h-37.931
		c-18.733-23.137-32.643-45.758-35.838-65.254c-5.05-30.996-0.849-55.59,12.485-73.094c13.431-17.622,35.42-27.854,67.221-31.276
		c2.644-0.267,5.136-0.396,7.619-0.396c27.352,0,55.022,12.824,72.211,33.467c3.325,3.993,8.252,6.302,13.448,6.302
		c0.001,0,0.003,0,0.004,0c5.197-0.001,10.125-2.313,13.449-6.309c17.168-20.639,44.841-33.46,72.218-33.46
		c2.487,0,5.044,0.134,7.529,0.39c31.877,3.417,53.896,13.649,67.323,31.29C432.816,157.516,437.002,182.094,431.923,213.093z"/>
</g>
<g id="_x33_3">
</g>
<g id="_x33_4">
</g>
<g id="_x33_5">
</g>
<g id="_x33_6">
</g>
<g id="_x33_7">
</g>
<g id="_x33_8">
</g>
<g id="_x33_9">
</g>
<g id="_x34_0">
</g>
<g id="_x34_1">
</g>
<g id="_x34_2">
</g>
<g id="_x34_3">
</g>
<g id="_x34_4">
</g>
<g id="_x34_5">
</g>
<g id="_x34_6">
</g>
<g id="_x34_7">
</g>
<g id="_x34_8">
</g>
<g id="_x34_9">
</g>
<g id="_x35_0">
</g>
<g id="_x35_1">
</g>
<g id="_x35_2">
</g>
<g id="_x35_3">
</g>
<g id="_x35_4">
</g>
<g id="_x35_5">
</g>
<g id="_x35_6">
</g>
<g id="_x35_7">
</g>
<g id="_x35_8">
</g>
<g id="_x35_9">
</g>
<g id="_x36_0">
</g>
<g id="_x36_1">
</g>
<g id="_x36_2">
</g>
<g id="_x36_3">
</g>
<g id="_x36_4">
</g>
<g id="_x36_5">
</g>
<g id="_x36_6">
</g>
<g id="_x36_7">
</g>
<g id="_x36_8">
</g>
<g id="_x36_9">
</g>
<g id="_x37_0">
</g>
</svg>
