<?xml version="1.0" encoding="utf-8"?>
<!-- Generator: Adobe Illustrator 17.0.0, SVG Export Plug-In . SVG Version: 6.00 Build 0)  -->
<!DOCTYPE svg PUBLIC "-//W3C//DTD SVG 1.1//EN" "http://www.w3.org/Graphics/SVG/1.1/DTD/svg11.dtd">
<svg version="1.1" id="Layer_1" xmlns="http://www.w3.org/2000/svg" xmlns:xlink="http://www.w3.org/1999/xlink" x="0px" y="0px"
	 width="32px" height="32px" viewBox="0 0 32 32" enable-background="new 0 0 32 32" xml:space="preserve">
<g>
	<circle cx="10.279" cy="10.324" r="2.211"/>
	<path d="M14.989,11.288c-0.494-0.024-0.977,0.154-1.335,0.495c-0.359,0.341-0.563,0.814-0.563,1.309v2.083h12.044
		c0.189,0,0.358-0.12,0.421-0.3c0.062-0.179,0.005-0.378-0.143-0.496C24.102,13.333,21.046,11.595,14.989,11.288z"/>
	<path d="M11.384,14.801c0-0.567-0.394-1.059-0.949-1.182L6.38,12.721c-0.205-0.045-0.418,0.005-0.582,0.136
		c-0.164,0.132-0.258,0.33-0.258,0.539v1.714h5.844V14.801z"/>
	<path d="M30.361,21.615v-8.734c0-0.635-0.513-1.15-1.149-1.15c-0.635,0-1.148,0.516-1.148,1.15v3.475H3.832V7.127
		c0-0.638-0.514-1.15-1.149-1.15c-0.636,0-1.149,0.513-1.149,1.15v14.488c-0.862,0.433-1.456,1.324-1.456,2.354
		c0,1.452,1.181,2.632,2.631,2.632c1.45,0,2.631-1.18,2.631-2.632c0-1.05-0.618-1.958-1.508-2.38v-2.08h24.231v2.08
		c-0.891,0.422-1.509,1.33-1.509,2.38c0,1.452,1.181,2.632,2.631,2.632c1.451,0,2.631-1.18,2.631-2.632
		C31.816,22.941,31.223,22.048,30.361,21.615z M4.189,23.969c0,0.815-0.663,1.479-1.479,1.479c-0.816,0-1.48-0.664-1.48-1.479
		c0-0.338,0.114-0.65,0.305-0.899v0.17c0,0.638,0.513,1.152,1.149,1.152c0.635,0,1.149-0.515,1.149-1.152v-0.233
		C4.055,23.265,4.189,23.602,4.189,23.969z M29.185,25.448c-0.816,0-1.479-0.664-1.479-1.479c0-0.367,0.134-0.704,0.357-0.963v0.233
		c0,0.638,0.513,1.152,1.148,1.152c0.636,0,1.149-0.515,1.149-1.152v-0.168c0.191,0.247,0.304,0.56,0.304,0.897
		C30.665,24.784,30.001,25.448,29.185,25.448z"/>
</g>
</svg>
