<?xml version="1.0" encoding="utf-8"?>
<!-- Generator: Adobe Illustrator 16.0.0, SVG Export Plug-In . SVG Version: 6.00 Build 0)  -->
<!DOCTYPE svg PUBLIC "-//W3C//DTD SVG 1.1//EN" "http://www.w3.org/Graphics/SVG/1.1/DTD/svg11.dtd">
<svg version="1.1" id="Layer_1" xmlns="http://www.w3.org/2000/svg" xmlns:xlink="http://www.w3.org/1999/xlink" x="0px" y="0px"
	 width="100px" height="100px" viewBox="0 0 100 100" enable-background="new 0 0 100 100" xml:space="preserve">
<g>
	<path d="M29.143,4.946L36.478,1.5C33.546,1.558,30.929,2.88,29.143,4.946z"/>
	<path d="M41.52,2.75l-8.004,3.762l9.695-2.567C42.689,3.491,42.126,3.089,41.52,2.75z"/>
	<path d="M24.291,10.803c-0.098,0.212-0.182,0.416-0.259,0.602c-0.408,0.991-0.546,1.325-1.916,1.576l0.532,2.9
		c2.95-0.541,3.621-2.167,4.109-3.354c0.011-0.025,0.019-0.042,0.026-0.063c0.512,5.023,4.734,8.947,9.892,8.947
		c5.502,0,9.96-4.46,9.96-9.962c0-1.703-0.431-3.307-1.182-4.709l-17.512,4.636l-0.2-2.151l5.773-2.713l-5.881,1.557h-0.002
		l-0.35,0.093c-0.004,0.011-0.006,0.021-0.01,0.03c-0.393,0.116-1.002,0.251-1.321,0.136c-0.918-0.337-1.967-1.484-2.288-2.507
		l-2.811,0.884C21.377,8.367,22.763,9.992,24.291,10.803z"/>
	<path d="M31.767,97.75c2.523,0,4.568-2.047,4.568-4.571v-1.506l-9.133,1.572C27.238,95.738,29.265,97.75,31.767,97.75z"/>
	<polygon points="36.334,77.953 27.194,81.793 27.194,82.919 36.334,81.635 	"/>
	<path d="M63.819,39.972l-2.947-1.244c-6.285-2.284-8.708-5.417-11.252-8.722c-1.76-2.285-5.849-6.922-10.463-8.018l-2.481,2.498
		l-2.407-2.525c-0.006,0.003-0.014,0.003-0.023,0.005c-1.27,0.304-4.042,1.748-4.237,1.869c-7.35,4.507-13.905,11.108-12.143,28.741
		c0.021,0.21,0.066,0.41,0.119,0.607l-1.008,0.044l0.599,1.98l2.108,0.275c0.553,0.341,1.196,0.535,1.875,0.563v35.5h-0.345v1.892
		c-0.571,0.433-0.946,1.111-0.946,1.884v1.857h4.738v-1.857c0-0.771-0.375-1.451-0.946-1.884v-1.892h-0.432V55.547
		c1.284-0.735,2.091-2.172,1.934-3.739c-0.584-5.85-0.163-9.943,0.92-12.977c0,0,0,10.812,0,13.803s0.71,3.668,0.71,3.668
		l0.002,23.687l9.141-3.841L36.333,61.4l0.651-0.031V93.18c0,2.523,2.045,4.57,4.568,4.57s4.571-2.047,4.571-4.57V56.377
		c0,0,0.748-1.193,0.748-3.743s0-13.856,0-13.856c2.778,2.916,6.688,5.852,13.409,7.911c2.262,0.458,3.565-0.704,3.538-0.682
		c0.591-0.47,1.056-1.108,1.292-1.884C65.283,43.562,65.875,41.354,63.819,39.972z"/>
	<polygon points="27.195,91.44 36.335,89.867 36.335,88.701 27.194,87.563 	"/>
	<polygon points="27.194,84.725 27.194,85.758 36.335,86.895 36.334,83.44 	"/>
	<circle cx="62.509" cy="11.226" r="9.904"/>
	<path d="M64.115,48.306c-1.553,0.507-3.452-0.002-3.452-0.002c-0.274-0.039-0.546-0.098-0.817-0.18
		c-2.799-0.858-5.27-1.904-7.489-3.174c-0.843,3.649-3.638,15.859-4.934,22.789v5.815c1.033,0.959,3.182,1.772,5.892,2.349
		l0.001,17.088c0,2.51,2.034,4.545,4.544,4.544c2.51,0,4.544-2.034,4.544-4.544l-0.001-16.17c0.216,0.001,0.431-0.004,0.646-0.005
		l-0.001,16.175c0,2.51,2.034,4.544,4.544,4.544s4.544-2.034,4.544-4.543l0.001-17.365c2.706-0.824,4.765-2.104,5.522-3.956
		c0.019-4.062-2.178-14.792-3.738-21.651C73.92,50.02,65.832,48.762,64.115,48.306z"/>
	<path d="M64.926,21.682c-0.009-0.002-0.018-0.002-0.025-0.004l-2.393,2.511l-2.467-2.483c-1.344,0.329-6.041,2.482-9.817,6.629
		c0.193,0.249,0.386,0.498,0.577,0.746c2.521,3.276,4.692,6.097,10.584,8.238l1.066,0.449c0.923-0.6,2.008-0.957,3.164-0.957
		c0.509,0,1.018,0.066,1.511,0.198c0.68,0.182,4.218,0.914,5.52,1.178v-1.558c1.222,1.365,2.389,3.053,2.852,4.006l-8.886-1.693
		c-0.333-0.089-0.667-0.131-0.996-0.131c-0.257,0-0.509,0.034-0.756,0.084c0.771,0.649,1.346,1.488,1.656,2.445l0.037,0.137
		l0.165,0.763c0.112,0.801,0.055,1.582-0.173,2.323c-0.228,0.748-0.621,1.428-1.146,2.007c1.9,0.47,5.362,1.218,8.414,1.433v0.001
		c0.002,0,0.004,0,0.006-0.001c0.029,0.002,0.059,0.005,0.087,0.007L73.904,48c0.057,0.002,0.112,0.003,0.17,0.003
		c3.362,0,7.467-0.8,8.843-4.683C85.641,35.631,72.412,24.083,64.926,21.682z"/>
</g>
</svg>
