<?xml version="1.0" encoding="utf-8"?>
<!-- Generator: Adobe Illustrator 17.0.2, SVG Export Plug-In . SVG Version: 6.00 Build 0)  -->
<!DOCTYPE svg PUBLIC "-//W3C//DTD SVG 1.1//EN" "http://www.w3.org/Graphics/SVG/1.1/DTD/svg11.dtd">
<svg version="1.1" id="Capa_1" xmlns="http://www.w3.org/2000/svg" xmlns:xlink="http://www.w3.org/1999/xlink" x="0px" y="0px"
	 width="64px" height="64px" viewBox="0 0 64 64" enable-background="new 0 0 64 64" xml:space="preserve">
<path d="M53.575,12.344h-11.63H21.844h-11.63c-4.759,0-8.63,3.872-8.63,8.631v10.027c0,2.669,1.269,5.212,3.404,6.845
	c0.113,0.108,0.245,0.201,0.391,0.271c0.143,0.068,13.512,6.588,14.965,15.151v1.494c0,0.828,0.671,1.5,1.5,1.5h0.135h19.83h0.135
	c0.829,0,1.5-0.672,1.5-1.5v-1.492c1.453-8.549,14.823-15.086,14.966-15.155c0.143-0.068,0.27-0.157,0.38-0.264
	c2.142-1.632,3.415-4.179,3.415-6.852V20.975C62.206,16.216,58.334,12.344,53.575,12.344z M6.868,35.507
	c-1.452-1.08-2.284-2.718-2.284-4.505V20.975c0-3.104,2.526-5.631,5.63-5.631h10.13v30.874C15.924,40.192,8.241,36.19,6.868,35.507z
	 M40.406,53.264H23.383c-0.01-0.077-0.027-0.152-0.039-0.229V15.344h17.101v37.691C40.433,53.111,40.416,53.187,40.406,53.264z
	 M59.206,31.002c0,1.787-0.832,3.425-2.284,4.505c-1.373,0.683-9.056,4.685-13.477,10.711V15.344h10.13
	c3.105,0,5.631,2.526,5.631,5.631V31.002z"/>
</svg>
