<?xml version="1.0" encoding="utf-8"?>
<!-- Generator: Adobe Illustrator 16.0.0, SVG Export Plug-In . SVG Version: 6.00 Build 0)  -->
<!DOCTYPE svg PUBLIC "-//W3C//DTD SVG 1.1//EN" "http://www.w3.org/Graphics/SVG/1.1/DTD/svg11.dtd">
<svg version="1.1" id="Layer_1" xmlns="http://www.w3.org/2000/svg" xmlns:xlink="http://www.w3.org/1999/xlink" x="0px" y="0px"
	 width="100px" height="100px" viewBox="0 0 100 100" enable-background="new 0 0 100 100" xml:space="preserve">
<g>
	<path d="M33.331,24.38c5.311,1.138,10.541-2.246,11.68-7.559c0.254-1.183,0.271-2.359,0.105-3.49l5.4-11.642l-7.488,1.934
		L33.422,1.69l-1.482,3.866l0.002,0.001C28.909,6.696,26.502,9.3,25.772,12.7C24.635,18.013,28.019,23.242,33.331,24.38z"/>
	<circle cx="70.511" cy="27.368" r="9.281"/>
	<path d="M95.442,93.067l-0.355-1.324l-7.661,3.541c0.624,2.185,2.881,3.475,5.079,2.883C94.726,97.57,96.04,95.287,95.442,93.067z"
		/>
	<polygon points="94.385,89.13 86.077,90.291 86.996,93.7 94.659,90.155 	"/>
	<path d="M93.139,84.504l-7.292,3.103c0.012-0.021,0.021-0.043,0.031-0.065c0.016-0.209,0.023-0.42,0.043-0.627
		c0.034-0.405,0.098-0.8,0.186-1.188l6.607-2.812l-4.269-16.292c-0.148-0.559-0.415-1.058-0.751-1.495
		c0.045,0,0.09,0.003,0.137,0.003c1.989,0,3.603-1.613,3.603-3.603c0-1.989-1.613-3.603-3.603-3.603
		c-5.432,0-8.93-2.24-10.742-13.689c-0.042-0.26-0.111-0.508-0.205-0.744c-0.448-3.334-3.511-5.569-6.376-6.271
		c0,0-0.976-0.293-2.015-0.27c-0.996,0.023-2.105,0.253-2.105,0.253L66.36,37.21c-3.121,0.765-6.447,3.309-6.447,7.126l0.001,18.57
		l-2.723-19.313c-0.216-1.614-1.705-2.747-3.313-2.532c-1.616,0.214-2.749,1.697-2.532,3.312l0.154,1.121
		c-11.314-1.577-11.554-3.209-12.983-13.285c-0.021-0.156-0.07-0.301-0.11-0.45c-0.295-3.052-2.695-5.567-5.206-6.784
		c0,0-0.949-0.52-2.031-0.727c-1.036-0.198-2.235-0.205-2.235-0.205l-0.029-0.002c-3.406,0.099-7.416,1.998-8.264,5.954
		L4.413,71.468h9.701c-0.245,1.85-0.467,3.205-0.637,3.757c-0.428,1.382-3.744,6.527-7.097,11.011
		c-1.649,2.208-1.698,5.086,0.509,6.737c2.36,1.464,4.757,0.553,5.737-0.758c1.718-2.296,7.418-10.097,8.639-14.037
		c0.383-1.237,0.784-3.753,1.161-6.711h6.997c0.73,1.913,1.238,3.365,1.367,3.992c0.288,1.417-0.146,7.523-0.929,13.066
		c-0.388,2.73,0.972,5.891,4.242,5.643c0.238-0.018-0.527,0.05-0.295,0.05c2.446,0,4.584-1.801,4.938-4.292
		c0.402-2.84,1.65-12.421,0.824-16.462c-0.103-0.513-0.298-1.196-0.556-1.996h4.013c0,0-8.04-17.162-7.844-23.169l0.283-1.327
		c2.74,3.199,7.266,5.035,15.334,6.137c0.176,0.024,0.351,0.035,0.522,0.035c0.421,0,0.829-0.079,1.213-0.209l2.415,17.361
		c-1.595,2.665-2.515,5.777-2.515,9.102c0,9.799,7.971,17.77,17.769,17.77c6.475,0,12.15-3.481,15.257-8.67l0.001,0.005
		c0.024-0.068,0.054-0.134,0.079-0.203l0.108,0.403l8.306-1.161L93.139,84.504z M74.886,59.577c1.853,1.644,3.939,3.071,6.297,4.24
		l-6.297-0.029V59.577z M70.206,91.106c-6.455,0-11.709-5.252-11.709-11.709c0-1.468,0.283-2.868,0.78-4.163
		c0.209,0.031,0.419,0.053,0.636,0.053h21.242c0.485,1.281,0.762,2.663,0.762,4.11C81.917,85.854,76.663,91.106,70.206,91.106z"/>
</g>
</svg>
