<?xml version="1.0" encoding="utf-8"?>
<!-- Generator: Adobe Illustrator 16.0.0, SVG Export Plug-In . SVG Version: 6.00 Build 0)  -->
<!DOCTYPE svg PUBLIC "-//W3C//DTD SVG 1.1//EN" "http://www.w3.org/Graphics/SVG/1.1/DTD/svg11.dtd">
<svg version="1.1" id="Layer_1" xmlns="http://www.w3.org/2000/svg" xmlns:xlink="http://www.w3.org/1999/xlink" x="0px" y="0px"
	 width="96px" height="96px" viewBox="0 0 96 96" enable-background="new 0 0 96 96" xml:space="preserve">
<path d="M1.766,16.654v62.691h92.469V16.654H1.766z M74.334,26.834c2.117,0,3.833,1.716,3.833,3.833S76.451,34.5,74.334,34.5
	s-3.833-1.716-3.833-3.833S72.217,26.834,74.334,26.834z M66.234,24.654v25.071H49.942l-4.232,11.87l-5.368-11.87h-5.715
	l-6.862-23.719l-7.011,23.719H9.766V24.654H66.234z M9.766,71.346v-18.62h13.23l4.739-16.031l4.638,16.031h6.035l7.632,16.88
	l6.018-16.88h14.177v18.62H9.766z M74.334,37.167c2.117,0,3.833,1.716,3.833,3.833s-1.716,3.833-3.833,3.833
	S70.501,43.117,70.501,41S72.217,37.167,74.334,37.167z M79.001,66.625h-7.5v-4.75h7.5V66.625z M79.001,58.313h-7.5v-4.75h7.5
	V58.313z M89.001,66.625h-7.5v-4.75h7.5V66.625z M89.001,58.313h-7.5v-4.75h7.5V58.313z M85.833,44.833
	C83.716,44.833,82,43.117,82,41s1.716-3.833,3.833-3.833s3.833,1.716,3.833,3.833S87.95,44.833,85.833,44.833z M85.833,34.5
	C83.716,34.5,82,32.784,82,30.667s1.716-3.833,3.833-3.833s3.833,1.716,3.833,3.833S87.95,34.5,85.833,34.5z"/>
</svg>
