<?xml version="1.0" encoding="utf-8"?>
<!-- Generator: Adobe Illustrator 16.0.4, SVG Export Plug-In . SVG Version: 6.00 Build 0)  -->
<!DOCTYPE svg PUBLIC "-//W3C//DTD SVG 1.1//EN" "http://www.w3.org/Graphics/SVG/1.1/DTD/svg11.dtd">
<svg version="1.1" id="Layer_1" xmlns="http://www.w3.org/2000/svg" xmlns:xlink="http://www.w3.org/1999/xlink" x="0px" y="0px"
	 width="50px" height="50px" viewBox="0 0 50 50" enable-background="new 0 0 50 50" xml:space="preserve">
<path d="M26.918,23.836c0.881,0.992,1.35,3.207,1.162,4.451c-0.074,0.502-0.252,0.84-0.527,1.008
	c-0.254,0.154-0.576,0.23-0.956,0.23c-1.404,0-3.337-1.027-4.064-1.912c-0.892-1.084-0.86-2.556,0.009-3.609
	c-0.199-0.705-0.186-1.55,0.317-2.449c0.097-0.173,0.316-0.233,0.489-0.138c0.174,0.099,0.236,0.315,0.139,0.489
	c-0.317,0.566-0.388,1.088-0.333,1.539c0.192-0.137,0.393-0.254,0.607-0.342c0.005-0.209,0.023-0.422,0.079-0.638
	c0.184-0.704,0.646-1.271,1.373-1.683c0.171-0.098,0.393-0.038,0.491,0.137c0.098,0.174,0.036,0.393-0.137,0.49
	c-0.55,0.311-0.896,0.727-1.03,1.232c-0.024,0.092-0.033,0.183-0.043,0.273c0.114-0.014,0.227-0.031,0.341-0.031
	c0.044,0,0.086,0.012,0.13,0.014c0.017-0.053,0.025-0.105,0.047-0.158c0.226-0.555,0.679-0.956,1.347-1.196
	c0.188-0.063,0.394,0.031,0.46,0.218c0.066,0.188-0.029,0.394-0.217,0.459c-0.475,0.17-0.775,0.428-0.924,0.786
	c-0.002,0.009-0.002,0.017-0.006,0.023C26.142,23.184,26.572,23.447,26.918,23.836z M33.004,20.559l-0.002,9.042
	c0,0.197-0.16,0.359-0.356,0.359l-3.078,0.018v7.338C29.567,38.797,28.416,40,27,40h-4c-1.415,0-2.567-1.203-2.567-2.684v-7.338
	h-3.077c-0.199,0-0.359-0.162-0.359-0.359v-9.042c-0.001-0.716,0.277-1.391,0.783-1.896c0.506-0.507,1.179-0.787,1.895-0.787
	l3.047-0.002c-1.198-0.76-1.999-2.093-1.999-3.613C20.723,11.92,22.642,10,25,10c2.359,0,4.278,1.92,4.278,4.277
	c0,1.518-0.797,2.85-1.992,3.607l3.032-0.002c0.002,0,0.003,0,0.005,0C31.797,17.881,33,19.082,33.004,20.559z M25,17.833
	c1.963,0,3.56-1.597,3.56-3.558c0-1.963-1.597-3.559-3.56-3.559c-1.962,0-3.559,1.596-3.559,3.559
	C21.44,16.238,23.037,17.833,25,17.833z M32.285,20.561c-0.002-1.082-0.884-1.961-1.963-1.961c-0.001,0-0.003,0-0.003,0
	l-10.646,0.01c-0.524,0.002-1.017,0.205-1.386,0.576c-0.37,0.373-0.574,0.864-0.573,1.389v8.683h2.717v-5.779
	c0-0.198,0.161-0.359,0.36-0.359c0.198,0,0.359,0.161,0.359,0.359v6.132c0,0.004,0.002,0.006,0.002,0.008s-0.002,0.004-0.002,0.008
	v7.689c0,1.084,0.83,1.963,1.848,1.963h1.68c-0.023-0.047-0.039-0.1-0.039-0.154v-6.564c0-0.199,0.161-0.359,0.359-0.359
	c0.199,0,0.36,0.16,0.36,0.359v6.564c0,0.057-0.016,0.107-0.039,0.154h1.679c1.021,0,1.85-0.879,1.85-1.963V23.479
	c0-0.199,0.16-0.36,0.359-0.36s0.36,0.161,0.36,0.36v5.781l2.716-0.016L32.285,20.561z"/>
</svg>
