<?xml version="1.0" encoding="iso-8859-1"?>
<!-- Generator: Adobe Illustrator 17.0.0, SVG Export Plug-In . SVG Version: 6.00 Build 0)  -->
<!DOCTYPE svg PUBLIC "-//W3C//DTD SVG 1.1//EN" "http://www.w3.org/Graphics/SVG/1.1/DTD/svg11.dtd">
<svg version="1.1" id="Capa_1" xmlns="http://www.w3.org/2000/svg" xmlns:xlink="http://www.w3.org/1999/xlink" x="0px" y="0px"
	 width="64px" height="64px" viewBox="0 0 64 64" style="enable-background:new 0 0 64 64;" xml:space="preserve">
<g>
	<polygon points="32.972,13.521 33.9,13.521 33.9,12.355 35.09,12.355 35.09,11.427 33.9,11.427 33.9,10.261 32.972,10.261 
		32.972,11.427 31.83,11.427 31.83,12.355 32.972,12.355 	"/>
	<path d="M43.045,19.494V9.607c0,0-9.584-7.467-19.17,0v9.887c0,0,3.051-3.051,9.467-3.155
		C39.757,16.234,43.045,19.494,43.045,19.494z M29.911,10.764c0-1.12,0.908-2.028,2.028-2.028c0.606,0,1.148,0.268,1.521,0.689
		c0.372-0.421,0.914-0.689,1.52-0.689c1.12,0,2.028,0.908,2.028,2.028c0,0.62-0.279,1.173-0.717,1.545h0.001l-2.79,2.738
		l-2.876-2.738h0.001C30.19,11.937,29.911,11.383,29.911,10.764z"/>
	<path d="M23.151,23.231c0,5.692,4.616,12.832,10.309,12.832c5.691,0,10.308-7.139,10.308-12.832c0-0.27-0.02-0.534-0.04-0.798
		l-1.615-1.602c-0.146-0.139-2.924-2.728-8.35-2.728l-0.278,0.003c-5.654,0.092-8.328,2.617-8.439,2.725l-1.863,1.803
		C23.17,22.832,23.151,23.029,23.151,23.231z"/>
	<path d="M44.188,32.907L33.669,50.892l-9.466-17.985c0,0-8.697,0.783-11.144,12.867c-0.438,2.165,0.543,5.464,2.479,6.527
		c2.893,1.587,8.403,3.308,18.657,3.22c10.254,0.088,15.764-1.632,18.657-3.22c1.937-1.062,2.918-4.362,2.479-6.527
		C52.885,33.69,44.188,32.907,44.188,32.907z M25.855,53.199c-3.714,0-7.123-1.415-7.299-1.49l0.776-1.843
		c0.048,0.02,4.81,1.991,8.754,1.103l0.439,1.951C27.646,53.119,26.742,53.199,25.855,53.199z M41.536,53.581
		c-0.886,0-1.789-0.081-2.67-0.279l0.439-1.951c3.955,0.892,8.705-1.083,8.753-1.103l0.777,1.843
		C48.66,52.166,45.251,53.581,41.536,53.581z"/>
</g>
</svg>
