<?xml version="1.0" encoding="utf-8"?>
<!-- Generator: Adobe Illustrator 16.0.0, SVG Export Plug-In . SVG Version: 6.00 Build 0)  -->
<!DOCTYPE svg PUBLIC "-//W3C//DTD SVG 1.1//EN" "http://www.w3.org/Graphics/SVG/1.1/DTD/svg11.dtd">
<svg version="1.1" id="Layer_1" xmlns="http://www.w3.org/2000/svg" xmlns:xlink="http://www.w3.org/1999/xlink" x="0px" y="0px"
	 width="100px" height="100px" viewBox="0 0 100 100" enable-background="new 0 0 100 100" xml:space="preserve">
<path d="M95.959,6.011c0.002,0.006,0.014,0.035,0.02,0.048h-0.061C95.932,6.046,95.947,6.017,95.959,6.011z"/>
<g>
	<path d="M76.209,24.766V21.85h0.631c1.18,0,2.135-0.956,2.135-2.135V9.438c0-1.179-0.955-2.135-2.135-2.135h-1.684
		c0.018-0.162,0.027-0.332,0.027-0.509c0-0.13-0.01-0.254-0.018-0.376h0.445c1.539,0,2.791-1.252,2.791-2.79h-0.951
		c0,1.015-0.826,1.84-1.84,1.84h-0.631c-0.217-0.614-0.598-0.989-1.066-0.989s-0.848,0.375-1.066,0.989h-7.125V1.687h-2.85v3.781
		H60.9V5.443h-5.098c-0.219-0.614-0.598-0.989-1.066-0.989s-0.85,0.375-1.066,0.989h-0.631c-0.632,0-1.191-0.321-1.522-0.81
		c-0.19-0.289-0.303-0.635-0.303-1.006h-0.012c0-0.009-0.002-0.017-0.002-0.024h-0.951c0,0.579,0.178,1.117,0.481,1.563
		c0.5,0.753,1.354,1.251,2.324,1.251h0.43c-0.008,0.114-0.017,0.229-0.017,0.352c0,0.177,0.01,0.347,0.027,0.509H51.81
		c-1.18,0-2.135,0.956-2.135,2.135V19.69c0,1.179,0.955,2.135,2.135,2.135h0.631v2.916h0.674c0.049,1.511-0.184,3.721-0.543,5.022
		c-0.015,0.055-0.035,0.107-0.051,0.161c-0.174-0.225-0.348-0.449-0.522-0.676c-1.701-2.209-4.415-5.541-10.113-7.749l-2.398,2.414
		l-2.326-2.44c-0.006,0.002-0.014,0.002-0.023,0.004c-1.227,0.294-2.43,0.813-3.504,1.521c-0.201,0.079-13.175,8.126-12.328,28.065
		c0.193,1.929,1.82,3.367,3.717,3.367c0.123,0,0.25-0.007,0.377-0.02c2.053-0.205,3.551-2.037,3.346-4.091
		c-0.564-5.653-0.158-9.61,0.889-12.542c0,0,0,10.242,0,13.341s0.691,3.548,0.691,3.548l0.004,35.643
		c0,2.439,1.979,4.417,4.418,4.417s4.416-1.979,4.416-4.418l-0.002-30.717c0.174,0.009,0.35,0.022,0.525,0.022
		c0.035,0,0.068-0.004,0.104-0.004V90.31c0,2.439,1.977,4.418,4.416,4.418s4.418-1.979,4.418-4.418V54.738
		c0,0,0.719-0.967,0.719-3.618s0-13.393,0-13.393c0.174,0.182,0.353,0.364,0.536,0.547c0.002,0.137-0.002,0.271,0.008,0.411
		c0.107,1.659,0.721,2.912,1.771,3.621c0.658,0.445,1.48,0.669,2.412,0.67c0.554,0,1.156-0.107,1.777-0.271
		c1.804,0.983,3.921,1.891,6.457,2.667c0.189,0.058,0.379,0.099,0.57,0.126v42.855h-1.334c-2.525,0-4.685,1.575-5.564,3.792
		c-0.944,0.287-1.637,1.155-1.637,2.194c0,1.272,1.031,2.304,2.303,2.304c1.273,0,2.304-1.032,2.304-2.304
		c0-0.612-0.242-1.164-0.628-1.575c0.586-1.195,1.803-2.027,3.223-2.027h4.517h0.849c1.419,0,2.636,0.832,3.223,2.027
		c-0.387,0.412-0.629,0.963-0.629,1.575c0,1.272,1.031,2.304,2.304,2.304s2.303-1.032,2.303-2.304c0-1.039-0.692-1.907-1.637-2.194
		c-0.879-2.217-3.039-3.792-5.564-3.792h-0.747h-0.435v-43.64c0.57-0.454,1.02-1.071,1.248-1.821
		c0.166-0.542,0.191-1.092,0.117-1.619c2.008,0.423,4.227,1.021,5.166,1.321c0.822,0.271,1.607,0.405,2.326,0.405
		c0.932-0.001,1.754-0.225,2.412-0.67c1.051-0.709,1.664-1.962,1.771-3.621c0.164-2.314-0.68-4.142-1.494-5.909
		c-0.443-0.959-0.9-1.952-1.191-3.013c-0.359-1.302-0.592-3.512-0.543-5.022H76.209z M54.441,6.418h0.588
		c0.011,0.111,0.025,0.22,0.025,0.352c0,0.188-0.014,0.357-0.035,0.509h-0.568c-0.021-0.151-0.035-0.32-0.035-0.509
		C54.416,6.638,54.43,6.529,54.441,6.418z M52.021,15.263v-1.688h1.875V11.7h1.688v1.875h1.875v1.688h-1.875v1.875h-1.688v-1.875
		H52.021z M51.984,41.818c-0.854-0.577-1.343-1.575-1.479-2.942c1.263,1.177,2.756,2.335,4.6,3.413
		C53.859,42.508,52.776,42.352,51.984,41.818z M62.874,37.679c-5.284-1.92-7.743-4.462-9.912-7.192
		c0.062-0.188,0.125-0.374,0.178-0.566c0.369-1.342,0.609-3.614,0.563-5.179h0.361v-2.916h1.383v1.286h1.621v-1.286h0.592
		c1.18,0,2.135-0.956,2.135-2.135V9.413c0-1.179-0.955-2.135-2.135-2.135h-1.682c0.018-0.162,0.027-0.332,0.027-0.509
		c0-0.122-0.009-0.237-0.018-0.352h6.886V37.679z M73.959,5.42c0.002,0.006,0.014,0.034,0.02,0.048h-0.061
		C73.932,5.454,73.948,5.426,73.959,5.42z M73.624,6.418h0.584c0.012,0.12,0.027,0.235,0.027,0.376c0,0.188-0.014,0.357-0.035,0.509
		h-0.568c-0.021-0.151-0.035-0.32-0.035-0.509C73.596,6.653,73.612,6.538,73.624,6.418z M76.735,33.048
		c0.82,1.777,1.596,3.457,1.443,5.622c-0.098,1.494-0.607,2.562-1.512,3.173c-1.02,0.687-2.52,0.756-4.232,0.193
		c-0.697-0.223-3.219-0.921-5.484-1.385c-0.225-0.692-0.65-1.31-1.227-1.771V6.418h6.941c-0.01,0.122-0.02,0.246-0.02,0.376
		c0,0.177,0.01,0.347,0.027,0.509h-1.682c-1.18,0-2.135,0.956-2.135,2.135v10.277c0,1.179,0.955,2.135,2.135,2.135h0.592v1.286
		h1.621V21.85h1.383v2.916h0.361c-0.047,1.564,0.193,3.837,0.563,5.179C75.815,31.051,76.282,32.066,76.735,33.048z M73.975,16.906
		c-1.24,0-2.245-1.005-2.245-2.245s2.245-4.755,2.245-4.755s2.245,3.515,2.245,4.755S75.215,16.906,73.975,16.906z"/>
	<circle cx="39.383" cy="11.184" r="9.775"/>
</g>
</svg>
