<?xml version="1.0" encoding="utf-8"?>
<!-- Generator: Adobe Illustrator 17.0.0, SVG Export Plug-In . SVG Version: 6.00 Build 0)  -->
<!DOCTYPE svg PUBLIC "-//W3C//DTD SVG 1.1//EN" "http://www.w3.org/Graphics/SVG/1.1/DTD/svg11.dtd">
<svg version="1.1" id="Layer_1" xmlns="http://www.w3.org/2000/svg" xmlns:xlink="http://www.w3.org/1999/xlink" x="0px" y="0px"
	 width="32px" height="32px" viewBox="0 0 32 32" enable-background="new 0 0 32 32" xml:space="preserve">
<g>
	<path d="M12.321,3.26c-0.714,0-1.293,0.579-1.293,1.293v1.781h2.254V6.231c0-0.453,0.367-0.819,0.819-0.819h14.765
		c0.452,0,0.819,0.366,0.819,0.819v10.662c0,0.283-0.229,0.513-0.512,0.513v2.254h1.372c0.714,0,1.294-0.579,1.294-1.294V4.553
		c0-0.714-0.579-1.293-1.294-1.293H12.321z"/>
	<path d="M6.722,10.639h2.153c0-0.452,0.366-0.818,0.818-0.818h14.438c0.633,0,1.146,0.513,1.146,1.146v10.335
		c0,0.283-0.229,0.513-0.512,0.513H24.56v2.153h1.578c0.714,0,1.293-0.579,1.293-1.294V8.746c0-0.652-0.53-1.182-1.183-1.182H8.015
		c-0.714,0-1.293,0.579-1.293,1.293V10.639z"/>
	<path d="M23.125,17.917c0-1.473-1.193-2.665-2.666-2.665h-7.894v0.019l-0.794-1.74c-0.433-0.949-1.381-1.558-2.424-1.558h-6.52
		c-1.472,0-2.665,1.192-2.665,2.665v0.609v4.413v9.374c0,0.826,0.668,1.496,1.493,1.5l20.239,0.079
		c0.731,0.003,1.396-0.421,1.702-1.084l1.483-3.215c0.112-0.244,0.093-0.528-0.052-0.755c-0.145-0.226-0.395-0.362-0.664-0.362
		h-1.238V17.917z M15.436,23.968h-2.153v2.255h-2.254v-2.255H8.875v-2.153h2.153v-2.123c0-0.018,0.014-0.031,0.032-0.031h2.186
		h0.037v2.154h2.153V23.968z"/>
</g>
</svg>
