<?xml version="1.0" encoding="utf-8"?>
<!-- Generator: Adobe Illustrator 16.0.0, SVG Export Plug-In . SVG Version: 6.00 Build 0)  -->
<!DOCTYPE svg PUBLIC "-//W3C//DTD SVG 1.1//EN" "http://www.w3.org/Graphics/SVG/1.1/DTD/svg11.dtd">
<svg version="1.1" id="Layer_1" xmlns="http://www.w3.org/2000/svg" xmlns:xlink="http://www.w3.org/1999/xlink" x="0px" y="0px"
	 width="100px" height="100px" viewBox="0 0 100 100" enable-background="new 0 0 100 100" xml:space="preserve">
<g>
	<circle cx="49.951" cy="11.546" r="10.035"/>
	<path d="M50,30.999c2.285,0,4.606-3.834,4.938-7.887c-0.799-0.406-1.634-0.739-2.487-0.949l-2.5,2.517l-2.424-2.544
		c-0.008,0.002-0.017,0.002-0.024,0.004c-0.839,0.2-1.663,0.512-2.449,0.904C45.365,27.122,47.701,30.999,50,30.999z"/>
	<path d="M56.426,23.742c-0.025-0.016-0.053-0.024-0.079-0.039c-0.475,4.129-2.745,8.211-5.746,8.7
		c-0.426,2.082,0.313,2.921,1.177,3.863c1.576,1.718,2.477,3.349-0.261,7.855c0.193,0.289,0.307,0.637,0.307,1.011
		c0,1.007-0.816,1.823-1.823,1.823s-1.823-0.816-1.823-1.823c0-1.007,0.816-1.824,1.823-1.824c0.1,0,0.195,0.014,0.291,0.029
		c2.386-3.911,1.509-4.89,0.411-6.086c-0.926-1.009-2.052-2.248-1.582-4.912c-2.834-0.683-4.97-4.564-5.457-8.524
		c-0.146,0.063-14.726,7.747-12.661,29.163c0.201,2.009,1.896,3.508,3.872,3.508c0.13,0,0.261-0.006,0.393-0.02
		c2.142-0.214,3.703-2.124,3.489-4.264c-0.59-5.893-0.165-10.017,0.925-13.073c0,0,0,13.317,0,13.906
		c0,3.039,0.085,2.948,0.713,3.692l0.002,37.156c0,2.543,2.161,4.604,4.704,4.604c2.543,0,4.505-2.062,4.505-4.604l-0.002-32.016
		c0.183,0.008,0.364,0.023,0.548,0.023c0.036,0,0.072-0.004,0.108-0.004l-0.002,31.998c0,2.543,2.161,4.604,4.704,4.604
		s4.505-2.061,4.505-4.604l0.002-37.178c0.579-0.722,0.755-0.891,0.755-3.669c0-0.328,0-14.145,0-14.145
		c0.942,2.495,1.562,7.69,1.034,12.958c-0.214,2.141,1.349,4.05,3.489,4.264c0.132,0.013,0.263,0.02,0.393,0.02
		c1.977,0,3.671-1.499,3.872-3.508C70.764,35.1,63.998,28.386,56.426,23.742z"/>
</g>
</svg>
