<?xml version="1.0" encoding="utf-8"?>
<!-- Generator: Adobe Illustrator 16.0.0, SVG Export Plug-In . SVG Version: 6.00 Build 0)  -->
<!DOCTYPE svg PUBLIC "-//W3C//DTD SVG 1.1//EN" "http://www.w3.org/Graphics/SVG/1.1/DTD/svg11.dtd">
<svg version="1.1" id="Layer_1" xmlns="http://www.w3.org/2000/svg" xmlns:xlink="http://www.w3.org/1999/xlink" x="0px" y="0px"
	 width="96px" height="96px" viewBox="0 0 96 96" enable-background="new 0 0 96 96" xml:space="preserve">
<path d="M86.902,54.944c-3.289-2.463-7.134-3.876-10.547-3.876c-2.124,0-4.002,0.543-5.445,1.572
	c-0.47-0.264-1.419-0.796-2.767-1.552c-0.932-0.521-2.052-1.151-3.329-1.87l-4.794-2.752c-1.675-0.957-3.487-2.01-5.404-3.13
	l-6.578-3.849c-3.854-2.278-7.935-4.689-12.025-7.104c-1.266-1.979-2.531-3.956-3.781-5.903l-4.024-6.313
	c-2.779-4.273-5.491-7.931-8.059-10.87c-2.879-3.292-5.366-5.43-7.603-6.539c-1.092-0.551-2.267-0.865-3.221-0.865H9.239
	c-0.446,0-0.789,0.053-0.999,0.099L7.908,2.063C7.035,2.262,6.465,3.106,6.61,3.989c0.15,0.908,1.024,1.537,1.941,1.39l0.312-0.052
	c0.059-0.009,0.143-0.019,0.254-0.019l0.104,0.002c0.215,0.005,0.81,0.069,1.727,0.565c0.848,0.451,1.846,1.203,2.884,2.174
	c1.035,0.962,2.184,2.209,3.414,3.707c2.319,2.837,4.868,6.522,7.371,10.658l2.9,4.903l-2.718-1.62
	c-0.262-0.153-0.524-0.303-0.78-0.449l-1.55-0.918c-4.132-2.5-7.818-5.05-10.659-7.373c-1.491-1.225-2.739-2.373-3.708-3.415
	c-0.969-1.034-1.719-2.03-2.174-2.884c-0.497-0.92-0.561-1.513-0.564-1.733c-0.008-0.167,0.004-0.277,0.019-0.35l0.053-0.315
	C5.575,7.38,5.004,6.538,4.134,6.342C3.236,6.148,2.317,6.725,2.118,7.62L2.041,7.957c-0.045,0.219-0.1,0.576-0.097,1.021
	c-0.011,0.967,0.304,2.163,0.865,3.28c1.111,2.239,3.251,4.727,6.541,7.605c2.951,2.575,6.609,5.285,10.872,8.059l2.347,1.481
	l-0.001,0.006l10.022,6.416l7.51,12.709l3.522,6.029c1.119,1.916,2.175,3.729,3.131,5.404l6.064,10.694
	c-3.027,3.81-2.174,10.613,2.076,16.288c3.307,4.414,7.906,7.156,12.004,7.156c1.771,0,3.333-0.498,4.644-1.481
	c0.274-0.206,0.533-0.431,0.771-0.668c3.625-3.625,2.964-10.889-1.538-16.898c-1.878-2.509-4.141-4.476-6.579-5.724l0.908-0.369
	l-0.005-0.212c-0.003-0.122-0.09-2.983-2.083-2.983c-0.405,0-0.856,0.128-1.345,0.379c-0.651,0.337-2.335,0.628-3.688,0.862
	l-0.288,0.051l-6.095-9.978c-1.021-1.663-2.138-3.448-3.323-5.332L42,41.804l9.804,6.188c1.886,1.184,3.672,2.302,5.334,3.323
	l4.528,2.798l5.451,3.295l-0.058,0.322c-0.233,1.341-0.524,3.01-0.857,3.653c-0.45,0.874-0.5,1.619-0.148,2.212
	c0.688,1.157,2.67,1.214,2.754,1.217l0.212,0.004l0.247-0.609c1.246,2.454,3.219,4.729,5.742,6.618
	c3.288,2.464,7.134,3.876,10.548,3.876c2.626,0,4.822-0.809,6.353-2.339c0.232-0.231,0.459-0.491,0.671-0.772
	C95.913,67.138,93.42,59.825,86.902,54.944z M33.391,33.844c-0.612,0-1.109-0.378-1.109-0.844s0.497-0.844,1.109-0.844
	S34.5,32.534,34.5,33S34.003,33.844,33.391,33.844z M56.999,73.692c0.068-0.068,0.142-0.132,0.218-0.189
	c0.397-0.298,0.947-0.454,1.59-0.454c2.007,0,5.212,1.575,7.85,5.096c3.077,4.107,3.532,8.658,2.016,10.173
	c-0.069,0.069-0.142,0.133-0.218,0.19c-0.397,0.297-0.946,0.454-1.589,0.454c-2.008,0-5.214-1.576-7.851-5.096
	C55.894,79.695,55.453,75.238,56.999,73.692z M88.46,68.504c-0.059,0.077-0.125,0.15-0.19,0.218
	c-0.547,0.547-1.509,0.849-2.707,0.849c-2.279,0-5.07-1.071-7.468-2.866c-2.071-1.552-3.672-3.46-4.506-5.372
	c-0.733-1.68-0.783-3.2-0.135-4.066c0.059-0.078,0.122-0.149,0.189-0.218c0.547-0.547,1.509-0.849,2.706-0.849
	c2.278,0,5.07,1.07,7.467,2.865C88.11,62.281,89.808,66.701,88.46,68.504z"/>
</svg>
