<?xml version="1.0" encoding="iso-8859-1"?>
<!-- Generator: Adobe Illustrator 16.0.4, SVG Export Plug-In . SVG Version: 6.00 Build 0)  -->
<!DOCTYPE svg PUBLIC "-//W3C//DTD SVG 1.1//EN" "http://www.w3.org/Graphics/SVG/1.1/DTD/svg11.dtd">
<svg version="1.1" id="Capa_1" xmlns="http://www.w3.org/2000/svg" xmlns:xlink="http://www.w3.org/1999/xlink" x="0px" y="0px"
	 width="15px" height="15px" viewBox="0 0 15 15" style="enable-background:new 0 0 15 15;" xml:space="preserve">
<path style="fill:#010002;" d="M13.908,1.094C13.18,0.365,12.225,0,11.27,0S9.36,0.365,8.633,1.094l-3.771,3.77l0,0l-3.77,3.77
	c-1.457,1.455-1.457,3.818,0.001,5.275c1.455,1.456,3.818,1.456,5.274,0l2.967-2.966l4.573-4.573
	C15.364,4.912,15.364,2.549,13.908,1.094z M13.105,5.566l-3.771,3.77l-3.67-3.67l3.771-3.77c0.489-0.49,1.141-0.761,1.833-0.761
	c0.693,0,1.346,0.271,1.836,0.761C14.116,2.907,14.116,4.555,13.105,5.566z"/>
<g>
</g>
<g>
</g>
<g>
</g>
<g>
</g>
<g>
</g>
<g>
</g>
<g>
</g>
<g>
</g>
<g>
</g>
<g>
</g>
<g>
</g>
<g>
</g>
<g>
</g>
<g>
</g>
<g>
</g>
</svg>
