<?xml version="1.0" encoding="iso-8859-1"?>
<!-- Generator: Adobe Illustrator 16.0.0, SVG Export Plug-In . SVG Version: 6.00 Build 0)  -->
<!DOCTYPE svg PUBLIC "-//W3C//DTD SVG 1.1//EN" "http://www.w3.org/Graphics/SVG/1.1/DTD/svg11.dtd">
<svg version="1.1" xmlns="http://www.w3.org/2000/svg" xmlns:xlink="http://www.w3.org/1999/xlink" x="0px" y="0px" width="512px"
	 height="512px" viewBox="0 0 512 512" style="enable-background:new 0 0 512 512;" xml:space="preserve">
<g id="Guides_For_Artboard">
</g>
<g id="_x30_">
</g>
<g id="_x31_">
</g>
<g id="_x32_">
</g>
<g id="_x33_">
</g>
<g id="_x34_">
</g>
<g id="_x35_">
</g>
<g id="_x36_">
</g>
<g id="_x37_">
</g>
<g id="_x38_">
</g>
<g id="_x39_">
</g>
<g id="_x31_0">
</g>
<g id="_x31_1">
</g>
<g id="_x31_2">
</g>
<g id="_x31_3">
</g>
<g id="_x31_4">
</g>
<g id="_x31_5">
</g>
<g id="_x31_6">
</g>
<g id="_x31_7">
</g>
<g id="_x31_8">
</g>
<g id="_x31_9">
</g>
<g id="_x32_0">
</g>
<g id="_x32_1">
</g>
<g id="_x32_2">
</g>
<g id="_x32_3">
</g>
<g id="_x32_4">
</g>
<g id="_x32_5">
</g>
<g id="_x32_6">
</g>
<g id="_x32_7">
</g>
<g id="_x32_8">
</g>
<g id="_x32_9">
</g>
<g id="_x33_0">
</g>
<g id="_x33_1">
</g>
<g id="_x33_2">
</g>
<g id="_x33_3">
</g>
<g id="_x33_4">
</g>
<g id="_x33_5">
</g>
<g id="_x33_6">
</g>
<g id="_x33_7">
</g>
<g id="_x33_8">
</g>
<g id="_x33_9">
</g>
<g id="_x34_0">
</g>
<g id="_x34_1">
	<g>
		<path d="M212.26,270.023H72.68c-10.297,0-18.642,8.346-18.642,18.639v57.037c0,10.299,8.345,18.643,18.642,18.643h139.58
			c10.298,0,18.646-8.344,18.646-18.643v-57.037C230.905,278.369,222.558,270.023,212.26,270.023z"/>
		<path d="M272.266,248.477c0-20.689-6.896-27.357-18.149-36.525l-0.236-0.193c-12.593-10.262-22.991-18.4-32.726-25.617
			c-0.656-0.486-2.183-1.773-2.183-3.215v-43.225h9.96v-24.975h-0.023c-0.056-19.049-15.511-34.477-34.574-34.477H90.591
			c-19.096,0-34.58,15.482-34.58,34.58c0.006,0,0.012,0,0.018,0v24.871h9.942v43.135c0,1.441-1.525,2.729-2.182,3.215
			c-9.729,7.213-20.128,15.354-32.725,25.617l-0.234,0.191c-11.255,9.168-18.152,15.838-18.152,36.527
			c0,8.236-0.005,42.6-0.01,75.779c-0.005,30.967-0.01,60.9-0.01,67.594c0,19.613,14.924,39.898,39.898,39.898h90.693
			c0,0,80.549,0.092,89.137,0.092c24.974,0,39.897-20.287,39.897-39.9l-0.009-67.596
			C272.271,291.076,272.266,256.711,272.266,248.477z M232.387,406.705c-8.585,0-89.108-0.09-89.122-0.09H52.557
			c-10.898,0-14.854-8.883-14.854-14.855c0-6.693,0.005-36.625,0.01-67.59c0.005-33.182,0.01-67.547,0.01-75.783
			c0-9.84,0.336-10.113,8.926-17.111l0.237-0.193c12.293-10.018,22.404-17.934,31.818-24.912
			c7.824-5.801,12.312-14.305,12.312-23.334v-43.135h102.913v43.225c0,9.027,4.488,17.533,12.313,23.332
			c9.419,6.984,19.529,14.9,31.819,24.914l0.238,0.195c8.589,6.996,8.924,7.27,8.924,17.109c0,8.234,0.005,42.602,0.01,75.781
			l0.009,67.592C247.24,397.822,243.284,406.705,232.387,406.705z"/>
		<path d="M459.94,337.131l-0.276-0.021l-120.938-0.119c-23.565,0-42.738,19.174-42.738,42.74s19.173,42.738,42.738,42.738h0.008
			l120.653-0.119l0.553-0.021c22.095-1.711,39.402-20.422,39.402-42.598C499.342,357.557,482.034,338.844,459.94,337.131z
			 M338.721,407.965c-15.565-0.004-28.229-12.668-28.229-28.234c0-15.57,12.666-28.236,28.228-28.236l60.18,0.059v56.352
			L338.721,407.965z"/>
		<path d="M340.104,331.582c0.001,0,0.001,0,0.002,0c3.075,0,6.165-0.338,9.183-1.002l0.271-0.061l115.77-34.973
			c10.926-3.313,19.907-10.682,25.29-20.748s6.524-21.627,3.212-32.553c-5.503-18.152-21.934-30.348-40.886-30.348
			c-4.192,0-8.369,0.621-12.42,1.85l-115.432,35.117l-0.522,0.182c-20.648,8.047-31.782,30.975-25.348,52.197
			C304.724,319.389,321.152,331.58,340.104,331.582z M444.74,227.625c2.679-0.811,5.439-1.223,8.205-1.223
			c12.321,0,23.427,8.246,27.006,20.051c2.188,7.219,1.435,14.855-2.122,21.506c-3.556,6.652-9.489,11.52-16.7,13.705
			l-57.608,17.402l-16.349-53.928L444.74,227.625z"/>
	</g>
</g>
<g id="_x34_2">
</g>
<g id="_x34_3">
</g>
<g id="_x34_4">
</g>
<g id="_x34_5">
</g>
<g id="_x34_6">
</g>
<g id="_x34_7">
</g>
<g id="_x34_8">
</g>
<g id="_x34_9">
</g>
<g id="_x35_0">
</g>
<g id="_x35_1">
</g>
<g id="_x35_2">
</g>
<g id="_x35_3">
</g>
<g id="_x35_4">
</g>
<g id="_x35_5">
</g>
<g id="_x35_6">
</g>
<g id="_x35_7">
</g>
<g id="_x35_8">
</g>
<g id="_x35_9">
</g>
<g id="_x36_0">
</g>
<g id="_x36_1">
</g>
<g id="_x36_2">
</g>
<g id="_x36_3">
</g>
<g id="_x36_4">
</g>
<g id="_x36_5">
</g>
<g id="_x36_6">
</g>
<g id="_x36_7">
</g>
<g id="_x36_8">
</g>
<g id="_x36_9">
</g>
<g id="_x37_0">
</g>
</svg>
