<?xml version="1.0" encoding="utf-8"?>
<!-- Generator: Adobe Illustrator 17.0.0, SVG Export Plug-In . SVG Version: 6.00 Build 0)  -->
<!DOCTYPE svg PUBLIC "-//W3C//DTD SVG 1.1//EN" "http://www.w3.org/Graphics/SVG/1.1/DTD/svg11.dtd">
<svg version="1.1" id="Layer_1" xmlns="http://www.w3.org/2000/svg" xmlns:xlink="http://www.w3.org/1999/xlink" x="0px" y="0px"
	 width="32px" height="32px" viewBox="0 0 32 32" enable-background="new 0 0 32 32" xml:space="preserve">
<path d="M19.73,17.264v-7.222h1.313v-3.68c0-0.713-0.578-1.29-1.291-1.29H18.96V5.056v-1.31c0-2.038-1.324-3.682-2.955-3.682h-0.019
	c-1.632,0-2.957,1.643-2.957,3.682v1.31v0.017h-0.791c-0.713,0-1.29,0.577-1.29,1.29v3.68h1.542v7.229l-1.739,0.751
	c-1.423,0.614-2.344,2.016-2.344,3.565v8.843c0,0,2.845,1.313,7.391,1.313c4.543,0,7.788-1.313,7.788-1.313v-8.583
	c0-1.714-0.999-3.272-2.557-3.987L19.73,17.264z M17.727,16.63h-3.274v-5.933h3.274V16.63z M19.31,28.688h-6.629v-6.665h6.629
	V28.688z"/>
</svg>
