<?xml version="1.0" encoding="iso-8859-1"?>
<!-- Generator: Adobe Illustrator 16.0.0, SVG Export Plug-In . SVG Version: 6.00 Build 0)  -->
<!DOCTYPE svg PUBLIC "-//W3C//DTD SVG 1.1//EN" "http://www.w3.org/Graphics/SVG/1.1/DTD/svg11.dtd">
<svg version="1.1" xmlns="http://www.w3.org/2000/svg" xmlns:xlink="http://www.w3.org/1999/xlink" x="0px" y="0px" width="512px"
	 height="512px" viewBox="0 0 512 512" style="enable-background:new 0 0 512 512;" xml:space="preserve">
<g id="Guides_For_Artboard">
</g>
<g id="_x30_">
</g>
<g id="_x31_">
</g>
<g id="_x32_">
</g>
<g id="_x33_">
</g>
<g id="_x34_">
</g>
<g id="_x35_">
</g>
<g id="_x36_">
</g>
<g id="_x37_">
</g>
<g id="_x38_">
</g>
<g id="_x39_">
</g>
<g id="_x31_0">
</g>
<g id="_x31_1">
</g>
<g id="_x31_2">
</g>
<g id="_x31_3">
	<g>
		<path d="M460.634,333.467c-16.887-18.155-39.765-29.205-64.419-31.116l-0.637-0.049l-278.571-0.273
			c-54.282,0-98.444,44.162-98.444,98.445c0,54.282,44.162,98.444,98.444,98.444h0.017l277.917-0.273l1.273-0.05
			c24.654-1.91,47.532-12.959,64.42-31.114c16.985-18.259,26.339-42.056,26.339-67.007S477.619,351.727,460.634,333.467z
			 M255.61,465.375l-138.615,0.136c-35.854-0.007-65.024-29.18-65.024-65.036c0-35.861,29.175-65.037,65.019-65.037l138.62,0.136
			V465.375z"/>
		<path d="M62.106,270.579c16.771,12.245,37.397,18.989,58.077,18.991c0.001,0,0.002,0,0.004,0c7.085,0,14.202-0.777,21.152-2.31
			l0.623-0.137l266.667-80.559c51.948-15.748,81.399-70.823,65.65-122.772c-6.251-20.621-18.731-38.222-36.093-50.903
			c-16.776-12.254-37.406-19.002-58.088-19.002c-9.656,0-19.275,1.432-28.605,4.26L85.608,99.039l-1.205,0.417
			c-23.04,8.981-41.728,26.193-52.622,48.466c-10.957,22.401-13.004,47.889-5.766,71.767
			C32.267,240.307,44.747,257.904,62.106,270.579z M361.202,50.114c6.169-1.87,12.526-2.819,18.896-2.819
			c28.384,0,53.965,18.994,62.21,46.189c10.403,34.319-9.053,70.704-43.356,81.103l-132.695,40.086L228.599,90.457L361.202,50.114z"
			/>
	</g>
</g>
<g id="_x31_4">
</g>
<g id="_x31_5">
</g>
<g id="_x31_6">
</g>
<g id="_x31_7">
</g>
<g id="_x31_8">
</g>
<g id="_x31_9">
</g>
<g id="_x32_0">
</g>
<g id="_x32_1">
</g>
<g id="_x32_2">
</g>
<g id="_x32_3">
</g>
<g id="_x32_4">
</g>
<g id="_x32_5">
</g>
<g id="_x32_6">
</g>
<g id="_x32_7">
</g>
<g id="_x32_8">
</g>
<g id="_x32_9">
</g>
<g id="_x33_0">
</g>
<g id="_x33_1">
</g>
<g id="_x33_2">
</g>
<g id="_x33_3">
</g>
<g id="_x33_4">
</g>
<g id="_x33_5">
</g>
<g id="_x33_6">
</g>
<g id="_x33_7">
</g>
<g id="_x33_8">
</g>
<g id="_x33_9">
</g>
<g id="_x34_0">
</g>
<g id="_x34_1">
</g>
<g id="_x34_2">
</g>
<g id="_x34_3">
</g>
<g id="_x34_4">
</g>
<g id="_x34_5">
</g>
<g id="_x34_6">
</g>
<g id="_x34_7">
</g>
<g id="_x34_8">
</g>
<g id="_x34_9">
</g>
<g id="_x35_0">
</g>
<g id="_x35_1">
</g>
<g id="_x35_2">
</g>
<g id="_x35_3">
</g>
<g id="_x35_4">
</g>
<g id="_x35_5">
</g>
<g id="_x35_6">
</g>
<g id="_x35_7">
</g>
<g id="_x35_8">
</g>
<g id="_x35_9">
</g>
<g id="_x36_0">
</g>
<g id="_x36_1">
</g>
<g id="_x36_2">
</g>
<g id="_x36_3">
</g>
<g id="_x36_4">
</g>
<g id="_x36_5">
</g>
<g id="_x36_6">
</g>
<g id="_x36_7">
</g>
<g id="_x36_8">
</g>
<g id="_x36_9">
</g>
<g id="_x37_0">
</g>
</svg>
