<?xml version="1.0" encoding="utf-8"?>
<!-- Generator: Adobe Illustrator 17.0.0, SVG Export Plug-In . SVG Version: 6.00 Build 0)  -->
<!DOCTYPE svg PUBLIC "-//W3C//DTD SVG 1.1//EN" "http://www.w3.org/Graphics/SVG/1.1/DTD/svg11.dtd">
<svg version="1.1" id="Layer_1" xmlns="http://www.w3.org/2000/svg" xmlns:xlink="http://www.w3.org/1999/xlink" x="0px" y="0px"
	 width="32px" height="32px" viewBox="0 0 32 32" enable-background="new 0 0 32 32" xml:space="preserve">
<g>
	<path d="M9.973,17.501c0,0.009,0.004,0.863-0.617,1.463c-0.284,0.275-0.768,0.604-1.465,0.604c-0.328,0-0.593,0.264-0.593,0.593
		c0,0.328,0.266,0.594,0.593,0.594c1.094,0,1.85-0.511,2.29-0.938c1.003-0.969,0.979-2.286,0.978-2.344
		c-0.01-0.325-0.296-0.575-0.604-0.575C10.229,16.906,9.969,17.175,9.973,17.501z"/>
	<circle cx="6.172" cy="19.493" r="0.82"/>
	<path d="M27.597,17.506c0.001,0.008,0.005,0.857-0.616,1.458c-0.284,0.275-0.77,0.604-1.467,0.604
		c-0.328,0-0.592,0.264-0.592,0.593c0,0.328,0.264,0.594,0.592,0.594c1.094,0,1.85-0.511,2.292-0.938
		c1.001-0.969,0.978-2.286,0.976-2.344c-0.009-0.326-0.323-0.588-0.609-0.576C27.847,16.906,27.588,17.177,27.597,17.506z"/>
	<circle cx="23.795" cy="19.493" r="0.82"/>
	<path d="M24.92,10.096c-3.164,0-5.848,2.088-6.751,4.957c-0.771-0.398-1.569-0.577-2.394-0.531
		c-0.708,0.038-1.329,0.242-1.85,0.502c-0.911-2.855-3.589-4.928-6.741-4.928c-3.9,0-7.075,3.173-7.075,7.075
		c0,3.901,3.174,7.075,7.075,7.075c3.733,0,6.8-2.908,7.056-6.578c0.323-0.293,0.936-0.743,1.681-0.779
		c0.635-0.047,1.28,0.241,1.943,0.816c0.274,3.651,3.333,6.541,7.055,6.541c3.9,0,7.074-3.174,7.074-7.075
		C31.994,13.269,28.82,10.096,24.92,10.096z M7.185,21.872c-2.592,0-4.703-2.108-4.703-4.701c0-2.594,2.11-4.702,4.703-4.702
		c2.592,0,4.703,2.108,4.703,4.702C11.888,19.764,9.777,21.872,7.185,21.872z M24.92,21.872c-2.592,0-4.702-2.108-4.702-4.701
		c0-2.594,2.11-4.702,4.702-4.702c2.594,0,4.703,2.108,4.703,4.702C29.623,19.764,27.514,21.872,24.92,21.872z"/>
</g>
</svg>
