<?xml version="1.0" encoding="utf-8"?>
<!-- Generator: Adobe Illustrator 16.0.0, SVG Export Plug-In . SVG Version: 6.00 Build 0)  -->
<!DOCTYPE svg PUBLIC "-//W3C//DTD SVG 1.1//EN" "http://www.w3.org/Graphics/SVG/1.1/DTD/svg11.dtd">
<svg version="1.1" id="Layer_1" xmlns="http://www.w3.org/2000/svg" xmlns:xlink="http://www.w3.org/1999/xlink" x="0px" y="0px"
	 width="100px" height="100px" viewBox="0 0 100 100" enable-background="new 0 0 100 100" xml:space="preserve">
<g>
	<path d="M19.621,31.886c-0.383-2.645-0.677-5.304-1.017-7.956c-0.09-0.694-0.08-1.298,0.66-1.689c0.19-0.1,0.385-0.541,0.311-0.708
		c-0.097-0.219-0.445-0.412-0.707-0.445c-0.215-0.027-0.461,0.197-0.693,0.31c-0.265,0.128-0.52,0.329-0.797,0.37
		c-0.771,0.114-0.896,0.425-0.535,1.132c0.303,0.592,0.567,1.238,0.673,1.889c0.267,1.644,0.503,3.299,0.62,4.959
		c0.115,1.65,0.583,5.835-0.404,7.57c-0.16,0.206,0.116,0.528,0.282,0.717c0.098,0.111,0.484,0.144,0.579,0.049
		c0.4-0.396,0.795-0.675,1.38-0.413c0.047,0.021,0.12-0.016,0.206-0.031c0.499-0.174,0.352-0.521,0.222-0.892
		C20.145,36.015,19.731,32.644,19.621,31.886z"/>
	<path d="M42.626,21.767c-0.277-0.041-0.532-0.242-0.797-0.37c-0.232-0.113-0.479-0.337-0.693-0.31
		c-0.262,0.033-0.611,0.226-0.707,0.445c-0.074,0.167,0.12,0.608,0.311,0.708c0.739,0.392,0.75,0.996,0.66,1.689
		c-0.34,2.652-0.634,5.311-1.018,7.956c-0.109,0.758-0.384,4.129-0.64,4.862c-0.13,0.371-0.277,0.718,0.221,0.892
		c0.087,0.015,0.16,0.052,0.207,0.031c0.585-0.262,0.979,0.017,1.38,0.413c0.095,0.095,0.481,0.063,0.579-0.049
		c0.166-0.188,0.442-0.511,0.282-0.717c-0.987-1.735-0.658-5.92-0.543-7.57c0.117-1.66,0.354-3.315,0.62-4.959
		c0.105-0.651,0.37-1.297,0.672-1.889C43.521,22.192,43.397,21.881,42.626,21.767z"/>
	<path d="M68.161,22.361c-0.008,0.002-0.017,0.002-0.024,0.004c-0.839,0.2-1.663,0.512-2.449,0.904
		c0.312,4.077,2.647,7.955,4.946,7.955c2.285,0,4.606-3.834,4.938-7.887c-0.799-0.406-1.634-0.739-2.487-0.949l-2.5,2.517
		L68.161,22.361z"/>
	<path d="M77.06,23.967c-0.025-0.016-0.053-0.024-0.079-0.039c-0.475,4.129-2.745,8.211-5.746,8.7
		c-0.426,2.082,0.313,2.921,1.177,3.863c1.576,1.718,2.477,3.349-0.261,7.855c0.193,0.289,0.307,0.637,0.307,1.011
		c0,1.007-0.816,1.823-1.823,1.823s-1.823-0.816-1.823-1.823c0-1.007,0.816-1.824,1.823-1.824c0.1,0,0.195,0.014,0.291,0.029
		c2.386-3.911,1.509-4.89,0.411-6.086c-0.926-1.009-2.052-2.248-1.582-4.912c-2.834-0.683-4.97-4.564-5.457-8.524
		c-0.146,0.063-0.292,0.123-0.431,0.208c-1.076,0.66-2.128,1.377-3.146,2.154c-3.836-0.957-5.444-3.069-8.767-7.488
		c-0.642-0.854-1.348-1.792-2.125-2.79V3.041c0-0.967-0.787-1.754-1.755-1.754H11.931c-0.968,0-1.755,0.787-1.755,1.754v36.144
		c0,0.967,0.787,1.754,1.755,1.754h36.143c0.968,0,1.755-0.787,1.755-1.754V28.227c2.586,2.791,5.546,4.825,10.473,5.75v5.423
		c0.005-0.014,0.009-0.03,0.014-0.043c0,0,0,10.125,0,13.906c0,3.176,0.763,3.744,0.763,3.744l0.002,37.104
		c0,2.543,2.062,4.604,4.604,4.604c2.543,0,4.604-2.062,4.604-4.604l-0.002-32.016c0.183,0.008,0.364,0.023,0.548,0.023
		c0.036,0,0.072-0.004,0.108-0.004L70.94,94.109c0,2.543,2.062,4.604,4.604,4.604s4.604-2.061,4.604-4.604l0.002-37.079
		c0,0,0.705-1.424,0.705-3.769s0-14.145,0-14.145c1.151,3.047,1.617,7.136,1.034,12.958c-0.214,2.141,1.349,4.05,3.489,4.264
		c0.132,0.013,0.263,0.02,0.393,0.02c1.977,0,3.671-1.499,3.872-3.508C91.397,35.325,84.632,28.611,77.06,23.967z M48.073,3.041
		l0.001,11.155c-1.329-0.917-3.145-0.915-4.468,0.147c-0.695,0.558-1.123,1.316-1.3,2.125c-0.03-0.319-0.06-0.64-0.101-0.963
		c-0.209-1.651-0.298-3.32-0.356-4.985c-0.023-0.659,0.11-1.344,0.292-1.984c0.217-0.764,0.035-1.045-0.744-1.006
		c-0.28,0.014-0.569-0.134-0.854-0.208c-0.239-0.063-0.51-0.221-0.713-0.174c0.273-0.749,0.25-1.362-0.07-1.821
		c-0.445-0.641-1.308-0.736-1.781-0.736c-0.15,0-0.246,0.009-0.246,0.009c-0.018,0.002-0.037,0.005-0.055,0.009
		c-0.311,0.072-3.052,0.741-3.702,2.149c-0.095,0.206-0.135,0.453-0.135,0.727c-0.151-0.014-0.301-0.022-0.445-0.022
		c-0.524,0-0.971,0.092-1.317,0.265V7.31c0-0.376-0.176-0.711-0.448-0.928c0.06-0.122,0.096-0.257,0.096-0.402v-0.48
		c0-0.08-0.019-0.155-0.051-0.223c0.28-0.203,0.466-0.53,0.466-0.902V4.207c0-0.153,0.047-0.903-0.563-1.166H48.073z M38.442,17.138
		c-0.11,0.309-0.553,0.542-1.184,0.622c-0.775,0.099-1.765-0.041-2.713-0.38c-1.934-0.693-3.103-1.978-2.856-2.663
		c0.086-0.24,0.308-0.39,0.555-0.485c0.527,0.361,1.154,0.682,1.86,0.935c0.879,0.315,1.771,0.479,2.578,0.479
		c0.23,0,0.454-0.013,0.668-0.041c0.072-0.009,0.141-0.024,0.211-0.036C38.233,16.129,38.585,16.743,38.442,17.138z M38.442,20.474
		c-0.11,0.309-0.553,0.542-1.184,0.621c-0.775,0.099-1.765-0.04-2.713-0.38c-1.934-0.693-3.103-1.978-2.856-2.663
		c0.075-0.21,0.306-0.386,0.646-0.501c0.52,0.351,1.133,0.662,1.822,0.909c0.879,0.315,1.771,0.479,2.578,0.479
		c0.23,0,0.454-0.013,0.668-0.041c0.043-0.005,0.082-0.015,0.125-0.021C38.22,19.444,38.588,20.069,38.442,20.474z M38.39,13.844
		c-0.11,0.309-0.553,0.542-1.184,0.622c-0.775,0.099-1.765-0.041-2.713-0.381c-1.934-0.693-3.102-1.978-2.856-2.663
		c0.093-0.26,0.454-0.502,0.905-0.613c0.407,0.289,0.89,0.537,1.414,0.725c0.486,0.174,0.979,0.286,1.45,0.33
		c0.044,0.078,0.081,0.145,0.11,0.194c0.075,0.131,0.214,0.214,0.366,0.217c0.003,0,0.006,0,0.01,0c0.148,0,0.286-0.076,0.366-0.2
		l0.15-0.235c0.129-0.021,0.252-0.046,0.369-0.079C38.042,12.51,38.552,13.392,38.39,13.844z M32.144,8.785
		c0.104-0.292,0.596-0.479,1.253-0.479c0.177,0,0.362,0.018,0.552,0.043c0.19,0.873,0.606,1.84,0.971,2.583
		c-0.225-0.049-0.452-0.11-0.679-0.192c-0.696-0.25-1.322-0.633-1.716-1.05C32.204,9.351,32.062,9.012,32.144,8.785z M31.594,20.296
		c0.632,0.591,1.508,1.12,2.563,1.499c0.625,0.224,1.257,0.371,1.86,0.438c0.525,0.674,0.73,1.316,0.516,1.669
		c-0.171,0.281-0.65,0.419-1.285,0.372c-0.779-0.06-1.72-0.394-2.582-0.917c-0.608-0.371-1.149-0.82-1.562-1.287
		C31.491,21.438,31.653,20.831,31.594,20.296z M27.381,37.028c0.337-0.002,0.735,0.408,1.269,0.73
		c-0.358,0.274-0.596,0.546-0.679,0.505c-0.378-0.187-0.712-0.46-1.062-0.704C27.071,37.373,27.044,37.031,27.381,37.028z
		 M27.455,33.5c0.483-0.357,0.903-0.439,1.302,0.201c0.341,0.545,0.793,1.037,1.27,1.472c0.153,0.14,0.643,0.144,0.8,0.007
		c0.462-0.402,0.812-0.929,1.249-1.361c0.238-0.235,0.66-0.593,0.836-0.517c0.371,0.16,0.885,0.565,0.89,0.875
		c0.009,0.569-0.14,1.355-0.528,1.67c-1.475,1.776-5.136,0.933-5.935-0.205C26.725,34.891,26.787,33.994,27.455,33.5z
		 M28.212,39.185c0.266-0.078,0.544-0.208,0.834-0.395c0.939-0.603,1.796-0.613,2.737-0.015c0.308,0.195,0.598,0.329,0.87,0.409
		H28.212z M32.453,37.845c0.311-0.283,0.53-0.761,0.948-0.821s0.402,0.212,0.879,0.484c-0.576,0.354-0.906,0.617-1.282,0.75
		C32.88,38.3,32.638,37.992,32.453,37.845z M33.707,39.185c0.558-0.201,0.986-0.753,1.259-1.636
		c0.158-0.515,0.213-1.865,1.021-2.182c1.2-1.035,2.989-2.498,2.592-3.958c-0.184-0.458-0.351-1.196-0.738-1.791
		c-1.138-1.747-3.084-2.012-4.618-0.681c-0.559,0.483-1.085,1.011-1.579,1.56c-0.884,0.981-1.538,0.986-2.419,0.014
		c-0.496-0.547-1.019-1.078-1.578-1.559c-1.598-1.375-3.631-1.018-4.756,0.81c-0.9,1.462-0.75,2.596,0.425,3.886
		c0.365,0.401,0.589,0.932,0.877,1.404c1.259,0.859,1.503,1.724,1.695,2.466c0.232,0.899,0.673,1.462,1.249,1.666H11.931V3.041
		h17.305c-0.148,0.093-0.252,0.25-0.252,0.438c0,0.21,0.123,0.39,0.301,0.475c0.098,0.117,1.743,0.035,1.743,0.035
		c0.033,0,0.061,0.027,0.061,0.06v0.325c0,0.033-0.027,0.061-0.061,0.061h-1.339c-0.291,0-0.526,0.236-0.526,0.527
		s0.235,0.527,0.526,0.527h0.985c0,0.003-0.001,0.007-0.001,0.011v0.348h-0.764c-0.229,0-0.422,0.147-0.494,0.352
		c-0.452,0.167-0.774,0.601-0.774,1.111v0.392c-0.338-0.154-0.761-0.239-1.255-0.239c-0.335,0-0.688,0.042-1.047,0.116
		c0.01-0.311-0.027-0.592-0.133-0.821c-0.65-1.408-3.392-2.077-3.702-2.149c-0.018-0.004-0.037-0.007-0.056-0.009
		c0,0-0.095-0.009-0.244-0.009c-0.475,0-1.338,0.095-1.783,0.736c-0.322,0.462-0.344,1.081-0.064,1.836
		c0.012,0.031,0.028,0.06,0.046,0.087c-0.067-0.042-0.137-0.076-0.202-0.098c-0.205-0.068-0.49,0.104-0.74,0.169
		c-0.285,0.074-0.573,0.222-0.854,0.208c-0.779-0.039-0.961,0.243-0.744,1.006c0.182,0.64,0.315,1.325,0.292,1.984
		c-0.059,1.665-0.147,3.334-0.356,4.985c-0.207,1.641-0.116,3.229-1.422,4.738c-0.197,0.17,0.011,0.541,0.138,0.758
		c0.073,0.128,0.446,0.235,0.559,0.16c0.47-0.311,0.91-0.508,1.434-0.137c0.042,0.03,0.12,0.008,0.208,0.01
		c0.523-0.074,0.446-0.444,0.391-0.833c-0.108-0.769-0.305-1.547-0.266-2.311c0.14-2.67,0.368-5.335,0.55-8.002
		C19.437,9.19,19.563,8.6,20.365,8.36c0.206-0.062,0.482-0.456,0.442-0.635c-0.001-0.005-0.004-0.012-0.006-0.018l1.16,1.306
		l0.856,1.336c-0.009,0.169,0.01,0.337,0.068,0.498c0.025,0.072,0.059,0.141,0.098,0.207c-1.382,0.958-2.035,2.169-1.674,3.176
		c0.129,0.36,0.373,0.658,0.713,0.888c-0.749,0.795-1.034,1.658-0.766,2.407c0.136,0.38,0.4,0.691,0.771,0.926
		c-0.746,0.794-1.039,1.662-0.771,2.41c0.268,0.746,1.021,1.233,2.12,1.373c0.006,0,0.01,0,0.015,0.001
		c-0.445,0.841-0.5,1.646-0.126,2.263c0.37,0.607,1.08,0.933,2.021,0.933c0.108,0,0.219-0.004,0.333-0.013
		c0.968-0.074,2.065-0.458,3.092-1.081c0.245-0.149,0.476-0.311,0.698-0.479c0.007,0,0.013,0.002,0.021,0.002h1.921
		c0.009,0,0.018,0.002,0.026,0.002c0.088,0.066,0.174,0.132,0.266,0.195c0.016,0.037,0.023,0.076,0.023,0.118v0.24
		c0,0.174-0.142,0.315-0.315,0.315h-1.921c-0.291,0-0.527,0.236-0.527,0.527c0,0.15,0.063,0.284,0.164,0.38
		c0.084,0.179,0.264,0.303,0.475,0.303h1.697c0.119,0,0.217,0.098,0.217,0.218v0.212c0,0.12-0.098,0.217-0.217,0.217h-1.697
		c-0.291,0-0.526,0.236-0.526,0.527c0,0.21,0.124,0.39,0.302,0.475c0.097,0.117,0.24,0.192,0.404,0.192h1.338
		c0.033,0,0.062,0.027,0.062,0.061v0.167c0,0.033-0.028,0.061-0.062,0.061h-1.338c-0.291,0-0.526,0.236-0.526,0.527
		s0.235,0.527,0.526,0.527h0.985c0,0.003-0.001,0.007-0.001,0.011v0.347h-0.764c-0.291,0-0.527,0.236-0.527,0.527
		c0,0.291,0.236,0.526,0.527,0.526h0.896c0.508,0,0.921-0.413,0.921-0.92v-0.48c0-0.08-0.02-0.155-0.052-0.223
		c0.281-0.202,0.466-0.53,0.466-0.902v-0.167c0-0.179-0.046-0.346-0.121-0.496c0.279-0.233,0.458-0.584,0.458-0.976v-0.212
		c0-0.274-0.089-0.527-0.236-0.735c0.212-0.194,0.363-0.453,0.42-0.746c0.837,0.419,1.693,0.68,2.467,0.738
		c0.114,0.009,0.225,0.013,0.334,0.013c0.939,0,1.65-0.325,2.02-0.933c0.374-0.616,0.319-1.422-0.126-2.263
		c0.005-0.001,0.01-0.001,0.015-0.001c1.1-0.14,1.853-0.627,2.12-1.373c0.269-0.748-0.024-1.616-0.77-2.41
		c0.37-0.234,0.634-0.546,0.77-0.926c0.269-0.749-0.017-1.611-0.766-2.407c0.34-0.229,0.584-0.528,0.713-0.888
		c0.361-1.007-0.292-2.218-1.673-3.176c0.038-0.066,0.071-0.135,0.098-0.207c0.131-0.366,0.08-0.76-0.115-1.148l0.439-0.686
		l0.999-1.124c0.07,0.189,0.265,0.424,0.42,0.47c0.802,0.24,0.929,0.83,0.977,1.528c0.182,2.667,0.41,5.333,0.55,8.002
		c0.039,0.764-0.157,1.542-0.266,2.311c-0.056,0.389-0.133,0.758,0.391,0.833c0.087-0.002,0.166,0.02,0.208-0.01
		c0.522-0.371,0.964-0.174,1.434,0.137c0.112,0.075,0.485-0.032,0.559-0.16c0.086-0.147,0.199-0.361,0.209-0.539
		c0.814,1.038,1.548,2.012,2.26,2.959c0.728,0.967,1.421,1.889,2.115,2.758l0.001,13.005H33.707z M26.826,11.534
		c0.523-0.188,1.006-0.437,1.413-0.725c0.451,0.111,0.813,0.353,0.905,0.613c0.246,0.685-0.923,1.97-2.856,2.663
		c-0.948,0.34-1.938,0.479-2.713,0.381c-0.631-0.08-1.073-0.313-1.184-0.622c-0.154-0.427,0.295-1.238,1.411-1.958l0.121,0.189
		c0.079,0.125,0.218,0.2,0.366,0.2c0.003,0,0.006,0,0.01,0c0.151-0.003,0.291-0.086,0.366-0.217
		c0.026-0.046,0.061-0.107,0.101-0.178c0.055,0.002,0.109,0.006,0.166,0.006C25.528,11.886,26.184,11.764,26.826,11.534z
		 M25.216,11.028c0.358-0.721,0.779-1.677,0.991-2.555c0.407-0.11,0.808-0.168,1.179-0.168c0.656,0,1.147,0.188,1.252,0.479
		c0.082,0.227-0.061,0.565-0.381,0.905c-0.394,0.417-1.019,0.8-1.716,1.05C26.091,10.902,25.64,10.997,25.216,11.028z M23.22,15.568
		c0.07,0.012,0.139,0.027,0.211,0.036c0.215,0.027,0.438,0.041,0.668,0.041c0.807,0,1.699-0.164,2.578-0.479
		c0.706-0.253,1.333-0.573,1.86-0.935c0.247,0.095,0.469,0.246,0.555,0.485c0.246,0.685-0.923,1.97-2.855,2.663
		c-0.949,0.34-1.938,0.479-2.714,0.38c-0.631-0.08-1.073-0.313-1.184-0.622C22.196,16.743,22.548,16.129,23.22,15.568z
		 M23.253,18.876c0.043,0.006,0.082,0.016,0.125,0.021c0.215,0.027,0.438,0.041,0.668,0.041c0.807,0,1.699-0.164,2.578-0.479
		c0.689-0.247,1.303-0.558,1.822-0.909c0.34,0.116,0.57,0.291,0.646,0.501c0.246,0.685-0.923,1.97-2.855,2.663
		c-0.949,0.34-1.938,0.479-2.714,0.38c-0.631-0.08-1.073-0.312-1.184-0.621C22.193,20.069,22.562,19.444,23.253,18.876z
		 M24.764,22.232c0.604-0.067,1.235-0.213,1.86-0.438c1.056-0.379,1.932-0.908,2.563-1.499c-0.059,0.535,0.103,1.142,0.489,1.773
		c-0.412,0.467-0.953,0.917-1.562,1.287c-0.861,0.524-1.803,0.858-2.582,0.917c-0.635,0.047-1.114-0.091-1.285-0.372
		C24.033,23.548,24.238,22.906,24.764,22.232z"/>
	<path d="M70.63,21.861c5.209,0,9.434-4.224,9.434-9.434c0-2.18-0.756-4.171-1.999-5.765h-3.052V5.231h1.675
		c-0.586-0.493-1.224-0.928-1.919-1.268c-0.717-1.574-2.297-2.677-4.137-2.677c-1.838,0-3.416,1.101-4.135,2.673
		C65.8,4.3,65.16,4.736,64.571,5.231h1.915v1.432h-3.29c-1.242,1.594-1.999,3.585-1.999,5.765
		C61.197,17.637,65.42,21.861,70.63,21.861z M70.632,3.278c1.413,0,2.563,1.149,2.563,2.563s-1.149,2.563-2.563,2.563
		s-2.563-1.149-2.563-2.563S69.219,3.278,70.632,3.278z"/>
</g>
</svg>
