<?xml version="1.0" encoding="iso-8859-1"?>
<!-- Generator: Adobe Illustrator 17.0.0, SVG Export Plug-In . SVG Version: 6.00 Build 0)  -->
<!DOCTYPE svg PUBLIC "-//W3C//DTD SVG 1.1//EN" "http://www.w3.org/Graphics/SVG/1.1/DTD/svg11.dtd">
<svg version="1.1" id="Capa_1" xmlns="http://www.w3.org/2000/svg" xmlns:xlink="http://www.w3.org/1999/xlink" x="0px" y="0px"
	 width="64px" height="64px" viewBox="0 0 64 64" style="enable-background:new 0 0 64 64;" xml:space="preserve">
<g>
	<path d="M36.287,41.376v-1.679h3.197c2.891,0,5.242-2.352,5.242-5.242V11.797c0-2.891-2.352-5.242-5.242-5.242H24.516
		c-2.891,0-5.242,2.352-5.242,5.242v22.658c0,2.891,2.352,5.242,5.242,5.242h3.196v1.679c0,1.172,0.95,2.123,2.123,2.123h1.148
		c0.035,2.335,0.46,7.008,3.201,8.79c2.121,1.379,2.084,5.854,1.891,7.461c-0.066,0.548,0.325,1.046,0.873,1.112
		c0.041,0.005,0.082,0.007,0.122,0.007c0.498,0,0.929-0.372,0.991-0.878c0.035-0.287,0.813-7.038-2.786-9.379
		c-1.787-1.162-2.241-4.841-2.289-7.113h1.18C35.336,43.499,36.287,42.548,36.287,41.376z M27.75,14.333h-1.583
		c-0.552,0-1,0.448-1,1s0.448,1,1,1h1.583v0.792h-0.938c-0.276,0-0.5,0.224-0.5,0.5c0,0.276,0.224,0.5,0.5,0.5h0.938v1.125h-0.938
		c-0.276,0-0.5,0.224-0.5,0.5c0,0.276,0.224,0.5,0.5,0.5h0.938v0.875h-1.583c-0.552,0-1,0.448-1,1s0.448,1,1,1h1.583v0.938h-0.938
		c-0.276,0-0.5,0.224-0.5,0.5c0,0.276,0.224,0.5,0.5,0.5h0.938v1.125h-0.938c-0.276,0-0.5,0.224-0.5,0.5c0,0.276,0.224,0.5,0.5,0.5
		h0.938v1.403h-1.13c-1.236,0-2.242-1.006-2.242-2.242V13.981c0-1.236,1.006-2.242,2.242-2.242h1.13V14.333z M29.75,28.59v-1.403
		h1.938c0.276,0,0.5-0.224,0.5-0.5c0-0.276-0.224-0.5-0.5-0.5H29.75v-1.125h1.938c0.276,0,0.5-0.224,0.5-0.5
		c0-0.276-0.224-0.5-0.5-0.5H29.75v-0.938h3.808c0.552,0,1-0.448,1-1s-0.448-1-1-1H29.75V20.25h1.938c0.276,0,0.5-0.224,0.5-0.5
		c0-0.276-0.224-0.5-0.5-0.5H29.75v-1.125h1.938c0.276,0,0.5-0.224,0.5-0.5c0-0.276-0.224-0.5-0.5-0.5H29.75v-0.792h3.808
		c0.552,0,1-0.448,1-1s-0.448-1-1-1H29.75v-2.595h7.472c1.236,0,2.242,1.006,2.242,2.242v12.367c0,1.236-1.006,2.242-2.242,2.242
		H29.75z"/>
</g>
</svg>
