<?xml version="1.0" encoding="utf-8"?>
<!-- Generator: Adobe Illustrator 16.0.0, SVG Export Plug-In . SVG Version: 6.00 Build 0)  -->
<!DOCTYPE svg PUBLIC "-//W3C//DTD SVG 1.1//EN" "http://www.w3.org/Graphics/SVG/1.1/DTD/svg11.dtd">
<svg version="1.1" id="Layer_1" xmlns="http://www.w3.org/2000/svg" xmlns:xlink="http://www.w3.org/1999/xlink" x="0px" y="0px"
	 width="50px" height="50px" viewBox="0 0 50 50" enable-background="new 0 0 50 50" xml:space="preserve">
<g>
	<path d="M36.852,25.003c0.435-0.466,0.85-0.933,1.217-1.4c2.273-2.889,2.956-5.466,1.921-7.258
		c-0.808-1.397-2.546-2.136-5.028-2.136c-1.213,0-2.584,0.195-4.037,0.532c-1.32-4.294-3.459-7.05-5.926-7.05
		c-2.467,0-4.606,2.756-5.927,7.051c-1.452-0.337-2.823-0.532-4.036-0.532c-2.483,0-4.221,0.739-5.027,2.136
		c-1.034,1.792-0.353,4.369,1.92,7.258c0.367,0.467,0.782,0.934,1.216,1.4c-3.055,3.289-4.369,6.516-3.137,8.651
		c0.807,1.397,2.544,2.136,5.027,2.136c1.213,0,2.584-0.195,4.037-0.532c1.319,4.294,3.459,7.05,5.926,7.05
		c2.466,0,4.606-2.756,5.926-7.051c1.452,0.337,2.823,0.532,4.037,0.532c2.482,0,4.221-0.739,5.028-2.136
		C41.222,31.519,39.908,28.292,36.852,25.003z M38.837,32.988c-0.702,1.215-2.495,1.47-3.875,1.47c-1.104,0-2.354-0.177-3.681-0.48
		c0.298-1.178,0.518-2.47,0.691-3.817c-0.313,0.097-0.639,0.165-0.982,0.165h-0.353c-0.162,1.192-0.375,2.304-0.63,3.325
		c-0.243-0.069-0.496-0.159-0.743-0.237c-0.457,0.427-1.028,0.728-1.667,0.845c0.694,0.249,1.383,0.478,2.056,0.669
		c-1.171,3.799-2.946,6.049-4.653,6.049c-1.708,0-3.482-2.25-4.654-6.048c0.673-0.192,1.363-0.421,2.058-0.67
		c-0.64-0.117-1.212-0.418-1.668-0.846c-0.248,0.078-0.501,0.168-0.744,0.237c-0.255-1.021-0.469-2.132-0.63-3.325h-0.353
		c-0.344,0-0.669-0.068-0.982-0.165c0.173,1.347,0.394,2.64,0.691,3.817c-1.326,0.304-2.577,0.481-3.68,0.481
		c-1.38,0-3.172-0.255-3.874-1.471c-0.853-1.478,0.206-4.135,2.904-7.045c0.516,0.5,1.074,0.993,1.655,1.48
		c-0.018-0.141-0.043-0.28-0.043-0.426v-1.384c-0.228-0.207-0.465-0.412-0.681-0.621c0.213-0.206,0.453-0.414,0.681-0.621v-1.369
		c0-0.146,0.025-0.285,0.043-0.425c-0.581,0.488-1.136,0.98-1.644,1.475c-0.393-0.423-0.769-0.848-1.102-1.271
		c-1.885-2.397-2.546-4.5-1.813-5.769c0.701-1.215,2.494-1.47,3.874-1.47c1.103,0,2.354,0.177,3.68,0.48
		c-0.298,1.178-0.518,2.471-0.69,3.817c0.312-0.098,0.638-0.165,0.981-0.165h0.353c0.163-1.192,0.375-2.304,0.63-3.325
		c0.244,0.069,0.496,0.159,0.744,0.237c0.456-0.427,1.028-0.728,1.667-0.846c-0.695-0.249-1.384-0.478-2.057-0.669
		c1.172-3.799,2.946-6.049,4.654-6.049c1.708,0,3.482,2.25,4.653,6.048c-0.672,0.192-1.362,0.421-2.058,0.67
		c0.64,0.118,1.212,0.418,1.669,0.846c0.248-0.078,0.5-0.168,0.744-0.237c0.255,1.021,0.468,2.133,0.63,3.325h0.353
		c0.344,0,0.669,0.067,0.981,0.165c-0.173-1.347-0.393-2.639-0.69-3.817c1.327-0.304,2.577-0.481,3.681-0.481
		c1.38,0,3.173,0.255,3.875,1.47c0.733,1.27,0.072,3.372-1.814,5.769c-0.333,0.424-0.709,0.849-1.103,1.272
		c-0.508-0.494-1.063-0.986-1.644-1.475c0.018,0.141,0.043,0.28,0.043,0.425v1.368c0.228,0.208,0.468,0.416,0.681,0.622
		c-0.215,0.208-0.454,0.414-0.681,0.621v1.384c0,0.146-0.025,0.286-0.043,0.427c0.581-0.488,1.14-0.982,1.655-1.482
		C38.631,28.853,39.69,31.511,38.837,32.988z"/>
	<path d="M31.156,22.337h-2.994c-0.275,0-0.5-0.225-0.5-0.5v-2.994c0-0.275-0.225-0.5-0.5-0.5h-4.326c-0.275,0-0.5,0.225-0.5,0.5
		v2.994c0,0.275-0.225,0.5-0.5,0.5h-2.995c-0.275,0-0.5,0.225-0.5,0.5v4.326c0,0.275,0.225,0.5,0.5,0.5h2.995
		c0.275,0,0.5,0.225,0.5,0.5v2.994c0,0.275,0.225,0.5,0.5,0.5h4.326c0.275,0,0.5-0.225,0.5-0.5v-2.995c0-0.275,0.225-0.5,0.5-0.5
		h2.994c0.275,0,0.5-0.225,0.5-0.5v-4.326C31.656,22.562,31.431,22.337,31.156,22.337z"/>
</g>
<g id="Ribbon_6">
	<g id="Regal_Vector_Pack_02">
	</g>
</g>
</svg>
