<?xml version="1.0" encoding="utf-8"?>
<!-- Generator: Adobe Illustrator 16.0.0, SVG Export Plug-In . SVG Version: 6.00 Build 0)  -->
<!DOCTYPE svg PUBLIC "-//W3C//DTD SVG 1.1//EN" "http://www.w3.org/Graphics/SVG/1.1/DTD/svg11.dtd">
<svg version="1.1" id="Layer_1" xmlns="http://www.w3.org/2000/svg" xmlns:xlink="http://www.w3.org/1999/xlink" x="0px" y="0px"
	 width="100px" height="100px" viewBox="0 0 100 100" enable-background="new 0 0 100 100" xml:space="preserve">
<g>
	<path d="M53.047,24.942c-0.009-0.002-0.018-0.002-0.027-0.004l-2.512,2.637l-2.59-2.607c-3.696,1.29-18.068,9.963-20.106,33.03
		c-0.304,2.208,1.238,4.243,3.447,4.549c0.188,0.026,0.374,0.039,0.558,0.039c1.984,0,3.714-1.463,3.995-3.482
		c0.589-4.239,1.982-10.024,4.051-15.015v5.223l-6.311,28.002c0,0,0.696,2.287,7.146,3.485l0,13.731c0,2.48,2.011,4.491,4.491,4.491
		c2.48,0,4.492-2.012,4.491-4.491l0-13.02c0.092,0,0.178,0.002,0.271,0.002c0.126,0,0.243-0.002,0.367-0.003l0,13.021
		c0,2.479,2.009,4.491,4.49,4.491c0.001,0,0.001,0,0.001,0c2.48,0,4.491-2.011,4.491-4.491L59.3,80.787
		c6.436-1.2,7.219-3.47,7.219-3.47l-4.593-24.71c0,0,0.643-0.024,0.727-0.024c3.532,0,7.843-0.84,9.287-4.917
		C74.312,40.972,61.407,26.961,53.047,24.942z M58.375,44.207c-0.666-0.133-1.43-0.309-2.343-0.551
		c-2.157-0.577-4.368,0.707-4.942,2.861c-0.574,2.155,0.707,4.367,2.862,4.942c1.671,0.444,3.11,0.75,4.423,0.938v6.805
		c0,0.649-0.527,1.177-1.177,1.177H43.817c-0.649,0-1.175-0.527-1.175-1.177v-19.85c0-0.649,0.526-1.177,1.175-1.177h2.979v-0.515
		c0-0.649,0.526-1.177,1.176-1.177h5.073c0.65,0,1.177,0.527,1.177,1.177v0.515h2.977c0.649,0,1.177,0.527,1.177,1.177V44.207z
		 M61.153,44.425v-3.786c1.283,1.434,2.3,2.786,2.787,3.788C63.358,44.495,62.462,44.526,61.153,44.425z"/>
	<path d="M40.892,14.736c0,5.294,4.292,9.585,9.586,9.585c5.293,0,9.584-4.292,9.584-9.585c0-2.942-1.329-5.572-3.415-7.33
		l1.45-4.682c-8.483-3.928-15.239,0-15.239,0l1.45,4.682C42.22,9.165,40.892,11.795,40.892,14.736z"/>
</g>
</svg>
