<?xml version="1.0" encoding="utf-8"?>
<!-- Generator: Adobe Illustrator 16.0.0, SVG Export Plug-In . SVG Version: 6.00 Build 0)  -->
<!DOCTYPE svg PUBLIC "-//W3C//DTD SVG 1.1//EN" "http://www.w3.org/Graphics/SVG/1.1/DTD/svg11.dtd">
<svg version="1.1" id="Layer_1" xmlns="http://www.w3.org/2000/svg" xmlns:xlink="http://www.w3.org/1999/xlink" x="0px" y="0px"
	 width="96px" height="96px" viewBox="0 0 96 96" enable-background="new 0 0 96 96" xml:space="preserve">
<g>
	<path d="M47.939,51.558v0.003c0.011,0,0.022-0.001,0.033-0.001c0.003,0,0.013,0.001,0.02,0.001c0.001,0,0.005,0,0.008,0
		s0.006,0,0.008,0c0.006,0,0.017-0.001,0.02-0.001c0.011,0,0.022,0.001,0.033,0.001v-0.003
		c12.825,0.194,20.644-10.969,20.931-29.391H54.036C52.87,24.301,50.604,25.75,48,25.75s-4.87-1.449-6.036-3.583H27.009
		C27.295,40.589,35.115,51.752,47.939,51.558z"/>
	<path d="M48,12c2.898,0,5.372,1.796,6.384,4.333h14.091C66.536,6.864,59.125,1.509,48.083,1.215V1.21
		c-0.02,0-0.035,0.001-0.056,0.001V1.21c-0.01,0-0.018,0-0.027,0.001C47.991,1.21,47.981,1.21,47.973,1.21v0.001
		c-0.021,0-0.036-0.001-0.054-0.001v0.005C36.876,1.509,29.465,6.864,27.525,16.333h14.091C42.628,13.796,45.102,12,48,12z"/>
	<path d="M93.731,90.491L77.588,63.504c-0.975-1.633-2.427-2.794-4.063-3.467l-11.063-5.094l-5.315-4.482l-9.134,9.084l-9.157-9.084
		l-5.315,4.482l-11.063,5.094c-1.637,0.673-3.089,1.834-4.063,3.467L2.269,90.491C1.479,91.816,1.083,93.3,1.073,94.79l42.114-0.03
		L48,64.708l4.813,30.053l42.114,0.03C94.917,93.3,94.521,91.816,93.731,90.491z M75.917,83.475h-4.362v4.361h-5.11v-4.361h-4.361
		v-5.109h4.361v-4.361h5.11v4.361h4.362V83.475z"/>
</g>
</svg>
