<?xml version="1.0" encoding="utf-8"?>
<!-- Generator: Adobe Illustrator 16.0.0, SVG Export Plug-In . SVG Version: 6.00 Build 0)  -->
<!DOCTYPE svg PUBLIC "-//W3C//DTD SVG 1.1//EN" "http://www.w3.org/Graphics/SVG/1.1/DTD/svg11.dtd">
<svg version="1.1" id="Layer_1" xmlns="http://www.w3.org/2000/svg" xmlns:xlink="http://www.w3.org/1999/xlink" x="0px" y="0px"
	 width="100px" height="100px" viewBox="0 0 100 100" enable-background="new 0 0 100 100" xml:space="preserve">
<g>
	<path d="M55.75,32.813h-11.5c-0.276,0-0.5,0.224-0.5,0.5v4.232h-6.219h-6.25c-1.378,0-2.5,1.122-2.5,2.5v24.643
		c0,1.377,1.122,2.5,2.5,2.5h6.25h24.938h6.25c1.38,0,2.5-1.123,2.5-2.5V40.045c0-1.378-1.12-2.5-2.5-2.5h-6.25H56.25v-4.232
		C56.25,33.036,56.026,32.813,55.75,32.813z M44.75,33.813h10.5v3.732h-10.5V33.813z M29.781,64.688V40.045
		c0-0.827,0.673-1.5,1.5-1.5h3.75v27.643h-3.75C30.455,66.188,29.781,65.514,29.781,64.688z M70.219,40.045v24.643
		c0,0.826-0.674,1.5-1.5,1.5H65.03V38.545h3.688C69.545,38.545,70.219,39.218,70.219,40.045z M61.969,66.188H38.031V38.545h6.219
		h11.5h6.219V66.188L61.969,66.188z"/>
	<path d="M51.996,46.45c0-0.276-0.224-0.5-0.5-0.5h-2.992c-0.276,0-0.5,0.224-0.5,0.5v3.92h-3.92c-0.276,0-0.5,0.224-0.5,0.5v2.991
		c0,0.275,0.224,0.5,0.5,0.5h3.92v3.922c0,0.275,0.224,0.5,0.5,0.5h2.992c0.276,0,0.5-0.225,0.5-0.5v-3.922h3.922
		c0.275,0,0.5-0.225,0.5-0.5V50.87c0-0.276-0.225-0.5-0.5-0.5h-3.922V46.45z"/>
</g>
</svg>
