<?xml version="1.0" encoding="utf-8"?>
<!-- Generator: Adobe Illustrator 15.0.0, SVG Export Plug-In . SVG Version: 6.00 Build 0)  -->
<!DOCTYPE svg PUBLIC "-//W3C//DTD SVG 1.1//EN" "http://www.w3.org/Graphics/SVG/1.1/DTD/svg11.dtd">
<svg version="1.1" id="Layer_1" xmlns="http://www.w3.org/2000/svg" xmlns:xlink="http://www.w3.org/1999/xlink" x="0px" y="0px"
	 width="26px" height="26px" viewBox="0 0 26 26" enable-background="new 0 0 26 26" xml:space="preserve">
<g>
	<circle cx="11.869" cy="15.353" r="0.93"/>
	<circle cx="15.914" cy="15.353" r="0.93"/>
	<path d="M11.301,9.316l1.727-0.01v1.728l1.498,0.014c0.007,0,0.014-0.007,0.014-0.014V9.307h1.691l0.014-1.498L14.54,7.795V6.118
		l-1.522,0.01l0.011,1.668h-1.738L11.301,9.316z"/>
	<path d="M18.516,7.625l0.214-1.192c0-0.905-0.736-1.642-1.642-1.642h-6.922c-0.905,0-1.641,0.737-1.639,1.677l0.179,1.316
		c-0.904,0.792-3.873,4.073-2.128,11.896c0,0,1.64,0.147,2.161-1.193c0.266-0.687,0.028-1.923,0.194-1.771
		c0.366,2.632,2.63,4.7,4.618,4.7c2.326,0,4.525-2.278,4.913-4.696c0.165-0.151,0.195,1.747,0.275,1.903
		c0.976,1.888,1.714,1.057,1.714,1.057C23.345,11.462,18.338,7.447,18.516,7.625z M10.166,5.329h6.922
		c0.608,0,1.104,0.495,1.108,1.056l-0.92,4.521c0,0.606-0.496,1.103-1.104,1.103h-5.318c-0.108,0-0.211-0.02-0.31-0.05
		c-0.271-0.165-0.498-0.364-0.684-0.591c-0.07-0.15-0.113-0.317-0.114-0.499L9.063,6.433C9.063,5.824,9.558,5.329,10.166,5.329z
		 M18.405,15.754c-0.063,0.409-0.221,0.577-0.311,0.641l-0.084,0.061l-0.014,0.103c-0.317,2.248-2.328,4.374-4.446,4.374
		c-1.764,0-3.856-1.964-4.148-4.369L9.39,16.457l-0.085-0.062c-0.109-0.08-0.251-0.256-0.316-0.67
		c-0.151-0.537-0.211-1.132-0.167-1.226c0,0,0.021,0,0.067,0.022c0,0,0.311-0.431,0.295-0.51c0.303-0.343,0.638-0.661,1.007-0.941
		c0.959,0.261,2.247,0.511,3.676,0.511c1.005,0,2.076-0.131,3.144-0.465c0.446,0.357,0.842,0.771,1.189,1.218l0.148,0.197
		c0.075,0.104,0.149,0.207,0.221,0.313C18.552,15.093,18.495,15.427,18.405,15.754z"/>
</g>
</svg>
