<?xml version="1.0" encoding="utf-8"?>
<!-- Generator: Adobe Illustrator 17.0.0, SVG Export Plug-In . SVG Version: 6.00 Build 0)  -->
<!DOCTYPE svg PUBLIC "-//W3C//DTD SVG 1.1//EN" "http://www.w3.org/Graphics/SVG/1.1/DTD/svg11.dtd">
<svg version="1.1" id="Layer_1" xmlns="http://www.w3.org/2000/svg" xmlns:xlink="http://www.w3.org/1999/xlink" x="0px" y="0px"
	 width="32px" height="32px" viewBox="0 0 32 32" enable-background="new 0 0 32 32" xml:space="preserve">
<path d="M28.253,12.912l-3.188-6.085l0.388-0.508c0.462-0.602,0.346-1.464-0.256-1.925c-0.44-0.337-1.014-0.366-1.472-0.125
	l-1.278-2.438c-1.051-2.008-3.042-2.182-4.425-0.386l-5.499,7.139c-1.382,1.796-0.708,3.688,1.499,4.204l1.197,0.28
	c2.342-2.415,6.899-7.088,7-7.011c0.103,0.078-8.602,11.219-8.602,11.219c-0.974-0.165-2.003,0.202-2.645,1.039L3.881,27.59
	C2.96,28.794,3.19,30.519,4.395,31.44c0.499,0.381,1.085,0.566,1.667,0.566c0.827,0,1.645-0.372,2.185-1.079l7.092-9.275
	c0.593-0.776,0.708-1.767,0.394-2.621l3.791-4.958l6.628,1.551C28.36,16.14,29.305,14.919,28.253,12.912z"/>
</svg>
