<?xml version="1.0" encoding="iso-8859-1"?>
<!-- Generator: Adobe Illustrator 17.0.0, SVG Export Plug-In . SVG Version: 6.00 Build 0)  -->
<!DOCTYPE svg PUBLIC "-//W3C//DTD SVG 1.1//EN" "http://www.w3.org/Graphics/SVG/1.1/DTD/svg11.dtd">
<svg version="1.1" id="Capa_1" xmlns="http://www.w3.org/2000/svg" xmlns:xlink="http://www.w3.org/1999/xlink" x="0px" y="0px"
	 width="64px" height="64px" viewBox="0 0 64 64" style="enable-background:new 0 0 64 64;" xml:space="preserve">
<g>
	<path d="M60,4.833h-0.5H59h-0.5v-2h-53v2H5H4.5H4c-1.197,0-2.167,0.97-2.167,2.167c0,1.197,0.97,2.167,2.167,2.167h0.5H5h0.5v2h3
		v0.5v0.5V54h21.667v1.823c-1.534,0.439-2.667,1.838-2.667,3.511c0,2.021,1.645,3.667,3.667,3.667c2.022,0,3.667-1.645,3.667-3.667
		c0-1.673-1.133-3.072-2.667-3.511V54H55.5V12.167v-0.5v-0.5h3v-2H59h0.5H60c1.197,0,2.167-0.97,2.167-2.167
		C62.167,5.803,61.197,4.833,60,4.833z M32.833,59.333c0,0.919-0.748,1.667-1.667,1.667S29.5,60.252,29.5,59.333
		s0.748-1.667,1.667-1.667S32.833,58.415,32.833,59.333z M52.5,11.667v0.5V51h-41V12.167v-0.5v-0.5h41V11.667z"/>
	<path d="M29.801,25.75c0.667,0,1.208-0.603,1.208-1.348v-2.185c0-0.744,0.603-1.348,1.348-1.348h2.461
		c0.744,0,1.348-0.453,1.348-1.011s-0.603-1.011-1.348-1.011h-2.461c-0.744,0-1.348-0.599-1.348-1.339s0.603-1.339,1.348-1.339
		h3.188c0.744,0,1.348-0.458,1.348-1.023s-0.603-1.023-1.348-1.023h-5.604c-0.744,0-1.348,0.603-1.348,1.348v8.929
		C28.593,25.147,29.134,25.75,29.801,25.75z"/>
	<path d="M21.783,36.437c0.423,0,0.767-0.389,0.767-0.87v-1.206c0-0.48,0.343-0.87,0.766-0.87s0.766,0,0.766,0
		c0.437,0,0.735,0.08,0.894,0.239c0.159,0.16,0.242,0.479,0.248,0.958l0.01,0.698c0.003,0.221,0.025,0.436,0.066,0.647
		c0.011,0.057,0.027,0.125,0.047,0.203c0.029,0.111,0.442,0.2,0.921,0.2c0.478,0,0.866-0.042,0.866-0.094s-0.11-0.154-0.191-0.277
		c-0.046-0.07-0.079-0.152-0.099-0.245c-0.028-0.122-0.042-0.355-0.042-0.698v-0.504c0-0.526-0.072-0.918-0.217-1.174
		c-0.077-0.136-0.182-0.256-0.316-0.359c-0.211-0.163-0.157-0.308,0.098-0.512c0.156-0.124,0.28-0.275,0.373-0.453
		c0.18-0.345,0.27-0.695,0.27-1.052c0-0.296-0.046-0.559-0.139-0.79c-0.093-0.231-0.219-0.442-0.378-0.632
		c-0.192-0.231-0.427-0.406-0.703-0.525c-0.276-0.119-0.672-0.183-1.185-0.194h-2.723c-0.48,0-0.87,0.389-0.87,0.87v5.771
		C21.016,36.047,21.359,36.437,21.783,36.437z M22.549,31.1c0-0.48,0.388-0.87,0.866-0.87c0.478,0,0.866,0,0.866,0
		c0.323,0,0.565,0.044,0.726,0.132c0.287,0.156,0.431,0.462,0.431,0.917c0,0.421-0.149,0.703-0.445,0.846
		c-0.168,0.081-0.419,0.122-0.755,0.122h-0.844c-0.466,0-0.845-0.389-0.845-0.87V31.1z"/>
	<path d="M35.681,29.71v5.943c0,0.495,0.401,0.896,0.896,0.896h4.07c0.495,0,0.896-0.311,0.896-0.695s-0.401-0.695-0.896-0.695
		h-2.491c-0.495,0-0.896-0.401-0.896-0.896v-0.198c0-0.495,0.401-0.896,0.896-0.896h1.966c0.495,0,0.896-0.301,0.896-0.672
		c0-0.371-0.401-0.672-0.896-0.672h-1.966c-0.495,0-0.896-0.368-0.896-0.821c0-0.453,0.401-0.821,0.896-0.821h2.302
		c0.495,0,0.896-0.307,0.896-0.685s-0.401-0.685-0.896-0.685h-3.881C36.082,28.814,35.681,29.215,35.681,29.71z"/>
	<path d="M17.356,46.065h2.481c0.301,0,0.546-0.19,0.546-0.424c0-0.234-0.244-0.424-0.546-0.424h-1.518
		c-0.302,0-0.546-0.244-0.546-0.546v-0.12c0-0.301,0.244-0.546,0.546-0.546h1.198c0.301,0,0.546-0.183,0.546-0.409
		c0-0.226-0.244-0.409-0.546-0.409h-1.198c-0.302,0-0.546-0.224-0.546-0.501c0-0.276,0.244-0.5,0.546-0.5h1.403
		c0.302,0,0.546-0.187,0.546-0.417s-0.244-0.417-0.546-0.417h-2.366c-0.302,0-0.546,0.244-0.546,0.546v3.623
		C16.81,45.82,17.054,46.065,17.356,46.065z"/>
	<path d="M25.63,41.896v3.623c0,0.302,0.219,0.546,0.489,0.546s0.489-0.244,0.489-0.546v-0.603c0-0.301,0.22-0.546,0.491-0.546
		s0.491,0,0.491,0c0.512,0,0.906-0.115,1.182-0.345c0.276-0.23,0.414-0.624,0.414-1.18c0-0.51-0.139-0.886-0.416-1.129
		c-0.277-0.243-0.649-0.365-1.116-0.365h-1.478C25.875,41.35,25.63,41.595,25.63,41.896z M26.609,42.715
		c0-0.301,0.199-0.546,0.444-0.546c0.245,0,0.444,0,0.444,0c0.103,0,0.195,0.011,0.277,0.033c0.149,0.04,0.352,0.212,0.398,0.364
		c0.024,0.081,0.037,0.176,0.037,0.285c0,0.245-0.062,0.424-0.187,0.537c-0.125,0.113-0.3,0.169-0.524,0.169h-0.444
		c-0.245,0-0.444-0.244-0.444-0.546V42.715z"/>
	<path d="M36.548,41.35c-0.27,0-0.489,0.244-0.489,0.546v3.623c0,0.302,0.219,0.546,0.489,0.546s0.489-0.244,0.489-0.546v-3.623
		C37.037,41.595,36.818,41.35,36.548,41.35z"/>
	<path d="M43.736,46.065c0.268,0,0.484-0.244,0.484-0.546v-0.485c0-0.301,0.106-0.654,0.237-0.786
		c0.131-0.133,0.378-0.041,0.552,0.205l0.823,1.166c0.174,0.246,0.559,0.446,0.861,0.446h0.175c0.301,0,0.401-0.197,0.223-0.44
		l-1.389-1.895c-0.178-0.243-0.15-0.613,0.063-0.827l1.164-1.166c0.213-0.213,0.141-0.386-0.16-0.386h-0.181
		c-0.301,0-0.713,0.178-0.919,0.398l-1.075,1.146c-0.206,0.22-0.373,0.154-0.373-0.148v-0.851c0-0.301-0.217-0.546-0.484-0.546
		c-0.268,0-0.485,0.244-0.485,0.546v3.623C43.251,45.82,43.468,46.065,43.736,46.065z"/>
</g>
</svg>
