<?xml version="1.0" encoding="utf-8"?>
<!-- Generator: Adobe Illustrator 17.0.0, SVG Export Plug-In . SVG Version: 6.00 Build 0)  -->
<!DOCTYPE svg PUBLIC "-//W3C//DTD SVG 1.1//EN" "http://www.w3.org/Graphics/SVG/1.1/DTD/svg11.dtd">
<svg version="1.1" id="Layer_1" xmlns="http://www.w3.org/2000/svg" xmlns:xlink="http://www.w3.org/1999/xlink" x="0px" y="0px"
	 width="32px" height="32px" viewBox="0 0 32 32" enable-background="new 0 0 32 32" xml:space="preserve">
<path d="M24.864,14.394l-3.771-0.903V0.114H3.96v21.975l-0.001,0.13c0.209,2.017,1.687,5.95,5.796,6.491l11.085,2.705
	c0.554,0.138,1.12,0.208,1.687,0.208c3.226,0,6.026-2.197,6.821-5.38l0.729-3.328C31.011,19.169,28.684,15.348,24.864,14.394z
	 M27.132,19.027l-7.23,5.817v-4.629l4.197-3.414l0.154,0.037C25.507,17.15,26.525,17.973,27.132,19.027z M18.652,28.294l-6.683-1.63
	l6.683-5.434V28.294z M18.539,6.946L6.455,11.827V5.957h12.084V6.946z M18.539,8.302v4.655l-12.084,2.24v-2.012L18.539,8.302z
	 M6.455,22.011v-5.536l11.739-2.173L6.488,22.206C6.473,22.122,6.455,22.055,6.455,22.011z M18.539,2.667v2.043H6.455V2.667H18.539z
	 M6.854,23.478l11.81-7.975l3.896,0.93L10.436,26.29l-0.16-0.039l-0.146-0.027C8.24,25.997,7.306,24.61,6.854,23.478z
	 M27.621,22.343l-0.723,3.328c-0.594,2.377-3.026,3.909-5.459,3.303l-1.538-0.375v-2.139l7.721-6.212
	C27.785,20.92,27.798,21.636,27.621,22.343z"/>
</svg>
