<?xml version="1.0" encoding="utf-8"?>
<!-- Generator: Adobe Illustrator 16.0.0, SVG Export Plug-In . SVG Version: 6.00 Build 0)  -->
<!DOCTYPE svg PUBLIC "-//W3C//DTD SVG 1.1//EN" "http://www.w3.org/Graphics/SVG/1.1/DTD/svg11.dtd">
<svg version="1.1" id="Layer_1" xmlns="http://www.w3.org/2000/svg" xmlns:xlink="http://www.w3.org/1999/xlink" x="0px" y="0px"
	 width="100px" height="100px" viewBox="0 0 100 100" enable-background="new 0 0 100 100" xml:space="preserve">
<g>
	<path d="M35.643,4.946L42.978,1.5C40.046,1.558,37.429,2.88,35.643,4.946z"/>
	<path d="M48.02,2.75l-8.004,3.762l9.695-2.567C49.189,3.491,48.626,3.089,48.02,2.75z"/>
	<path d="M38.314,97.75c2.523,0,4.568-2.047,4.568-4.571v-1.506l-9.133,1.572C33.786,95.738,35.813,97.75,38.314,97.75z"/>
	<polygon points="42.882,77.953 33.742,81.793 33.742,82.919 42.882,81.635 	"/>
	<polygon points="33.743,91.44 42.883,89.867 42.883,88.701 33.742,87.563 	"/>
	<polygon points="33.742,84.725 33.742,85.758 42.883,86.895 42.882,83.44 	"/>
	<circle cx="68.759" cy="11.226" r="9.904"/>
	<path d="M70.365,48.306c-1.553,0.507-3.452-0.002-3.452-0.002c-0.274-0.039-0.546-0.098-0.817-0.18
		c-2.799-0.858-5.27-1.904-7.489-3.174c-0.843,3.649-3.638,15.859-4.934,22.789v5.815c1.033,0.959,3.182,1.772,5.892,2.349
		l0.001,17.088c0,2.51,2.034,4.545,4.544,4.544c2.51,0,4.544-2.034,4.544-4.544l-0.001-16.17c0.216,0.001,0.431-0.004,0.646-0.005
		l-0.001,16.175c0,2.51,2.034,4.544,4.544,4.544s4.544-2.034,4.544-4.543l0.001-17.365c2.706-0.824,4.765-2.104,5.522-3.956
		c0.019-4.062-2.178-14.792-3.738-21.651C80.17,50.02,72.082,48.762,70.365,48.306z"/>
	<path d="M71.176,21.682c-0.009-0.002-0.018-0.002-0.025-0.004l-2.393,2.511l-2.467-2.483c-1.344,0.329-6.041,2.482-9.817,6.629
		c0.193,0.249,0.386,0.498,0.577,0.746c2.521,3.276,4.692,6.097,10.584,8.238l1.066,0.449c0.923-0.6,2.008-0.957,3.164-0.957
		c0.509,0,1.018,0.066,1.511,0.198c0.68,0.182,4.218,0.914,5.52,1.178v-1.558c1.222,1.365,2.389,3.053,2.852,4.006l-8.886-1.693
		c-0.333-0.089-0.667-0.131-0.996-0.131c-0.257,0-0.509,0.034-0.756,0.084c0.771,0.649,1.346,1.488,1.656,2.445l0.037,0.137
		l0.165,0.763c0.112,0.801,0.055,1.582-0.173,2.323c-0.228,0.748-0.621,1.428-1.146,2.007c1.9,0.47,5.362,1.218,8.414,1.433v0.001
		c0.002,0,0.004,0,0.006-0.001c0.029,0.002,0.059,0.005,0.087,0.007L80.154,48c0.057,0.002,0.112,0.003,0.17,0.003
		c3.362,0,7.467-0.8,8.843-4.683C91.891,35.631,78.662,24.083,71.176,21.682z"/>
	<path d="M30.791,10.803c-0.098,0.212-0.182,0.416-0.259,0.602c-0.408,0.991-0.546,1.325-1.916,1.576l0.532,2.9
		c2.95-0.541,3.621-2.167,4.109-3.354c0.011-0.025,0.019-0.042,0.026-0.063c0.512,5.023,4.734,8.947,9.892,8.947
		c5.502,0,9.96-4.46,9.96-9.962c0-1.703-0.431-3.307-1.182-4.709l-17.512,4.636l-0.2-2.151l5.773-2.713l-5.881,1.557h-0.002
		l-0.35,0.093c-0.004,0.011-0.006,0.021-0.01,0.03c-0.393,0.116-1.002,0.251-1.321,0.136c-0.918-0.337-1.967-1.484-2.288-2.507
		l-2.811,0.884C27.877,8.367,29.263,9.992,30.791,10.803z"/>
	<path d="M45.657,21.988l-2.481,2.498l-2.407-2.525c-0.006,0.003-0.014,0.003-0.023,0.005c-1.27,0.304-4.042,1.748-4.237,1.869
		c-0.02,0.012-0.038,0.025-0.058,0.037l5.252,13.438l5.208-14.922C46.497,22.234,46.08,22.092,45.657,21.988z"/>
	<path d="M44.567,43.373c0-1.736-1.266-3.173-2.921-3.46l-0.001-0.009l-6.053-15.479c-0.08,0.052-0.161,0.103-0.241,0.156
		l-2.403,15.293c-0.698,0.012-0.873-0.007-0.873-0.007L34.25,25.34c-1.299,0.928-2.551,1.949-3.701,3.131
		c-3.27,3.714-5.554,6.643-7.211,11.996c-0.419,1.353-0.48,3.265,0.398,4.376c0.935,1.181,1.833,1.759,8.773,2.099
		c0-0.017,8.535-0.049,8.535-0.049C42.988,46.893,44.567,45.314,44.567,43.373z"/>
	<path d="M70.319,39.972l-2.947-1.244c-6.285-2.284-8.708-5.417-11.252-8.722c-1.76-2.285-4.308-5.412-8.231-7.188l-2.874,18.26
		c0,0,0.5,1.188,0.472,2.295c-0.063,2.448-1.992,4.441-4.441,4.441h-8.064c0,0,0,2.246,0,4.82s0.758,3.766,0.758,3.766l0.002,23.589
		l9.141-3.841L42.881,61.4c0.18,0.009,0.362,0.022,0.544,0.022c0.036,0,0.07-0.004,0.107-0.004V93.18c0,2.523,2.045,4.57,4.568,4.57
		s4.571-2.047,4.571-4.57V56.377c0,0,0.7-1.644,0.7-3.743c0-1.967,0-13.856,0-13.856c2.778,2.916,6.688,5.852,13.409,7.911
		c2.344,0.583,3.538-0.682,3.538-0.682c0.591-0.47,1.056-1.108,1.292-1.884C72.25,41.672,71.188,40.453,70.319,39.972z"/>
	<path d="M46.102,27.738l-3.96,11.346c0.763,0.196,1.451,0.579,1.999,1.113L46.102,27.738z"/>
</g>
</svg>
