<?xml version="1.0" encoding="utf-8"?>
<!-- Generator: Adobe Illustrator 16.0.4, SVG Export Plug-In . SVG Version: 6.00 Build 0)  -->
<!DOCTYPE svg PUBLIC "-//W3C//DTD SVG 1.1//EN" "http://www.w3.org/Graphics/SVG/1.1/DTD/svg11.dtd">
<svg version="1.1" id="Capa_1" xmlns="http://www.w3.org/2000/svg" xmlns:xlink="http://www.w3.org/1999/xlink" x="0px" y="0px"
	 width="64px" height="64px" viewBox="0 0 64 64" enable-background="new 0 0 64 64" xml:space="preserve">
<g>
	<path d="M61.541,43.076H3.767c-0.393,0-0.712,0.318-0.712,0.712v3.119c0,0.395,0.319,0.712,0.712,0.712H26.9v1.275H10.767
		c-0.393,0-0.712,0.319-0.712,0.711v4.365c0,0.394,0.318,0.711,0.712,0.711h43.774c0.395,0,0.712-0.317,0.712-0.711v-4.365
		c0-0.392-0.317-0.711-0.712-0.711H38.407v-1.275h23.134c0.393,0,0.712-0.317,0.712-0.712v-3.119
		C62.253,43.396,61.934,43.076,61.541,43.076z"/>
	<circle cx="50.289" cy="19.943" r="4.775"/>
	<path d="M4.478,41.831h38.555c0.004,0,14.408-13.872,17.328-16.685c0.283-0.272,0.293-0.724,0.02-1.007l-1.521-1.581
		c-0.272-0.283-0.725-0.292-1.006-0.019l-14.82,14.271v-1.031c0-0.295-0.182-0.379-0.406-0.188l-1.941,1.649
		c-0.326,0.278-0.744,0.432-1.176,0.432c-0.535,0-1.039-0.231-1.385-0.641l-4.637-5.458c-0.648-0.764-0.555-1.911,0.207-2.561
		c0.328-0.277,0.746-0.432,1.177-0.432c0.534,0,1.039,0.233,1.386,0.641l3.115,3.667c0.189,0.226,0.527,0.254,0.752,0.062
		l2.502-2.126c0.225-0.191,0.406-0.584,0.406-0.879v-4.131c0-0.294-0.227-0.459-0.508-0.366L12.4,35.316
		c-0.279,0.094-0.507,0.406-0.507,0.701v2.194H4.478c-0.393,0-0.712,0.317-0.712,0.712v2.194
		C3.767,41.512,4.085,41.831,4.478,41.831z"/>
	<path d="M39.389,33.869l-3.604-4.244c-0.427-0.502-1.181-0.562-1.683-0.138c-0.502,0.427-0.562,1.182-0.139,1.683l4.637,5.458
		c0.426,0.502,1.182,0.563,1.684,0.138l3.484-2.959v0.84c0,0.295,0.17,0.363,0.377,0.154l8.381-8.437
		c0.209-0.209,0.154-0.469-0.137-0.514c-0.438-0.069-1.229-0.132-2.631-0.102c-1.841,0.039-2.953-0.65-3.48-1.104
		c-0.226-0.191-0.562-0.229-0.791-0.045l-1.303,1.051c-0.229,0.184-0.416,0.573-0.416,0.868v4.153l-3.817,3.243
		C39.782,34.057,39.531,34.037,39.389,33.869z"/>
</g>
</svg>
