<?xml version="1.0" encoding="utf-8"?>
<!-- Generator: Adobe Illustrator 16.0.0, SVG Export Plug-In . SVG Version: 6.00 Build 0)  -->
<!DOCTYPE svg PUBLIC "-//W3C//DTD SVG 1.1//EN" "http://www.w3.org/Graphics/SVG/1.1/DTD/svg11.dtd">
<svg version="1.1" id="Layer_1" xmlns="http://www.w3.org/2000/svg" xmlns:xlink="http://www.w3.org/1999/xlink" x="0px" y="0px"
	 width="100px" height="100px" viewBox="0 0 100 100" enable-background="new 0 0 100 100" xml:space="preserve">
<g>
	<path d="M52.931,46.822c-10.848,2.372-16.271-2.68-16.552-2.95c-1.37-1.367-3.587-1.379-4.97-0.021
		c-1.393,1.366-1.414,3.604-0.048,4.996c0.271,0.276,5.706,5.671,16.019,5.671c2.144,0,4.499-0.232,7.061-0.793
		c1.906-0.417,3.112-2.301,2.695-4.206C56.72,47.612,54.837,46.407,52.931,46.822z"/>
	<circle cx="20.89" cy="37.614" r="7.948"/>
	<path d="M94.381,70.162L79.496,64.15c-0.516-0.207-1.067-0.315-1.621-0.315h-3.793v-0.824c0-0.421-0.11-0.814-0.291-1.165
		l14.032,3.829c0.371,0.101,0.744,0.15,1.111,0.15c1.85,0,3.545-1.23,4.056-3.101c0.612-2.242-0.709-4.556-2.951-5.167
		l-18.485-5.046c-0.367-0.1-0.727-0.149-1.129-0.148l-12.601,0.063c-0.587,1.386-1.813,2.479-3.391,2.825
		c-2.079,0.455-4.194,0.686-6.292,0.686c-10.229,0-17.198-5.469-17.489-5.702c-1.002-0.799-1.634-1.941-1.777-3.215
		c-0.145-1.275,0.216-2.53,1.017-3.534c0.916-1.15,2.286-1.809,3.757-1.809c1.074,0,2.131,0.367,2.976,1.034
		c0.142,0.11,2.877,2.199,7.226,3.151l-7.761-5.004c-2.736-1.766-6.12-0.547-8.106,1.332c0,0-0.664,0.567-1.13,1.326
		c-0.446,0.726-0.794,1.631-0.794,1.631l-0.011,0.021c-0.899,2.602-0.61,6.175,2.136,7.947l14.744,9.508
		c0.175,0.113,0.354,0.214,0.532,0.304c0,0.028-0.008,0.055-0.008,0.083v0.824H39.26L19.646,50.223
		c0.097-0.107,0.19-0.22,0.27-0.346c0.72-1.151,0.371-2.668-0.78-3.389l-6.677-4.182c-1.121-0.703-2.584-0.384-3.327,0.698
		c-1.888-0.923-4.214-0.372-5.449,1.407c-1.363,1.964-0.876,4.662,1.089,6.025l30.665,21.285c0.724,0.504,1.586,0.773,2.468,0.773
		h5.717c0.364,0.981,1.302,1.683,2.407,1.683h5.439V94.5h-2.649c-1.146,0-2.074,0.929-2.074,2.075c0,1.147,0.929,2.076,2.074,2.076
		h20.133c1.146,0,2.075-0.929,2.075-2.076c0-1.146-0.93-2.075-2.075-2.075h-2.885V74.177h5.439c1.106,0,2.043-0.702,2.408-1.683
		h3.119l14.105,5.697c0.531,0.214,1.08,0.316,1.619,0.316c1.715,0,3.336-1.024,4.016-2.709
		C97.669,73.58,96.598,71.057,94.381,70.162z"/>
	<path d="M35.065,35.828c0,1.86,1.508,3.367,3.366,3.367c7.871,0,12.233-2.105,15.077-4.597v5.456
		c-0.254,1.096-0.72,3.132-1.27,5.574c0.211-0.042,0.419-0.076,0.63-0.122c0.342-0.075,0.688-0.112,1.033-0.112
		c2.246,0,4.227,1.594,4.708,3.791c0.14,0.642,0.144,1.283,0.032,1.893l11.99-0.06c0.527,0,0.989,0.062,1.474,0.193l1.756,0.48
		c-0.998-4.874-2.133-9.672-2.601-11.613v-6.485c1.288,2.681,2.091,6.522,2.009,12.41c-0.026,1.858,1.46,3.387,3.319,3.413
		c0.017,0,0.032,0,0.048,0c1.837,0,3.34-1.476,3.364-3.32c0.224-16.004-8.189-24.596-15.5-26.364
		c-0.008-0.002-0.016-0.002-0.021-0.004l-2.096,2.199l-2.16-2.175c-1.202,0.295-5.662,2.28-8.462,6.637
		c-2.409,3.259-4.49,6.072-13.331,6.072C36.573,32.461,35.065,33.969,35.065,35.828z"/>
	<path d="M62.512,19.071c4.488,0,8.128-3.638,8.128-8.127c0-1.877-0.651-3.592-1.724-4.965h-2.628V4.746h1.444
		c-0.506-0.425-1.055-0.799-1.654-1.092c-0.616-1.356-1.979-2.305-3.564-2.305c-1.582,0-2.941,0.947-3.561,2.302
		c-0.601,0.293-1.152,0.669-1.659,1.095h1.65v1.233h-2.835c-1.068,1.373-1.722,3.088-1.722,4.965
		C54.388,15.433,58.025,19.071,62.512,19.071z M62.514,3.063c1.219,0,2.208,0.99,2.208,2.208s-0.989,2.208-2.208,2.208
		c-1.216,0-2.206-0.99-2.206-2.208S61.298,3.063,62.514,3.063z"/>
	<path d="M39.618,24.325h-2.203V5.75H8.766v18.575H6.764v4.269h32.854V24.325z M35.019,8.146v8.25l-7.829,0.007
		c-0.182,0-0.342,0.12-0.393,0.295l-1.147,3.895l-1.147-3.895c-0.051-0.175-0.212-0.295-0.395-0.295h-1.553l-2.27-6.779
		c-0.112-0.335-0.668-0.335-0.78,0l-2.27,6.779h-6.072V8.146H35.019z M11.163,23.525v-6.301h6.368c0.177,0,0.334-0.113,0.391-0.28
		l1.973-5.896l1.974,5.896c0.056,0.167,0.214,0.28,0.39,0.28h1.543l1.454,4.938c0.052,0.175,0.212,0.295,0.395,0.295
		s0.343-0.12,0.395-0.295l1.454-4.939l7.521-0.006v6.307H11.163z"/>
</g>
</svg>
