<?xml version="1.0" encoding="utf-8"?>
<!-- Generator: Adobe Illustrator 16.0.0, SVG Export Plug-In . SVG Version: 6.00 Build 0)  -->
<!DOCTYPE svg PUBLIC "-//W3C//DTD SVG 1.1//EN" "http://www.w3.org/Graphics/SVG/1.1/DTD/svg11.dtd">
<svg version="1.1" id="Layer_1" xmlns="http://www.w3.org/2000/svg" xmlns:xlink="http://www.w3.org/1999/xlink" x="0px" y="0px"
	 width="100px" height="100px" viewBox="0 0 100 100" enable-background="new 0 0 100 100" xml:space="preserve">
<g>
	<path d="M97.279,13.373c1.164,0,2.113-0.947,2.113-2.111h-0.721c0,0.768-0.623,1.393-1.393,1.393h-7.431V9.793h-2.156v2.861h-5.394
		c-0.166-0.466-0.452-0.748-0.807-0.748c-0.354,0-0.643,0.282-0.807,0.748h-0.479c-0.767,0-1.392-0.625-1.392-1.393h-0.719
		c0,1.164,0.947,2.111,2.11,2.111h0.338c-0.006,0.093-0.015,0.187-0.015,0.285c0,0.134,0.009,0.262,0.022,0.384h-1.275
		c-0.892,0-1.614,0.726-1.614,1.617v7.776c0,0.893,0.723,1.616,1.614,1.616h0.479v2.206h0.171
		c-0.28,6.772-3.077,9.689-10.258,10.716c-1.083,0.161-2.466,0.137-3.931,0.115c-2.766-0.044-5.906-0.094-7.877,1.139
		c-1.679,1.048-2.185,2.602-2.673,4.104c-0.402,1.232-0.781,2.397-1.789,3.306c-0.545,0.507-1.159,0.847-1.824,1.085
		c-12.313-1.354-12.32-1.354-12.32-1.354v0.877c-8.062,1.543-12.11-2.202-12.323-2.408c-1.068-1.064-2.798-1.075-3.874-0.017
		c-1.088,1.065-1.103,2.811-0.038,3.896c0.211,0.216,4.449,4.422,12.491,4.422c1.166,0,2.418-0.095,3.744-0.297v1.245
		c-1.273,0.19-2.532,0.296-3.758,0.296c-8.139,0-12.466-4.157-12.933-4.631c-0.421-0.43-0.713-0.946-0.892-1.503
		c-0.019-0.052-0.031-0.105-0.047-0.16c-0.044-0.157-0.08-0.315-0.102-0.479c-0.006-0.041-0.022-0.079-0.026-0.121
		c-0.009-0.07,0-0.141-0.003-0.21c-0.004-0.078-0.022-0.152-0.021-0.231c0-0.046,0.013-0.091,0.016-0.137
		c0.006-0.125,0.021-0.246,0.039-0.368c0.019-0.131,0.038-0.259,0.07-0.386c0.019-0.07,0.043-0.14,0.065-0.21
		c0.186-0.591,0.497-1.137,0.951-1.582c0.717-0.702,1.663-1.09,2.668-1.09c1.015,0,1.971,0.396,2.689,1.113
		c0.088,0.084,2.523,2.379,7.505,2.379c0.122,0,0.248-0.008,0.372-0.012c-4.335-1.47-8.893-3.931-8.893-3.931
		c-2.07-1.336-4.631-0.414-6.135,1.009c0,0-0.502,0.429-0.855,1.003c-0.336,0.549-0.601,1.235-0.601,1.235l-0.008,0.016
		c-0.5,1.445-0.512,3.287,0.34,4.695c0,0,0.576,0.85,1.275,1.319c0,0,9.863,6.797,16.078,7.005c0.755,0.025,1.485,0.034,2.203,0.036
		v1.237h-5.333L14.247,49.908c0.275-0.103,0.519-0.295,0.664-0.575c0.312-0.603,0.078-1.344-0.522-1.656l-6.768-3.516
		c-0.603-0.313-1.343-0.078-1.656,0.524c-0.126,0.244-0.144,0.508-0.103,0.76l-0.874-0.466c-1.493-0.749-3.311-0.146-4.06,1.347
		s-0.146,3.31,1.347,4.059l26.999,14.432H9.586c-1.002,0-1.815,0.813-1.815,1.814v1.008c0,1.002,0.813,1.814,1.815,1.814h6.38
		c-0.015,0.133-0.024,0.268-0.024,0.403v15.5c-0.625,0.5-1.033,1.26-1.033,2.122c0,1.507,1.222,2.729,2.729,2.729
		c1.508,0,2.729-1.222,2.729-2.729c0-0.751-0.305-1.431-0.795-1.924v-3.401h54.832v3.179c-0.641,0.499-1.061,1.271-1.061,2.146
		c0,1.507,1.22,2.729,2.728,2.729c1.507,0,2.729-1.222,2.729-2.729c0-0.734-0.294-1.398-0.766-1.889V69.856
		c0-1.928-1.511-3.504-3.411-3.618c1.162-0.421,1.999-1.525,1.999-2.833c0-1.616-1.271-2.925-2.865-3.009
		c0.691-3.799-0.308-10.269-14.334-11.811c-2.294-0.252-4.313-0.475-6.114-0.673c0.253-0.17,0.499-0.357,0.732-0.576
		c1.191-1.072,1.628-2.413,2.05-3.711c0.458-1.403,0.89-2.729,2.273-3.595c1.734-1.084,4.727-1.033,7.36-0.994
		c1.505,0.023,2.925,0.047,4.081-0.124c7.665-1.096,10.741-4.373,11.031-11.655h0.148v-2.206h1.046v0.974h1.227v-0.974h0.448
		c0.893,0,1.616-0.724,1.616-1.616v-7.776c0-0.892-0.724-1.617-1.616-1.617h-1.272c0.014-0.122,0.022-0.25,0.022-0.384
		c0-0.099-0.009-0.192-0.017-0.285h5.254l-0.01,69.315h-1.291c-2.291,0-4.249,1.429-5.048,3.438
		c-0.856,0.261-1.484,1.048-1.484,1.99c0,1.154,0.936,2.09,2.088,2.09c1.155,0,2.091-0.936,2.091-2.09
		c0-0.555-0.22-1.055-0.569-1.429c0.531-1.084,1.635-1.838,2.923-1.838h4.866c1.287,0,2.392,0.754,2.923,1.838
		c-0.351,0.374-0.569,0.874-0.569,1.429c0,1.154,0.935,2.09,2.089,2.09s2.089-0.936,2.089-2.09c0-0.942-0.627-1.729-1.484-1.99
		c-0.798-2.01-2.757-3.438-5.047-3.438h-1.413l0.004-69.315H97.279z M74.403,69.856v9.877H19.571v-9.877H74.403z M81.271,13.373
		h0.442c0.007,0.091,0.021,0.178,0.021,0.285c0,0.142-0.011,0.27-0.027,0.384h-0.43c-0.016-0.114-0.027-0.242-0.027-0.384
		C81.249,13.551,81.263,13.464,81.271,13.373z M83.167,19.849c0,0.938-0.761,1.7-1.699,1.7s-1.699-0.762-1.699-1.7
		c0-0.938,1.699-3.598,1.699-3.598S83.167,18.911,83.167,19.849z"/>
	<circle cx="14.942" cy="40.637" r="6.014"/>
</g>
</svg>
