<?xml version="1.0" encoding="utf-8"?>
<!-- Generator: Adobe Illustrator 16.0.0, SVG Export Plug-In . SVG Version: 6.00 Build 0)  -->
<!DOCTYPE svg PUBLIC "-//W3C//DTD SVG 1.1//EN" "http://www.w3.org/Graphics/SVG/1.1/DTD/svg11.dtd">
<svg version="1.1" id="Layer_1" xmlns="http://www.w3.org/2000/svg" xmlns:xlink="http://www.w3.org/1999/xlink" x="0px" y="0px"
	 width="100px" height="100px" viewBox="0 0 100 100" enable-background="new 0 0 100 100" xml:space="preserve">
<g>
	<path d="M13.496,58.076h0.263v7.399h6.543l19.442,7.658l-0.001-2.1l-14.111-5.559h14.111l-0.002-2.101H15.86v-5.299h24.362V53.45
		c-0.46,0.166-1.696,0.279-2.204,0.328c-0.216,0.022-0.415,0.032-0.612,0.032c-5.24,0-5.739-2.358-6.05-5.481
		c-0.024-0.235-0.04-0.461-0.06-0.691H13.496c-1.74,0-3.151,1.41-3.151,3.151v4.136C10.345,56.666,11.756,58.076,13.496,58.076z"/>
	<path d="M86.504,47.638H70.092c-0.012,0.129-0.014,0.246-0.027,0.377c-0.317,3.186-1.574,5.93-6.397,5.45
		c-0.437-0.044-1.727-0.132-2.136-0.263l-0.01,4.874h22.619v5.299h-22.21l-0.001,2.101h12.438l-12.438,4.9l-0.001,2.099l17.77-6.999
		h6.543v-7.399h0.263c1.741,0,3.151-1.41,3.151-3.151v-4.136C89.655,49.048,88.245,47.638,86.504,47.638z"/>
	<path d="M86.766,92.696v-1.146h1.644V89.45h-1.912l-25.321-9.975c-0.313,0.604-0.711,1.153-1.184,1.634l21.174,8.341H18.834
		l22.41-8.827c-0.414-0.513-0.754-1.086-1.006-1.704L13.502,89.45h-1.911v2.101h0.593v1.146c-1.088,0.571-1.839,1.699-1.839,3.013
		c0,1.885,1.528,3.414,3.414,3.414s3.414-1.529,3.414-3.414c0-1.314-0.751-2.441-1.839-3.013v-1.146h68.281v1.146
		c-1.088,0.571-1.838,1.699-1.838,3.013c0,1.885,1.527,3.414,3.414,3.414c1.885,0,3.414-1.529,3.414-3.414
		C88.605,94.395,87.854,93.268,86.766,92.696z"/>
	<path d="M55.303,48.134c-2.366,0-4.286,1.918-4.286,4.286l-0.001,24.519c0,2.367,1.92,4.286,4.287,4.286
		c2.366,0,4.286-1.919,4.286-4.286l0.002-24.519C59.591,50.052,57.673,48.134,55.303,48.134z"/>
	<path d="M46.118,48.134c-2.367,0-4.286,1.918-4.286,4.287l0.002,24.518c0,2.367,1.92,4.287,4.288,4.286
		c2.366,0,4.285-1.919,4.285-4.287L50.406,52.42C50.406,50.052,48.485,48.133,46.118,48.134z"/>
	<circle cx="50.666" cy="10.22" r="9.343"/>
	<path d="M36.63,52.303c0.119,0,0.242-0.007,0.366-0.019c1.993-0.2,3.445-1.979,3.245-3.972c-0.546-5.472-0.146-9.292,0.862-12.135
		v12.91c0,0.223,0.021,0.438,0.039,0.653c0.898-1.9,2.817-3.226,5.054-3.226c1.499,0,2.905,0.583,3.963,1.64
		c0.238,0.239,0.441,0.498,0.631,0.767c1.015-1.451,2.692-2.406,4.593-2.406c2.069,0,3.861,1.141,4.832,2.814
		c0.002-0.081,0.014-0.159,0.014-0.242V35.953c1.067,2.833,1.503,6.625,0.963,12.03c-0.2,1.993,1.255,3.771,3.248,3.971
		c0.122,0.012,0.244,0.018,0.364,0.018c1.841,0,3.418-1.396,3.605-3.267c1.634-16.317-6.24-26.176-15.418-28.36l-2.325,2.344
		l-2.257-2.369c-0.008,0.002-0.017,0.002-0.023,0.004c-3.124,1.002-17.704,6.102-15.36,28.713
		C33.211,50.906,34.788,52.303,36.63,52.303z"/>
</g>
</svg>
