<?xml version="1.0" encoding="utf-8"?>
<!-- Generator: Adobe Illustrator 17.0.0, SVG Export Plug-In . SVG Version: 6.00 Build 0)  -->
<!DOCTYPE svg PUBLIC "-//W3C//DTD SVG 1.1//EN" "http://www.w3.org/Graphics/SVG/1.1/DTD/svg11.dtd">
<svg version="1.1" id="Layer_1" xmlns="http://www.w3.org/2000/svg" xmlns:xlink="http://www.w3.org/1999/xlink" x="0px" y="0px"
	 width="32px" height="32px" viewBox="0 0 32 32" enable-background="new 0 0 32 32" xml:space="preserve">
<path d="M31.219,13.098c0.642-0.413,0.828-1.268,0.415-1.911L26.92,3.857c-0.198-0.309-0.511-0.526-0.869-0.604
	c-0.358-0.078-0.733-0.01-1.042,0.188l-3.29,2.117V1.657c0-0.764-0.619-1.382-1.383-1.382h-8.673c-0.764,0-1.382,0.619-1.382,1.382
	v3.902L6.988,3.441c-0.642-0.413-1.497-0.227-1.91,0.415l-4.716,7.331c-0.198,0.308-0.266,0.683-0.187,1.042
	c0.077,0.358,0.295,0.671,0.603,0.869l4.609,2.964l-4.608,2.962c-0.309,0.198-0.526,0.511-0.604,0.87
	c-0.078,0.358-0.011,0.733,0.187,1.042l4.716,7.331c0.198,0.309,0.511,0.526,0.869,0.604s0.733,0.01,1.041-0.188l3.293-2.117v3.901
	c0,0.764,0.618,1.383,1.382,1.383h8.673c0.764,0,1.383-0.619,1.383-1.383v-3.901l3.29,2.117c0.309,0.198,0.684,0.266,1.042,0.188
	c0.358-0.078,0.671-0.295,0.869-0.604l4.714-7.332c0.413-0.642,0.227-1.497-0.415-1.911l-4.608-2.962L31.219,13.098z M13.977,25.624
	c-0.483,0-0.941-0.246-1.207-0.659c-0.055-0.085-0.101-0.176-0.139-0.276c-0.275-0.743,0.104-1.569,0.846-1.845
	c0.394-0.146,0.756-0.288,1.093-0.425v-5.367c-1.855-1.088-3.468-2.197-3.827-3.817c-0.565-2.529,0.263-3.998,1.056-4.783
	c0.425-0.422,0.93-0.737,1.476-0.969c0.415-0.175,0.85-0.304,1.296-0.396V6.015c0-0.792,0.637-1.435,1.431-1.435
	c0.793,0,1.428,0.642,1.428,1.435v0.906c0.749,0.043,1.396,0.14,1.831,0.219c0.263,0.048,0.447,0.088,0.533,0.108
	c0.771,0.18,1.25,0.95,1.072,1.721c-0.148,0.636-0.694,1.074-1.312,1.111c-0.5-0.102-1.283-0.238-2.124-0.293
	c-1.006-0.068-2.093-0.019-2.858,0.343c0,0-0.601,0.318-0.793,0.508c-0.404,0.401-0.653,1.087-0.233,1.971
	c0.121,0.255,0.478,0.649,1.026,1.039v-2.968l2.858,0.574v9.773c1.149-0.712,1.233-1.104,1.235-1.109
	c-0.016-0.092-1.056-4.425-1.056-4.425c2.128,1.246,4.086,2.601,3.915,4.663c-0.115,1.402-1.191,2.612-3.479,3.825l-0.615,0.27
	l-2.858,1.258v-0.011c-0.03,0.012-0.062,0.023-0.093,0.035C14.31,25.595,14.144,25.624,13.977,25.624z M17.428,26.109
	c0,0.792-0.635,1.435-1.428,1.435c-0.794,0-1.431-0.642-1.431-1.435v-0.598l2.858-0.557V26.109z"/>
</svg>
