<?xml version="1.0" encoding="utf-8"?>
<!-- Generator: Adobe Illustrator 16.0.0, SVG Export Plug-In . SVG Version: 6.00 Build 0)  -->
<!DOCTYPE svg PUBLIC "-//W3C//DTD SVG 1.1//EN" "http://www.w3.org/Graphics/SVG/1.1/DTD/svg11.dtd">
<svg version="1.1" id="Layer_1" xmlns="http://www.w3.org/2000/svg" xmlns:xlink="http://www.w3.org/1999/xlink" x="0px" y="0px"
	 width="96px" height="96px" viewBox="0 0 96 96" enable-background="new 0 0 96 96" xml:space="preserve">
<g>
	<path d="M47.191,60.995c0-1.642-1.081-2.486-3.215-2.511c-0.663,0-1.185,0.043-1.539,0.096v4.975h1.614
		C45.989,63.555,47.192,62.574,47.191,60.995z"/>
	<path d="M26.939,80.902v8.38h41.307v-8.38c14.709-5.732,24.785-17.385,24.785-30.839H2.155
		C2.155,63.518,12.231,75.17,26.939,80.902z M38.452,69.634h0.801V59.462h-0.801v-3.678h5.382c2.392,0,3.959,0.453,5.083,1.471
		c0.939,0.829,1.46,2.073,1.46,3.498c0,1.852-0.911,3.384-2.486,4.256c1.027,0.882,2.331,3.171,2.331,3.171l0.766,1.207l2.562-3.967
		l3.999-0.002v2.605h-2.203l-2.543,3.606l2.705,3.979h2.041v1.078v1.528h-4.001l-1.878-2.884c-0.295-0.434-0.562-0.86-0.827-1.302
		c-0.163,0.27-0.331,0.537-0.504,0.812l-0.301,0.48l-1.857,2.894h-3.852v-2.606h1.99l2.726-3.913l-3.359-4.854
		c-0.456-0.441-0.859-0.575-1.822-0.611h-1.425V73.3l-3.985,0.013V69.634z"/>
	<polygon points="86.707,25.571 74.101,16.826 51.127,45.469 74.861,45.469 	"/>
	<polygon points="93.845,15.801 80.754,6.718 76.772,14.012 88.408,22.084 	"/>
</g>
</svg>
