<?xml version="1.0" encoding="utf-8"?>
<!-- Generator: Adobe Illustrator 16.0.0, SVG Export Plug-In . SVG Version: 6.00 Build 0)  -->
<!DOCTYPE svg PUBLIC "-//W3C//DTD SVG 1.1//EN" "http://www.w3.org/Graphics/SVG/1.1/DTD/svg11.dtd">
<svg version="1.1" id="Layer_1" xmlns="http://www.w3.org/2000/svg" xmlns:xlink="http://www.w3.org/1999/xlink" x="0px" y="0px"
	 width="96px" height="96px" viewBox="0 0 96 96" enable-background="new 0 0 96 96" xml:space="preserve">
<g>
	<path d="M20.468,41.228c2.209,0,4.005-1.797,4.005-4.005c0-2.209-1.796-4.005-4.005-4.005c-2.208,0-4.005,1.796-4.005,4.005
		C16.463,39.431,18.26,41.228,20.468,41.228z"/>
	<path d="M54.555,94.621c-0.149-0.501-0.315-0.981-0.478-1.428c-0.187-0.511-0.454-0.993-0.712-1.459
		c-0.085-0.151-2.566-8.455-6.104-10.601c-4.136-2.509-7.139-5.025-7.139-5.025c-0.006-0.002-12.372-11.775-15.306-17.457
		c-3.657-7.452-10.103-12.372-10.137-12.485c-0.487-0.32-1.163-1.265-1.18-1.791c-0.03-0.88,0.626-0.509,1.344-1.281
		c0.708-0.763,1.696-1.863,2.881-1.854c0,0,2.887-0.091,4.917,0.826c0.848,0.383,1.69,0.761,2.475,1.201
		c0,0,3.649,1.889,5.764,4.608c0.35,0.449,0.729,0.884,1.07,1.325c0.14,0.184,0.28,0.367,0.424,0.549
		c0.649,0.807,5.432,5.803,5.602,6.017c0.42,0.521,2.569,2.287,4.712,2.328c7.649,0.148,8.119-4.47,7.67-5.592
		c-0.063-0.157-1.859-4.537-4.218-6.841c-3.421-3.344-8.231-7.519-12.162-8.646c-1.643-0.471-3.034-1.003-4.209-1.796
		c-0.646-0.437-0.766-0.527-1.785-0.554c-3.584-0.092-9.433-2.64-9.433-2.64c-0.946-0.349-1.866-1.595-1.982-1.895
		c-0.033-0.083-0.066-0.167-0.103-0.248c-0.224-0.499-0.257-1.061-0.096-1.58c0.052-0.167,0.098-0.346,0.095-0.535
		c-0.003-0.002-0.007-0.004-0.011-0.006c-0.142-0.08-0.38-0.215-0.329-0.548c0.034-0.231,0.191-0.406,0.402-0.445
		c0.282-0.052,0.563-0.117,0.841-0.183c0.556-0.13,1.127-0.263,1.721-0.298c1.107-0.064,2.216,0.043,3.286,0.146
		c0.508,0.049,1.033,0.1,1.549,0.132c0.154,0.009,2.991-0.332,3.408-0.192c0,0,10.05,2.003,10.55,2.127
		c0.601,0.148,1.913,0.519,2,0.539c0.422,0.101,1.301,0.308,2.213,0.323l0.085,0.006c0.045-0.039-4.224-2.309-4.915-2.759
		c-0.274-0.18-0.558-0.348-0.844-0.515c-0.655-0.387-3.755-3.19-4.182-3.382c-0.559-0.251-1.155-0.453-1.732-0.648
		c-0.374-0.125-1.319-0.451-1.434-0.475c-0.273-0.056-2.255-0.967-2.255-0.967c-6.45-2.55-6.171-7.827-6.116-8.53
		c0.071-0.418,0.258-0.656,0.549-0.807c0-0.024-0.001-0.048-0.001-0.072c-0.008-0.169-0.014-0.345,0.012-0.521
		c0.071-0.509,0.406-0.752,0.549-0.752c0.061,0,8.797,2.898,8.961,3.062l8.514,3.705c2.943,1.107,5.918,2.976,6.177,3.132
		c0.656,0.394,1.299,0.776,1.97,1.109l0.055,0.027c0.013,0.007,0.027,0.015,0.041,0.021c-0.057-0.08-1.12-2.899-3.502-4.714
		c-0.006-0.003-0.013-0.005-0.019-0.007c-0.023-0.008-5.681-4.36-5.827-4.491c-1.82-1.616-2.598-3.528-2.695-3.815
		c-0.022-0.069-0.046-0.139-0.072-0.207c-0.66-1.768-0.516-3.179,0.306-4.456c0.085-0.133,1.143-1.277,2.349-1.182
		c0.018,0.001,0.039-0.001,0.056-0.002c0.021-0.091,0.067-0.159,0.105-0.214c0.012-0.018,0.023-0.035,0.034-0.053
		c0.147-0.263,0.292-0.479,0.543-0.479c0.149,0,0.297,0.08,0.502,0.219l15.847,13.142c1.085,0.896,2.112,1.972,3.052,3.197
		c0.374,0.489,0.845,0.902,1.299,1.301c0.165,0.144,0.328,0.288,0.496,0.442c-0.011-0.025-0.021-0.047-0.031-0.063
		c-0.193-0.298-0.414-0.588-0.626-0.869c-0.356-0.472-0.727-0.96-1.002-1.511c-1.743-3.811-2.243-7.165-1.563-8.396
		c0.48-0.777,1.277-1.676,2.748-2.088c0.329-0.092,0.664-0.02,0.932-0.213c0.136-0.098,0.26-0.146,0.384-0.146
		c0.261,0,0.418,0.211,0.526,0.394c0.411,0.697,0.751,1.438,1.079,2.156c0.231,0.504,0.469,1.025,0.73,1.523
		c0.166,0.32,0.281,0.664,0.391,0.997c0.179,0.537,0.347,1.046,0.724,1.456c0.045,0.049,4,5.249,5.823,9.018
		c0.294,0.61,1.308,2.719,1.497,3.137l0.088,0.194c3.001,5.251,3.15,9.571,3.174,9.661c0,0,2.58,36.891,4.104,45.688
		s3.024,13.487,3.14,14.002H54.555z"/>
</g>
</svg>
