<?xml version="1.0" encoding="utf-8"?>
<!-- Generator: Adobe Illustrator 16.0.4, SVG Export Plug-In . SVG Version: 6.00 Build 0)  -->
<!DOCTYPE svg PUBLIC "-//W3C//DTD SVG 1.1//EN" "http://www.w3.org/Graphics/SVG/1.1/DTD/svg11.dtd">
<svg version="1.1" id="Capa_1" xmlns="http://www.w3.org/2000/svg" xmlns:xlink="http://www.w3.org/1999/xlink" x="0px" y="0px"
	 width="64px" height="64px" viewBox="0 0 64 64" enable-background="new 0 0 64 64" xml:space="preserve">
<path d="M46.968,5.136H19.29c-1.657,0-3,1.343-3,3v47.333c0,1.657,1.343,3,3,3h27.678c1.657,0,3-1.343,3-3V8.136
	C49.968,6.478,48.625,5.136,46.968,5.136z M23.436,14.671c1.621-1.577,4.217-1.543,5.795,0.078c0.672,0.691,1.048,1.557,1.138,2.446
	L22.22,17.19C22.314,16.267,22.719,15.369,23.436,14.671z M30.319,18.365c-0.15,0.801-0.538,1.566-1.166,2.179
	c-1.621,1.577-4.217,1.543-5.795-0.078c-0.585-0.601-0.947-1.337-1.091-2.104L30.319,18.365z M23.484,27.769
	c1.621-1.577,4.217-1.543,5.795,0.078c0.672,0.69,1.048,1.557,1.138,2.446l-8.149-0.005C22.362,29.364,22.767,28.467,23.484,27.769z
	 M30.367,31.463c-0.15,0.801-0.538,1.566-1.166,2.18c-1.621,1.576-4.217,1.543-5.795-0.078c-0.585-0.603-0.947-1.337-1.091-2.104
	L30.367,31.463z M29.249,46.739c-1.621,1.577-4.217,1.543-5.795-0.078c-0.585-0.601-0.947-1.337-1.091-2.104l8.052,0.004
	C30.265,45.361,29.877,46.127,29.249,46.739z M22.315,43.386c0.095-0.924,0.499-1.821,1.217-2.52
	c1.621-1.577,4.217-1.543,5.795,0.077c0.672,0.69,1.048,1.558,1.138,2.447L22.315,43.386z M37.811,14.671
	c1.621-1.577,4.217-1.543,5.795,0.078c0.672,0.691,1.049,1.557,1.139,2.446l-8.148-0.005C36.689,16.267,37.094,15.369,37.811,14.671
	z M44.693,18.365c-0.149,0.801-0.537,1.566-1.166,2.179c-1.62,1.577-4.217,1.543-5.795-0.078c-0.584-0.601-0.946-1.337-1.09-2.104
	L44.693,18.365z M37.859,27.769c1.621-1.577,4.217-1.543,5.795,0.078c0.672,0.69,1.048,1.557,1.138,2.446l-8.149-0.005
	C36.736,29.364,37.143,28.467,37.859,27.769z M44.742,31.463c-0.15,0.801-0.538,1.566-1.166,2.18
	c-1.621,1.576-4.217,1.543-5.795-0.078c-0.586-0.603-0.947-1.337-1.092-2.104L44.742,31.463z M43.624,46.739
	c-1.621,1.577-4.217,1.543-5.795-0.078c-0.585-0.601-0.947-1.337-1.091-2.104l8.052,0.004
	C44.641,45.361,44.252,46.127,43.624,46.739z M36.689,43.386c0.096-0.924,0.5-1.821,1.218-2.52c1.62-1.577,4.217-1.543,5.795,0.077
	c0.672,0.69,1.048,1.558,1.138,2.447L36.689,43.386z"/>
</svg>
