<?xml version="1.0" encoding="utf-8"?>
<!-- Generator: Adobe Illustrator 16.0.4, SVG Export Plug-In . SVG Version: 6.00 Build 0)  -->
<!DOCTYPE svg PUBLIC "-//W3C//DTD SVG 1.1//EN" "http://www.w3.org/Graphics/SVG/1.1/DTD/svg11.dtd">
<svg version="1.1" id="Capa_1" xmlns="http://www.w3.org/2000/svg" xmlns:xlink="http://www.w3.org/1999/xlink" x="0px" y="0px"
	 width="64px" height="64px" viewBox="0 0 64 64" enable-background="new 0 0 64 64" xml:space="preserve">
<g>
	<path d="M24.544,30.252c0.264-2.549,1.633-4.768,3.62-6.169c0.405-0.286,0.553-0.823,0.297-1.248L19.269,7.548
		c-0.256-0.425-0.81-0.566-1.228-0.301C10.362,12.106,5.188,20.565,4.886,30.249c-0.016,0.495,0.388,0.897,0.883,0.897h17.833
		C24.098,31.146,24.493,30.744,24.544,30.252z"/>
	<path d="M37.688,39.523c-0.256-0.426-0.814-0.574-1.272-0.387c-1.011,0.416-2.119,0.646-3.28,0.646
		c-1.319,0-2.569-0.297-3.687-0.825c-0.448-0.213-0.992-0.079-1.242,0.351l-8.979,15.41c-0.249,0.43-0.106,0.981,0.328,1.221
		c4.03,2.213,8.658,3.472,13.582,3.472c4.854,0,9.42-1.224,13.41-3.38c0.438-0.235,0.576-0.783,0.321-1.208L37.688,39.523z"/>
	<path d="M48.08,7.154c-0.42-0.263-0.979-0.121-1.239,0.3l-9.409,15.185c-0.26,0.421-0.108,0.937,0.311,1.202
		c2.183,1.38,3.703,3.71,3.982,6.409c0.051,0.493,0.446,0.896,0.942,0.896H60.5c0.495,0,0.898-0.402,0.883-0.897
		C61.079,20.503,55.839,11.999,48.08,7.154z"/>
	<path d="M33.135,36.305c2.85,0,5.159-2.31,5.159-5.159s-2.31-5.159-5.159-5.159s-5.159,2.31-5.159,5.159
		S30.286,36.305,33.135,36.305z M33.135,28.323c1.561,0,2.824,1.265,2.824,2.824s-1.266,2.824-2.824,2.824
		c-1.56,0-2.824-1.265-2.824-2.824C30.311,29.587,31.576,28.323,33.135,28.323z"/>
</g>
</svg>
