<?xml version="1.0" encoding="utf-8"?>
<!-- Generator: Adobe Illustrator 16.0.4, SVG Export Plug-In . SVG Version: 6.00 Build 0)  -->
<!DOCTYPE svg PUBLIC "-//W3C//DTD SVG 1.1//EN" "http://www.w3.org/Graphics/SVG/1.1/DTD/svg11.dtd">
<svg version="1.1" id="Capa_1" xmlns="http://www.w3.org/2000/svg" xmlns:xlink="http://www.w3.org/1999/xlink" x="0px" y="0px"
	 width="64px" height="64px" viewBox="0 0 64 64" enable-background="new 0 0 64 64" xml:space="preserve">
<g>
	<circle cx="32.105" cy="11.496" r="5.077"/>
	<path d="M43.197,17.56H20.572c-0.827,0-1.5,0.673-1.5,1.5v15.78c0,0.827,0.673,1.5,1.5,1.5h5.531l0.011,4.107v17.205
		c0,1.531,1.173,2.773,2.41,2.773c1.24,0,2.246-1.242,2.246-2.773V42.438h2.792v15.215c0,1.533,1.006,2.774,2.244,2.774
		s2.291-1.241,2.291-2.774l0.025-17.391V36.34h5.074c0.826,0,1.5-0.673,1.5-1.5V19.06C44.697,18.233,44.023,17.56,43.197,17.56z
		 M32.486,22.682L32.486,22.682h4.637c0.158,0,0.298,0.059,0.393,0.165c0.094,0.106,0.135,0.251,0.116,0.408l-0.103,0.854
		l-4.461,0.44c-0.166,0.017-0.369,0.026-0.583,0.032V22.682z M32.488,27.544c0.247-0.007,0.485-0.017,0.683-0.038l4.005-0.414
		l-0.175,1.46l-3.903,0.419C32.924,28.99,32.71,29,32.489,29.006L32.488,27.544L32.488,27.544z M33.093,26.76
		c-0.173,0.017-0.385,0.027-0.605,0.034v-1.463c0.237-0.007,0.468-0.017,0.657-0.036l4.295-0.425l-0.174,1.458L33.093,26.76z
		 M31.739,33.088h-3.304c-0.361,0-0.703-0.304-0.746-0.663l-0.111-0.928l3.753,0.429c0.122,0.014,0.264,0.022,0.408,0.03V33.088z
		 M31.739,31.205c-0.113-0.008-0.229-0.015-0.322-0.025l-3.93-0.449l-0.17-1.421l3.793,0.407c0.183,0.019,0.401,0.03,0.629,0.037
		V31.205z M31.739,29.005c-0.2-0.007-0.391-0.017-0.549-0.034l-3.964-0.426l-0.175-1.458l4.053,0.419
		c0.184,0.02,0.405,0.03,0.635,0.037V29.005z M31.739,26.793c-0.203-0.007-0.397-0.017-0.558-0.033l-4.221-0.437l-0.174-1.453
		l4.296,0.425c0.189,0.02,0.42,0.029,0.657,0.036V26.793z M31.739,24.58c-0.213-0.006-0.416-0.016-0.583-0.032l-4.46-0.44
		l-0.101-0.853c-0.019-0.158,0.023-0.303,0.117-0.409c0.095-0.107,0.234-0.165,0.392-0.165h4.635V24.58z M31.739,21.932h-4.635
		c-0.376,0-0.715,0.148-0.953,0.417c-0.238,0.269-0.346,0.622-0.301,0.996l1.095,9.168c0.088,0.743,0.743,1.324,1.49,1.324h3.304
		v1.502h-7.958c-0.159-0.113-0.269-0.29-0.269-0.5V21.596c0-0.345,0.28-0.625,0.625-0.625h7.602V21.932z M31.739,20.22h-7.602
		c-0.758,0-1.375,0.617-1.375,1.375V34.84c0,0.178,0.036,0.346,0.097,0.5h-2.285c-0.275,0-0.5-0.225-0.5-0.5V19.06
		c0-0.275,0.225-0.5,0.5-0.5h11.165V20.22z M32.486,29.756L32.486,29.756c0.25-0.007,0.491-0.018,0.69-0.039l3.732-0.4l-0.176,1.473
		l-3.418,0.391c-0.226,0.026-0.524,0.039-0.829,0.043V29.756z M32.487,31.972L32.487,31.972c0.332-0.003,0.656-0.018,0.916-0.046
		l3.24-0.37l-0.104,0.87c-0.043,0.358-0.386,0.662-0.746,0.662h-3.305V31.972z M40.409,35.34h-7.92v-1.502h3.305
		c0.747,0,1.401-0.581,1.49-1.322l1.095-9.172c0.045-0.373-0.062-0.727-0.301-0.995c-0.238-0.269-0.577-0.417-0.953-0.417h-4.636
		v-0.961h7.564c0.346,0,0.625,0.28,0.625,0.625V34.84h0.002C40.68,35.05,40.568,35.227,40.409,35.34z M43.701,34.84L43.701,34.84
		c-0.001,0.275-0.227,0.5-0.501,0.5h-1.868c0.062-0.154,0.098-0.322,0.098-0.5V21.596c0-0.758-0.617-1.375-1.375-1.375h-7.563v-1.66
		h10.71c0.275,0,0.5,0.225,0.5,0.5V34.84z"/>
</g>
</svg>
