<?xml version="1.0" encoding="utf-8"?>
<!-- Generator: Adobe Illustrator 17.0.0, SVG Export Plug-In . SVG Version: 6.00 Build 0)  -->
<!DOCTYPE svg PUBLIC "-//W3C//DTD SVG 1.1//EN" "http://www.w3.org/Graphics/SVG/1.1/DTD/svg11.dtd">
<svg version="1.1" id="Layer_1" xmlns="http://www.w3.org/2000/svg" xmlns:xlink="http://www.w3.org/1999/xlink" x="0px" y="0px"
	 width="32px" height="32px" viewBox="0 0 32 32" enable-background="new 0 0 32 32" xml:space="preserve">
<g>
	<path d="M23.782,1.906c-3.1-0.283-8.222-0.849-11.436-0.752c0.001,0.004,0.004,0.008,0.012,0.019
		C5.517,1.411,0.484,4.207,0.484,7.904l0.012,17.179c0.259,3.714,5.685,6.477,12.829,6.477c5.128,0,9.35-1.424,11.432-3.6
		c1.178,0.009,2.305,0.108,3.344,0.277c0.816,0.132,1.648-0.099,2.28-0.633c0.631-0.533,0.996-1.317,1.002-2.143l0.133-19.675
		c0.01-1.564-1.099-2.914-2.636-3.201C27.242,2.279,25.399,2.054,23.782,1.906z M13.325,3.513c5.97,0,10.428,2.291,10.428,4.338
		c0,2.046-4.458,4.335-10.428,4.335c-5.969,0-10.429-2.289-10.429-4.335C2.897,5.804,7.357,3.513,13.325,3.513z M23.74,24.752
		c0,2.047-4.445,4.336-10.415,4.336c-1.125,0-2.198-0.081-3.196-0.227l0.002-0.397c0.003-0.533-0.427-0.724-0.96-0.724
		c-0.001,0-0.003,0-0.005,0c-0.531,0-0.961,0.189-0.962,0.72v0.02c-3.224-0.818-5.308-2.33-5.308-3.728
		c0-0.698-0.152-12.922-0.152-12.922c1.538,1.127,3.704,1.978,6.286,2.423c-0.438,0.068-0.767,0.36-0.769,0.825l-0.014,3.145
		c-0.004,0.532,0.427,0.814,0.959,0.814h0.005c0.53,0,0.961-0.25,0.964-0.781l0.013-3.104c0.002-0.353-0.187-0.639-0.469-0.794
		c1.115,0.158,2.299,0.243,3.54,0.243c4.444,0,8.35-1.071,10.514-2.771C23.773,11.83,23.74,24.023,23.74,24.752z M29.01,24.156
		c-0.002,0.45-0.195,0.879-0.53,1.18c-0.335,0.301-0.782,0.448-1.23,0.403c-0.387-0.04-0.78-0.071-1.18-0.092
		c0.04-0.186,0.057-17.742,0.057-17.742c0-1.335-0.657-2.554-1.818-3.575c1.143,0.09,2.33,0.215,3.436,0.375
		c0.79,0.115,1.371,0.792,1.366,1.591C29.083,11.3,29.039,18.871,29.01,24.156z"/>
	<ellipse cx="13.326" cy="7.851" rx="4.048" ry="1.929"/>
	<path d="M9.202,20.994H9.197c-0.531,0-0.961,0.255-0.964,0.786l-0.014,3.096c-0.002,0.533,0.426,0.908,0.959,0.908h0.006
		c0.53,0,0.962-0.297,0.963-0.829l0.014-3.148C10.163,21.275,9.733,20.994,9.202,20.994z"/>
</g>
</svg>
