<?xml version="1.0" encoding="utf-8"?>
<!-- Generator: Adobe Illustrator 17.0.0, SVG Export Plug-In . SVG Version: 6.00 Build 0)  -->
<!DOCTYPE svg PUBLIC "-//W3C//DTD SVG 1.1//EN" "http://www.w3.org/Graphics/SVG/1.1/DTD/svg11.dtd">
<svg version="1.1" id="Layer_1" xmlns="http://www.w3.org/2000/svg" xmlns:xlink="http://www.w3.org/1999/xlink" x="0px" y="0px"
	 width="32px" height="32px" viewBox="0 0 32 32" enable-background="new 0 0 32 32" xml:space="preserve">
<g>
	<path d="M24.196,6.631c0.039,0.346,0.038,0.334,0,0.031c-0.467-3.687-3.623-6.548-7.435-6.548c-3.812,0-6.969,2.861-7.434,6.548
		c-0.039,0.303-0.039,0.315,0-0.031h-3.94c-1.009,0-1.827,0.818-1.827,1.828v21.713C3.56,31.182,4.379,32,5.388,32h21.645
		c1.009,0,1.828-0.818,1.828-1.828V8.459c0-1.009-0.819-1.828-1.828-1.828H24.196z M16.762,1.872c2.831,0,5.186,2.061,5.649,4.76
		h-3.459c0.125,0.346,0.196,0.608,0.196,0.943c0,0.352-0.079,0.711-0.217,0.987c-0.378,0.827-1.208,1.395-2.169,1.395
		c-0.963,0-1.793-0.568-2.169-1.395c-0.14-0.276-0.216-0.635-0.216-0.987c0-0.335,0.07-0.598,0.194-0.943h-3.464
		C11.571,3.929,13.928,1.872,16.762,1.872z M26.653,28.637c0,0.639-0.518,1.156-1.156,1.156H6.923c-0.639,0-1.155-0.518-1.155-1.156
		V9.994c0-0.639,0.517-1.156,1.155-1.156h2.448c0.001,0.009,0.001,0.018,0.004,0.027c0.601,3.534,3.685,6.233,7.387,6.233
		c3.702,0,6.785-2.7,7.387-6.233c0.002-0.009,0.003-0.018,0.003-0.027h1.346c0.639,0,1.156,0.517,1.156,1.156V28.637z"/>
	<circle cx="20.053" cy="4.285" r="0.466"/>
	<circle cx="13.47" cy="4.286" r="0.468"/>
	<circle cx="16.762" cy="2.923" r="0.467"/>
	<path d="M16.762,8.89c0.707,0,1.278-0.575,1.278-1.284c0-0.493-0.279-0.921-0.692-1.136V5.296V4.758
		c0-0.327-0.26-0.591-0.586-0.591c-0.327,0-0.585,0.264-0.585,0.591v0.536v1.17c-0.415,0.213-0.7,0.645-0.7,1.142
		C15.477,8.315,16.052,8.89,16.762,8.89z"/>
	<path d="M7.489,25.955c0,0.788,0.638,1.426,1.426,1.426h4.801c0.788,0,1.427-0.639,1.427-1.426v-8.246
		c0-0.788-0.639-1.426-1.427-1.426H8.915c-0.788,0-1.426,0.638-1.426,1.426V25.955z"/>
	<path d="M17.348,25.955c0,0.788,0.638,1.426,1.426,1.426h4.8c0.788,0,1.427-0.639,1.427-1.426v-8.246
		c0-0.788-0.639-1.426-1.427-1.426h-4.8c-0.788,0-1.426,0.638-1.426,1.426V25.955z"/>
</g>
</svg>
