<?xml version="1.0" encoding="utf-8"?>
<!-- Generator: Adobe Illustrator 16.0.0, SVG Export Plug-In . SVG Version: 6.00 Build 0)  -->
<!DOCTYPE svg PUBLIC "-//W3C//DTD SVG 1.1//EN" "http://www.w3.org/Graphics/SVG/1.1/DTD/svg11.dtd">
<svg version="1.1" id="Layer_1" xmlns="http://www.w3.org/2000/svg" xmlns:xlink="http://www.w3.org/1999/xlink" x="0px" y="0px"
	 width="50px" height="50px" viewBox="0 0 50 50" enable-background="new 0 0 50 50" xml:space="preserve">
<g>
	<path d="M34.208,22.173c0.285-0.864,0.445-1.784,0.445-2.742c0-4.839-3.938-8.776-8.776-8.776c-4.839,0-8.776,3.937-8.776,8.776
		c0,0.218,0.017,0.432,0.033,0.645c-4.285,0.577-7.604,4.239-7.604,8.68c0,4.839,3.937,8.776,8.776,8.776
		c2.299,0,4.388-0.896,5.955-2.348c1.551,2.489,4.295,4.16,7.437,4.16c4.839,0,8.776-3.937,8.776-8.776
		C40.472,26.604,37.824,23.257,34.208,22.173z M34.164,31.118c-0.91-0.001-1.646-0.549-1.646-0.549s0.736-0.548,1.646-0.548
		c0.909,0,1.646,0.548,1.646,0.548S35.073,31.117,34.164,31.118z M34.604,33.478c0,0-0.909-0.133-1.551-0.775
		c-0.643-0.643-0.776-1.552-0.776-1.552s0.909,0.134,1.551,0.776C34.472,32.569,34.604,33.478,34.604,33.478z M33.829,29.211
		c-0.644,0.643-1.552,0.776-1.552,0.776s0.133-0.908,0.777-1.552c0.642-0.643,1.551-0.776,1.551-0.776S34.471,28.568,33.829,29.211z
		 M30.338,28.436c0.643,0.643,0.776,1.551,0.776,1.551s-0.909-0.133-1.551-0.776c-0.566-0.565-0.736-1.336-0.769-1.513l0.066-0.024
		C29.082,27.718,29.8,27.897,30.338,28.436z M29.562,31.926c0.643-0.643,1.551-0.775,1.551-0.775s-0.133,0.908-0.775,1.551
		c-0.643,0.643-1.551,0.775-1.551,0.775S28.919,32.569,29.562,31.926z M27.582,30.568c0,0,0.736-0.548,1.646-0.548
		c0.908,0,1.645,0.548,1.645,0.548s-0.736,0.548-1.645,0.548C28.318,31.117,27.582,30.568,27.582,30.568z M31.695,29.746
		c0,0-0.548-0.736-0.548-1.646s0.548-1.646,0.548-1.646s0.549,0.736,0.549,1.646S31.695,29.746,31.695,29.746z M32.244,33.037
		c0,0.909-0.549,1.646-0.549,1.646s-0.548-0.736-0.548-1.646c0-0.909,0.548-1.646,0.548-1.646S32.244,32.128,32.244,33.037z
		 M25.876,11.752c4.234,0,7.679,3.445,7.679,7.68c0,4.234-3.445,7.679-7.679,7.679s-7.679-3.445-7.679-7.679
		C18.197,15.197,21.642,11.752,25.876,11.752z M20.772,29.305c-0.91,0-1.646-0.549-1.646-0.549s0.736-0.548,1.646-0.548
		c0.909-0.001,1.646,0.548,1.646,0.548S21.681,29.305,20.772,29.305z M21.213,31.666c0,0-0.909-0.133-1.551-0.776
		c-0.643-0.643-0.776-1.552-0.776-1.552s0.909,0.133,1.551,0.776C21.08,30.757,21.213,31.666,21.213,31.666z M20.437,27.399
		c-0.644,0.643-1.552,0.776-1.552,0.776s0.133-0.908,0.777-1.552c0.19-0.19,0.403-0.335,0.609-0.445
		c0.214,0.178,0.436,0.345,0.666,0.502C20.82,26.919,20.662,27.174,20.437,27.399z M18.304,27.934c0,0-0.548-0.737-0.548-1.646
		c0-0.909,0.548-1.646,0.548-1.646s0.549,0.736,0.549,1.646C18.853,27.197,18.304,27.934,18.304,27.934z M18.853,31.225
		c0,0.909-0.549,1.646-0.549,1.646s-0.548-0.736-0.548-1.646s0.548-1.646,0.548-1.646S18.853,30.315,18.853,31.225z M16.17,30.114
		c0.643-0.643,1.551-0.776,1.551-0.776s-0.133,0.909-0.775,1.551c-0.643,0.644-1.551,0.776-1.551,0.776S15.527,30.757,16.17,30.114z
		 M14.19,28.756c0,0,0.736-0.549,1.646-0.548c0.908-0.001,1.645,0.548,1.645,0.548s-0.736,0.548-1.645,0.548
		C14.926,29.305,14.19,28.756,14.19,28.756z M16.171,27.399c-0.643-0.643-0.776-1.551-0.776-1.551s0.909,0.133,1.551,0.775
		c0.643,0.643,0.776,1.551,0.776,1.551S16.814,28.042,16.171,27.399z M18.304,36.436c-4.234,0-7.679-3.445-7.679-7.679
		c0-3.883,2.901-7.087,6.647-7.594c0.037,0.181,0.087,0.357,0.134,0.534c-3.513,0.442-6.233,3.427-6.233,7.06
		c0,3.938,3.193,7.131,7.131,7.131s7.131-3.193,7.131-7.131c0-0.196-0.032-0.382-0.049-0.573c0.163,0.009,0.325,0.024,0.49,0.024
		l0.063-0.003c0.016,0.184,0.044,0.364,0.044,0.552C25.983,32.991,22.539,36.436,18.304,36.436z M31.696,38.248
		c-2.85,0-5.321-1.574-6.645-3.887c0.125-0.151,0.24-0.31,0.355-0.469c1.196,2.259,3.555,3.808,6.29,3.808
		c3.938,0,7.131-3.192,7.131-7.131c0-3.299-2.253-6.044-5.296-6.858c0.092-0.164,0.174-0.333,0.255-0.502
		c3.216,0.916,5.589,3.854,5.589,7.36C39.375,34.803,35.93,38.248,31.696,38.248z"/>
	<path d="M25.876,26.562c3.938,0,7.13-3.192,7.13-7.13c0-3.938-3.192-7.131-7.13-7.131c-3.938,0-7.131,3.192-7.131,7.131
		C18.745,23.37,21.938,26.562,25.876,26.562z M24.518,21.564c-0.643,0.644-1.551,0.775-1.551,0.775s0.133-0.908,0.775-1.55
		c0.643-0.643,1.551-0.776,1.551-0.776S25.16,20.922,24.518,21.564z M27.233,21.565c-0.643-0.643-0.776-1.552-0.776-1.552
		s0.909,0.133,1.551,0.776c0.643,0.643,0.776,1.551,0.776,1.551S27.876,22.208,27.233,21.565z M28.344,19.98
		c-0.91,0-1.646-0.549-1.646-0.549s0.736-0.548,1.646-0.548c0.908,0,1.646,0.549,1.646,0.549S29.252,19.98,28.344,19.98z
		 M27.233,17.298c0.642-0.643,1.551-0.775,1.551-0.775s-0.134,0.908-0.776,1.551c-0.644,0.643-1.552,0.776-1.552,0.776
		S26.589,17.942,27.233,17.298z M25.875,15.317c0,0,0.549,0.737,0.549,1.646c0,0.909-0.549,1.646-0.549,1.646
		s-0.548-0.737-0.548-1.646C25.327,16.054,25.875,15.317,25.875,15.317z M25.875,20.254c0,0,0.549,0.736,0.549,1.646
		c0,0.909-0.549,1.646-0.549,1.646s-0.548-0.737-0.548-1.646C25.327,20.991,25.875,20.254,25.875,20.254z M24.519,17.298
		c0.643,0.643,0.775,1.551,0.775,1.551s-0.908-0.133-1.551-0.775c-0.643-0.643-0.775-1.551-0.775-1.551S23.875,16.656,24.519,17.298
		z M23.408,18.883c0.908,0,1.644,0.548,1.644,0.548s-0.736,0.548-1.644,0.548c-0.91,0-1.646-0.548-1.646-0.548
		S22.498,18.883,23.408,18.883z"/>
</g>
</svg>
