<?xml version="1.0" encoding="iso-8859-1"?>
<!-- Generator: Adobe Illustrator 16.0.0, SVG Export Plug-In . SVG Version: 6.00 Build 0)  -->
<!DOCTYPE svg PUBLIC "-//W3C//DTD SVG 1.1//EN" "http://www.w3.org/Graphics/SVG/1.1/DTD/svg11.dtd">
<svg version="1.1" xmlns="http://www.w3.org/2000/svg" xmlns:xlink="http://www.w3.org/1999/xlink" x="0px" y="0px" width="512px"
	 height="512px" viewBox="0 0 512 512" style="enable-background:new 0 0 512 512;" xml:space="preserve">
<g id="Guides_For_Artboard">
</g>
<g id="_x30_">
</g>
<g id="_x31_">
</g>
<g id="_x32_">
</g>
<g id="_x33_">
</g>
<g id="_x34_">
</g>
<g id="_x35_">
</g>
<g id="_x36_">
</g>
<g id="_x37_">
</g>
<g id="_x38_">
</g>
<g id="_x39_">
</g>
<g id="_x31_0">
</g>
<g id="_x31_1">
</g>
<g id="_x31_2">
</g>
<g id="_x31_3">
</g>
<g id="_x31_4">
</g>
<g id="_x31_5">
</g>
<g id="_x31_6">
</g>
<g id="_x31_7">
</g>
<g id="_x31_8">
</g>
<g id="_x31_9">
</g>
<g id="_x32_0">
</g>
<g id="_x32_1">
</g>
<g id="_x32_2">
</g>
<g id="_x32_3">
</g>
<g id="_x32_4">
</g>
<g id="_x32_5">
</g>
<g id="_x32_6">
</g>
<g id="_x32_7">
</g>
<g id="_x32_8">
</g>
<g id="_x32_9">
</g>
<g id="_x33_0">
</g>
<g id="_x33_1">
</g>
<g id="_x33_2">
</g>
<g id="_x33_3">
</g>
<g id="_x33_4">
</g>
<g id="_x33_5">
</g>
<g id="_x33_6">
</g>
<g id="_x33_7">
</g>
<g id="_x33_8">
</g>
<g id="_x33_9">
</g>
<g id="_x34_0">
</g>
<g id="_x34_1">
</g>
<g id="_x34_2">
</g>
<g id="_x34_3">
</g>
<g id="_x34_4">
</g>
<g id="_x34_5">
</g>
<g id="_x34_6">
</g>
<g id="_x34_7">
</g>
<g id="_x34_8">
</g>
<g id="_x34_9">
</g>
<g id="_x35_0">
</g>
<g id="_x35_1">
</g>
<g id="_x35_2">
</g>
<g id="_x35_3">
</g>
<g id="_x35_4">
</g>
<g id="_x35_5">
</g>
<g id="_x35_6">
</g>
<g id="_x35_7">
</g>
<g id="_x35_8">
</g>
<g id="_x35_9">
</g>
<g id="_x36_0">
	<g>
		<path d="M242.781,260.162H80.99c-11.934,0-21.607,9.674-21.607,21.605v66.111c0,11.938,9.674,21.611,21.607,21.611h161.791
			c11.936,0,21.611-9.674,21.611-21.611v-66.111C264.393,269.836,254.717,260.162,242.781,260.162z"/>
		<path d="M310.32,235.188c0-23.115-7.334-30.217-20.297-40.777l-0.271-0.223c-14.57-11.873-26.602-21.291-37.861-29.637
			c-1.25-0.926-3.346-2.854-3.346-5.346v-25.396h13.561c2.762,0,5-2.238,5-5V99.861c0-0.189-0.01-0.377-0.031-0.561
			c-0.365-24.533-20.471-44.402-45.07-44.402h-120.25c-24.859,0-45.084,20.223-45.084,45.082c0,0.152,0.006,0.305,0.02,0.453v28.375
			c0,2.762,2.238,5,5,5h13.539v25.293c0,2.496-2.094,4.42-3.344,5.346c-11.252,8.342-23.281,17.76-37.859,29.637l-0.271,0.221
			c-12.963,10.563-20.297,17.664-20.297,40.779c0,9.547-0.006,49.381-0.012,87.838c-0.006,35.893-0.012,70.588-0.012,78.348
			c0,21.744,16.545,44.234,44.232,44.234h105.129c0,0,93.363,0.104,103.316,0.104c27.686,0,44.229-22.49,44.229-44.234
			c0-7.76-0.004-42.457-0.008-78.35C310.326,284.564,310.32,244.732,310.32,235.188z M266.111,420.607
			c-9.951,0-103.289-0.104-103.303-0.104H57.666c-12.627,0-19.232-9.676-19.232-19.234c0-7.76,0.006-42.451,0.012-78.344
			c0.006-38.459,0.012-78.295,0.012-87.842c0-12.363,1.049-13.219,11.088-21.396l0.273-0.223
			c14.273-11.631,26.018-20.826,36.953-28.934c8.551-6.338,13.457-15.605,13.457-25.43v-25.293h123.316v25.396
			c0,9.82,4.904,19.088,13.457,25.43c10.947,8.113,22.689,17.309,36.959,28.934l0.271,0.223c10.039,8.18,11.088,9.033,11.088,21.396
			c0,9.547,0.006,49.379,0.012,87.84c0.004,35.891,0.008,70.586,0.008,78.346C285.34,410.932,278.736,420.607,266.111,420.607z"/>
		<path d="M421.611,233.404c-0.174-0.357-0.482-0.631-0.859-0.762l-20.125-6.943c-0.375-0.129-0.787-0.105-1.146,0.068
			c-0.357,0.174-0.631,0.484-0.76,0.859l-2.533,7.342c-0.27,0.783,0.146,1.637,0.93,1.908l20.121,6.941
			c0.162,0.057,0.328,0.082,0.49,0.082c0.621,0,1.203-0.389,1.418-1.01l2.535-7.34C421.811,234.174,421.785,233.762,421.611,233.404
			z"/>
		<path d="M412.68,256.027l-20.123-6.943c-0.375-0.127-0.787-0.104-1.145,0.07c-0.359,0.174-0.633,0.482-0.762,0.859l-2.533,7.342
			c-0.271,0.783,0.145,1.637,0.928,1.906l20.123,6.943c0.16,0.055,0.324,0.082,0.49,0.082c0.225,0,0.449-0.051,0.656-0.15
			c0.357-0.174,0.631-0.484,0.762-0.859l2.533-7.342C413.879,257.152,413.463,256.299,412.68,256.027z"/>
		<path d="M404.986,278.324l-20.123-6.941c-0.787-0.271-1.637,0.146-1.908,0.93l-2.535,7.34c-0.129,0.375-0.104,0.787,0.07,1.145
			c0.174,0.359,0.482,0.633,0.859,0.762l20.125,6.945c0.162,0.055,0.326,0.082,0.488,0.082c0.623,0,1.203-0.391,1.418-1.012
			l2.535-7.342c0.129-0.377,0.104-0.789-0.07-1.146S405.363,278.455,404.986,278.324z"/>
		<path d="M396.682,302.391l-20.125-6.943c-0.375-0.129-0.787-0.104-1.146,0.068c-0.357,0.174-0.631,0.484-0.76,0.859l-2.533,7.344
			c-0.27,0.783,0.146,1.637,0.93,1.906l20.123,6.943c0.162,0.055,0.328,0.082,0.49,0.082c0.621,0,1.203-0.391,1.418-1.012
			l2.533-7.34c0.129-0.377,0.104-0.789-0.07-1.146S397.059,302.521,396.682,302.391z"/>
		<path d="M491.039,148.889l-30.252-10.439l11.547-33.461l9.473,3.27c0.877,0.303,1.789,0.457,2.711,0.457l0,0
			c3.541,0,6.697-2.252,7.852-5.6c0.725-2.098,0.59-4.352-0.383-6.346c-0.971-1.996-2.662-3.494-4.76-4.217l-50.969-17.59
			c-0.879-0.303-1.791-0.457-2.713-0.457c-3.541,0-6.695,2.25-7.852,5.6c-0.725,2.096-0.588,4.352,0.385,6.346
			c0.971,1.996,2.662,3.494,4.758,4.217l7.916,2.732l-11.547,33.459l-30.254-10.439c-5.568-1.922-11.453,0.438-13.117,5.258
			c-1.662,4.818,1.518,10.303,7.088,12.225l1.215,0.42l-62.154,180.111c-0.779,2.256-0.629,4.729,0.416,6.875
			s2.898,3.789,5.156,4.568l30.396,10.488l-40.982,118.748c-0.229,0.664,0.035,1.4,0.635,1.768c0.242,0.148,0.514,0.221,0.783,0.221
			c0.396,0,0.789-0.156,1.08-0.457l19.176-19.857c0.152-0.156,0.268-0.346,0.34-0.553l32.814-95.09l30.398,10.488
			c0.971,0.336,1.961,0.496,2.936,0.496c3.732,0,7.221-2.342,8.508-6.068l62.154-180.109l1.215,0.42
			c5.568,1.92,11.453-0.438,13.117-5.256C499.787,156.295,496.609,150.811,491.039,148.889z M391.354,191.768l17.594-50.986
			l12.021,4.15l-17.594,50.984L391.354,191.768z M407.559,331.682l-57.625-19.885l36.756-106.516l57.627,19.887L407.559,331.682z
			 M448.98,211.654l-12.023-4.15l17.594-50.984l12.023,4.15L448.98,211.654z"/>
	</g>
</g>
<g id="_x36_1">
</g>
<g id="_x36_2">
</g>
<g id="_x36_3">
</g>
<g id="_x36_4">
</g>
<g id="_x36_5">
</g>
<g id="_x36_6">
</g>
<g id="_x36_7">
</g>
<g id="_x36_8">
</g>
<g id="_x36_9">
</g>
<g id="_x37_0">
</g>
</svg>
