<?xml version="1.0" encoding="iso-8859-1"?>
<!-- Generator: Adobe Illustrator 17.0.0, SVG Export Plug-In . SVG Version: 6.00 Build 0)  -->
<!DOCTYPE svg PUBLIC "-//W3C//DTD SVG 1.1//EN" "http://www.w3.org/Graphics/SVG/1.1/DTD/svg11.dtd">
<svg version="1.1" id="Capa_1" xmlns="http://www.w3.org/2000/svg" xmlns:xlink="http://www.w3.org/1999/xlink" x="0px" y="0px"
	 width="64px" height="64px" viewBox="0 0 64 64" style="enable-background:new 0 0 64 64;" xml:space="preserve">
<g>
	<path d="M56.746,3.712L45.74,16.193c-0.657-0.415-1.535-0.309-2.066,0.294l-2.788,3.162c-1.169-0.265-2.441,0.085-3.29,1.048
		l-21.23,24.078l-1.936-1.707c-0.401-0.353-1.012-0.316-1.366,0.086c-0.353,0.4-0.314,1.013,0.086,1.367l3.146,2.773L10,54.434
		l-1.392-1.227c-0.401-0.354-1.012-0.317-1.366,0.085c-0.353,0.401-0.315,1.012,0.086,1.366l5.444,4.802
		c0.401,0.353,1.013,0.314,1.366-0.087c0.354-0.4,0.315-1.012-0.086-1.366l-1.392-1.227l6.295-7.139l3.146,2.773
		c0.401,0.354,1.013,0.315,1.366-0.086c0.354-0.402,0.315-1.012-0.086-1.365l-1.935-1.707l21.23-24.077
		c0.849-0.963,1.037-2.269,0.629-3.396l2.789-3.163c0.499-0.567,0.524-1.386,0.112-1.982L57.23,4.139
		c0.119-0.135,0.105-0.339-0.029-0.457C57.068,3.565,56.865,3.576,56.746,3.712z M41.71,24.326l-10.722,12.16l-0.678-0.599
		l10.296-11.677c0.176-0.201,0.158-0.506-0.043-0.683c-0.2-0.178-0.506-0.157-0.683,0.044L29.584,35.248l-1.743-1.537l10.722-12.16
		c0.766-0.868,2.091-0.951,2.96-0.185C42.393,22.131,42.476,23.456,41.71,24.326z"/>
</g>
</svg>
