<?xml version="1.0" encoding="utf-8"?>
<!-- Generator: Adobe Illustrator 16.0.0, SVG Export Plug-In . SVG Version: 6.00 Build 0)  -->
<!DOCTYPE svg PUBLIC "-//W3C//DTD SVG 1.1//EN" "http://www.w3.org/Graphics/SVG/1.1/DTD/svg11.dtd">
<svg version="1.1" id="Layer_1" xmlns="http://www.w3.org/2000/svg" xmlns:xlink="http://www.w3.org/1999/xlink" x="0px" y="0px"
	 width="100px" height="100px" viewBox="0 0 100 100" enable-background="new 0 0 100 100" xml:space="preserve">
<path d="M64.638,36.21h-1.314c-1.715-5.253-5.206-8.962-9.333-9.991v-4.193c0-1.29-1.046-2.337-2.337-2.337
	s-2.338,1.047-2.338,2.337v4.193c-4.129,1.029-7.619,4.738-9.332,9.991h-1.315c-1.291,0-2.337,1.047-2.337,2.337v39.865
	c0,1.29,1.046,2.337,2.337,2.337h25.97c1.291,0,2.337-1.047,2.337-2.337V38.547C66.975,37.257,65.929,36.21,64.638,36.21z
	 M51.653,30.595c2.639,0,5.143,2.216,6.653,5.615H44.999C46.509,32.809,49.012,30.595,51.653,30.595z M41.006,76.075V40.884H62.3
	v3.734H51.653c-1.291,0-2.338,1.047-2.338,2.337s1.047,2.337,2.338,2.337H62.3v3.377h-6.491c-1.291,0-2.337,1.047-2.337,2.337
	s1.046,2.337,2.337,2.337H62.3v2.856H51.652c-1.291,0-2.338,1.047-2.338,2.337s1.047,2.337,2.338,2.337H62.3v3.377h-6.491
	c-1.291,0-2.337,1.046-2.337,2.337c0,1.29,1.046,2.337,2.337,2.337H62.3v3.151H41.006z"/>
</svg>
