<?xml version="1.0" encoding="iso-8859-1"?>
<!-- Generator: Adobe Illustrator 16.0.4, SVG Export Plug-In . SVG Version: 6.00 Build 0)  -->
<!DOCTYPE svg PUBLIC "-//W3C//DTD SVG 1.1//EN" "http://www.w3.org/Graphics/SVG/1.1/DTD/svg11.dtd">
<svg version="1.1" id="Capa_1" xmlns="http://www.w3.org/2000/svg" xmlns:xlink="http://www.w3.org/1999/xlink" x="0px" y="0px"
	 width="14.615px" height="15px" viewBox="0 0 14.615 15" style="enable-background:new 0 0 14.615 15;" xml:space="preserve">
<path style="fill:#010002;" d="M14.59,6.467l-0.002-0.039l-0.012-0.039c-0.318-0.761-1.426-0.964-2.779-1.009
	c-1.424,0.062-2.658,0.248-2.82,1.18v1.448c0.041,0.241,0.156,0.432,0.326,0.583v5.356c0.164,0.862,1.23,0.99,2.457,1.053
	c1.223-0.062,2.291-0.19,2.451-1.053l0.002-5.303c0.209-0.161,0.355-0.364,0.402-0.637L14.59,6.467z M11.738,5.989
	c0.02,0,0.039,0,0.059,0.002c0.621,0,1.188,0.084,1.592,0.21c0.256,0.075,0.402,0.173,0.496,0.251
	c-0.098,0.075-0.256,0.169-0.488,0.235c-0.406,0.13-0.971,0.216-1.594,0.216c-0.666,0-1.268-0.102-1.68-0.24
	C9.926,6.595,9.775,6.515,9.688,6.444C9.955,6.223,10.783,5.989,11.738,5.989z M13.604,13.947c0,0,0.006,0.005-0.059,0.057
	c-0.205,0.182-0.943,0.396-1.785,0.385c-0.566,0.002-1.078-0.082-1.42-0.203c-0.172-0.055-0.301-0.128-0.367-0.182
	c-0.062-0.055-0.049-0.057-0.059-0.057v-1.072c0.807,0.319,1.824,0.269,1.824,0.269v-2.808c-0.846,0-1.486-0.242-1.824-0.404V8.926
	c0.508,0.169,1.172,0.23,1.883,0.26c0.68-0.027,1.311-0.087,1.807-0.239V13.947z M13.918,8.111
	c-0.258,0.231-1.129,0.474-2.121,0.467c-0.666,0-1.266-0.095-1.68-0.239C9.912,8.268,9.758,8.183,9.672,8.111
	C9.584,8.038,9.584,8.008,9.584,8.008V7.082c0.525,0.289,1.324,0.389,2.219,0.427c0.889-0.028,1.666-0.129,2.189-0.406l0.014,0.907
	C14.006,8.01,14.004,8.04,13.918,8.111z M6.977,2.038H4.381V0.579h0.9c0.16,0,0.291-0.13,0.291-0.289C5.572,0.13,5.441,0,5.281,0
	H1.979c-0.16,0-0.289,0.13-0.289,0.29c0,0.159,0.129,0.289,0.289,0.289h0.9v1.459H0.285C0.129,2.038,0,2.166,0,2.322
	c0,0.157,0.129,0.284,0.285,0.284H2.33v7.854h0.697v0.671c0,0-0.045,0.203,0.314,0.309v3.271c0,0.16,0.129,0.29,0.289,0.29
	s0.289-0.13,0.289-0.29v-3.271c0.359-0.105,0.314-0.309,0.314-0.309V10.46H4.93V2.606h2.047c0.156,0,0.283-0.127,0.283-0.284
	C7.26,2.166,7.133,2.038,6.977,2.038z M4.391,6.428H2.869V2.606h1.521V6.428z"/>
<g>
</g>
<g>
</g>
<g>
</g>
<g>
</g>
<g>
</g>
<g>
</g>
<g>
</g>
<g>
</g>
<g>
</g>
<g>
</g>
<g>
</g>
<g>
</g>
<g>
</g>
<g>
</g>
<g>
</g>
</svg>
