<?xml version="1.0" encoding="iso-8859-1"?>
<!-- Generator: Adobe Illustrator 16.0.4, SVG Export Plug-In . SVG Version: 6.00 Build 0)  -->
<!DOCTYPE svg PUBLIC "-//W3C//DTD SVG 1.1//EN" "http://www.w3.org/Graphics/SVG/1.1/DTD/svg11.dtd">
<svg version="1.1" id="Capa_1" xmlns="http://www.w3.org/2000/svg" xmlns:xlink="http://www.w3.org/1999/xlink" x="0px" y="0px"
	 width="42.046px" height="42.458px" viewBox="0 0 42.046 42.458" style="enable-background:new 0 0 42.046 42.458;"
	 xml:space="preserve">
<g>
	<circle style="fill:#262626;" cx="7.521" cy="9.159" r="2.959"/>
	<circle style="fill:#262626;" cx="17.422" cy="9.159" r="2.959"/>
	<circle style="fill:#262626;" cx="7.521" cy="18.424" r="2.959"/>
	<circle style="fill:#262626;" cx="17.422" cy="18.424" r="2.959"/>
	<circle style="fill:#262626;" cx="7.521" cy="27.619" r="2.959"/>
	<path style="fill:#262626;" d="M35.305,28.984H24.941V0H0v36.777h13.723c0.512,3.212,3.278,5.681,6.631,5.681h14.951
		c3.719,0,6.741-3.022,6.741-6.739C42.046,32.005,39.023,28.984,35.305,28.984z M1.27,1.269h22.405v27.716h-3.321
		c-0.118,0-0.227,0.026-0.342,0.032c0.228-0.415,0.372-0.889,0.372-1.397c0-1.635-1.325-2.96-2.962-2.96
		c-1.634,0-2.961,1.325-2.961,2.96c0,1.243,0.772,2.302,1.857,2.74c-1.577,1.189-2.616,3.041-2.682,5.15H1.27V1.269z M20.354,41.189
		c-3.017,0-5.469-2.453-5.469-5.471c0-3.015,2.452-5.467,5.469-5.467h6.994l0.054,10.938H20.354z"/>
</g>
<g>
</g>
<g>
</g>
<g>
</g>
<g>
</g>
<g>
</g>
<g>
</g>
<g>
</g>
<g>
</g>
<g>
</g>
<g>
</g>
<g>
</g>
<g>
</g>
<g>
</g>
<g>
</g>
<g>
</g>
</svg>
