<?xml version="1.0" encoding="utf-8"?>
<!-- Generator: Adobe Illustrator 16.0.4, SVG Export Plug-In . SVG Version: 6.00 Build 0)  -->
<!DOCTYPE svg PUBLIC "-//W3C//DTD SVG 1.1//EN" "http://www.w3.org/Graphics/SVG/1.1/DTD/svg11.dtd">
<svg version="1.1" id="Layer_1" xmlns="http://www.w3.org/2000/svg" xmlns:xlink="http://www.w3.org/1999/xlink" x="0px" y="0px"
	 width="50px" height="50px" viewBox="0 0 50 50" enable-background="new 0 0 50 50" xml:space="preserve">
<path d="M17.543,21.19c-0.175-0.646,0.208-1.313,0.854-1.488c0.647-0.174,1.313,0.209,1.488,0.857
	c0.174,0.646-0.209,1.312-0.855,1.487C18.383,22.222,17.717,21.838,17.543,21.19z M23.158,20.935
	c0.646-0.174,1.029-0.841,0.855-1.488c-0.176-0.646-0.841-1.03-1.488-0.854c-0.647,0.175-1.031,0.841-0.856,1.488
	S22.509,21.11,23.158,20.935z M19.941,25.424c0.647-0.175,1.031-0.841,0.855-1.487c-0.174-0.647-0.84-1.031-1.488-0.856
	c-0.646,0.175-1.029,0.841-0.854,1.487C18.628,25.215,19.294,25.599,19.941,25.424z M24.066,24.312
	c0.647-0.176,1.031-0.842,0.856-1.487c-0.175-0.647-0.84-1.031-1.487-0.857c-0.647,0.177-1.031,0.843-0.856,1.49
	C22.752,24.103,23.419,24.485,24.066,24.312z M20.853,28.8c0.647-0.175,1.03-0.842,0.854-1.488c-0.174-0.647-0.84-1.031-1.487-0.854
	c-0.647,0.174-1.031,0.84-0.855,1.485C19.538,28.591,20.204,28.974,20.853,28.8z M24.978,27.687c0.647-0.174,1.03-0.84,0.855-1.487
	c-0.175-0.646-0.84-1.029-1.488-0.855c-0.646,0.175-1.031,0.841-0.855,1.488C23.665,27.479,24.331,27.86,24.978,27.687z
	 M21.129,29.831c-0.647,0.175-1.03,0.841-0.854,1.488c0.175,0.646,0.841,1.031,1.488,0.856c0.646-0.176,1.029-0.842,0.854-1.489
	C22.443,30.04,21.777,29.655,21.129,29.831z M25.256,28.718c-0.647,0.176-1.03,0.842-0.856,1.49
	c0.175,0.646,0.842,1.029,1.488,0.855c0.647-0.176,1.03-0.842,0.856-1.488C26.569,28.928,25.903,28.544,25.256,28.718z
	 M35.124,18.356L33.625,31.64c-0.08,0.707-0.431,1.342-0.987,1.785c-0.477,0.381-1.056,0.581-1.656,0.581
	c-0.102,0-0.203-0.005-0.306-0.017l-2.956-0.444c-0.007-0.001-0.011-0.004-0.016-0.006c-0.084,0.032-0.162,0.071-0.25,0.096
	L21.7,35.187c-0.228,0.062-0.464,0.092-0.697,0.092c-1.202,0-2.26-0.811-2.571-1.973l-3.48-12.906
	c-0.383-1.42,0.463-2.888,1.883-3.27l5.755-1.552c0.636-0.171,1.284-0.076,1.845,0.196c0.562-0.731,1.474-1.14,2.417-1.037
	l5.922,0.668c0.709,0.08,1.344,0.432,1.787,0.988C35.003,16.952,35.204,17.649,35.124,18.356z M27.194,32.671
	c0.888-0.24,1.414-1.156,1.177-2.045L24.892,17.72c-0.09-0.33-0.283-0.605-0.529-0.818c-0.059-0.029-0.108-0.067-0.148-0.114
	c-0.27-0.185-0.587-0.3-0.931-0.3c-0.146,0-0.293,0.02-0.437,0.058l-5.755,1.552c-0.888,0.239-1.416,1.156-1.178,2.045l3.481,12.906
	c0.232,0.867,1.166,1.408,2.043,1.176L27.194,32.671z M33.776,17.019c-0.277-0.349-0.676-0.566-1.117-0.617l-5.922-0.668
	c-0.59-0.061-1.145,0.197-1.494,0.646c0.279,0.305,0.5,0.664,0.611,1.08l0.269,0.994c0.203-0.485,0.688-0.811,1.239-0.748
	c0.667,0.076,1.146,0.678,1.07,1.344c-0.076,0.666-0.678,1.145-1.343,1.069c-0.227-0.025-0.418-0.128-0.588-0.257l0.472,1.744
	l-0.007-0.041c0.663-0.097,1.279,0.365,1.374,1.028c0.081,0.564-0.251,1.073-0.758,1.276l1.539,5.706
	c0.126-0.608,0.682-1.039,1.311-0.97c0.666,0.076,1.146,0.679,1.069,1.345c-0.073,0.666-0.676,1.146-1.342,1.069
	c-0.321-0.035-0.595-0.197-0.787-0.427c0.136,0.769-0.069,1.527-0.526,2.109l1.959,0.294c0.426,0.043,0.859-0.077,1.209-0.355
	c0.348-0.276,0.565-0.674,0.615-1.115l1.499-13.282C34.181,17.803,34.056,17.367,33.776,17.019z M31.608,18.187
	c-0.666-0.076-1.27,0.403-1.342,1.068c-0.076,0.668,0.402,1.27,1.069,1.344c0.667,0.075,1.267-0.404,1.343-1.07
	C32.754,18.862,32.274,18.261,31.608,18.187z M31.217,21.661c-0.666-0.076-1.268,0.402-1.344,1.07
	c-0.074,0.666,0.403,1.268,1.071,1.342c0.666,0.074,1.268-0.403,1.343-1.069C32.362,22.337,31.884,21.735,31.217,21.661z
	 M30.824,25.136c-0.666-0.074-1.269,0.403-1.343,1.068c-0.076,0.668,0.404,1.27,1.07,1.344c0.666,0.076,1.268-0.404,1.342-1.07
	C31.972,25.812,31.491,25.21,30.824,25.136z"/>
</svg>
