<?xml version="1.0" encoding="utf-8"?>
<!-- Generator: Adobe Illustrator 16.0.0, SVG Export Plug-In . SVG Version: 6.00 Build 0)  -->
<!DOCTYPE svg PUBLIC "-//W3C//DTD SVG 1.1//EN" "http://www.w3.org/Graphics/SVG/1.1/DTD/svg11.dtd">
<svg version="1.1" id="Capa_1" xmlns="http://www.w3.org/2000/svg" xmlns:xlink="http://www.w3.org/1999/xlink" x="0px" y="0px"
	 width="64px" height="64px" viewBox="0 0 64 64" enable-background="new 0 0 64 64" xml:space="preserve">
<path d="M53.006,59.778H35.588c-1.108,0-2.007-0.898-2.007-2.007v-4.461c0-1.865,1.117-3.55,2.836-4.275
	c0.615-0.261,0.914-0.978,0.672-1.599l-1.687-4.306c-0.171-0.436,0.043-0.926,0.478-1.099l13.271-5.256
	c0.421-0.161,0.761-0.483,0.942-0.896c0.183-0.413,0.193-0.88,0.03-1.301c-0.339-0.873-1.319-1.308-2.193-0.97L27.3,41.583
	c-0.623,0.24-0.988,0.959-0.813,1.604l0.243,0.756c0.089,0.279,0.028,0.584-0.161,0.808c-0.189,0.224-0.48,0.333-0.77,0.291
	c-1.96-0.287-5.383-1.673-6.554-7.543c-1.669-8.368,5.965-12.411,9.769-13.881c0.455-0.176,0.961-0.164,1.407,0.035
	c0.446,0.198,0.795,0.565,0.97,1.021l-0.662,0.348c-0.249,0.13-0.345,0.438-0.214,0.687c0.091,0.173,0.268,0.272,0.451,0.272
	c0.079,0,0.16-0.019,0.236-0.058l0.647-0.339c0.528,0.812,1.288,1.458,2.192,1.835l-0.111,0.804
	c-0.039,0.278,0.155,0.535,0.435,0.573c0.022,0.003,0.047,0.005,0.069,0.005c0.249,0,0.469-0.184,0.504-0.439l0.09-0.657
	c0.288,0.053,0.582,0.089,0.885,0.089c0.641,0,1.25-0.131,1.811-0.356l0.436,0.828c0.091,0.173,0.268,0.272,0.45,0.272
	c0.08,0,0.16-0.019,0.235-0.059c0.248-0.131,0.346-0.438,0.214-0.686l-0.435-0.826c0.736-0.497,1.319-1.196,1.692-2.011l0.615,0.324
	c0.076,0.04,0.156,0.059,0.236,0.059c0.183,0,0.359-0.099,0.45-0.272c0.131-0.248,0.035-0.556-0.214-0.686l-0.757-0.398
	c0.072-0.336,0.116-0.683,0.116-1.041c0-0.654-0.133-1.276-0.366-1.846l0.504-0.318c0.248-0.131,0.345-0.438,0.213-0.687
	c-0.13-0.25-0.439-0.342-0.687-0.214l-0.516,0.325c-0.325-0.475-0.737-0.879-1.209-1.208c-0.222-0.154-0.395-0.362-0.506-0.607
	L32.339,5.489c-0.483-1.064-1.731-1.545-2.804-1.08c-0.322,0.139-0.696-0.002-0.845-0.319l-1.144-2.431
	c-0.359-0.763-1.267-1.09-2.03-0.731c-0.762,0.359-1.089,1.268-0.731,2.03l1.079,2.291c0.077,0.164,0.084,0.353,0.021,0.522
	c-0.064,0.17-0.194,0.306-0.36,0.378c-0.521,0.227-0.932,0.651-1.141,1.18c-0.209,0.529-0.199,1.12,0.029,1.641l1.738,3.992
	c0.263,0.614-0.025,1.309-0.634,1.581c-4.891,2.2-15.104,8.597-12.542,22.958c1.264,7.085,5.128,10.372,8.291,11.894
	c1.606,0.773,2.631,2.402,2.631,4.185v4.082c0,1.108-0.898,2.007-2.007,2.007h-4.556c-0.667,0-1.204,0.54-1.195,1.212l0.008,2.337
	h38.072v-2.228C54.217,60.319,53.675,59.778,53.006,59.778z M27.605,17.28c0.46,0,0.831,0.373,0.831,0.833
	c-0.001,0.459-0.373,0.833-0.832,0.833c-0.46,0-0.831-0.374-0.831-0.833C26.773,17.652,27.146,17.28,27.605,17.28z M28.733,48.321
	c0.461,0,0.833,0.375,0.833,0.834c0,0.457-0.373,0.833-0.833,0.833S27.9,49.612,27.9,49.155
	C27.9,48.696,28.273,48.321,28.733,48.321z"/>
</svg>
