<?xml version="1.0" encoding="utf-8"?>
<!-- Generator: Adobe Illustrator 17.0.0, SVG Export Plug-In . SVG Version: 6.00 Build 0)  -->
<!DOCTYPE svg PUBLIC "-//W3C//DTD SVG 1.1//EN" "http://www.w3.org/Graphics/SVG/1.1/DTD/svg11.dtd">
<svg version="1.1" id="Capa_1" xmlns="http://www.w3.org/2000/svg" xmlns:xlink="http://www.w3.org/1999/xlink" x="0px" y="0px"
	 width="64px" height="64px" viewBox="0 0 64 64" enable-background="new 0 0 64 64" xml:space="preserve">
<g>
	<path d="M32,59.339c7.836,0,14.211-6.376,14.211-14.213c0-4.602-2.207-8.851-5.945-11.525V14.368c0-4.559-3.708-8.267-8.266-8.267
		c-4.559,0-8.268,3.708-8.268,8.267v19.233c-3.737,2.675-5.944,6.924-5.944,11.525C17.788,52.963,24.163,59.339,32,59.339z
		 M26.034,35.666l0.698-0.441v-7.439h3.422c0.276,0,0.5-0.224,0.5-0.5c0-0.276-0.224-0.5-0.5-0.5h-3.422v-5.151h3.422
		c0.276,0,0.5-0.224,0.5-0.5c0-0.276-0.224-0.5-0.5-0.5h-3.422v-5.152h3.422c0.276,0,0.5-0.224,0.5-0.5c0-0.276-0.224-0.5-0.5-0.5
		h-3.422v-0.115c0-2.904,2.363-5.267,5.268-5.267c2.903,0,5.266,2.363,5.266,5.267v20.857l0.698,0.441
		c3.286,2.076,5.247,5.612,5.247,9.459c0,6.183-5.029,11.213-11.211,11.213c-6.183,0-11.212-5.03-11.212-11.213
		C20.788,41.28,22.749,37.743,26.034,35.666z"/>
</g>
</svg>
