<?xml version="1.0" encoding="utf-8"?>
<!-- Generator: Adobe Illustrator 16.0.4, SVG Export Plug-In . SVG Version: 6.00 Build 0)  -->
<!DOCTYPE svg PUBLIC "-//W3C//DTD SVG 1.1//EN" "http://www.w3.org/Graphics/SVG/1.1/DTD/svg11.dtd">
<svg version="1.1" id="Layer_1" xmlns="http://www.w3.org/2000/svg" xmlns:xlink="http://www.w3.org/1999/xlink" x="0px" y="0px"
	 width="50px" height="50px" viewBox="0 0 50 50" enable-background="new 0 0 50 50" xml:space="preserve">
<path d="M21.186,44.828c0,0.276-0.225,0.5-0.5,0.5c-2.996,0-5.434-3.224-5.434-7.187c0-1.104,0.193-2.197,0.562-3.188
	c-1.266-1.17-1.984-2.807-1.984-4.543c0-0.826,0.16-1.629,0.479-2.387c0.002-0.006,0.008-0.01,0.012-0.018
	c-0.543-0.694-0.861-1.518-0.861-2.402c0-0.276,0.225-0.5,0.5-0.5s0.5,0.224,0.5,0.5c0,1.914,1.992,3.471,4.441,3.471
	c2.447,0,4.438-1.557,4.438-3.471v-2.05c0-0.276,0.224-0.5,0.5-0.5s0.5,0.224,0.5,0.5v2.05c0,2.465-2.44,4.471-5.438,4.471
	c-1.475,0-2.811-0.486-3.791-1.27c-0.17,0.52-0.278,1.053-0.278,1.605c0,1.559,0.692,3.021,1.897,4.014
	c0.172,0.142,0.229,0.377,0.144,0.582c-0.405,0.953-0.619,2.037-0.619,3.136c0,3.411,1.988,6.187,4.433,6.187
	C20.961,44.328,21.186,44.551,21.186,44.828z M14.52,18.676c1.223,0,2.367,0.48,3.226,1.354c0.094,0.096,0.223,0.148,0.356,0.148
	c0,0,0.002,0,0.004,0c0.135-0.001,0.265-0.057,0.356-0.154c0.481-0.504,1.029-0.938,1.63-1.293c0.508-0.298,1.061-0.538,1.639-0.714
	c0.211-0.063,0.355-0.258,0.355-0.479v-2.113c0-0.13-0.051-0.255-0.143-0.349c-0.994-1.023-1.564-2.491-1.564-4.025
	c0-2.967,2.073-5.381,4.621-5.381c2.549,0,4.622,2.414,4.622,5.381c0,1.533-0.57,3.001-1.565,4.025
	c-0.091,0.094-0.142,0.219-0.142,0.349v2.113c0,0.22,0.146,0.414,0.354,0.479c0.578,0.176,1.129,0.416,1.637,0.714
	c0.598,0.352,1.146,0.786,1.631,1.293c0.094,0.098,0.223,0.153,0.357,0.154c0.002,0,0.002,0,0.004,0
	c0.134,0,0.263-0.054,0.355-0.148c0.857-0.872,2.003-1.354,3.227-1.354c0.275,0,0.5-0.224,0.5-0.5c0-0.276-0.225-0.5-0.5-0.5
	c-1.324,0-2.576,0.462-3.571,1.31c-0.458-0.427-0.959-0.801-1.496-1.116c-0.472-0.277-0.974-0.51-1.498-0.693v-1.554
	c1.087-1.199,1.707-2.854,1.707-4.571c0-3.519-2.522-6.381-5.622-6.381s-5.621,2.862-5.621,6.381c0,1.72,0.62,3.373,1.707,4.572
	v1.553c-0.525,0.184-1.029,0.416-1.501,0.693c-0.538,0.316-1.039,0.691-1.495,1.116c-0.996-0.848-2.246-1.31-3.57-1.31
	c-0.275,0-0.5,0.224-0.5,0.5C14.02,18.453,14.243,18.676,14.52,18.676z M35.691,28.024c-0.004-0.006-0.008-0.01-0.012-0.017
	c0.543-0.694,0.861-1.518,0.861-2.403c0-0.276-0.225-0.5-0.5-0.5s-0.5,0.224-0.5,0.5c0,1.914-1.992,3.472-4.439,3.472
	c-2.449,0-4.439-1.558-4.439-3.472v-2.05c0-0.276-0.225-0.5-0.5-0.5c-0.276,0-0.5,0.224-0.5,0.5v2.05
	c0,2.465,2.439,4.472,5.439,4.472c1.473,0,2.809-0.486,3.789-1.271c0.17,0.521,0.279,1.055,0.279,1.604
	c0,1.56-0.691,3.021-1.9,4.014c-0.172,0.142-0.229,0.377-0.143,0.582c0.405,0.953,0.62,2.037,0.62,3.136
	c0,3.411-1.988,6.187-4.433,6.187c-0.276,0-0.5,0.225-0.5,0.5c0,0.276,0.224,0.5,0.5,0.5c2.994,0,5.433-3.224,5.433-7.187
	c0-1.104-0.194-2.198-0.563-3.188c1.268-1.17,1.986-2.807,1.986-4.543C36.171,29.588,36.01,28.785,35.691,28.024z M29.41,42.235
	c0.275,0,0.5-0.224,0.5-0.5v-5.88c0-2.707-2.203-4.91-4.91-4.91s-4.91,2.203-4.91,4.91v5.666c0,0.275,0.225,0.5,0.5,0.5
	c0.276,0,0.5-0.225,0.5-0.5v-5.666c0-2.156,1.754-3.91,3.91-3.91s3.91,1.754,3.91,3.91v5.88
	C28.91,42.012,29.134,42.235,29.41,42.235z M26.438,35.75c0.002,0,0.006,0,0.008,0c1.004,0,1.715-0.707,1.744-0.736
	c0.194-0.196,0.192-0.514-0.004-0.707c-0.194-0.193-0.514-0.191-0.707,0.004c-0.004,0.004-0.451,0.439-1.033,0.439
	c0,0-0.002,0-0.004,0c-0.319-0.002-0.635-0.148-0.94-0.422v-0.881c0-0.277-0.224-0.5-0.5-0.5s-0.5,0.223-0.5,0.5v0.881
	c-0.303,0.271-0.616,0.418-0.933,0.422c-0.596-0.033-1.037-0.432-1.049-0.442c-0.192-0.19-0.511-0.194-0.705-0.001
	c-0.195,0.195-0.197,0.512-0.004,0.707c0.03,0.029,0.742,0.736,1.746,0.736c0.002,0,0.006,0,0.008,0
	c0.324-0.002,0.637-0.074,0.937-0.217v0.795c-0.303,0.271-0.616,0.418-0.933,0.422c-0.596-0.01-1.037-0.432-1.049-0.442
	c-0.192-0.19-0.511-0.194-0.705-0.001c-0.195,0.195-0.197,0.512-0.004,0.707c0.03,0.029,0.742,0.736,1.746,0.736
	c0.002,0,0.006,0,0.008,0c0.324-0.002,0.637-0.074,0.937-0.217v1.062c-0.303,0.271-0.614,0.418-0.933,0.422
	c-0.596,0.035-1.035-0.432-1.049-0.441c-0.193-0.195-0.511-0.195-0.705-0.002c-0.195,0.193-0.197,0.512-0.004,0.707
	c0.03,0.029,0.742,0.736,1.746,0.736c0.002,0,0.006,0,0.008,0c0.324-0.001,0.637-0.075,0.937-0.217v0.191c0,0.275,0.224,0.5,0.5,0.5
	s0.5-0.225,0.5-0.5v-0.193c0.3,0.144,0.613,0.217,0.938,0.219c0.002,0,0.004,0,0.008,0c1.003,0,1.714-0.707,1.744-0.736
	c0.193-0.197,0.191-0.514-0.004-0.707c-0.197-0.195-0.515-0.191-0.707,0.004c-0.004,0.004-0.453,0.439-1.033,0.439
	c-0.002,0-0.004,0-0.004,0c-0.32-0.002-0.637-0.148-0.941-0.424v-1.061c0.301,0.143,0.613,0.215,0.938,0.217
	c0.002,0,0.006,0,0.009,0c1.003,0,1.714-0.707,1.743-0.736c0.195-0.196,0.193-0.514-0.004-0.707
	c-0.194-0.195-0.514-0.191-0.707,0.004c-0.004,0.004-0.451,0.439-1.032,0.439c-0.001,0-0.003,0-0.005,0
	c-0.319-0.002-0.635-0.148-0.94-0.422v-0.795C25.8,35.674,26.113,35.748,26.438,35.75z M25,41.258c-0.334,0-0.604,0.271-0.604,0.605
	c0,0.332,0.271,0.604,0.604,0.604s0.604-0.27,0.604-0.604C25.604,41.528,25.334,41.258,25,41.258z M30.664,27.42
	c0,0.396,0.336,0.719,0.752,0.719s0.753-0.321,0.753-0.719c0-0.396-0.337-0.717-0.753-0.717S30.664,27.024,30.664,27.42z
	 M17.831,27.42c0,0.396,0.337,0.719,0.753,0.719s0.752-0.321,0.752-0.719c0-0.396-0.336-0.717-0.752-0.717
	S17.831,27.024,17.831,27.42z"/>
</svg>
