<?xml version="1.0" encoding="utf-8"?>
<!-- Generator: Adobe Illustrator 16.0.4, SVG Export Plug-In . SVG Version: 6.00 Build 0)  -->
<!DOCTYPE svg PUBLIC "-//W3C//DTD SVG 1.1//EN" "http://www.w3.org/Graphics/SVG/1.1/DTD/svg11.dtd">
<svg version="1.1" id="Layer_1" xmlns="http://www.w3.org/2000/svg" xmlns:xlink="http://www.w3.org/1999/xlink" x="0px" y="0px"
	 width="50px" height="50px" viewBox="0 0 50 50" enable-background="new 0 0 50 50" xml:space="preserve">
<g>
	<path d="M31.496,13.973c-0.438-0.063-1.438-0.088-2.041-0.098l-0.036-1.147c-0.065-0.593-0.549-1.738-1.94-1.841l-4.994,0.001
		c-1.354,0.102-1.837,1.247-1.906,1.88l-0.034,1.107c-0.602,0.01-1.602,0.033-2.04,0.098c-4.612,0.666-5.447,9.183-5.48,9.545
		c-0.013,0.14,0.034,0.278,0.129,0.383c0.095,0.104,0.229,0.163,0.369,0.163h2.529c0.119,1.002,0.496,2.01,1.138,2.889
		c0.23,0.315,0.487,0.603,0.763,0.857c0.849,3.591,0.207,4.944-0.111,5.359c-2.121,2.774-2.535,5.263-2.552,5.366
		c-0.043,0.272,0.144,0.528,0.416,0.572l0.079,0.006c0.241,0,0.454-0.176,0.493-0.422c0.003-0.023,0.389-2.339,2.358-4.915
		c0.766-1.003,0.938-2.765,0.512-5.131c0.514,0.264,1.059,0.439,1.616,0.504c0.164,0.019,0.328,0.027,0.49,0.027
		c0.971,0,1.888-0.336,2.622-0.969c0.492-0.424,0.865-0.955,1.124-1.546c0.259,0.591,0.632,1.122,1.124,1.546
		c0.735,0.633,1.651,0.969,2.622,0.969c0.162,0,0.326-0.01,0.49-0.027c0.558-0.064,1.103-0.24,1.615-0.504
		c-0.426,2.367-0.254,4.128,0.512,5.131c1.96,2.562,2.355,4.893,2.359,4.916c0.039,0.245,0.252,0.421,0.492,0.421l0.08-0.007
		c0.271-0.044,0.458-0.299,0.415-0.571c-0.017-0.104-0.431-2.592-2.552-5.366c-0.317-0.415-0.959-1.769-0.111-5.358
		c0.277-0.255,0.534-0.542,0.764-0.857c0.643-0.879,1.02-1.886,1.138-2.889h2.528c0.142,0,0.274-0.061,0.369-0.163
		c0.096-0.104,0.143-0.243,0.129-0.383C36.943,23.154,36.107,14.639,31.496,13.973z M33.982,23.062
		c-0.07-1.309-0.592-2.529-1.547-3.354c-0.207-0.179-0.524-0.157-0.705,0.053s-0.156,0.524,0.053,0.705
		c1.531,1.32,1.631,3.966,0.222,5.896c-0.741,1.015-1.792,1.668-2.883,1.794c-0.871,0.093-1.702-0.151-2.347-0.705
		c-1.53-1.318-1.629-3.961-0.219-5.892c0.162-0.224,0.113-0.536-0.108-0.698s-0.535-0.114-0.698,0.107
		c-0.325,0.444-0.56,0.927-0.75,1.419c-0.19-0.492-0.425-0.975-0.75-1.419c-0.163-0.224-0.478-0.271-0.698-0.107
		c-0.223,0.162-0.271,0.476-0.108,0.698c1.41,1.931,1.312,4.572-0.22,5.892c-0.644,0.554-1.477,0.798-2.346,0.705
		c-1.091-0.126-2.142-0.779-2.882-1.794c-1.41-1.93-1.311-4.574,0.221-5.896c0.209-0.181,0.232-0.495,0.053-0.705
		s-0.497-0.23-0.705-0.053c-0.956,0.824-1.477,2.046-1.547,3.354h-1.931c0.254-1.827,1.315-7.633,4.56-8.102
		c0.47-0.067,1.881-0.09,2.385-0.092c0.27-0.001,0.489-0.216,0.498-0.484l0.046-1.548c0.004-0.037,0.108-0.889,0.946-0.952
		l4.919-0.001c0.846,0.062,0.974,0.865,0.98,0.913l0.049,1.588c0.01,0.27,0.229,0.483,0.498,0.484
		c0.504,0.002,1.915,0.023,2.385,0.092c3.244,0.469,4.307,6.273,4.561,8.102H33.982z"/>
	<circle cx="24.779" cy="35.037" r="0.729"/>
</g>
</svg>
