<?xml version="1.0" encoding="utf-8"?>
<!-- Generator: Adobe Illustrator 16.0.4, SVG Export Plug-In . SVG Version: 6.00 Build 0)  -->
<!DOCTYPE svg PUBLIC "-//W3C//DTD SVG 1.1//EN" "http://www.w3.org/Graphics/SVG/1.1/DTD/svg11.dtd">
<svg version="1.1" id="Layer_1" xmlns="http://www.w3.org/2000/svg" xmlns:xlink="http://www.w3.org/1999/xlink" x="0px" y="0px"
	 width="50px" height="50px" viewBox="0 0 50 50" enable-background="new 0 0 50 50" xml:space="preserve">
<path d="M40.721,31.698c0,0.275-0.224,0.5-0.5,0.5l-4.461-0.002c-0.27,1.693-1.887,2.99-3.835,2.99h-0.669H17.864h-0.105
	c-1.245,0-2.258-1.104-2.258-2.457c0-0.56,0.179-1.066,0.468-1.479h-1.057c-1.245,0-2.258-1.08-2.258-2.41
	c0-0.521,0.158-0.998,0.422-1.394h-1.68c-1.244,0-2.258-1.09-2.258-2.43c0-1.342,1.014-2.434,2.258-2.434h0.56
	c-0.267-0.398-0.427-0.885-0.427-1.412c0-1.342,1.013-2.434,2.258-2.434h5.436c-0.279-0.41-0.451-0.912-0.451-1.461
	c0-1.357,1.013-2.463,2.258-2.463h4.289c0.005,0,0.01,0.004,0.015,0.004h6.593c2.137,0,3.874,1.608,3.874,3.588v0.654l4.558-0.035
	c0.002,0,0.004,0,0.004,0c0.274,0,0.498,0.221,0.5,0.496c0.003,0.274-0.219,0.502-0.495,0.504l-5.062,0.039
	c-0.002,0-0.004,0-0.004,0c-0.133,0-0.26-0.052-0.354-0.146S34.8,19.694,34.8,19.563v-1.158c0-1.428-1.289-2.588-2.874-2.588H21.029
	c-0.002,0-0.006-0.002-0.008-0.002c-0.689,0.006-1.25,0.658-1.25,1.461c0,0.805,0.564,1.461,1.258,1.461h4.289
	c0.043,0,0.08,0.016,0.119,0.022c0.022-0.002,0.045-0.014,0.068-0.014c0.276,0,0.5,0.226,0.5,0.5c0,1.065,0.172,1.5,1.9,1.5h3.656
	c0.275,0,0.5,0.223,0.5,0.5c0,0.274-0.225,0.5-0.5,0.5h-3.656c-1.883,0-2.723-0.578-2.87-2.011h-4.007h-7.241
	c-0.692,0-1.258,0.646-1.258,1.435c0,0.724,0.476,1.315,1.088,1.412h11.7c0.275,0,0.5,0.226,0.5,0.5c0,0.004-0.002,0.008-0.002,0.01
	c0,0.005,0.002,0.007,0.002,0.011c0,0.276-0.225,0.5-0.5,0.5h-11.53c-0.062,0-0.119-0.015-0.181-0.021h-2.209
	c-0.693,0-1.258,0.644-1.258,1.435c0,0.789,0.563,1.43,1.258,1.43h3.352c0.055-0.004,0.107-0.019,0.163-0.019h10.405
	c0.275,0,0.5,0.226,0.5,0.5c0,0.005-0.002,0.007-0.002,0.011c0,0.002,0.002,0.006,0.002,0.008c0,0.277-0.225,0.5-0.5,0.5H14.757
	c-0.618,0.088-1.103,0.676-1.103,1.393c0,0.777,0.564,1.41,1.258,1.41h10.404c0.277,0,0.5,0.225,0.5,0.5
	c0,0.006-0.002,0.008-0.002,0.014c0,0.004,0.002,0.008,0.002,0.012c0,0.277-0.223,0.5-0.5,0.5h-7.559
	c-0.693,0-1.258,0.652-1.258,1.453c0,0.803,0.564,1.457,1.258,1.457h0.105h13.392h0.669c1.586,0,2.874-1.11,2.874-2.477
	c0-0.133,0.054-0.266,0.146-0.359c0.094-0.093,0.222-0.154,0.354-0.154l4.923,0.002C40.497,31.198,40.721,31.421,40.721,31.698z
	 M34.906,27.165l-1.166,0.953l0.957,1.17c0.312,0.383,0.258,0.951-0.124,1.268l-1.679,1.371c-0.162,0.133-0.361,0.203-0.567,0.203
	c-0.032,0-0.063-0.002-0.097-0.006c-0.238-0.025-0.455-0.143-0.605-0.33l-0.953-1.166l-1.17,0.957
	c-0.161,0.131-0.363,0.203-0.57,0.203c-0.271,0-0.527-0.121-0.699-0.33l-1.367-1.674c-0.153-0.188-0.225-0.424-0.2-0.664
	s0.142-0.455,0.327-0.605l1.169-0.957l-0.958-1.17c-0.152-0.186-0.223-0.42-0.198-0.66s0.142-0.457,0.329-0.608l1.672-1.365
	c0.186-0.153,0.424-0.229,0.661-0.201c0.24,0.023,0.457,0.14,0.608,0.326l0.955,1.17l1.17-0.957c0.373-0.305,0.97-0.241,1.271,0.134
	l1.367,1.668c0.154,0.19,0.225,0.428,0.197,0.668C35.211,26.8,35.094,27.015,34.906,27.165z M28.934,26.925l1.523-1.244
	l-0.895-1.094l-1.523,1.246L28.934,26.925z M32.967,28.751l-1.521,1.244l0.896,1.094l1.521-1.244L32.967,28.751z M34.202,26.45
	l-1.247-1.521L27.7,29.226l1.243,1.523L34.202,26.45z"/>
</svg>
