<?xml version="1.0" encoding="UTF-8" standalone="no"?>
<svg width="230px" height="67px" viewBox="0 0 230 67" version="1.1" xmlns="http://www.w3.org/2000/svg" xmlns:xlink="http://www.w3.org/1999/xlink">
    <!-- Generator: Sketch 3.7.2 (28276) - http://www.bohemiancoding.com/sketch -->
    <title>codility_color_67x230-original</title>
    <desc>Created with Sketch.</desc>
    <defs>
        <polygon id="path-1" points="0.06 0.451 0.06 38.064 25.897 38.064 25.897 0.451 0.06 0.451"></polygon>
        <polygon id="path-3" points="0.168 59.94 57.048 59.94 57.048 30.0985 57.048 0.257 0.168 0.257 0.168 59.94"></polygon>
    </defs>
    <g id="Page-1" stroke="none" stroke-width="1" fill="none" fill-rule="evenodd">
        <g id="codility_color_67x230-original">
            <g id="Codility-znak-bez_podpisu-RGB">
                <g id="Group-3" transform="translate(0.000000, 14.000000)">
                    <mask id="mask-2" fill="white">
                        <use xlink:href="#path-1"></use>
                    </mask>
                    <g id="Clip-2"></g>
                    <path d="M18.772,11.893 L18.772,6.891 C17.676,6.754 16.511,6.617 15.278,6.617 C9.317,6.617 7.811,10.18 7.811,14.701 L7.811,23.813 C7.811,28.335 9.317,31.898 15.278,31.898 C19.457,31.898 22.472,31.35 25.007,30.87 L25.897,36.488 C23.773,37.036 19.389,38.064 15.278,38.064 C4.042,38.064 0,32.651 0,22.923 L0,15.592 C0,5.863 4.042,0.451 15.278,0.451 C19.526,0.451 23.362,1.753 25.281,2.437 L25.281,11.893 L18.772,11.893" id="Fill-1" fill="#1B6994" mask="url(#mask-2)"></path>
                </g>
                <path d="M80.22,46.378 C82.481,46.378 87.071,44.733 89.059,43.979 L89.059,24.591 C87.071,23.221 82.481,20.549 80.22,20.549 C77.274,20.549 77.001,23.152 77.001,27.058 L77.001,39.458 C77.001,43.568 77.274,46.378 80.22,46.378 L80.22,46.378 Z M96.869,45.35 L100.842,45.35 L100.842,51.379 L89.059,51.379 L89.059,48.09 C85.976,49.598 80.837,52.064 77.206,52.064 C69.601,52.064 69.19,45.967 69.19,39.047 L69.19,27.468 C69.19,20.549 69.601,14.451 77.206,14.451 C80.837,14.451 85.976,17.877 89.059,20 L89.059,6.366 L85.085,6.366 L85.085,0.338 L96.869,0.338 L96.869,45.35 L96.869,45.35 Z" id="Fill-4" fill="#1B6994"></path>
                <polyline id="Fill-5" fill="#0E0F12" points="123.755 51.379 107.518 51.379 107.518 45.35 111.834 45.35 111.834 21.165 107.723 21.165 107.723 15.136 119.575 15.136 119.575 45.35 123.755 45.35 123.755 51.379"></polyline>
                <polyline id="Fill-6" fill="#1B6994" points="146.187 51.379 129.88 51.379 129.88 45.35 133.991 45.35 133.991 6.366 130.018 6.366 130.018 0.338 141.87 0.338 141.87 45.35 146.187 45.35 146.187 51.379"></polyline>
                <polyline id="Fill-7" fill="#0E0F12" points="168.481 51.379 152.243 51.379 152.243 45.35 156.56 45.35 156.56 21.165 152.449 21.165 152.449 15.136 164.302 15.136 164.302 45.35 168.481 45.35 168.481 51.379"></polyline>
                <g id="Group-11" transform="translate(172.000000, 7.000000)">
                    <mask id="mask-4" fill="white">
                        <use xlink:href="#path-3"></use>
                    </mask>
                    <g id="Clip-9"></g>
                    <path d="M22.503,43.009 C18.667,44.311 16.132,45.064 13.392,45.064 C8.39,45.064 4.759,42.598 4.759,35.952 L4.759,14.302 L0.168,14.302 L0.168,8.136 L4.759,8.136 L4.759,0.257 L12.569,0.257 L12.569,8.136 L20.585,8.136 L20.585,14.302 L12.569,14.302 L12.569,35.814 C12.569,37.802 13.322,38.624 14.898,38.624 C16.542,38.624 18.598,37.938 20.722,37.116 L22.503,43.009" id="Fill-8" fill="#1B6994" mask="url(#mask-4)"></path>
                    <path d="M25.259,14.165 L25.259,8.136 L37.042,8.136 L37.042,32.458 C37.042,36.568 37.386,39.378 40.263,39.378 C42.661,39.378 47.388,37.597 49.237,36.911 L49.237,14.165 L45.265,14.165 L45.265,8.136 L57.048,8.136 L57.048,48.764 C57.048,58.287 51.499,60 47.251,60 C43.208,60 35.673,58.149 29.644,56.574 L31.22,50.956 C37.042,52.394 43.346,53.834 45.606,53.834 C49.101,53.834 49.237,51.367 49.237,46.297 L49.237,41.021 C46.224,42.529 40.948,45.064 37.248,45.064 C29.644,45.064 29.232,38.967 29.232,32.047 L29.232,14.165 L25.259,14.165" id="Fill-10" fill="#1B6994" mask="url(#mask-4)"></path>
                </g>
                <path d="M46.879,46.378 C44.844,46.378 43.369,46.029 42.339,45.406 L53.456,28.296 L53.456,41.514 C53.456,44.459 51.743,46.378 46.879,46.378 L46.879,46.378 Z M46.879,20.138 C48.969,20.138 50.474,20.456 51.514,21.066 L40.37,38.219 L40.37,25.002 C40.37,21.851 42.083,20.138 46.879,20.138 L46.879,20.138 Z M46.879,14.451 C37.15,14.451 32.628,17.466 32.628,24.934 L32.628,41.582 C32.628,49.05 37.15,52.064 46.879,52.064 C56.607,52.064 61.198,49.05 61.198,41.582 L61.198,24.934 C61.198,17.466 56.607,14.451 46.879,14.451 L46.879,14.451 Z" id="Fill-12" fill="#0E0F12"></path>
            </g>
        </g>
    </g>
</svg>